# Blender v2.83.5 OBJ File: ''
# www.blender.org
mtllib leaves_palm_big.mtl
o Plane_Plane.001
v 0.811451 0.247032 3.534343
v 1.002273 0.247837 3.506945
v 0.507154 0.085821 0.677804
v 0.563961 0.153442 0.590756
v 0.226453 0.734809 2.017347
v 1.089872 0.762670 2.143685
v 0.906253 0.577826 1.465571
v 0.240138 0.616376 1.312529
v 0.463964 0.574515 2.643201
v 1.114655 0.560934 2.695934
v 0.909694 0.247746 3.529984
v 0.491120 0.154301 0.612006
v 0.462825 0.880189 2.083326
v 0.441077 0.752742 1.368205
v 0.617991 0.721524 2.725412
v 0.959381 0.247795 3.517619
v 0.530213 0.153840 0.600602
v 0.857021 0.881693 2.021496
v 0.720947 0.753471 1.323858
v 0.910285 0.722597 2.678212
vt 0.768349 0.742308
vt 1.000000 0.742308
vt 1.000000 1.000000
vt 0.768349 1.000000
vt 0.768349 0.278846
vt 1.000000 0.278846
vt 1.000000 0.500000
vt 0.768349 0.500000
vt 0.768349 0.000000
vt 1.000000 0.000000
vt 0.000000 0.000000
vt 0.500000 0.000000
vt 0.500000 0.278846
vt 0.000000 0.278846
vt 0.000000 0.500000
vt 0.500000 0.500000
vt 0.500000 0.742308
vt 0.000000 0.742308
vt 0.500000 1.000000
vt 0.000000 1.000000
vn 0.7009 0.4710 -0.5356
vn 0.4750 0.8512 0.2234
vn 0.6704 0.6744 -0.3093
vn 0.4961 0.7760 0.3895
vn -0.5457 0.6593 0.5172
vn -0.5073 0.8496 -0.1442
vn -0.6428 0.6718 0.3681
vn -0.6217 0.5328 -0.5742
vn 0.0817 0.8705 0.4853
vn -0.0308 0.9841 -0.1747
vn 0.0333 0.9720 0.2325
vn -0.1089 0.7776 -0.6193
usemtl None
s off
f 19/1/1 7/2/1 4/3/1 17/4/1
f 20/5/2 10/6/2 6/7/2 18/8/2
f 18/8/3 6/7/3 7/2/3 19/1/3
f 16/9/4 2/10/4 10/6/4 20/5/4
f 1/11/5 11/12/5 15/13/5 9/14/5
f 5/15/6 13/16/6 14/17/6 8/18/6
f 9/14/7 15/13/7 13/16/7 5/15/7
f 8/18/8 14/17/8 12/19/8 3/20/8
f 11/12/9 16/9/9 20/5/9 15/13/9
f 13/16/10 18/8/10 19/1/10 14/17/10
f 15/13/11 20/5/11 18/8/11 13/16/11
f 14/17/12 19/1/12 17/4/12 12/19/12
o Plane.001_Plane.002
v 0.408171 0.183280 0.605196
v 0.598992 0.184086 0.577798
v 0.103873 0.022069 -2.251344
v 0.160680 0.089691 -2.338391
v -0.176828 0.671057 -0.911801
v 0.686591 0.698918 -0.785462
v 0.502972 0.514074 -1.463576
v -0.163142 0.552625 -1.616619
v 0.060683 0.510763 -0.285947
v 0.711374 0.497183 -0.233213
v 0.506413 0.183995 0.600837
v 0.087839 0.090549 -2.317141
v 0.059545 0.816437 -0.845821
v 0.037797 0.688990 -1.560943
v 0.214710 0.657772 -0.203735
v 0.556100 0.184043 0.588472
v 0.126933 0.090088 -2.328546
v 0.453741 0.817941 -0.907652
v 0.317666 0.689719 -1.605289
v 0.507005 0.658845 -0.250935
vt 0.768349 0.742308
vt 1.000000 0.742308
vt 1.000000 1.000000
vt 0.768349 1.000000
vt 0.768349 0.278846
vt 1.000000 0.278846
vt 1.000000 0.500000
vt 0.768349 0.500000
vt 0.768349 0.000000
vt 1.000000 0.000000
vt 0.000000 0.000000
vt 0.500000 0.000000
vt 0.500000 0.278846
vt 0.000000 0.278846
vt 0.000000 0.500000
vt 0.500000 0.500000
vt 0.500000 0.742308
vt 0.000000 0.742308
vt 0.500000 1.000000
vt 0.000000 1.000000
vn 0.7009 0.4710 -0.5356
vn 0.4750 0.8512 0.2234
vn 0.6704 0.6744 -0.3093
vn 0.4961 0.7760 0.3895
vn -0.5457 0.6593 0.5172
vn -0.5073 0.8496 -0.1442
vn -0.6428 0.6718 0.3681
vn -0.6217 0.5328 -0.5742
vn 0.0817 0.8705 0.4853
vn -0.0308 0.9841 -0.1747
vn 0.0333 0.9720 0.2325
vn -0.1089 0.7776 -0.6193
usemtl None
s off
f 39/21/13 27/22/13 24/23/13 37/24/13
f 40/25/14 30/26/14 26/27/14 38/28/14
f 38/28/15 26/27/15 27/22/15 39/21/15
f 36/29/16 22/30/16 30/26/16 40/25/16
f 21/31/17 31/32/17 35/33/17 29/34/17
f 25/35/18 33/36/18 34/37/18 28/38/18
f 29/34/19 35/33/19 33/36/19 25/35/19
f 28/38/20 34/37/20 32/39/20 23/40/20
f 31/32/21 36/29/21 40/25/21 35/33/21
f 33/36/22 38/28/22 39/21/22 34/37/22
f 35/33/23 40/25/23 38/28/23 33/36/23
f 34/37/24 39/21/24 37/24/24 32/39/24
o Plane.002_Plane.003
v -2.485918 0.227746 1.195528
v -2.439447 0.233904 1.382521
v 0.329383 0.163268 0.605333
v 0.419061 0.235280 0.651691
v -1.055567 0.756693 0.450047
v -1.095074 0.799678 1.321151
v -0.432370 0.635386 1.073055
v -0.348945 0.664229 0.394213
v -1.647633 0.579288 0.753008
v -1.633850 0.578677 1.405827
v -2.471694 0.230863 1.292786
v 0.390549 0.233703 0.581387
v -1.102878 0.904949 0.689093
v -0.389244 0.803042 0.597139
v -1.719456 0.726702 0.911769
v -2.454387 0.232495 1.340946
v 0.405851 0.234549 0.619119
v -1.001673 0.917700 1.074852
v -0.316932 0.811773 0.870980
v -1.643067 0.736164 1.197672
vt 0.768349 0.742308
vt 1.000000 0.742308
vt 1.000000 1.000000
vt 0.768349 1.000000
vt 0.768349 0.278846
vt 1.000000 0.278846
vt 1.000000 0.500000
vt 0.768349 0.500000
vt 0.768349 0.000000
vt 1.000000 0.000000
vt 0.000000 0.000000
vt 0.500000 0.000000
vt 0.500000 0.278846
vt 0.000000 0.278846
vt 0.000000 0.500000
vt 0.500000 0.500000
vt 0.500000 0.742308
vt 0.000000 0.742308
vt 0.500000 1.000000
vt 0.000000 1.000000
vn 0.5851 0.5060 0.6337
vn -0.2068 0.8532 0.4789
vn 0.3493 0.7003 0.6225
vn -0.3669 0.7725 0.5183
vn -0.5946 0.6275 -0.5027
vn 0.0596 0.8425 -0.5354
vn -0.4566 0.6431 -0.6147
vn 0.4876 0.5389 -0.6869
vn -0.5077 0.8540 0.1140
vn 0.1328 0.9889 -0.0671
vn -0.2651 0.9635 0.0382
vn 0.5749 0.7968 -0.1861
usemtl None
s off
f 59/41/25 47/42/25 44/43/25 57/44/25
f 60/45/26 50/46/26 46/47/26 58/48/26
f 58/48/27 46/47/27 47/42/27 59/41/27
f 56/49/28 42/50/28 50/46/28 60/45/28
f 41/51/29 51/52/29 55/53/29 49/54/29
f 45/55/30 53/56/30 54/57/30 48/58/30
f 49/54/31 55/53/31 53/56/31 45/55/31
f 48/58/32 54/57/32 52/59/32 43/60/32
f 51/52/33 56/49/33 60/45/33 55/53/33
f 53/56/34 58/48/34 59/41/34 54/57/34
f 55/53/35 60/45/35 58/48/35 53/56/35
f 54/57/36 59/41/36 57/44/36 52/59/36
o Plane.003_Plane.004
v 0.624000 0.313592 0.429425
v 0.670470 0.319751 0.616418
v 3.439301 0.249115 -0.160770
v 3.528978 0.321127 -0.114412
v 2.054351 0.842540 -0.316056
v 2.014843 0.885525 0.555048
v 2.677548 0.721233 0.306951
v 2.760973 0.750076 -0.371890
v 1.462285 0.665135 -0.013096
v 1.476068 0.664524 0.639724
v 0.638223 0.316709 0.526682
v 3.500466 0.319550 -0.184717
v 2.007040 0.990796 -0.077011
v 2.720674 0.888889 -0.168965
v 1.390462 0.812549 0.145666
v 0.655530 0.318342 0.574843
v 3.515769 0.320396 -0.146985
v 2.108244 1.003546 0.308749
v 2.792985 0.897620 0.104877
v 1.466851 0.822010 0.431569
vt 0.179408 0.757760
vt 0.251771 0.710598
vt 0.219016 0.861640
vt 0.144807 0.995689
vt 0.164290 0.385620
vt 0.239775 0.314629
vt 0.248801 0.550062
vt 0.178697 0.584011
vt 0.123546 0.266384
vt 0.151740 0.269032
vt 0.078793 0.271332
vt 0.098297 0.273186
vt 0.078213 0.390180
vt -0.002682 0.337600
vt -0.002415 0.569625
vt 0.075135 0.591065
vt 0.079402 0.759204
vt -0.005814 0.733813
vt 0.117477 0.998838
vt 0.031838 0.864326
vn 0.5851 0.5060 0.6337
vn -0.2068 0.8532 0.4789
vn 0.3493 0.7003 0.6225
vn -0.3669 0.7725 0.5183
vn -0.5946 0.6275 -0.5027
vn 0.0596 0.8425 -0.5354
vn -0.4566 0.6431 -0.6147
vn 0.4876 0.5389 -0.6869
vn -0.5077 0.8540 0.1140
vn 0.1328 0.9889 -0.0671
vn -0.2651 0.9635 0.0382
vn 0.5749 0.7968 -0.1861
usemtl Material.001
s off
f 79/61/37 67/62/37 64/63/37 77/64/37
f 80/65/38 70/66/38 66/67/38 78/68/38
f 78/68/39 66/67/39 67/62/39 79/61/39
f 76/69/40 62/70/40 70/66/40 80/65/40
f 61/71/41 71/72/41 75/73/41 69/74/41
f 65/75/42 73/76/42 74/77/42 68/78/42
f 69/74/43 75/73/43 73/76/43 65/75/43
f 68/78/44 74/77/44 72/79/44 63/80/44
f 71/72/45 76/69/45 80/65/45 75/73/45
f 73/76/46 78/68/46 79/61/46 74/77/46
f 75/73/47 80/65/47 78/68/47 73/76/47
f 74/77/48 79/61/48 77/64/48 72/79/48
o Plane.004_Plane.005
v 0.495523 0.138014 0.588803
v 0.572929 0.088590 0.419305
v -1.377188 1.771686 -0.861189
v -1.353886 1.852374 -0.952421
v -0.321570 1.576169 0.207361
v 0.186594 1.226052 -0.410230
v -0.409652 1.543775 -0.677185
v -0.793122 1.890403 -0.228389
v 0.040980 1.014478 0.371251
v 0.376824 0.749531 -0.122080
v 0.541095 0.107167 0.507300
v -1.376545 1.865877 -0.881270
v -0.072800 1.564195 0.068326
v -0.573355 1.889923 -0.345752
v 0.260162 1.022753 0.308121
v 0.558180 0.097197 0.460074
v -1.364384 1.858630 -0.919456
v 0.084035 1.464995 -0.284913
v -0.462485 1.819501 -0.596836
v 0.375661 0.949945 0.045396
vt 0.768349 0.742308
vt 1.000000 0.742308
vt 1.000000 1.000000
vt 0.768349 1.000000
vt 0.768349 0.278846
vt 1.000000 0.278846
vt 1.000000 0.500000
vt 0.768349 0.500000
vt 0.768349 0.000000
vt 1.000000 0.000000
vt 0.000000 0.000000
vt 0.500000 0.000000
vt 0.500000 0.278846
vt 0.000000 0.278846
vt 0.000000 0.500000
vt 0.500000 0.500000
vt 0.500000 0.742308
vt 0.000000 0.742308
vt 0.500000 1.000000
vt 0.000000 1.000000
vn 0.3501 0.4159 -0.8393
vn 0.9242 0.3375 -0.1790
vn 0.5992 0.4465 -0.6645
vn 0.9783 0.1787 -0.1046
vn 0.4685 0.3780 0.7986
vn 0.2394 0.8872 0.3943
vn 0.3453 0.5068 0.7899
vn -0.2708 0.9402 0.2067
vn 0.8950 0.3363 0.2930
vn 0.5425 0.8400 0.0046
vn 0.7961 0.5741 0.1917
vn 0.1151 0.9705 -0.2116
usemtl None
s off
f 99/81/49 87/82/49 84/83/49 97/84/49
f 100/85/50 90/86/50 86/87/50 98/88/50
f 98/88/51 86/87/51 87/82/51 99/81/51
f 96/89/52 82/90/52 90/86/52 100/85/52
f 81/91/53 91/92/53 95/93/53 89/94/53
f 85/95/54 93/96/54 94/97/54 88/98/54
f 89/94/55 95/93/55 93/96/55 85/95/55
f 88/98/56 94/97/56 92/99/56 83/100/56
f 91/92/57 96/89/57 100/85/57 95/93/57
f 93/96/58 98/88/58 99/81/58 94/97/58
f 95/93/59 100/85/59 98/88/59 93/96/59
f 94/97/60 99/81/60 97/84/60 92/99/60
o Plane.005_Plane.006
v 0.640651 0.031612 0.526771
v 0.563405 -0.008636 0.698751
v 2.479053 1.783631 1.879219
v 2.453994 1.869358 1.965241
v 1.431366 1.504479 0.821495
v 0.926739 1.184212 1.457900
v 1.516338 1.528059 1.706623
v 1.895653 1.853054 1.238526
v 1.079186 0.927560 0.691369
v 0.745904 0.687644 1.199038
v 0.595279 0.005047 0.609878
v 2.476710 1.878854 1.893465
v 1.182266 1.496753 0.960240
v 1.675444 1.855970 1.355022
v 0.859636 0.935889 0.753198
v 0.578172 -0.002297 0.657576
v 2.464518 1.873757 1.931987
v 1.025699 1.416745 1.318431
v 1.564763 1.799201 1.609622
v 0.744319 0.877374 1.019550
vt 0.768349 0.742308
vt 1.000000 0.742308
vt 1.000000 1.000000
vt 0.768349 1.000000
vt 0.768349 0.278846
vt 1.000000 0.278846
vt 1.000000 0.500000
vt 0.768349 0.500000
vt 0.768349 0.000000
vt 1.000000 0.000000
vt 0.000000 0.000000
vt 0.500000 0.000000
vt 0.500000 0.278846
vt 0.000000 0.278846
vt 0.000000 0.500000
vt 0.500000 0.500000
vt 0.500000 0.742308
vt 0.000000 0.742308
vt 0.500000 1.000000
vt 0.000000 1.000000
vn -0.3607 0.4606 0.8110
vn -0.9306 0.3317 0.1551
vn -0.6096 0.4760 0.6339
vn -0.9817 0.1677 0.0904
vn -0.4716 0.3200 -0.8217
vn -0.2529 0.8570 -0.4489
vn -0.3507 0.4512 -0.8207
vn 0.2555 0.9303 -0.2633
vn -0.8994 0.3020 -0.3159
vn -0.5569 0.8286 -0.0579
vn -0.8050 0.5473 -0.2291
vn -0.1326 0.9796 0.1512
usemtl None
s off
f 119/101/61 107/102/61 104/103/61 117/104/61
f 120/105/62 110/106/62 106/107/62 118/108/62
f 118/108/63 106/107/63 107/102/63 119/101/63
f 116/109/64 102/110/64 110/106/64 120/105/64
f 101/111/65 111/112/65 115/113/65 109/114/65
f 105/115/66 113/116/66 114/117/66 108/118/66
f 109/114/67 115/113/67 113/116/67 105/115/67
f 108/118/68 114/117/68 112/119/68 103/120/68
f 111/112/69 116/109/69 120/105/69 115/113/69
f 113/116/70 118/108/70 119/101/70 114/117/70
f 115/113/71 120/105/71 118/108/71 113/116/71
f 114/117/72 119/101/72 117/104/72 112/119/72
o Plane.006_Plane.007
v 0.527248 0.161771 0.481547
v 0.710199 0.119831 0.525523
v 1.527629 1.798906 -1.662615
v 1.618578 1.883108 -1.658713
v 0.690442 1.592472 -0.417282
v 1.406927 1.275015 -0.032443
v 1.542037 1.587521 -0.674164
v 1.015217 1.910011 -0.969253
v 0.620446 1.034205 -0.020750
v 1.178728 0.793706 0.217672
v 0.617092 0.134723 0.511002
v 1.543944 1.893704 -1.667407
v 0.875139 1.590916 -0.199921
v 1.172648 1.918543 -0.776343
v 0.724260 1.049664 0.181927
v 0.667062 0.126731 0.518795
v 1.584000 1.888017 -1.662741
v 1.255410 1.507205 -0.112733
v 1.442826 1.859117 -0.714969
v 1.006833 0.988350 0.245631
vt 0.768349 0.742308
vt 1.000000 0.742308
vt 1.000000 1.000000
vt 0.768349 1.000000
vt 0.768349 0.278846
vt 1.000000 0.278846
vt 1.000000 0.500000
vt 0.768349 0.500000
vt 0.768349 0.000000
vt 1.000000 0.000000
vt 0.000000 0.000000
vt 0.500000 0.000000
vt 0.500000 0.278846
vt 0.000000 0.278846
vt 0.000000 0.500000
vt 0.500000 0.500000
vt 0.500000 0.742308
vt 0.000000 0.742308
vt 0.500000 1.000000
vt 0.000000 1.000000
vn 0.8750 0.4516 0.1744
vn 0.3410 0.3646 0.8665
vn 0.7504 0.4821 0.4521
vn 0.2844 0.2047 0.9366
vn -0.7068 0.3619 0.6078
vn -0.3735 0.8789 0.2965
vn -0.7269 0.4880 0.4831
vn -0.2898 0.9262 -0.2411
vn -0.1274 0.3470 0.9292
vn 0.0688 0.8518 0.5194
vn -0.0559 0.5857 0.8086
vn 0.1936 0.9795 0.0561
usemtl None
s off
f 139/121/73 127/122/73 124/123/73 137/124/73
f 140/125/74 130/126/74 126/127/74 138/128/74
f 138/128/75 126/127/75 127/122/75 139/121/75
f 136/129/76 122/130/76 130/126/76 140/125/76
f 121/131/77 131/132/77 135/133/77 129/134/77
f 125/135/78 133/136/78 134/137/78 128/138/78
f 129/134/79 135/133/79 133/136/79 125/135/79
f 128/138/80 134/137/80 132/139/80 123/140/80
f 131/132/81 136/129/81 140/125/81 135/133/81
f 133/136/82 138/128/82 139/121/82 134/137/82
f 135/133/83 140/125/83 138/128/83 133/136/83
f 134/137/84 139/121/84 137/124/84 132/139/84
o Plane.007_Plane.008
v 0.614964 0.034460 0.626502
v 0.432943 -0.013277 0.584630
v -0.422202 1.782676 2.662781
v -0.514566 1.864886 2.653426
v 0.423537 1.514657 1.435082
v -0.285801 1.161739 1.068314
v -0.428901 1.510709 1.689172
v 0.091086 1.859835 1.965470
v 0.504738 0.934370 1.073873
v -0.048346 0.670004 0.848992
v 0.525720 0.004095 0.598493
v -0.440161 1.877292 2.661680
v 0.239793 1.496532 1.217664
v -0.065671 1.853755 1.771919
v 0.401511 0.935535 0.870311
v 0.475927 -0.005228 0.591053
v -0.480094 1.870633 2.657250
v -0.138623 1.401024 1.134628
v -0.334534 1.785982 1.713490
v 0.120297 0.865519 0.809635
vt 0.768349 0.742308
vt 1.000000 0.742308
vt 1.000000 1.000000
vt 0.768349 1.000000
vt 0.768349 0.278846
vt 1.000000 0.278846
vt 1.000000 0.500000
vt 0.768349 0.500000
vt 0.768349 0.000000
vt 1.000000 0.000000
vt 0.000000 0.000000
vt 0.500000 0.000000
vt 0.500000 0.278846
vt 0.000000 0.278846
vt 0.000000 0.500000
vt 0.500000 0.500000
vt 0.500000 0.742308
vt 0.000000 0.742308
vt 0.500000 1.000000
vt 0.000000 1.000000
vn -0.8819 0.4248 -0.2046
vn -0.3436 0.3047 -0.8883
vn -0.7567 0.4403 -0.4832
vn -0.2840 0.1418 -0.9483
vn 0.7030 0.3361 -0.6267
vn 0.3596 0.8654 -0.3489
vn 0.7204 0.4700 -0.5100
vn 0.2729 0.9442 0.1845
vn 0.1253 0.2914 -0.9484
vn -0.0813 0.8169 -0.5710
vn 0.0492 0.5357 -0.8429
vn -0.2102 0.9707 -0.1169
usemtl None
s off
f 159/141/85 147/142/85 144/143/85 157/144/85
f 160/145/86 150/146/86 146/147/86 158/148/86
f 158/148/87 146/147/87 147/142/87 159/141/87
f 156/149/88 142/150/88 150/146/88 160/145/88
f 141/151/89 151/152/89 155/153/89 149/154/89
f 145/155/90 153/156/90 154/157/90 148/158/90
f 149/154/91 155/153/91 153/156/91 145/155/91
f 148/158/92 154/157/92 152/159/92 143/160/92
f 151/152/93 156/149/93 160/145/93 155/153/93
f 153/156/94 158/148/94 159/141/94 154/157/94
f 155/153/95 160/145/95 158/148/95 153/156/95
f 154/157/96 159/141/96 157/144/96 152/159/96
o Plane.008_Plane.009
v 0.478290 0.075915 0.525404
v 0.606017 0.092033 0.668897
v 2.503618 -1.303353 -0.982599
v 2.622160 -1.270968 -0.999209
v 1.477565 -0.201247 -0.818494
v 1.866003 -0.002146 -0.062382
v 2.244274 -0.476834 -0.461511
v 2.004808 -0.599710 -1.090935
v 1.074522 -0.050678 -0.281200
v 1.390968 0.050602 0.280910
v 0.536492 0.088549 0.603660
v 2.565269 -1.271571 -1.049419
v 1.597486 -0.009958 -0.644171
v 2.110618 -0.425795 -0.947304
v 1.136417 0.137269 -0.167449
v 0.573806 0.090419 0.638673
v 2.595802 -1.271247 -1.022472
v 1.865397 0.021011 -0.350096
v 2.301087 -0.404298 -0.738608
v 1.336120 0.159632 0.049999
vt 0.768349 0.742308
vt 1.000000 0.742308
vt 1.000000 1.000000
vt 0.768349 1.000000
vt 0.768349 0.278846
vt 1.000000 0.278846
vt 1.000000 0.500000
vt 0.768349 0.500000
vt 0.768349 0.000000
vt 1.000000 0.000000
vt 0.000000 0.000000
vt 0.500000 0.000000
vt 0.500000 0.278846
vt 0.000000 0.278846
vt 0.000000 0.500000
vt 0.500000 0.500000
vt 0.500000 0.742308
vt 0.000000 0.742308
vt 0.500000 1.000000
vt 0.000000 1.000000
vn 0.9399 0.2980 0.1670
vn 0.3248 0.9242 0.2008
vn 0.8019 0.5708 0.1765
vn 0.1855 0.9290 0.3203
vn -0.5259 0.7311 -0.4348
vn 0.0667 0.6314 -0.7726
vn -0.4595 0.6664 -0.5872
vn 0.2523 0.1514 -0.9557
vn -0.0937 0.9956 -0.0076
vn 0.3926 0.8064 -0.4421
vn 0.1057 0.9744 -0.1983
vn 0.6405 0.4245 -0.6400
usemtl None
s off
f 179/161/97 167/162/97 164/163/97 177/164/97
f 180/165/98 170/166/98 166/167/98 178/168/98
f 178/168/99 166/167/99 167/162/99 179/161/99
f 176/169/100 162/170/100 170/166/100 180/165/100
f 161/171/101 171/172/101 175/173/101 169/174/101
f 165/175/102 173/176/102 174/177/102 168/178/102
f 169/174/103 175/173/103 173/176/103 165/175/103
f 168/178/104 174/177/104 172/179/104 163/180/104
f 171/172/105 176/169/105 180/165/105 175/173/105
f 173/176/106 178/168/106 179/161/106 174/177/106
f 175/173/107 180/165/107 178/168/107 173/176/107
f 174/177/108 179/161/108 177/164/108 172/179/108
o Plane.009_Plane.011
v -1.982246 -1.192823 0.030592
v -1.984443 -1.249796 0.214747
v 0.568065 0.033972 0.549525
v 0.600097 0.106886 0.644574
v -0.864732 0.084550 0.060764
v -1.099790 -0.262716 0.826522
v -0.404967 -0.051365 0.810011
v -0.207014 0.290199 0.250756
v -1.346157 -0.407383 0.055124
v -1.469557 -0.678954 0.635973
v -1.991815 -1.226168 0.122612
v 0.591168 0.124876 0.571398
v -1.026036 0.089018 0.295970
v -0.350305 0.304683 0.454053
v -1.511268 -0.378630 0.210063
v -1.987859 -1.238849 0.172061
v 0.595960 0.115221 0.610671
v -1.026045 -0.026521 0.677895
v -0.349758 0.222571 0.725257
v -1.510104 -0.463746 0.493646
vt 0.768349 0.742308
vt 1.000000 0.742308
vt 1.000000 1.000000
vt 0.768349 1.000000
vt 0.768349 0.278846
vt 1.000000 0.278846
vt 1.000000 0.500000
vt 0.768349 0.500000
vt 0.768349 0.000000
vt 1.000000 0.000000
vt 0.000000 0.000000
vt 0.500000 0.000000
vt 0.500000 0.278846
vt 0.000000 0.278846
vt 0.000000 0.500000
vt 0.500000 0.500000
vt 0.500000 0.742308
vt 0.000000 0.742308
vt 0.500000 1.000000
vt 0.000000 1.000000
vn 0.1229 0.3656 0.9226
vn -0.6865 0.4289 0.5871
vn -0.1693 0.4451 0.8794
vn -0.7921 0.2868 0.5388
vn -0.7043 0.5151 -0.4886
vn -0.2441 0.9466 -0.2105
vn -0.5711 0.6260 -0.5311
vn 0.2980 0.9157 -0.2696
vn -0.8673 0.4738 0.1525
vn -0.3495 0.8967 0.2716
vn -0.6978 0.6854 0.2079
vn 0.1441 0.9497 0.2782
usemtl None
s off
f 199/181/109 187/182/109 184/183/109 197/184/109
f 200/185/110 190/186/110 186/187/110 198/188/110
f 198/188/111 186/187/111 187/182/111 199/181/111
f 196/189/112 182/190/112 190/186/112 200/185/112
f 181/191/113 191/192/113 195/193/113 189/194/113
f 185/195/114 193/196/114 194/197/114 188/198/114
f 189/194/115 195/193/115 193/196/115 185/195/115
f 188/198/116 194/197/116 192/199/116 183/200/116
f 191/192/117 196/189/117 200/185/117 195/193/117
f 193/196/118 198/188/118 199/181/118 194/197/118
f 195/193/119 200/185/119 198/188/119 193/196/119
f 194/197/120 199/181/120 197/184/120 192/199/120
o Plane.010_Plane.012
v 0.586226 0.003335 0.484411
v 0.413089 0.015021 0.568382
v 1.547316 -1.264913 2.881546
v 1.530037 -1.229570 2.999144
v 1.621204 -0.191163 1.815735
v 0.780950 -0.020879 1.980683
v 1.082296 -0.468987 2.466596
v 1.757416 -0.566363 2.408738
v 1.206755 -0.073760 1.278847
v 0.576531 0.006672 1.429553
v 0.494734 0.013333 0.519058
v 1.593703 -1.228857 2.957861
v 1.413397 -0.006140 1.878534
v 1.583648 -0.397501 2.466722
v 1.073000 0.109711 1.302137
v 0.450916 0.014239 0.545530
v 1.559534 -1.229240 2.980017
v 1.056996 0.015863 2.056607
v 1.330649 -0.382361 2.593437
v 0.809057 0.125474 1.435368
vt 0.768349 0.742308
vt 1.000000 0.742308
vt 1.000000 1.000000
vt 0.768349 1.000000
vt 0.768349 0.278846
vt 1.000000 0.278846
vt 1.000000 0.500000
vt 0.768349 0.500000
vt 0.768349 0.000000
vt 1.000000 0.000000
vt 0.000000 0.000000
vt 0.500000 0.000000
vt 0.500000 0.278846
vt 0.000000 0.278846
vt 0.000000 0.500000
vt 0.500000 0.500000
vt 0.500000 0.742308
vt 0.000000 0.742308
vt 0.500000 1.000000
vt 0.000000 1.000000
vn -0.4260 0.3072 0.8509
vn -0.3183 0.9196 0.2304
vn -0.4091 0.5766 0.7072
vn -0.3959 0.9161 0.0641
vn 0.5304 0.7409 -0.4121
vn 0.6997 0.6684 0.2522
vn 0.6618 0.6847 -0.3053
vn 0.8454 0.2012 0.4948
vn -0.0079 0.9929 -0.1188
vn 0.2868 0.8337 0.4719
vn 0.1227 0.9845 0.1251
vn 0.4259 0.4662 0.7754
usemtl None
s off
f 219/201/121 207/202/121 204/203/121 217/204/121
f 220/205/122 210/206/122 206/207/122 218/208/122
f 218/208/123 206/207/123 207/202/123 219/201/123
f 216/209/124 202/210/124 210/206/124 220/205/124
f 201/211/125 211/212/125 215/213/125 209/214/125
f 205/215/126 213/216/126 214/217/126 208/218/126
f 209/214/127 215/213/127 213/216/127 205/215/127
f 208/218/128 214/217/128 212/219/128 203/220/128
f 211/212/129 216/209/129 220/205/129 215/213/129
f 213/216/130 218/208/130 219/201/130 214/217/130
f 215/213/131 220/205/131 218/208/131 213/216/131
f 214/217/132 219/201/132 217/204/132 212/219/132
o Plane.011_Plane.013
v 0.578881 -2.115150 -1.474781
v 0.388842 -2.128047 -1.445068
v 0.636424 -0.007790 0.483313
v 0.561299 0.090448 0.492386
v 0.930197 -0.558195 -0.896943
v 0.089782 -0.790076 -0.943469
v 0.237052 -0.362513 -0.374941
v 0.870268 -0.103766 -0.348413
v 0.782247 -1.173984 -1.166596
v 0.150632 -1.338534 -1.147874
v 0.481905 -2.128953 -1.466043
v 0.634660 0.087966 0.473149
v 0.680265 -0.558337 -1.034401
v 0.655648 -0.095504 -0.474675
v 0.614409 -1.170638 -1.321238
v 0.431958 -2.128467 -1.454786
v 0.595287 0.089298 0.483474
v 0.287221 -0.581134 -0.969499
v 0.376610 -0.111565 -0.428048
v 0.322849 -1.186549 -1.272203
vt 0.768349 0.742308
vt 1.000000 0.742308
vt 1.000000 1.000000
vt 0.768349 1.000000
vt 0.768349 0.278846
vt 1.000000 0.278846
vt 1.000000 0.500000
vt 0.768349 0.500000
vt 0.768349 0.000000
vt 1.000000 0.000000
vt 0.000000 0.000000
vt 0.500000 0.000000
vt 0.500000 0.278846
vt 0.000000 0.278846
vt 0.000000 0.500000
vt 0.500000 0.500000
vt 0.500000 0.742308
vt 0.000000 0.742308
vt 0.500000 1.000000
vt 0.000000 1.000000
vn -0.8163 0.5764 0.0373
vn -0.5862 0.2844 -0.7586
vn -0.7988 0.5396 -0.2658
vn -0.5790 0.1078 -0.8082
vn 0.4751 0.1238 -0.8712
vn 0.3438 0.7361 -0.5830
vn 0.5544 0.2615 -0.7901
vn 0.4683 0.8807 -0.0712
vn -0.1788 0.1692 -0.9692
vn -0.1491 0.7589 -0.6339
vn -0.1718 0.4327 -0.8850
vn -0.0799 0.9778 -0.1936
usemtl None
s off
f 239/221/133 227/222/133 224/223/133 237/224/133
f 240/225/134 230/226/134 226/227/134 238/228/134
f 238/228/135 226/227/135 227/222/135 239/221/135
f 236/229/136 222/230/136 230/226/136 240/225/136
f 221/231/137 231/232/137 235/233/137 229/234/137
f 225/235/138 233/236/138 234/237/138 228/238/138
f 229/234/139 235/233/139 233/236/139 225/235/139
f 228/238/140 234/237/140 232/239/140 223/240/140
f 231/232/141 236/229/141 240/225/141 235/233/141
f 233/236/142 238/228/142 239/221/142 234/237/142
f 235/233/143 240/225/143 238/228/143 233/236/143
f 234/237/144 239/221/144 237/224/144 232/239/144
o Plane.012_Plane.014
v 0.570742 0.042907 0.694312
v 0.439372 0.063597 0.554749
v -1.386960 -1.463105 2.170028
v -1.505788 -1.434505 2.190972
v -0.390365 -0.329517 2.043016
v -0.800755 -0.099693 1.307495
v -1.158715 -0.603954 1.688685
v -0.901907 -0.754491 2.305130
v -0.003489 -0.140845 1.505868
v -0.335175 -0.017309 0.957154
v 0.510459 0.058303 0.618154
v -1.447743 -1.436425 2.239809
v -0.518641 -0.132123 1.881952
v -1.014968 -0.575742 2.173459
v -0.072281 0.051370 1.403812
v 0.472307 0.061144 0.584125
v -1.478896 -1.435395 2.213598
v -0.793970 -0.091926 1.595956
v -1.210690 -0.547704 1.970477
v -0.277456 0.080517 1.192344
vt 0.768349 0.742308
vt 1.000000 0.742308
vt 1.000000 1.000000
vt 0.768349 1.000000
vt 0.768349 0.278846
vt 1.000000 0.278846
vt 1.000000 0.500000
vt 0.768349 0.500000
vt 0.768349 0.000000
vt 1.000000 0.000000
vt 0.000000 0.000000
vt 0.500000 0.000000
vt 0.500000 0.278846
vt 0.000000 0.278846
vt 0.000000 0.500000
vt 0.500000 0.500000
vt 0.500000 0.742308
vt 0.000000 0.742308
vt 0.500000 1.000000
vt 0.000000 1.000000
vn -0.9500 0.2838 -0.1299
vn -0.3503 0.9256 -0.1435
vn -0.8186 0.5600 -0.1277
vn -0.2140 0.9400 -0.2655
vn 0.5191 0.7192 0.4619
vn -0.0631 0.5874 0.8068
vn 0.4577 0.6449 0.6121
vn -0.2334 0.0941 0.9678
vn 0.0712 0.9957 0.0592
vn -0.4005 0.7720 0.4935
vn -0.1232 0.9596 0.2528
vn -0.6349 0.3742 0.6759
usemtl None
s off
f 259/241/145 247/242/145 244/243/145 257/244/145
f 260/245/146 250/246/146 246/247/146 258/248/146
f 258/248/147 246/247/147 247/242/147 259/241/147
f 256/249/148 242/250/148 250/246/148 260/245/148
f 241/251/149 251/252/149 255/253/149 249/254/149
f 245/255/150 253/256/150 254/257/150 248/258/150
f 249/254/151 255/253/151 253/256/151 245/255/151
f 248/258/152 254/257/152 252/259/152 243/260/152
f 251/252/153 256/249/153 260/245/153 255/253/153
f 253/256/154 258/248/154 259/241/154 254/257/154
f 255/253/155 260/245/155 258/248/155 253/256/155
f 254/257/156 259/241/156 257/244/156 252/259/156
