# Blender v2.82 (sub 7) OBJ File: ''
# www.blender.org
mtllib roof_tile_gray_incline_outer.mtl
o cube.001
v 0.000000 0.000347 0.000280
v 1.000000 1.001787 1.001721
v 1.000000 0.000347 0.000280
v 1.136808 0.618406 1.145772
v 0.220000 -0.220624 0.221251
v 1.000000 -0.220624 0.221251
v 0.000000 0.000347 0.000280
v 0.220000 -0.220624 0.221251
v 0.220000 -0.220624 0.221251
v 0.220000 -0.220624 0.221251
v 0.220000 -0.220624 0.221251
v 0.220000 -0.220624 0.221251
v 0.000000 0.000347 0.000280
v 1.000000 1.001787 1.001721
v 0.000000 0.000347 0.000280
v 1.000000 1.001787 1.001721
v 0.000000 0.000347 0.000280
v 0.220000 -0.220624 0.221251
v 0.000000 0.000347 0.000280
v 0.220000 -0.220624 0.221251
v 0.000000 0.000347 0.000280
v 0.220000 -0.220624 0.221251
v 0.000000 0.000347 0.000280
v 0.220000 -0.220624 0.221251
v 0.000000 0.000347 0.000280
v 1.000000 1.001787 1.001721
vt 1.000000 0.000000
vt -0.001100 1.002448
vt -0.007343 -0.009791
vt 1.000000 0.000000
vt 0.998585 1.001129
vt 1.000000 0.000000
vt 0.993809 0.996508
vt 1.000000 0.000000
vt 0.995486 0.998339
vt 0.312500 0.000000
vt 0.312500 1.000000
vt 0.000000 1.000000
vt 0.992657 0.990209
vt 0.687500 1.000000
vt 0.687500 0.000000
vt 0.687500 0.000000
vt 1.000000 0.000000
vt 0.687500 0.000000
vt 0.687500 0.000000
vt 0.687500 0.000000
vt 0.687500 0.000000
vt 0.687500 0.000000
vt 1.000000 0.000000
vt 0.687500 0.000000
vt 1.000000 0.000000
vt 0.687500 0.000000
vt 1.000000 0.000000
vt 0.687500 0.000000
vt 1.000000 0.000000
vn 0.0000 0.6028 0.7979
vn 0.0000 0.3574 0.9340
vn 0.0000 0.7071 -0.7071
vn 0.0000 0.0000 1.0000
vn 0.0000 -0.7405 0.6720
vn 0.0000 -0.7071 -0.7071
vn 0.0000 -0.6952 0.7189
vn 0.0000 -0.3854 0.9227
usemtl texture1
s 1
f 1/1/1 2/2/2 3/3/3
f 2/2/2 1/1/1 13/4/4 14/5/4
f 14/5/4 13/4/4 15/6/4 16/7/4
f 16/7/4 15/6/4 25/8/4 26/9/4
usemtl texture2
f 5/10/5 6/11/5 4/12/5
usemtl texture3
f 3/13/6 6/14/6 1/1/6
f 6/14/6 5/15/7 1/1/8
f 1/1/8 5/15/7 8/16/4 7/17/4
f 8/16/4 5/15/7 9/18/4 10/19/4
f 10/19/4 9/18/4 11/20/4 12/21/4
f 7/17/4 8/16/4 18/22/4 17/23/4
f 17/23/4 18/22/4 20/24/4 19/25/4
f 19/25/4 20/24/4 22/26/4 21/27/4
f 21/27/4 22/26/4 24/28/4 23/29/4
o cube.002
v 1.137257 0.614945 1.141394
v 0.220971 -0.220971 1.000000
v 0.218635 -0.196099 0.213662
v 1.001440 1.001440 1.000000
v 0.000000 0.000000 -0.000000
v 0.000000 -0.000000 1.000000
v 0.218635 -0.196099 0.213662
v 0.000000 0.000000 -0.000000
v 0.000000 0.000000 -0.000000
v 0.000000 0.000000 -0.000000
v 0.000000 0.000000 -0.000000
v 0.000000 0.000000 -0.000000
v 1.001440 1.001440 1.000000
v 0.000000 0.000000 -0.000000
v 1.137257 0.614945 1.141394
v 0.218635 -0.196099 0.213662
v 1.137257 0.614945 1.141394
v 1.137257 0.614945 1.141394
vt 0.312500 0.000000
vt 0.312500 1.000000
vt 0.000000 1.000000
vt 0.312500 1.000000
vt 0.000000 1.000000
vt 0.000000 1.000000
vt 0.000000 1.000000
vt 0.000000 0.000000
vt 1.000000 0.000000
vt 1.000000 1.000000
vt 1.000000 1.000000
vt 0.000000 0.000000
vt 1.000000 1.000000
vt 0.687500 0.000000
vt 0.687500 1.000000
vt 1.000000 1.000000
vt 0.687500 1.000000
vt 1.000000 1.000000
vt 1.000000 1.000000
vt 1.000000 1.000000
vt 1.000000 1.000000
vn 0.6759 -0.7366 -0.0253
vn 0.3515 -0.3830 0.8542
vn 0.1139 -0.1241 0.9857
vn 0.0000 0.0000 1.0000
vn -0.3676 0.3676 0.8542
vn -0.7071 0.7071 0.0000
vn -0.2577 0.2577 0.9312
vn -0.7071 -0.7071 -0.0000
vn -0.1939 -0.2134 0.9575
vn -0.6981 -0.7160 -0.0040
vn -0.5410 -0.6229 0.5651
usemtl texture2
s 1
f 28/30/9 29/31/10 27/32/11
f 27/32/11 29/31/10 42/33/12 41/34/12
f 27/32/11 41/34/12 44/35/12 43/36/12
usemtl texture1
f 31/37/13 32/38/14 30/39/15
f 31/37/13 30/39/15 39/40/12 40/41/12
usemtl texture3
f 32/38/16 31/42/17 28/43/18
f 31/42/17 29/44/19 28/43/18
f 29/44/19 31/42/17 34/45/12 33/46/12
f 34/45/12 31/42/17 35/47/12 36/48/12
f 36/48/12 35/47/12 37/49/12 38/50/12
o cube.003
v 0.437500 -0.000000 1.000000
v 0.437500 0.000000 0.437500
v 1.000000 -0.000000 1.000000
v 1.000000 0.000000 0.437500
vt 0.593750 0.281250
vt 0.593750 0.687500
vt 1.000000 0.281250
vt 1.000000 0.687500
vn 0.0000 -1.0000 -0.0000
usemtl texture2
s 1
f 45/51/20 46/52/20 47/53/20
f 46/52/20 48/54/20 47/53/20
o cube.004
v 0.971891 0.911388 1.138668
v -0.039947 -0.090578 0.126829
v 1.148668 0.911388 0.961891
v 0.136829 -0.090578 -0.049947
v 1.059947 1.090578 0.873171
v 0.048109 0.088612 -0.138668
v 0.883171 1.090578 1.049947
v -0.128668 0.088612 0.038109
vt 0.187500 1.000000
vt 0.187500 0.000000
vt 0.437500 1.000000
vt 0.437500 0.000000
vt 0.187500 1.000000
vt 0.187500 0.000000
vt 0.437500 1.000000
vt 0.437500 0.000000
vt 0.000000 1.000000
vt 0.000000 0.750000
vt 0.218750 1.000000
vt 0.218750 0.750000
vt 0.000000 1.000000
vt 0.000000 0.750000
vt 0.218750 1.000000
vt 0.218750 0.750000
vt 0.218750 1.000000
vt 0.218750 0.000000
vt 0.218750 1.000000
vt 0.218750 0.000000
vn 0.4056 -0.8192 0.4056
vn -0.4056 0.8192 -0.4056
vn 0.5792 0.5736 0.5792
vn -0.5792 -0.5736 -0.5792
vn -0.7071 0.0000 0.7071
vn 0.7071 0.0000 -0.7071
usemtl texture1
s 1
f 49/55/21 50/56/21 51/57/21
f 50/56/21 52/58/21 51/57/21
f 53/59/22 54/60/22 55/61/22
f 54/60/22 56/62/22 55/61/22
f 53/63/23 55/64/23 51/65/23
f 55/64/23 49/66/23 51/65/23
f 56/67/24 54/68/24 50/69/24
f 54/68/24 52/70/24 50/69/24
f 55/61/25 56/62/25 49/71/25
f 56/62/25 50/72/25 49/71/25
f 51/57/26 52/58/26 53/73/26
f 52/58/26 54/74/26 53/73/26
