# Blender v2.82 (sub 7) OBJ File: ''
# www.blender.org
mtllib mt_awning_basket_right.mtl
o cube
v 0.482423 0.885163 1.000000
v 0.109534 0.512275 1.000000
v 0.482423 0.885163 0.000000
v 0.109534 0.512275 0.000000
v 0.482378 0.885208 0.000000
v 0.109490 0.512319 0.000000
v 0.482378 0.885207 1.000000
v 0.109490 0.512319 1.000000
vt 0.000000 0.750000
vt 0.000000 0.218750
vt 1.000000 0.750000
vt 1.000000 0.218750
vt 0.000000 0.781250
vt 0.000000 0.250000
vt 1.000000 0.781250
vt 1.000000 0.250000
vn 0.7071 -0.7071 -0.0000
vn -0.7071 0.7071 0.0000
usemtl m_0
s 1
f 1/1/1 2/2/1 3/3/1
f 2/2/1 4/4/1 3/3/1
f 5/5/2 6/6/2 7/7/2
f 6/6/2 8/8/2 7/7/2
o cube.000
v 0.109327 0.512323 1.000000
v -0.028171 -0.000825 1.000000
v 0.109327 0.512323 0.000000
v -0.028171 -0.000825 -0.000000
v 0.109266 0.512339 0.000000
v -0.028231 -0.000809 -0.000000
v 0.109266 0.512339 1.000000
v -0.028231 -0.000809 1.000000
vt 0.000000 0.531250
vt 0.000000 0.000000
vt 1.000000 0.531250
vt 1.000000 0.000000
vt 0.000000 0.531250
vt 0.000000 0.000000
vt 1.000000 0.531250
vt 1.000000 0.000000
vn 0.9659 -0.2588 -0.0000
vn -0.9659 0.2588 0.0000
usemtl m_0
s 1
f 9/9/3 10/10/3 11/11/3
f 10/10/3 12/12/3 11/11/3
f 13/13/4 14/14/4 15/15/4
f 14/14/4 16/16/4 15/15/4
o cube.001
v 0.996484 1.021369 1.000000
v 0.483336 0.883871 1.000000
v 0.996484 1.021369 0.000000
v 0.483336 0.883872 0.000000
v 0.996468 1.021430 0.000000
v 0.483320 0.883932 0.000000
v 0.996468 1.021429 1.000000
v 0.483320 0.883932 1.000000
vt 0.000000 1.000000
vt 0.000000 0.468750
vt 1.000000 1.000000
vt 1.000000 0.468750
vt 0.000000 1.000000
vt 0.000000 0.468750
vt 1.000000 1.000000
vt 1.000000 0.468750
vn 0.2588 -0.9659 -0.0000
vn -0.2588 0.9659 0.0000
usemtl m_0
s 1
f 17/17/5 18/18/5 19/19/5
f 18/18/5 20/20/5 19/19/5
f 21/21/6 22/22/6 23/23/6
f 22/22/6 24/24/6 23/23/6
o cube.002
v -0.000937 -0.000000 1.000000
v -0.000937 -0.500000 1.000000
v -0.000937 0.000000 0.000000
v -0.000937 -0.500000 -0.000000
v -0.001000 0.000000 0.000000
v -0.001000 -0.500000 -0.000000
v -0.001000 -0.000000 1.000000
v -0.001000 -0.500000 1.000000
vt 0.000000 0.500000
vt 0.000000 0.000000
vt 1.000000 0.500000
vt 1.000000 0.000000
vt 0.000000 0.500000
vt 0.000000 0.000000
vt 1.000000 0.500000
vt 1.000000 0.000000
vn 1.0000 0.0000 0.0000
vn -1.0000 0.0000 0.0000
usemtl m_1
s 1
f 25/25/7 26/26/7 27/27/7
f 26/26/7 28/28/7 27/27/7
f 29/29/8 30/30/8 31/31/8
f 30/30/8 32/32/8 31/31/8
o cube.003
v 0.104816 0.498683 1.000063
v -0.016505 0.045905 1.000062
v 0.682702 0.172382 1.000062
v 0.998423 -0.005887 1.000062
v 0.104816 0.498683 1.000000
v 0.997616 -0.008899 1.000000
v 0.684332 0.008031 1.000000
v -0.016505 0.045905 1.000000
vt 0.000000 0.468750
vt 0.000000 0.000000
vt 0.646690 0.303136
vt 1.000000 0.212655
vt 1.000000 0.468750
vt 0.000000 0.209537
vt 0.308921 0.144807
vt 1.000000 0.000000
vn 0.0000 -0.0000 1.0000
vn 0.0000 0.0000 -1.0000
usemtl m_0
s 1
f 33/33/9 34/34/9 35/35/9
f 35/35/9 34/34/9 36/36/9
f 37/37/10 38/38/10 39/39/10
f 39/39/10 40/40/10 37/37/10
o cube.004
v 0.955712 1.010468 1.000063
v 0.472750 0.881059 1.000063
v 0.982471 0.309141 1.000062
v 0.994568 -0.007926 1.000062
v 0.810183 0.308290 1.000000
v 0.472750 0.881059 1.000000
v 0.955712 1.010468 1.000000
v 0.996214 -0.007485 1.000000
vt 0.000000 0.500000
vt 0.000000 0.000000
vt 0.688660 0.344330
vt 1.000000 0.273952
vt 0.355385 0.177692
vt 1.000000 0.000000
vt 1.000000 0.500000
vt 0.000000 0.275656
vn 0.0000 -0.0000 1.0000
vn 0.0000 0.0000 -1.0000
usemtl m_0
s 1
f 41/41/11 42/42/11 43/43/11
f 42/42/11 44/44/11 43/43/11
f 45/45/12 46/46/12 47/47/12
f 47/47/12 48/48/12 45/45/12
o cube.005
v 0.507252 0.870212 0.972656
v 0.507252 0.870212 1.027344
v 0.991627 0.031250 0.972656
v 0.991627 0.031250 1.027344
v 0.453125 0.838962 1.027344
v 0.453125 0.838962 0.972656
v 0.937500 -0.000000 1.027344
v 0.937500 -0.000000 0.972656
vt 0.156250 0.968750
vt 0.093750 0.968750
vt 0.156250 0.062500
vt 0.093750 0.062500
vt 0.125000 0.062500
vt 0.187500 0.062500
vt 0.125000 1.000000
vt 0.187500 1.000000
vt 0.187500 0.062500
vt 0.250000 0.062500
vt 0.187500 1.000000
vt 0.250000 1.000000
vt 0.093750 0.093750
vt 0.156250 0.093750
vt 0.093750 1.000000
vt 0.156250 1.000000
vn 0.8660 0.5000 0.0000
vn -0.8660 -0.5000 0.0000
vn 0.0000 -0.0000 1.0000
vn 0.0000 0.0000 -1.0000
usemtl m_2
s 1
f 49/49/13 50/50/13 51/51/13
f 50/50/13 52/52/13 51/51/13
f 53/53/14 54/54/14 55/55/14
f 54/54/14 56/56/14 55/55/14
f 50/57/15 53/58/15 52/59/15
f 53/58/15 55/60/15 52/59/15
f 51/61/16 56/62/16 49/63/16
f 56/62/16 54/64/16 49/63/16
o cube.006
v 1.000000 0.968750 1.031250
v 1.000000 0.062500 1.031250
v 1.000000 0.968750 0.968750
v 1.000000 0.062500 0.968750
v 0.937500 0.968750 0.968750
v 0.937500 0.062500 0.968750
v 0.937500 0.968750 1.031250
v 0.937500 0.062500 1.031250
vt 0.093750 1.000000
vt 0.093750 0.093750
vt 0.156250 1.000000
vt 0.156250 0.093750
vt 0.125000 1.000000
vt 0.125000 0.093750
vt 0.187500 1.000000
vt 0.187500 0.093750
vt 0.250000 0.093750
vt 0.250000 1.000000
vt 0.187500 0.093750
vt 0.187500 1.000000
vt 0.093750 1.000000
vt 0.093750 0.093750
vt 0.156250 1.000000
vt 0.156250 0.093750
vn 1.0000 0.0000 0.0000
vn -1.0000 0.0000 0.0000
vn 0.0000 -0.0000 1.0000
vn 0.0000 0.0000 -1.0000
usemtl m_2
s 1
f 57/65/17 58/66/17 59/67/17
f 58/66/17 60/68/17 59/67/17
f 61/69/18 62/70/18 63/71/18
f 62/70/18 64/72/18 63/71/18
f 63/73/19 64/74/19 57/75/19
f 64/74/19 58/76/19 57/75/19
f 59/77/20 60/78/20 61/79/20
f 60/78/20 62/80/20 61/79/20
o cube.007
v 0.149409 0.527173 0.972188
v 0.149409 0.527173 1.026875
v 0.968750 0.054126 0.972188
v 0.968750 0.054126 1.026875
v 0.118159 0.473047 1.026875
v 0.118159 0.473047 0.972188
v 0.937500 -0.000000 1.026875
v 0.937500 -0.000000 0.972188
vt 0.156250 0.968750
vt 0.093750 0.968750
vt 0.156250 0.062500
vt 0.093750 0.062500
vt 0.125000 0.085156
vt 0.187500 0.085156
vt 0.125000 1.000000
vt 0.187500 1.000000
vt 0.187500 0.093750
vt 0.250000 0.093750
vt 0.187500 1.000000
vt 0.250000 1.000000
vt 0.093750 0.093750
vt 0.156250 0.093750
vt 0.093750 1.000000
vt 0.156250 1.000000
vn 0.5000 0.8660 0.0000
vn -0.5000 -0.8660 -0.0000
vn 0.0000 -0.0000 1.0000
vn -0.0000 0.0000 -1.0000
usemtl m_2
s 1
f 65/81/21 66/82/21 67/83/21
f 66/82/21 68/84/21 67/83/21
f 69/85/22 70/86/22 71/87/22
f 70/86/22 72/88/22 71/87/22
f 66/89/23 69/90/23 68/91/23
f 69/90/23 71/92/23 68/91/23
f 67/93/24 72/94/24 65/95/24
f 72/94/24 70/96/24 65/95/24
o cube.008
v 0.474089 0.879464 1.000063
v 0.120536 0.525910 1.000063
v 0.816351 0.295913 1.000062
v 0.709651 0.166815 1.000000
v 0.120536 0.525910 1.000000
v 0.474089 0.879464 1.000000
v 0.993683 -0.006317 1.000000
v 0.993639 -0.006361 1.000062
vt 0.000000 0.500000
vt 0.000000 0.000000
vt 0.658765 0.329383
vt 0.325297 0.162648
vt 1.000000 0.000000
vt 1.000000 0.500000
vt 0.000000 0.241066
vt 1.000000 0.241004
vn 0.0000 -0.0000 1.0000
vn -0.0000 0.0000 -1.0000
usemtl m_0
s 1
f 73/97/25 74/98/25 75/99/25
f 76/100/26 77/101/26 78/102/26
f 78/102/26 79/103/26 76/100/26
f 75/99/25 74/98/25 80/104/25
o cube.009
v 1.000000 0.062500 1.031250
v 1.000000 -0.000000 1.031250
v 1.000000 0.062500 0.968750
v 1.000000 -0.000000 0.968750
v 0.031250 0.062500 0.968750
v 0.031250 0.062500 1.031250
v 0.031250 -0.000000 1.031250
v 0.031250 -0.000000 0.968750
vt 0.187500 0.937500
vt 0.250000 0.937500
vt 0.187500 1.000000
vt 0.250000 1.000000
vt 0.156250 0.968750
vt 0.093750 0.968750
vt 0.156250 0.000000
vt 0.093750 0.000000
vt 0.125000 0.031250
vt 0.187500 0.031250
vt 0.125000 1.000000
vt 0.187500 1.000000
vt 0.187500 0.031250
vt 0.250000 0.031250
vt 0.187500 1.000000
vt 0.250000 1.000000
vt 0.093750 0.031250
vt 0.156250 0.031250
vt 0.093750 1.000000
vt 0.156250 1.000000
vn 1.0000 0.0000 0.0000
vn 0.0000 1.0000 0.0000
vn 0.0000 -1.0000 -0.0000
vn 0.0000 0.0000 1.0000
vn 0.0000 0.0000 -1.0000
usemtl m_2
s 1
f 81/105/27 82/106/27 83/107/27
f 82/106/27 84/108/27 83/107/27
f 85/109/28 86/110/28 83/111/28
f 86/110/28 81/112/28 83/111/28
f 87/113/29 88/114/29 82/115/29
f 88/114/29 84/116/29 82/115/29
f 86/117/30 87/118/30 81/119/30
f 87/118/30 82/120/30 81/119/30
f 83/121/31 84/122/31 85/123/31
f 84/122/31 88/124/31 85/123/31
o cube.010
v 0.000000 -0.000000 1.001062
v 0.000000 -0.500000 1.001062
v 1.000000 -0.000000 1.001062
v 1.000000 -0.500000 1.001062
v 1.000000 -0.000000 1.001000
v 1.000000 -0.500000 1.001000
v 0.000000 -0.000000 1.001000
v 0.000000 -0.500000 1.001000
vt 0.000000 0.500000
vt 0.000000 0.000000
vt 1.000000 0.500000
vt 1.000000 0.000000
vt 0.000000 0.500000
vt 0.000000 0.000000
vt 1.000000 0.500000
vt 1.000000 0.000000
vn 0.0000 -0.0000 1.0000
vn 0.0000 0.0000 -1.0000
usemtl m_1
s 1
f 89/125/32 90/126/32 91/127/32
f 90/126/32 92/128/32 91/127/32
f 93/129/33 94/130/33 95/131/33
f 94/130/33 96/132/33 95/131/33
o cube.011
v 0.031250 0.062500 1.031250
v 0.031250 -0.000000 1.031250
v 0.031250 0.062500 0.000000
v 0.031250 0.000000 0.000000
v -0.031250 0.062500 0.000000
v -0.031250 0.000000 0.000000
v -0.031250 0.062500 1.031250
v -0.031250 -0.000000 1.031250
vt 0.093750 0.000000
vt 0.156250 0.000000
vt 0.093750 1.000000
vt 0.156250 1.000000
vt 0.187500 0.000000
vt 0.250000 0.000000
vt 0.187500 1.000000
vt 0.250000 1.000000
vt 0.093750 1.000000
vt 0.093750 0.000000
vt 0.156250 1.000000
vt 0.156250 0.000000
vt 0.093750 1.000000
vt 0.093750 0.000000
vt 0.156250 1.000000
vt 0.156250 0.000000
vt 0.187500 0.937500
vt 0.250000 0.937500
vt 0.187500 1.000000
vt 0.250000 1.000000
vn 1.0000 0.0000 0.0000
vn -1.0000 0.0000 0.0000
vn 0.0000 1.0000 0.0000
vn 0.0000 -1.0000 -0.0000
vn 0.0000 0.0000 1.0000
usemtl m_2
s 1
f 97/133/34 98/134/34 99/135/34
f 98/134/34 100/136/34 99/135/34
f 101/137/35 102/138/35 103/139/35
f 102/138/35 104/140/35 103/139/35
f 101/141/36 103/142/36 99/143/36
f 103/142/36 97/144/36 99/143/36
f 104/145/37 102/146/37 98/147/37
f 102/146/37 100/148/37 98/147/37
f 103/149/38 104/150/38 97/151/38
f 104/150/38 98/152/38 97/151/38
o cube.012
v 0.165225 0.531250 1.031250
v 0.165225 0.468750 1.031250
v 0.165225 0.531250 0.000000
v 0.165225 0.468750 0.000000
v 0.102725 0.531250 0.000000
v 0.102725 0.468750 0.000000
v 0.102725 0.531250 1.031250
v 0.102725 0.468750 1.031250
vt 0.093750 0.000000
vt 0.156250 0.000000
vt 0.093750 1.000000
vt 0.156250 1.000000
vt 0.187500 0.000000
vt 0.250000 0.000000
vt 0.187500 1.000000
vt 0.250000 1.000000
vt 0.093750 1.000000
vt 0.093750 0.000000
vt 0.156250 1.000000
vt 0.156250 0.000000
vt 0.093750 1.000000
vt 0.093750 0.000000
vt 0.156250 1.000000
vt 0.156250 0.000000
vt 0.187500 0.937500
vt 0.250000 0.937500
vt 0.187500 1.000000
vt 0.250000 1.000000
vn 1.0000 0.0000 0.0000
vn -1.0000 0.0000 0.0000
vn 0.0000 1.0000 0.0000
vn 0.0000 -1.0000 -0.0000
vn 0.0000 0.0000 1.0000
usemtl m_2
s 1
f 105/153/39 106/154/39 107/155/39
f 106/154/39 108/156/39 107/155/39
f 109/157/40 110/158/40 111/159/40
f 110/158/40 112/160/40 111/159/40
f 109/161/41 111/162/41 107/163/41
f 111/162/41 105/164/41 107/163/41
f 112/165/42 110/166/42 106/167/42
f 110/166/42 108/168/42 106/167/42
f 111/169/43 112/170/43 105/171/43
f 112/170/43 106/172/43 105/171/43
o cube.013
v 0.510953 0.885556 1.031250
v 0.510953 0.823056 1.031250
v 0.510953 0.885557 0.000000
v 0.510953 0.823057 0.000000
v 0.448453 0.885557 0.000000
v 0.448453 0.823057 0.000000
v 0.448453 0.885556 1.031250
v 0.448453 0.823056 1.031250
vt 0.093750 0.000000
vt 0.156250 0.000000
vt 0.093750 1.000000
vt 0.156250 1.000000
vt 0.187500 0.000000
vt 0.250000 0.000000
vt 0.187500 1.000000
vt 0.250000 1.000000
vt 0.093750 1.000000
vt 0.093750 0.000000
vt 0.156250 1.000000
vt 0.156250 0.000000
vt 0.093750 1.000000
vt 0.093750 0.000000
vt 0.156250 1.000000
vt 0.156250 0.000000
vt 0.187500 0.937500
vt 0.250000 0.937500
vt 0.187500 1.000000
vt 0.250000 1.000000
vn 1.0000 0.0000 0.0000
vn -1.0000 0.0000 0.0000
vn 0.0000 1.0000 0.0000
vn 0.0000 -1.0000 -0.0000
vn 0.0000 0.0000 1.0000
usemtl m_2
s 1
f 113/173/44 114/174/44 115/175/44
f 114/174/44 116/176/44 115/175/44
f 117/177/45 118/178/45 119/179/45
f 118/178/45 120/180/45 119/179/45
f 117/181/46 119/182/46 115/183/46
f 119/182/46 113/184/46 115/183/46
f 120/185/47 118/186/47 114/187/47
f 118/186/47 116/188/47 114/187/47
f 119/189/48 120/190/48 113/191/48
f 120/190/48 114/192/48 113/191/48
o cube.014
v 1.000000 1.031250 1.031250
v 1.000000 0.968750 1.031250
v 1.000000 1.031250 0.000000
v 1.000000 0.968750 0.000000
v 0.937500 1.031250 0.000000
v 0.937500 0.968750 0.000000
v 0.937500 1.031250 1.031250
v 0.937500 0.968750 1.031250
vt 0.093750 0.000000
vt 0.156250 0.000000
vt 0.093750 1.000000
vt 0.156250 1.000000
vt 0.187500 0.000000
vt 0.250000 0.000000
vt 0.187500 1.000000
vt 0.250000 1.000000
vt 0.093750 1.000000
vt 0.093750 0.000000
vt 0.156250 1.000000
vt 0.156250 0.000000
vt 0.093750 1.000000
vt 0.093750 0.000000
vt 0.156250 1.000000
vt 0.156250 0.000000
vt 0.187500 0.937500
vt 0.250000 0.937500
vt 0.187500 1.000000
vt 0.250000 1.000000
vn 1.0000 0.0000 0.0000
vn -1.0000 0.0000 0.0000
vn 0.0000 1.0000 0.0000
vn 0.0000 -1.0000 -0.0000
vn 0.0000 0.0000 1.0000
usemtl m_2
s 1
f 121/193/49 122/194/49 123/195/49
f 122/194/49 124/196/49 123/195/49
f 125/197/50 126/198/50 127/199/50
f 126/198/50 128/200/50 127/199/50
f 125/201/51 127/202/51 123/203/51
f 127/202/51 121/204/51 123/203/51
f 128/205/52 126/206/52 122/207/52
f 126/206/52 124/208/52 122/207/52
f 127/209/53 128/210/53 121/211/53
f 128/210/53 122/212/53 121/211/53
