# Blender v2.82 (sub 7) OBJ File: ''
# www.blender.org
mtllib mt_awning_basket_inner.mtl
o cube
v 0.482423 0.885163 0.000000
v 0.109534 0.512275 0.000000
v 0.482378 0.885208 0.000000
v 0.109490 0.512319 0.000000
v 0.482423 0.885163 0.486049
v 0.349987 0.752728 0.355161
v 0.482378 0.885208 0.484432
v 0.109490 0.512319 0.113465
v 0.176752 0.579581 0.180380
v 0.109534 0.512275 0.117518
vt 0.000000 0.781250
vt 0.000000 0.250000
vt 0.180380 0.345827
vt 0.484432 0.781250
vt 0.113465 0.250000
vt 0.644839 0.561321
vt 0.882482 0.218750
vt 1.000000 0.218750
vt 1.000000 0.750000
vt 0.513951 0.750000
vn -0.7071 0.7071 0.0000
vn 0.7071 -0.7071 0.0000
usemtl m_0
s 1
f 3/1/1 4/2/1 9/3/1 7/4/1
f 4/2/1 8/5/1 9/3/1
f 6/6/2 10/7/2 2/8/2 1/9/2
f 5/10/2 6/6/2 1/9/2
o cube.000
v 0.996484 1.021369 1.000000
v 0.483320 0.883932 0.490337
v 0.996484 1.021369 0.000000
v 0.483336 0.883872 0.000000
v 0.996468 1.021430 0.000000
v 0.483320 0.883932 0.000000
v 0.996468 1.021429 1.000000
v 0.483336 0.883872 0.488876
v 0.656904 0.930379 0.661759
vt 0.000000 1.000000
vt 0.000000 0.468750
vt 1.000000 1.000000
vt 0.490337 0.468750
vt 0.338241 0.648441
vt 0.511124 0.468750
vt 1.000000 0.468750
vt 1.000000 1.000000
vt 0.000000 1.000000
vn -0.2588 0.9659 0.0000
vn 0.2588 -0.9659 -0.0000
usemtl m_0
s 1
f 15/11/3 16/12/3 17/13/3
f 16/12/3 12/14/3 17/13/3
f 19/15/4 18/16/4 14/17/4 13/18/4
f 19/15/4 13/18/4 11/19/4
o cube.001
v 0.109327 0.512323 0.000000
v 0.109266 0.512339 0.000000
v 0.095782 0.461773 0.098509
v 0.109327 0.512323 0.112408
v -0.000213 0.103516 0.000000
v 0.000090 0.104888 0.000000
v 0.109266 0.512339 0.108383
vt 0.000000 0.531250
vt 0.000000 0.109425
vt 0.108383 0.531250
vt 0.901491 0.478917
vt 1.000000 0.108022
vt 1.000000 0.531250
vt 0.887592 0.531250
vn -0.9659 0.2588 0.0000
vn 0.9659 -0.2588 0.0000
usemtl m_0
s 1
f 21/20/5 25/21/5 26/22/5
f 22/23/6 24/24/6 20/25/6
f 23/26/6 22/23/6 20/25/6
o cube.002
v 0.165225 0.531250 0.102344
v 0.165225 0.468750 0.102344
v 0.165225 0.531250 0.000000
v 0.165225 0.468750 0.000000
v 0.102725 0.531250 0.000000
v 0.102725 0.468750 0.000000
v 0.102725 0.531250 0.102344
v 0.102725 0.468750 0.102344
vt 0.093750 0.906250
vt 0.156250 0.906250
vt 0.093750 1.000000
vt 0.156250 1.000000
vt 0.187500 0.906250
vt 0.250000 0.906250
vt 0.187500 1.000000
vt 0.250000 1.000000
vt 0.093750 1.000000
vt 0.093750 0.906250
vt 0.156250 1.000000
vt 0.156250 0.906250
vt 0.093750 1.000000
vt 0.093750 0.906250
vt 0.156250 1.000000
vt 0.156250 0.906250
vt 0.187500 0.937500
vt 0.250000 0.937500
vt 0.187500 1.000000
vt 0.250000 1.000000
vn 1.0000 0.0000 0.0000
vn -1.0000 0.0000 0.0000
vn 0.0000 1.0000 0.0000
vn 0.0000 -1.0000 -0.0000
vn 0.0000 0.0000 -1.0000
usemtl m_2
s 1
f 27/27/7 28/28/7 29/29/7
f 28/28/7 30/30/7 29/29/7
f 31/31/8 32/32/8 33/33/8
f 32/32/8 34/34/8 33/33/8
f 31/35/9 33/36/9 29/37/9
f 33/36/9 27/38/9 29/37/9
f 34/39/10 32/40/10 28/41/10
f 32/40/10 30/42/10 28/41/10
f 29/43/11 30/44/11 31/45/11
f 30/44/11 32/46/11 31/45/11
o cube.003
v 0.510953 0.885557 0.449219
v 0.510953 0.823057 0.449219
v 0.510953 0.885557 0.000000
v 0.510953 0.823057 0.000000
v 0.448453 0.885557 0.000000
v 0.448453 0.823057 0.000000
v 0.448453 0.885557 0.449219
v 0.448453 0.823057 0.449219
vt 0.093750 0.562500
vt 0.156250 0.562500
vt 0.093750 1.000000
vt 0.156250 1.000000
vt 0.187500 0.562500
vt 0.250000 0.562500
vt 0.187500 1.000000
vt 0.250000 1.000000
vt 0.093750 1.000000
vt 0.093750 0.562500
vt 0.156250 1.000000
vt 0.156250 0.562500
vt 0.093750 1.000000
vt 0.093750 0.562500
vt 0.156250 1.000000
vt 0.156250 0.562500
vt 0.187500 0.937500
vt 0.250000 0.937500
vt 0.187500 1.000000
vt 0.250000 1.000000
vn 1.0000 0.0000 0.0000
vn -1.0000 -0.0000 0.0000
vn 0.0000 1.0000 0.0000
vn 0.0000 -1.0000 0.0000
vn 0.0000 0.0000 -1.0000
usemtl m_2
s 1
f 35/47/12 36/48/12 37/49/12
f 36/48/12 38/50/12 37/49/12
f 39/51/13 40/52/13 41/53/13
f 40/52/13 42/54/13 41/53/13
f 39/55/14 41/56/14 37/57/14
f 41/56/14 35/58/14 37/57/14
f 42/59/15 40/60/15 36/61/15
f 40/60/15 38/62/15 36/61/15
f 37/63/16 38/64/16 39/65/16
f 38/64/16 40/66/16 39/65/16
o cube.004
v 1.000000 1.031250 0.937500
v 1.000000 0.968750 0.937500
v 1.000000 1.031250 0.000000
v 1.000000 0.968750 0.000000
v 0.937500 1.031250 0.000000
v 0.937500 0.968750 0.000000
v 0.937500 1.031250 0.937500
v 0.937500 0.968750 0.937500
vt 0.093750 0.062500
vt 0.156250 0.062500
vt 0.093750 1.000000
vt 0.156250 1.000000
vt 0.187500 0.062500
vt 0.250000 0.062500
vt 0.187500 1.000000
vt 0.250000 1.000000
vt 0.093750 1.000000
vt 0.093750 0.062500
vt 0.156250 1.000000
vt 0.156250 0.062500
vt 0.093750 1.000000
vt 0.093750 0.062500
vt 0.156250 1.000000
vt 0.156250 0.062500
vt 0.187500 0.937500
vt 0.250000 0.937500
vt 0.187500 1.000000
vt 0.250000 1.000000
vn 1.0000 0.0000 0.0000
vn -1.0000 0.0000 0.0000
vn 0.0000 1.0000 0.0000
vn 0.0000 -1.0000 -0.0000
vn 0.0000 0.0000 -1.0000
usemtl m_2
s 1
f 43/67/17 44/68/17 45/69/17
f 44/68/17 46/70/17 45/69/17
f 47/71/18 48/72/18 49/73/18
f 48/72/18 50/74/18 49/73/18
f 47/75/19 49/76/19 45/77/19
f 49/76/19 43/78/19 45/77/19
f 50/79/20 48/80/20 44/81/20
f 48/80/20 46/82/20 44/81/20
f 45/83/21 46/84/21 47/85/21
f 46/84/21 48/86/21 47/85/21
o cube.005
v 0.000000 0.885163 0.482423
v 0.000000 0.512275 0.109534
v 0.486097 0.885208 0.482379
v 0.354593 0.752984 0.350155
v 0.000000 0.885208 0.482379
v 0.000000 0.512319 0.109490
v 0.484775 0.885163 0.482423
v 0.114898 0.512275 0.109534
v 0.182342 0.580268 0.177527
v 0.115236 0.512319 0.109490
vt 0.000000 0.750000
vt 0.000000 0.218750
vt 0.182342 0.315619
vt 0.484775 0.750000
vt 0.114898 0.218750
vt 0.645407 0.592873
vt 0.884764 0.250000
vt 1.000000 0.250000
vt 1.000000 0.781250
vt 0.513903 0.781250
vn -0.0000 -0.7071 0.7071
vn -0.0000 0.7071 -0.7071
usemtl m_0
s 1
f 51/87/22 52/88/22 59/89/22 57/90/22
f 52/88/22 58/91/22 59/89/22
f 54/92/23 60/93/23 56/94/23 55/95/23
f 53/96/23 54/92/23 55/95/23
o cube.006
v 0.000000 1.021369 0.996485
v 0.000000 0.883872 0.483336
v 1.000000 1.021369 0.996485
v 0.662476 0.930341 0.656520
v 1.000000 1.021429 0.996468
v 0.000000 1.021429 0.996468
v 0.000000 0.883932 0.483320
v 0.486498 0.883872 0.483336
v 0.490514 0.883932 0.483320
vt 0.000000 1.000000
vt 0.000000 0.468750
vt 1.000000 1.000000
vt 0.486498 0.468750
vt 0.337524 0.648060
vt 1.000000 1.000000
vt 0.000000 1.000000
vt 0.509486 0.468750
vt 1.000000 0.468750
vn 0.0000 -0.9659 0.2588
vn 0.0000 0.9659 -0.2588
usemtl m_0
s 1
f 61/97/24 62/98/24 63/99/24
f 62/98/24 68/100/24 63/99/24
f 64/101/25 66/102/25 65/103/25
f 64/101/25 69/104/25 67/105/25 66/102/25
o cube.007
v 0.000000 0.512323 0.109327
v 0.111409 0.512323 0.109327
v 0.000000 0.512339 0.109266
v 0.000000 0.094178 -0.002715
v 0.000000 0.098073 -0.001736
v 0.111745 0.512339 0.109266
v 0.098158 0.461970 0.095770
vt 0.000000 0.531250
vt 0.000000 0.098354
vt 0.111409 0.531250
vt 0.888255 0.531250
vt 0.901842 0.479104
vt 1.000000 0.531250
vt 1.000000 0.102370
vn 0.0000 -0.2588 0.9659
vn 0.0000 0.2588 -0.9659
usemtl m_0
s 1
f 70/106/26 73/107/26 71/108/26
f 75/109/27 76/110/27 72/111/27
f 76/110/27 74/112/27 72/111/27
o cube.008
v 1.000000 1.031250 1.000000
v 1.000000 0.968750 1.000000
v 1.000000 1.031250 0.937500
v 1.000000 0.968750 0.937500
v 0.000000 1.031250 0.937500
v 0.000000 0.968750 0.937500
v 0.000000 1.031250 1.000000
v 0.000000 0.968750 1.000000
vt 0.187500 0.937500
vt 0.250000 0.937500
vt 0.187500 1.000000
vt 0.250000 1.000000
vt 0.187500 0.937500
vt 0.250000 0.937500
vt 0.187500 1.000000
vt 0.250000 1.000000
vt 0.093750 0.000000
vt 0.156250 0.000000
vt 0.093750 1.000000
vt 0.156250 1.000000
vt 0.156250 1.000000
vt 0.093750 1.000000
vt 0.156250 0.000000
vt 0.093750 0.000000
vt 0.093750 0.000000
vt 0.156250 0.000000
vt 0.093750 1.000000
vt 0.156250 1.000000
vt 0.187500 0.000000
vt 0.250000 0.000000
vt 0.187500 1.000000
vt 0.250000 1.000000
vn 1.0000 0.0000 0.0000
vn -1.0000 0.0000 0.0000
vn 0.0000 1.0000 0.0000
vn 0.0000 -1.0000 0.0000
vn 0.0000 0.0000 1.0000
vn 0.0000 0.0000 -1.0000
usemtl m_2
s 1
f 77/113/28 78/114/28 79/115/28
f 78/114/28 80/116/28 79/115/28
f 81/117/29 82/118/29 83/119/29
f 82/118/29 84/120/29 83/119/29
f 81/121/30 83/122/30 79/123/30
f 83/122/30 77/124/30 79/123/30
f 84/125/31 82/126/31 78/127/31
f 82/126/31 80/128/31 78/127/31
f 83/129/32 84/130/32 77/131/32
f 84/130/32 78/132/32 77/131/32
f 79/133/33 80/134/33 81/135/33
f 80/134/33 82/136/33 81/135/33
o cube.009
v 0.165625 0.531250 0.165225
v 0.165625 0.468750 0.165225
v 0.165625 0.531250 0.102725
v 0.165625 0.468750 0.102725
v 0.000000 0.531250 0.102725
v 0.000000 0.468750 0.102725
v 0.000000 0.531250 0.165225
v 0.000000 0.468750 0.165225
vt 0.187500 0.937500
vt 0.250000 0.937500
vt 0.187500 1.000000
vt 0.250000 1.000000
vt 0.187500 0.937500
vt 0.250000 0.937500
vt 0.187500 1.000000
vt 0.250000 1.000000
vt 0.093750 0.843750
vt 0.156250 0.843750
vt 0.093750 1.000000
vt 0.156250 1.000000
vt 0.156250 1.000000
vt 0.093750 1.000000
vt 0.156250 0.843750
vt 0.093750 0.843750
vt 0.093750 0.843750
vt 0.156250 0.843750
vt 0.093750 1.000000
vt 0.156250 1.000000
vt 0.187500 0.843750
vt 0.250000 0.843750
vt 0.187500 1.000000
vt 0.250000 1.000000
vn 1.0000 0.0000 0.0000
vn -1.0000 0.0000 0.0000
vn 0.0000 1.0000 0.0000
vn 0.0000 -1.0000 0.0000
vn 0.0000 -0.0000 1.0000
vn 0.0000 0.0000 -1.0000
usemtl m_2
s 1
f 85/137/34 86/138/34 87/139/34
f 86/138/34 88/140/34 87/139/34
f 89/141/35 90/142/35 91/143/35
f 90/142/35 92/144/35 91/143/35
f 89/145/36 91/146/36 87/147/36
f 91/146/36 85/148/36 87/147/36
f 92/149/37 90/150/37 86/151/37
f 90/150/37 88/152/37 86/151/37
f 91/153/38 92/154/38 85/155/38
f 92/154/38 86/156/38 85/155/38
f 87/157/39 88/158/39 89/159/39
f 88/158/39 90/160/39 89/159/39
o cube.010
v 0.510938 0.885557 0.510953
v 0.510938 0.823057 0.510953
v 0.510938 0.885557 0.448453
v 0.510938 0.823057 0.448453
v 0.000000 0.885557 0.448453
v 0.000000 0.823057 0.448453
v 0.000000 0.885557 0.510953
v 0.000000 0.823057 0.510953
vt 0.187500 0.937500
vt 0.250000 0.937500
vt 0.187500 1.000000
vt 0.250000 1.000000
vt 0.187500 0.937500
vt 0.250000 0.937500
vt 0.187500 1.000000
vt 0.250000 1.000000
vt 0.093750 0.500000
vt 0.156250 0.500000
vt 0.093750 1.000000
vt 0.156250 1.000000
vt 0.156250 1.000000
vt 0.093750 1.000000
vt 0.156250 0.500000
vt 0.093750 0.500000
vt 0.093750 0.500000
vt 0.156250 0.500000
vt 0.093750 1.000000
vt 0.156250 1.000000
vt 0.187500 0.500000
vt 0.250000 0.500000
vt 0.187500 1.000000
vt 0.250000 1.000000
vn 1.0000 0.0000 0.0000
vn -1.0000 0.0000 0.0000
vn 0.0000 1.0000 0.0000
vn 0.0000 -1.0000 0.0000
vn 0.0000 0.0000 1.0000
vn 0.0000 0.0000 -1.0000
usemtl m_2
s 1
f 93/161/40 94/162/40 95/163/40
f 94/162/40 96/164/40 95/163/40
f 97/165/41 98/166/41 99/167/41
f 98/166/41 100/168/41 99/167/41
f 97/169/42 99/170/42 95/171/42
f 99/170/42 93/172/42 95/171/42
f 100/173/43 98/174/43 94/175/43
f 98/174/43 96/176/43 94/175/43
f 99/177/44 100/178/44 93/179/44
f 100/178/44 94/180/44 93/179/44
f 95/181/45 96/182/45 97/183/45
f 96/182/45 98/184/45 97/183/45
