# Blender v2.82 (sub 7) OBJ File: ''
# www.blender.org
mtllib mt_arch_straight.mtl
o cube
v 0.066921 1.405004 -0.006406
v 0.066921 1.405004 1.007031
v 0.191617 1.396285 -0.006406
v 0.191617 1.396285 1.007031
v 0.039455 1.012213 1.007031
v 0.164150 1.003494 1.007031
v 0.164150 1.003494 -0.006406
v 0.039455 1.012213 -0.006406
vt 1.000000 0.937500
vt 0.000000 0.937500
vt 1.000000 0.812500
vt 0.000000 0.812500
vt 0.875000 1.000000
vt 0.875000 0.606250
vt 1.000000 1.000000
vt 1.000000 0.606250
vt 0.875000 1.000000
vt 0.875000 0.606250
vt 1.000000 1.000000
vt 1.000000 0.606250
vn 0.0698 0.9976 0.0000
vn 0.0000 -0.0000 1.0000
vn 0.0000 0.0000 -1.0000
usemtl m_1
s 1
f 1/1/1 2/2/1 3/3/1
f 2/2/1 4/4/1 3/3/1
usemtl m_2
f 2/5/2 5/6/2 4/7/2
f 5/6/2 6/8/2 4/7/2
f 3/9/3 7/10/3 1/11/3
f 7/10/3 8/12/3 1/11/3
o cube.000
v 0.345394 1.366394 -0.006406
v 0.345394 1.366393 1.007031
v 0.434555 1.337423 -0.006406
v 0.434555 1.337423 1.007031
v 0.223718 0.991915 1.007031
v 0.312880 0.962945 1.007031
v 0.312880 0.962945 -0.006406
v 0.223718 0.991915 -0.006406
vt 1.000000 0.625000
vt 0.000000 0.625000
vt 1.000000 0.531250
vt 0.000000 0.531250
vt 0.906250 1.000000
vt 0.906250 0.606250
vt 1.000000 1.000000
vt 1.000000 0.606250
vt 0.906250 1.000000
vt 0.906250 0.606250
vt 1.000000 1.000000
vt 1.000000 0.606250
vn 0.3090 0.9511 0.0000
vn 0.0000 -0.0000 1.0000
vn 0.0000 0.0000 -1.0000
usemtl m_1
s 1
f 9/13/4 10/14/4 11/15/4
f 10/14/4 12/16/4 11/15/4
usemtl m_2
f 10/17/5 13/18/5 12/19/5
f 13/18/5 14/20/5 12/19/5
f 11/21/6 15/22/6 9/23/6
f 15/22/6 16/24/6 9/23/6
o cube.001
v 0.821345 1.141888 -0.002500
v 0.821345 1.141888 1.003125
v 0.921174 1.066661 -0.002500
v 0.921174 1.066661 1.003125
v 0.584380 0.827425 1.003125
v 0.684210 0.752198 1.003125
v 0.684210 0.752198 -0.002500
v 0.584380 0.827425 -0.002500
vt 1.000000 0.562500
vt 0.000000 0.562500
vt 1.000000 0.437500
vt 0.000000 0.437500
vt 0.875000 1.000000
vt 0.875000 0.606250
vt 1.000000 1.000000
vt 1.000000 0.606250
vt 0.875000 1.000000
vt 0.875000 0.606250
vt 1.000000 1.000000
vt 1.000000 0.606250
vn 0.6018 0.7986 0.0000
vn 0.0000 -0.0000 1.0000
vn 0.0000 0.0000 -1.0000
usemtl m_1
s 1
f 17/25/7 18/26/7 19/27/7
f 18/26/7 20/28/7 19/27/7
usemtl m_2
f 18/29/8 21/30/8 20/31/8
f 21/30/8 22/32/8 20/31/8
f 19/33/9 23/34/9 17/35/9
f 23/34/9 24/36/9 17/35/9
o cube.002
v 1.033863 0.957839 -0.002500
v 1.033863 0.957839 1.003125
v 1.112528 0.860696 -0.002500
v 1.112528 0.860696 1.003125
v 0.727862 0.710044 1.003125
v 0.806527 0.612901 1.003125
v 0.806527 0.612901 -0.002500
v 0.727862 0.710044 -0.002500
vt 1.000000 0.812500
vt 0.000000 0.812500
vt 1.000000 0.625000
vt 0.000000 0.625000
vt 0.875000 1.000000
vt 0.875000 0.606250
vt 1.000000 1.000000
vt 1.000000 0.606250
vt 0.875000 1.000000
vt 0.875000 0.606250
vt 1.000000 1.000000
vt 1.000000 0.606250
vn 0.7771 0.6293 0.0000
vn 0.0000 0.0000 1.0000
vn 0.0000 0.0000 -1.0000
usemtl m_1
s 1
f 25/37/10 26/38/10 27/39/10
f 26/38/10 28/40/10 27/39/10
usemtl m_2
f 26/41/11 29/42/11 28/43/11
f 29/42/11 30/44/11 28/43/11
f 27/45/12 31/46/12 25/47/12
f 31/46/12 32/48/12 25/47/12
o cube.003
v 1.202797 0.733276 -0.002500
v 1.202797 0.733276 1.003125
v 1.242417 0.648310 -0.002500
v 1.242417 0.648310 1.003125
v 0.851603 0.569511 1.003125
v 0.891223 0.484545 1.003125
v 0.891223 0.484545 -0.002500
v 0.851603 0.569512 -0.002500
vt 1.000000 0.437500
vt 0.000000 0.437500
vt 1.000000 0.343750
vt 0.000000 0.343750
vt 0.906250 1.000000
vt 0.906250 0.612500
vt 1.000000 1.000000
vt 1.000000 0.612500
vt 0.906250 1.000000
vt 0.906250 0.612500
vt 1.000000 1.000000
vt 1.000000 0.612500
vn 0.9063 0.4226 0.0000
vn 0.0000 0.0000 1.0000
vn 0.0000 0.0000 -1.0000
usemtl m_1
s 1
f 33/49/13 34/50/13 35/51/13
f 34/50/13 36/52/13 35/51/13
usemtl m_2
f 34/53/14 37/54/14 36/55/14
f 37/54/14 38/56/14 36/55/14
f 35/57/15 39/58/15 33/59/15
f 39/58/15 40/60/15 33/59/15
o cube.004
v 1.388747 0.240230 -0.002500
v 1.388747 0.240229 1.003125
v 1.401813 0.115914 -0.002500
v 1.401813 0.115914 1.003125
v 0.997154 0.199071 1.003125
v 1.010220 0.074756 1.003125
v 1.010220 0.074756 -0.002500
v 0.997154 0.199071 -0.002500
vt 1.000000 0.781250
vt 0.000000 0.781250
vt 1.000000 0.656250
vt 0.000000 0.656250
vt 0.875000 1.000000
vt 0.875000 0.606250
vt 1.000000 1.000000
vt 1.000000 0.606250
vt 0.875000 1.000000
vt 0.875000 0.606250
vt 1.000000 1.000000
vt 1.000000 0.606250
vn 0.9945 0.1045 0.0000
vn 0.0000 0.0000 1.0000
vn -0.0000 0.0000 -1.0000
usemtl m_1
s 1
f 41/61/16 42/62/16 43/63/16
f 42/62/16 44/64/16 43/63/16
usemtl m_2
f 42/65/17 45/66/17 44/67/17
f 45/66/17 46/68/17 44/67/17
f 43/69/18 47/70/18 41/71/18
f 47/70/18 48/72/18 41/71/18
o cube.005
v 0.605010 1.270987 -0.002500
v 0.605010 1.270987 1.003125
v 0.687787 1.226974 -0.002500
v 0.687787 1.226974 1.003125
v 0.420156 0.923326 1.003125
v 0.502932 0.879313 1.003125
v 0.502932 0.879313 -0.002500
v 0.420156 0.923326 -0.002500
vt 1.000000 0.343750
vt 0.000000 0.343750
vt 1.000000 0.250000
vt 0.000000 0.250000
vt 0.906250 1.000000
vt 0.906250 0.606250
vt 1.000000 1.000000
vt 1.000000 0.606250
vt 0.906250 1.000000
vt 0.906250 0.606250
vt 1.000000 1.000000
vt 1.000000 0.606250
vn 0.4695 0.8829 0.0000
vn 0.0000 -0.0000 1.0000
vn 0.0000 0.0000 -1.0000
usemtl m_1
s 1
f 49/73/19 50/74/19 51/75/19
f 50/74/19 52/76/19 51/75/19
usemtl m_2
f 50/77/20 53/78/20 52/79/20
f 53/78/20 54/80/20 52/79/20
f 51/81/21 55/82/21 49/83/21
f 55/82/21 56/84/21 49/83/21
o cube.006
v 1.311856 0.513273 -0.002500
v 1.311856 0.513272 1.003125
v 1.344208 0.392532 -0.002500
v 1.344208 0.392532 1.003125
v 0.937559 0.412980 1.003125
v 0.969912 0.292239 1.003125
v 0.969912 0.292239 -0.002500
v 0.937559 0.412980 -0.002500
vt 1.000000 0.156250
vt 0.000000 0.156250
vt 1.000000 0.031250
vt 0.000000 0.031250
vt 0.875000 1.000000
vt 0.875000 0.612500
vt 1.000000 1.000000
vt 1.000000 0.612500
vt 0.875000 1.000000
vt 0.875000 0.612500
vt 1.000000 1.000000
vt 1.000000 0.612500
vn 0.9659 0.2588 0.0000
vn 0.0000 0.0000 1.0000
vn 0.0000 0.0000 -1.0000
usemtl m_1
s 1
f 57/85/22 58/86/22 59/87/22
f 58/86/22 60/88/22 59/87/22
usemtl m_2
f 58/89/23 61/90/23 60/91/23
f 61/90/23 62/92/23 60/91/23
f 59/93/24 63/94/24 57/95/24
f 63/94/24 64/96/24 57/95/24
o cube.007
v 1.418750 0.127344 1.005625
v 1.418750 -0.003906 1.005625
v 1.418750 0.127344 -0.005000
v 1.418750 -0.003906 -0.005000
v 0.993750 0.127344 -0.005000
v 0.993750 -0.003906 -0.005000
v 0.993750 0.127344 1.005625
v 0.993750 -0.003906 1.005625
vt 0.000000 0.656250
vt 0.000000 0.525000
vt 1.000000 0.656250
vt 1.000000 0.525000
vt 1.000000 0.875000
vt 1.000000 1.000000
vt 0.000000 0.875000
vt 0.000000 1.000000
vt 0.000000 0.575000
vt 1.000000 0.575000
vt 0.000000 1.000000
vt 1.000000 1.000000
vt 0.000000 0.575000
vt 1.000000 0.575000
vt 0.000000 1.000000
vt 1.000000 1.000000
vt 0.425000 0.087500
vt 0.425000 0.218750
vt 0.000000 0.087500
vt 0.000000 0.218750
vt 0.000000 0.218750
vt 0.000000 0.087500
vt 0.425000 0.218750
vt 0.425000 0.087500
vn 1.0000 0.0000 0.0000
vn -1.0000 0.0000 0.0000
vn 0.0000 1.0000 0.0000
vn 0.0000 -1.0000 -0.0000
vn 0.0000 0.0000 1.0000
vn 0.0000 0.0000 -1.0000
usemtl m_1
s 1
f 65/97/25 66/98/25 67/99/25
f 66/98/25 68/100/25 67/99/25
f 69/101/26 70/102/26 71/103/26
f 70/102/26 72/104/26 71/103/26
f 69/105/27 71/106/27 67/107/27
f 71/106/27 65/108/27 67/107/27
f 72/109/28 70/110/28 66/111/28
f 70/110/28 68/112/28 66/111/28
usemtl m_2
f 71/113/29 72/114/29 65/115/29
f 72/114/29 66/116/29 65/115/29
f 67/117/30 68/118/30 69/119/30
f 68/118/30 70/120/30 69/119/30
o cube.008
v 0.101562 1.418750 1.009531
v 0.101562 0.992187 1.009531
v 0.101562 1.418750 -0.008906
v 0.101562 0.992188 -0.008906
v -0.003906 1.418750 -0.008906
v -0.003906 0.992188 -0.008906
v -0.003906 1.418750 1.009531
v -0.003906 0.992187 1.009531
vt 0.000000 1.000000
vt 0.000000 0.577344
vt 1.000000 1.000000
vt 1.000000 0.577344
vt 1.000000 0.577344
vt 1.000000 1.000000
vt 0.000000 0.577344
vt 0.000000 1.000000
vt 1.000000 1.000000
vt 0.000000 1.000000
vt 1.000000 0.898438
vt 0.000000 0.898438
vt 0.000000 0.906250
vt 1.000000 0.906250
vt 0.000000 1.000000
vt 1.000000 1.000000
vt 0.000000 0.894531
vt 0.422656 0.894531
vt 0.422656 1.000000
vt 0.000000 0.085938
vt 0.422656 0.085938
vt 0.000000 0.187500
vt 0.422656 0.187500
vn 1.0000 0.0000 0.0000
vn -1.0000 0.0000 0.0000
vn 0.0000 1.0000 0.0000
vn 0.0000 -1.0000 -0.0000
vn 0.0000 -0.0000 1.0000
vn 0.0000 0.0000 -1.0000
usemtl m_1
s 1
f 73/121/31 74/122/31 75/123/31
f 74/122/31 76/124/31 75/123/31
f 77/125/32 78/126/32 79/127/32
f 78/126/32 80/128/32 79/127/32
f 77/129/33 79/130/33 75/131/33
f 79/130/33 73/132/33 75/131/33
f 80/133/34 78/134/34 74/135/34
f 78/134/34 76/136/34 74/135/34
usemtl m_2
f 79/137/35 80/138/35 73/121/35
f 80/138/35 74/139/35 73/121/35
f 75/140/36 76/141/36 77/142/36
f 76/141/36 78/143/36 77/142/36
o cube.009
v 0.366572 1.374050 1.009531
v 0.285180 0.955324 1.009531
v 0.366572 1.374050 -0.008906
v 0.285180 0.955325 -0.008906
v 0.178683 1.410572 -0.008906
v 0.097291 0.991847 -0.008906
v 0.178683 1.410572 1.009531
v 0.097291 0.991846 1.009531
vt 0.000000 0.812500
vt 0.000000 0.375000
vt 1.000000 0.812500
vt 1.000000 0.375000
vt 0.000000 1.000000
vt 0.000000 0.577344
vt 1.000000 1.000000
vt 1.000000 0.577344
vt 1.000000 0.812500
vt 0.000000 0.812500
vt 1.000000 0.621094
vt 0.000000 0.621094
vt 0.000000 0.000000
vt 1.000000 0.000000
vt 0.000000 0.187500
vt 1.000000 0.187500
vt 0.000000 0.687500
vt 0.422688 0.687500
vt 0.000000 0.875000
vt 0.422688 0.875000
vt 0.000000 0.250000
vt 0.422656 0.250000
vt 0.000000 0.437500
vt 0.422656 0.437500
vn 0.9816 -0.1908 -0.0000
vn -0.9816 0.1908 0.0000
vn 0.1908 0.9816 0.0000
vn -0.1908 -0.9816 -0.0000
vn -0.0000 -0.0000 1.0000
vn -0.0000 0.0000 -1.0000
usemtl m_1
s 1
f 81/144/37 82/145/37 83/146/37
f 82/145/37 84/147/37 83/146/37
f 85/148/38 86/149/38 87/150/38
f 86/149/38 88/151/38 87/150/38
f 85/152/39 87/153/39 83/154/39
f 87/153/39 81/155/39 83/154/39
f 88/156/40 86/157/40 82/158/40
f 86/157/40 84/159/40 82/158/40
usemtl m_2
f 87/160/41 88/161/41 81/162/41
f 88/161/41 82/163/41 81/162/41
f 83/164/42 84/165/42 85/166/42
f 84/165/42 86/167/42 85/166/42
o cube.010
v 0.622018 1.278859 1.009531
v 0.463689 0.886979 1.009531
v 0.622018 1.278859 -0.008906
v 0.463689 0.886979 -0.008906
v 0.440928 1.352025 -0.008906
v 0.282598 0.960145 -0.008906
v 0.440928 1.352025 1.009531
v 0.282598 0.960145 1.009531
vt 0.000000 0.406250
vt 0.000000 0.000000
vt 1.000000 0.406250
vt 1.000000 0.000000
vt 0.000000 0.656250
vt 0.000000 0.218750
vt 1.000000 0.656250
vt 1.000000 0.218750
vt 1.000000 0.531250
vt 0.000000 0.531250
vt 1.000000 0.335938
vt 0.000000 0.335938
vt 0.000000 0.187500
vt 1.000000 0.187500
vt 0.000000 0.375000
vt 1.000000 0.375000
vt 0.000000 0.468750
vt 0.422688 0.468750
vt 0.000000 0.656250
vt 0.422688 0.656250
vt 0.000000 0.031250
vt 0.422688 0.031250
vt 0.000000 0.218750
vt 0.422688 0.218750
vn 0.9272 -0.3746 0.0000
vn -0.9272 0.3746 0.0000
vn 0.3746 0.9272 0.0000
vn -0.3746 -0.9272 -0.0000
vn 0.0000 -0.0000 1.0000
vn 0.0000 0.0000 -1.0000
usemtl m_1
s 1
f 89/168/43 90/169/43 91/170/43
f 90/169/43 92/171/43 91/170/43
f 93/172/44 94/173/44 95/174/44
f 94/173/44 96/175/44 95/174/44
f 93/176/45 95/177/45 91/178/45
f 95/177/45 89/179/45 91/178/45
f 96/180/46 94/181/46 90/182/46
f 94/181/46 92/183/46 90/182/46
usemtl m_2
f 95/184/47 96/185/47 89/186/47
f 96/185/47 90/187/47 89/186/47
f 91/188/48 92/189/48 93/190/48
f 92/189/48 94/191/48 93/190/48
o cube.011
v 0.854608 1.136676 1.005625
v 0.624413 0.782207 1.005625
v 0.854608 1.136676 -0.005000
v 0.624413 0.782207 -0.005000
v 0.690805 1.243051 -0.005000
v 0.460610 0.888582 -0.005000
v 0.690805 1.243051 1.005625
v 0.460610 0.888582 1.005625
vt 0.000000 1.000000
vt 0.000000 0.577344
vt 1.000000 1.000000
vt 1.000000 0.577344
vt 0.000000 1.000000
vt 0.000000 0.577344
vt 1.000000 1.000000
vt 1.000000 0.577344
vt 1.000000 0.250000
vt 0.000000 0.250000
vt 1.000000 0.054688
vt 0.000000 0.054688
vt 0.000000 0.375000
vt 1.000000 0.375000
vt 0.000000 0.562500
vt 1.000000 0.562500
vt 0.422688 0.250000
vt 0.000000 0.437500
vt 0.422688 0.437500
vt 0.000000 0.683594
vt 0.422656 0.683594
vt 0.000000 0.875000
vt 0.422656 0.875000
vn 0.8387 -0.5446 0.0000
vn -0.8387 0.5446 0.0000
vn 0.5446 0.8387 0.0000
vn -0.5446 -0.8387 0.0000
vn 0.0000 -0.0000 1.0000
vn 0.0000 0.0000 -1.0000
usemtl m_1
s 1
f 97/192/49 98/193/49 99/194/49
f 98/193/49 100/195/49 99/194/49
f 101/196/50 102/197/50 103/198/50
f 102/197/50 104/199/50 103/198/50
f 101/200/51 103/201/51 99/202/51
f 103/201/51 97/203/51 99/202/51
f 104/204/52 102/205/52 98/206/52
f 102/205/52 100/207/52 98/206/52
usemtl m_2
f 103/201/53 104/208/53 97/209/53
f 104/208/53 98/210/53 97/209/53
f 99/211/54 100/212/54 101/213/54
f 100/212/54 102/214/54 101/213/54
o cube.012
v 1.055795 0.952725 1.005625
v 0.762193 0.648692 1.005625
v 1.055795 0.952726 -0.005000
v 0.762193 0.648692 -0.005000
v 0.915299 1.088401 -0.005000
v 0.621697 0.784368 -0.005000
v 0.915299 1.088401 1.005625
v 0.621697 0.784367 1.005625
vt 0.000000 0.781250
vt 0.000000 0.358594
vt 1.000000 0.781250
vt 1.000000 0.358594
vt 0.000000 0.812500
vt 0.000000 0.375000
vt 1.000000 0.812500
vt 1.000000 0.375000
vt 1.000000 1.000000
vt 0.000000 1.000000
vt 1.000000 0.812500
vt 0.000000 0.812500
vt 0.000000 0.093750
vt 1.000000 0.093750
vt 0.000000 0.281250
vt 1.000000 0.281250
vt 0.000000 0.031250
vt 0.422688 0.031250
vt 0.000000 0.218750
vt 0.422688 0.218750
vt 0.000000 0.464844
vt 0.422656 0.464844
vt 0.000000 0.656250
vt 0.422656 0.656250
vn 0.7193 -0.6947 -0.0000
vn -0.7193 0.6947 0.0000
vn 0.6947 0.7193 0.0000
vn -0.6947 -0.7193 -0.0000
vn 0.0000 0.0000 1.0000
vn 0.0000 0.0000 -1.0000
usemtl m_1
s 1
f 105/215/55 106/216/55 107/217/55
f 106/216/55 108/218/55 107/217/55
f 109/219/56 110/220/56 111/221/56
f 110/220/56 112/222/56 111/221/56
f 109/223/57 111/224/57 107/225/57
f 111/224/57 105/226/57 107/225/57
f 112/227/58 110/228/58 106/229/58
f 110/228/58 108/230/58 106/229/58
usemtl m_2
f 111/231/59 112/232/59 105/233/59
f 112/232/59 106/234/59 105/233/59
f 107/235/60 108/236/60 109/237/60
f 108/236/60 110/238/60 109/237/60
o cube.013
v 1.218185 0.733766 1.005625
v 0.871966 0.491340 1.005625
v 1.218185 0.733766 -0.005000
v 0.871966 0.491341 -0.005000
v 1.106159 0.893757 -0.005000
v 0.759939 0.651331 -0.005000
v 1.106159 0.893757 1.005625
v 0.759939 0.651331 1.005625
vt 0.000000 0.437500
vt 0.000000 0.014844
vt 1.000000 0.437500
vt 1.000000 0.014844
vt 0.000000 0.468750
vt 0.000000 0.031250
vt 1.000000 0.468750
vt 1.000000 0.031250
vt 1.000000 0.625000
vt 0.000000 0.625000
vt 1.000000 0.429688
vt 0.000000 0.429688
vt 0.000000 0.273438
vt 1.000000 0.273438
vt 0.000000 0.468750
vt 1.000000 0.468750
vt 0.000000 0.687500
vt 0.422688 0.687500
vt 0.000000 0.875000
vt 0.422688 0.875000
vt 0.000000 0.246094
vt 0.422656 0.246094
vt 0.000000 0.437500
vt 0.422656 0.437500
vn 0.5736 -0.8192 -0.0000
vn -0.5736 0.8192 0.0000
vn 0.8192 0.5736 0.0000
vn -0.8192 -0.5736 -0.0000
vn 0.0000 0.0000 1.0000
vn 0.0000 0.0000 -1.0000
usemtl m_1
s 1
f 113/239/61 114/240/61 115/241/61
f 114/240/61 116/242/61 115/241/61
f 117/243/62 118/244/62 119/245/62
f 118/244/62 120/246/62 119/245/62
f 117/247/63 119/248/63 115/249/63
f 119/248/63 113/250/63 115/249/63
f 120/251/64 118/252/64 114/253/64
f 118/252/64 116/254/64 114/253/64
usemtl m_2
f 119/255/65 120/256/65 113/257/65
f 120/256/65 114/258/65 113/257/65
f 115/259/66 116/260/66 117/261/66
f 116/260/66 118/262/66 117/261/66
o cube.014
v 1.334224 0.491413 1.005625
v 0.948108 0.319503 1.005625
v 1.334224 0.491413 -0.005000
v 0.948108 0.319503 -0.005000
v 1.256372 0.666271 -0.005000
v 0.870257 0.494361 -0.005000
v 1.256372 0.666271 1.005625
v 0.870257 0.494361 1.005625
vt 0.000000 0.406250
vt 0.000000 0.000000
vt 1.000000 0.406250
vt 1.000000 0.000000
vt 0.000000 0.406250
vt 0.000000 0.000000
vt 1.000000 0.406250
vt 1.000000 0.000000
vt 1.000000 0.343750
vt 0.000000 0.343750
vt 1.000000 0.152344
vt 0.000000 0.152344
vt 0.000000 0.468750
vt 1.000000 0.468750
vt 0.000000 0.656250
vt 1.000000 0.656250
vt 0.000000 0.468750
vt 0.422688 0.468750
vt 0.000000 0.656250
vt 0.422688 0.656250
vt 0.000000 0.027344
vt 0.422656 0.027344
vt 0.000000 0.218750
vt 0.422656 0.218750
vn 0.4067 -0.9135 -0.0000
vn -0.4067 0.9135 0.0000
vn 0.9135 0.4067 0.0000
vn -0.9135 -0.4067 -0.0000
vn 0.0000 0.0000 1.0000
vn 0.0000 0.0000 -1.0000
usemtl m_1
s 1
f 121/263/67 122/264/67 123/265/67
f 122/264/67 124/266/67 123/265/67
f 125/267/68 126/268/68 127/269/68
f 126/268/68 128/270/68 127/269/68
f 125/271/69 127/272/69 123/273/69
f 127/272/69 121/274/69 123/273/69
f 128/275/70 126/276/70 122/277/70
f 126/276/70 124/278/70 122/277/70
usemtl m_2
f 127/279/71 128/280/71 121/281/71
f 128/280/71 122/282/71 121/281/71
f 123/283/72 124/284/72 125/285/72
f 124/284/72 126/286/72 125/285/72
o cube.015
v 1.405234 0.220190 1.005625
v 0.993411 0.125113 1.005625
v 1.405234 0.220190 -0.005000
v 0.993411 0.125113 -0.005000
v 1.359541 0.418109 -0.005000
v 0.947717 0.323032 -0.005000
v 1.359541 0.418109 1.005625
v 0.947717 0.323032 1.005625
vt 0.000000 0.812500
vt 0.000000 0.389844
vt 1.000000 0.812500
vt 1.000000 0.389844
vt 0.000000 1.000000
vt 0.000000 0.577344
vt 1.000000 1.000000
vt 1.000000 0.577344
vt 1.000000 1.000000
vt 0.000000 1.000000
vt 1.000000 0.796875
vt 0.000000 0.796875
vt 0.000000 0.656250
vt 1.000000 0.656250
vt 0.000000 0.875000
vt 1.000000 0.875000
vt 0.000000 0.250000
vt 0.422688 0.250000
vt 0.000000 0.437500
vt 0.422688 0.437500
vt 0.000000 0.687500
vt 0.422688 0.687500
vt 0.000000 0.875000
vt 0.422688 0.875000
vn 0.2250 -0.9744 -0.0000
vn -0.2250 0.9744 0.0000
vn 0.9744 0.2250 0.0000
vn -0.9744 -0.2250 -0.0000
vn 0.0000 -0.0000 1.0000
vn 0.0000 0.0000 -1.0000
usemtl m_1
s 1
f 129/287/73 130/288/73 131/289/73
f 130/288/73 132/290/73 131/289/73
f 133/291/74 134/292/74 135/293/74
f 134/292/74 136/294/74 135/293/74
f 133/295/75 135/296/75 131/297/75
f 135/296/75 129/298/75 131/297/75
f 136/299/76 134/300/76 130/301/76
f 134/300/76 132/302/76 130/301/76
usemtl m_2
f 135/303/77 136/304/77 129/305/77
f 136/304/77 130/306/77 129/305/77
f 131/307/78 132/308/78 133/309/78
f 132/308/78 134/310/78 133/309/78
