# Blender v2.82 (sub 7) OBJ File: ''
# www.blender.org
mtllib mt_chair_small_2.mtl
o cube
v 0.641617 0.325326 0.450444
v 0.722281 0.024284 0.366935
v 0.635337 0.348764 0.359889
v 0.716001 0.047721 0.276379
v 0.544782 0.324499 0.359889
v 0.625446 0.023457 0.276379
v 0.551062 0.301062 0.450444
v 0.631726 0.000019 0.366935
vt 0.500000 0.343750
vt 0.500000 0.021063
vt 0.593750 0.343750
vt 0.593750 0.021063
vt 0.500000 0.343750
vt 0.500000 0.021063
vt 0.593750 0.343750
vt 0.593750 0.021063
vt 0.187500 0.375000
vt 0.187500 0.281250
vt 0.281250 0.375000
vt 0.281250 0.281250
vt 0.500000 0.343750
vt 0.500000 0.021063
vt 0.593750 0.343750
vt 0.593750 0.021063
vt 0.500000 0.343750
vt 0.500000 0.021063
vt 0.593750 0.343750
vt 0.593750 0.021063
vn 0.9659 0.2588 0.0000
vn -0.9659 -0.2588 0.0000
vn 0.2500 -0.9330 -0.2588
vn 0.0670 -0.2500 0.9659
vn -0.0670 0.2500 -0.9659
usemtl 1
s 1
f 1/1/1 2/2/1 3/3/1
f 2/2/1 4/4/1 3/3/1
f 5/5/2 6/6/2 7/7/2
f 6/6/2 8/8/2 7/7/2
f 8/9/3 6/10/3 2/11/3
f 6/10/3 4/12/3 2/11/3
f 7/13/4 8/14/4 1/15/4
f 8/14/4 2/16/4 1/15/4
f 3/17/5 4/18/5 5/19/5
f 4/18/5 6/20/5 5/19/5
o cube.000
v 0.448938 0.301062 0.450444
v 0.368274 0.000019 0.366935
v 0.455218 0.324499 0.359889
v 0.374554 0.023457 0.276379
v 0.364663 0.348764 0.359889
v 0.283999 0.047721 0.276379
v 0.358383 0.325326 0.450444
v 0.277719 0.024284 0.366935
vt 0.500000 0.343750
vt 0.500000 0.021063
vt 0.593750 0.343750
vt 0.593750 0.021063
vt 0.500000 0.343750
vt 0.500000 0.021063
vt 0.593750 0.343750
vt 0.593750 0.021063
vt 0.187500 0.375000
vt 0.187500 0.281250
vt 0.281250 0.375000
vt 0.281250 0.281250
vt 0.500000 0.343750
vt 0.500000 0.021063
vt 0.593750 0.343750
vt 0.593750 0.021063
vt 0.500000 0.343750
vt 0.500000 0.021063
vt 0.593750 0.343750
vt 0.593750 0.021063
vn 0.9659 -0.2588 -0.0000
vn -0.9659 0.2588 0.0000
vn -0.2500 -0.9330 -0.2588
vn -0.0670 -0.2500 0.9659
vn 0.0670 0.2500 -0.9659
usemtl 1
s 1
f 9/21/6 10/22/6 11/23/6
f 10/22/6 12/24/6 11/23/6
f 13/25/7 14/26/7 15/27/7
f 14/26/7 16/28/7 15/27/7
f 16/29/8 14/30/8 10/31/8
f 14/30/8 12/32/8 10/31/8
f 15/33/9 16/34/9 9/35/9
f 16/34/9 10/36/9 9/35/9
f 11/37/10 12/38/10 13/39/10
f 12/38/10 14/40/10 13/39/10
o cube.001
v 0.455218 0.324499 0.640111
v 0.374554 0.023457 0.723621
v 0.448938 0.301062 0.549556
v 0.368274 0.000019 0.633065
v 0.358383 0.325326 0.549556
v 0.277719 0.024284 0.633065
v 0.364663 0.348763 0.640111
v 0.283999 0.047721 0.723621
vt 0.500000 0.343750
vt 0.500000 0.021063
vt 0.593750 0.343750
vt 0.593750 0.021063
vt 0.500000 0.343750
vt 0.500000 0.021063
vt 0.593750 0.343750
vt 0.593750 0.021063
vt 0.187500 0.375000
vt 0.187500 0.281250
vt 0.281250 0.375000
vt 0.281250 0.281250
vt 0.500000 0.343750
vt 0.500000 0.021063
vt 0.593750 0.343750
vt 0.593750 0.021063
vt 0.500000 0.343750
vt 0.500000 0.021063
vt 0.593750 0.343750
vt 0.593750 0.021063
vn 0.9659 -0.2588 0.0000
vn -0.9659 0.2588 0.0000
vn -0.2500 -0.9330 0.2588
vn 0.0670 0.2500 0.9659
vn -0.0670 -0.2500 -0.9659
usemtl 1
s 1
f 17/41/11 18/42/11 19/43/11
f 18/42/11 20/44/11 19/43/11
f 21/45/12 22/46/12 23/47/12
f 22/46/12 24/48/12 23/47/12
f 24/49/13 22/50/13 18/51/13
f 22/50/13 20/52/13 18/51/13
f 23/53/14 24/54/14 17/55/14
f 24/54/14 18/56/14 17/55/14
f 19/57/15 20/58/15 21/59/15
f 20/58/15 22/60/15 21/59/15
o cube.002
v 0.635337 0.348763 0.640111
v 0.716001 0.047721 0.723621
v 0.641617 0.325326 0.549556
v 0.722281 0.024284 0.633065
v 0.551062 0.301062 0.549556
v 0.631726 0.000019 0.633065
v 0.544782 0.324499 0.640111
v 0.625446 0.023457 0.723621
vt 0.500000 0.343750
vt 0.500000 0.021063
vt 0.593750 0.343750
vt 0.593750 0.021063
vt 0.500000 0.343750
vt 0.500000 0.021063
vt 0.593750 0.343750
vt 0.593750 0.021063
vt 0.187500 0.375000
vt 0.187500 0.281250
vt 0.281250 0.375000
vt 0.281250 0.281250
vt 0.500000 0.343750
vt 0.500000 0.021063
vt 0.593750 0.343750
vt 0.593750 0.021063
vt 0.500000 0.343750
vt 0.500000 0.021063
vt 0.593750 0.343750
vt 0.593750 0.021063
vn 0.9659 0.2588 0.0000
vn -0.9659 -0.2588 -0.0000
vn 0.2500 -0.9330 0.2588
vn -0.0670 0.2500 0.9659
vn 0.0670 -0.2500 -0.9659
usemtl 1
s 1
f 25/61/16 26/62/16 27/63/16
f 26/62/16 28/64/16 27/63/16
f 29/65/17 30/66/17 31/67/17
f 30/66/17 32/68/17 31/67/17
f 32/69/18 30/70/18 26/71/18
f 30/70/18 28/72/18 26/71/18
f 31/73/19 32/74/19 25/75/19
f 32/74/19 26/76/19 25/75/19
f 27/77/20 28/78/20 29/79/20
f 28/78/20 30/80/20 29/79/20
o cube.003
v 0.625000 0.312500 0.625000
v 0.625000 0.250000 0.625000
v 0.625000 0.312500 0.375000
v 0.625000 0.250000 0.375000
v 0.375000 0.312500 0.375000
v 0.375000 0.250000 0.375000
v 0.375000 0.312500 0.625000
v 0.375000 0.250000 0.625000
vt 0.125000 0.406250
vt 0.125000 0.343750
vt 0.375000 0.406250
vt 0.375000 0.343750
vt 0.125000 0.406250
vt 0.125000 0.343750
vt 0.375000 0.406250
vt 0.375000 0.343750
vt 0.625000 0.875000
vt 0.625000 0.625000
vt 0.875000 0.875000
vt 0.875000 0.625000
vt 0.125000 0.406250
vt 0.125000 0.343750
vt 0.375000 0.406250
vt 0.375000 0.343750
vt 0.125000 0.406250
vt 0.125000 0.343750
vt 0.375000 0.406250
vt 0.375000 0.343750
vn 1.0000 0.0000 0.0000
vn -1.0000 0.0000 0.0000
vn 0.0000 -1.0000 -0.0000
vn 0.0000 0.0000 1.0000
vn 0.0000 0.0000 -1.0000
usemtl 1
s 1
f 33/81/21 34/82/21 35/83/21
f 34/82/21 36/84/21 35/83/21
f 37/85/22 38/86/22 39/87/22
f 38/86/22 40/88/22 39/87/22
f 40/89/23 38/90/23 34/91/23
f 38/90/23 36/92/23 34/91/23
f 39/93/24 40/94/24 33/95/24
f 40/94/24 34/96/24 33/95/24
f 35/97/25 36/98/25 37/99/25
f 36/98/25 38/100/25 37/99/25
o cube.004
v 0.413273 0.178347 0.625000
v 0.397097 0.117977 0.625000
v 0.413273 0.178347 0.375000
v 0.397097 0.117977 0.375000
v 0.352903 0.194523 0.375000
v 0.336727 0.134153 0.375000
v 0.352903 0.194523 0.625000
v 0.336727 0.134153 0.625000
vt 0.125000 0.406250
vt 0.125000 0.343750
vt 0.375000 0.406250
vt 0.375000 0.343750
vt 0.375000 0.281250
vt 0.375000 0.343750
vt 0.125000 0.281250
vt 0.125000 0.343750
vt 0.125000 0.343750
vt 0.375000 0.343750
vt 0.125000 0.406250
vt 0.375000 0.406250
vt 0.375000 0.406250
vt 0.125000 0.406250
vt 0.375000 0.343750
vt 0.125000 0.343750
vn 0.9659 -0.2588 -0.0000
vn -0.9659 0.2588 0.0000
vn 0.2588 0.9659 0.0000
vn -0.2588 -0.9659 -0.0000
usemtl 1
s 1
f 41/101/26 42/102/26 43/103/26
f 42/102/26 44/104/26 43/103/26
f 45/105/27 46/106/27 47/107/27
f 46/106/27 48/108/27 47/107/27
f 45/109/28 47/110/28 43/111/28
f 47/110/28 41/112/28 43/111/28
f 48/113/29 46/114/29 42/115/29
f 46/114/29 44/116/29 42/115/29
o cube.005
v 0.375000 0.178347 0.586727
v 0.375000 0.194523 0.647097
v 0.625000 0.178347 0.586727
v 0.625000 0.194523 0.647097
v 0.375000 0.134153 0.663273
v 0.375000 0.117977 0.602903
v 0.625000 0.134153 0.663273
v 0.625000 0.117977 0.602903
vt 0.125000 0.375000
vt 0.125000 0.312500
vt 0.375000 0.375000
vt 0.375000 0.312500
vt 0.125000 0.406250
vt 0.125000 0.343750
vt 0.375000 0.406250
vt 0.375000 0.343750
vt 0.375000 0.281250
vt 0.375000 0.343750
vt 0.125000 0.281250
vt 0.125000 0.343750
vt 0.125000 0.406250
vt 0.125000 0.343750
vt 0.375000 0.406250
vt 0.375000 0.343750
vn 0.0000 0.9659 -0.2588
vn 0.0000 -0.9659 0.2588
vn 0.0000 0.2588 0.9659
vn 0.0000 -0.2588 -0.9659
usemtl 1
s 1
f 49/117/30 50/118/30 51/119/30
f 50/118/30 52/120/30 51/119/30
f 53/121/31 54/122/31 55/123/31
f 54/122/31 56/124/31 55/123/31
f 50/125/32 53/126/32 52/127/32
f 53/126/32 55/128/32 52/127/32
f 51/129/33 56/130/33 49/131/33
f 56/130/33 54/132/33 49/131/33
o cube.006
v 0.647097 0.194523 0.625000
v 0.663273 0.134153 0.625000
v 0.647097 0.194523 0.375000
v 0.663273 0.134153 0.375000
v 0.586727 0.178347 0.375000
v 0.602903 0.117977 0.375000
v 0.586727 0.178347 0.625000
v 0.602903 0.117977 0.625000
vt 0.375000 0.281250
vt 0.375000 0.343750
vt 0.125000 0.281250
vt 0.125000 0.343750
vt 0.125000 0.406250
vt 0.125000 0.343750
vt 0.375000 0.406250
vt 0.375000 0.343750
vt 0.375000 0.375000
vt 0.125000 0.375000
vt 0.375000 0.312500
vt 0.125000 0.312500
vt 0.375000 0.406250
vt 0.125000 0.406250
vn 0.9659 0.2588 0.0000
vn -0.9659 -0.2588 -0.0000
vn -0.2588 0.9659 0.0000
vn 0.2588 -0.9659 -0.0000
usemtl 1
s 1
f 57/133/34 58/134/34 59/135/34
f 58/134/34 60/136/34 59/135/34
f 61/137/35 62/138/35 63/139/35
f 62/138/35 64/140/35 63/139/35
f 61/141/36 63/142/36 59/143/36
f 63/142/36 57/144/36 59/143/36
f 64/145/37 62/146/37 58/134/37
f 62/146/37 60/136/37 58/134/37
o cube.007
v 0.375000 0.194523 0.352903
v 0.375000 0.178347 0.413273
v 0.625000 0.194523 0.352903
v 0.625000 0.178347 0.413273
v 0.375000 0.117977 0.397097
v 0.375000 0.134153 0.336727
v 0.625000 0.117977 0.397097
v 0.625000 0.134153 0.336727
vt 0.375000 0.312500
vt 0.375000 0.375000
vt 0.125000 0.312500
vt 0.125000 0.375000
vt 0.125000 0.406250
vt 0.125000 0.343750
vt 0.375000 0.406250
vt 0.375000 0.343750
vt 0.125000 0.406250
vt 0.125000 0.343750
vt 0.375000 0.406250
vt 0.375000 0.343750
vt 0.375000 0.281250
vt 0.125000 0.281250
vn 0.0000 0.9659 0.2588
vn 0.0000 -0.9659 -0.2588
vn 0.0000 -0.2588 0.9659
vn 0.0000 0.2588 -0.9659
usemtl 1
s 1
f 65/147/38 66/148/38 67/149/38
f 66/148/38 68/150/38 67/149/38
f 69/151/39 70/152/39 71/153/39
f 70/152/39 72/154/39 71/153/39
f 66/155/40 69/156/40 68/157/40
f 69/156/40 71/158/40 68/157/40
f 67/159/41 72/154/41 65/160/41
f 72/154/41 70/152/41 65/160/41
o octagon
v 0.263452 0.406250 0.510328
v 0.674568 0.406250 0.659962
v 0.325432 0.406250 0.340038
v 0.736548 0.406250 0.489672
v 0.674568 0.312500 0.659962
v 0.263452 0.312500 0.510328
v 0.736548 0.312500 0.489672
v 0.325432 0.312500 0.340038
vt 0.593750 0.287500
vt 1.000000 0.287500
vt 0.593750 0.468750
vt 1.000000 0.468750
vt 0.562500 0.968750
vt 0.562500 0.531250
vt 0.743750 0.968750
vt 0.743750 0.531250
vt 0.187500 0.500000
vt 0.187500 0.406250
vt 0.368750 0.500000
vt 0.368750 0.406250
vt 0.218750 0.500000
vt 0.218750 0.406250
vt 0.400000 0.500000
vt 0.400000 0.406250
vn 0.0000 1.0000 0.0000
vn -0.0000 -1.0000 0.0000
vn 0.9397 0.0000 0.3420
vn -0.9397 0.0000 -0.3420
usemtl 1
s 1
f 73/161/42 74/162/42 75/163/42
f 74/162/42 76/164/42 75/163/42
f 77/165/43 78/166/43 79/167/43
f 78/166/43 80/168/43 79/167/43
f 74/169/44 77/170/44 76/171/44
f 77/170/44 79/172/44 76/171/44
f 75/173/45 80/174/45 73/175/45
f 80/174/45 78/176/45 73/175/45
o octagon.000
v 0.325432 0.406313 0.340038
v 0.510328 0.406312 0.736548
v 0.489672 0.406313 0.263452
v 0.674568 0.406312 0.659962
v 0.510328 0.312562 0.736548
v 0.325432 0.312563 0.340038
v 0.674568 0.312562 0.659962
v 0.489672 0.312563 0.263452
vt 0.593750 0.287500
vt 1.000000 0.287500
vt 0.593750 0.468750
vt 1.000000 0.468750
vt 0.562500 0.968750
vt 0.562500 0.531250
vt 0.743750 0.968750
vt 0.743750 0.531250
vt 0.125000 0.500000
vt 0.125000 0.406250
vt 0.306250 0.500000
vt 0.306250 0.406250
vt 0.093750 0.500000
vt 0.093750 0.406250
vt 0.275000 0.500000
vt 0.275000 0.406250
vn 0.0000 1.0000 0.0000
vn -0.0000 -1.0000 -0.0000
vn 0.4226 -0.0000 0.9063
vn -0.4226 0.0000 -0.9063
usemtl 1
s 1
f 81/177/46 82/178/46 83/179/46
f 82/178/46 84/180/46 83/179/46
f 85/181/47 86/182/47 87/183/47
f 86/182/47 88/184/47 87/183/47
f 82/185/48 85/186/48 84/187/48
f 85/186/48 87/188/48 84/187/48
f 83/189/49 88/190/49 81/191/49
f 88/190/49 86/192/49 81/191/49
o octagon.001
v 0.659962 0.406250 0.325432
v 0.659962 0.312500 0.325432
v 0.489672 0.406250 0.263452
v 0.489672 0.312500 0.263452
v 0.340038 0.406250 0.674568
v 0.340038 0.312500 0.674568
v 0.510328 0.406250 0.736548
v 0.510328 0.312500 0.736548
vt 0.218750 0.500000
vt 0.218750 0.406250
vt 0.400000 0.500000
vt 0.400000 0.406250
vt 0.218750 0.500000
vt 0.218750 0.406250
vt 0.400000 0.500000
vt 0.400000 0.406250
vt 0.593750 0.468750
vt 0.593750 0.287500
vt 1.000000 0.468750
vt 1.000000 0.287500
vt 0.562500 0.531250
vt 0.743718 0.531250
vt 0.562500 0.968750
vt 0.743718 0.968750
vn 0.3420 0.0000 -0.9397
vn -0.3420 0.0000 0.9397
vn -0.0000 1.0000 0.0000
vn 0.0000 -1.0000 0.0000
usemtl 1
s 1
f 89/193/50 90/194/50 91/195/50
f 90/194/50 92/196/50 91/195/50
f 93/197/51 94/198/51 95/199/51
f 94/198/51 96/200/51 95/199/51
f 93/201/52 95/202/52 91/203/52
f 95/202/52 89/204/52 91/203/52
f 96/205/53 94/206/53 90/207/53
f 94/206/53 92/208/53 90/207/53
o octagon.002
v 0.736548 0.406256 0.489672
v 0.736548 0.312506 0.489672
v 0.659962 0.406256 0.325432
v 0.659962 0.312506 0.325432
v 0.263452 0.406256 0.510328
v 0.263452 0.312506 0.510328
v 0.340038 0.406256 0.674568
v 0.340038 0.312506 0.674568
vt 0.125000 0.500000
vt 0.125000 0.406250
vt 0.306250 0.500000
vt 0.306250 0.406250
vt 0.125000 0.500000
vt 0.125000 0.406250
vt 0.306250 0.500000
vt 0.306250 0.406250
vt 0.593750 0.468750
vt 0.593750 0.287500
vt 1.000000 0.468750
vt 1.000000 0.287500
vt 0.562500 0.531250
vt 0.743750 0.531250
vt 0.562500 0.968750
vt 0.743750 0.968750
vn 0.9063 0.0000 -0.4226
vn -0.9063 -0.0000 0.4226
vn 0.0000 1.0000 0.0000
vn -0.0000 -1.0000 0.0000
usemtl 1
s 1
f 97/209/54 98/210/54 99/211/54
f 98/210/54 100/212/54 99/211/54
f 101/213/55 102/214/55 103/215/55
f 102/214/55 104/216/55 103/215/55
f 101/217/56 103/218/56 99/219/56
f 103/218/56 97/220/56 99/219/56
f 104/221/57 102/222/57 98/223/57
f 102/222/57 100/224/57 98/223/57
o cube.008
v 0.362500 0.410219 0.358594
v 0.362500 0.410219 0.639844
v 0.643750 0.410219 0.358594
v 0.643750 0.410219 0.639844
vt 0.656250 0.281250
vt 0.656250 0.000000
vt 0.937500 0.281250
vt 0.937500 0.000000
vn 0.0000 1.0000 0.0000
usemtl 1
s 1
f 105/225/58 106/226/58 107/227/58
f 106/226/58 108/228/58 107/227/58
o cube.009
v 0.503125 0.408188 0.300345
v 0.304251 0.408188 0.499219
v 0.701999 0.408188 0.499219
v 0.503125 0.408187 0.698093
vt 0.656250 0.281250
vt 0.656250 0.000000
vt 0.937500 0.281250
vt 0.937500 0.000000
vn 0.0000 1.0000 -0.0000
usemtl 1
s 1
f 109/229/59 110/230/59 111/231/59
f 110/230/59 112/232/59 111/231/59
