# Made in Blockbench 3.9.1
mtllib mt_easel.mtl
o cube
v 0.7925 0.425633672781422 0.3168837037734563
v 0.7925 0.44180986310032955 0.2565133396303896
v 0.7925 0.33507812656682184 0.292619418295095
v 0.7925 0.3512543168857294 0.23224905415202826
v 0.21500000000000008 0.44180986310032955 0.2565133396303896
v 0.21500000000000008 0.425633672781422 0.3168837037734563
v 0.21500000000000008 0.3512543168857294 0.23224905415202826
v 0.21500000000000008 0.33507812656682184 0.292619418295095
vt 0.71875 0.1875
vt 0.78125 0.1875
vt 0.71875 0.8125
vt 0.78125 0.1875
vt 0.78125 0.8125
vt 0.71875 0.8125
vt 0.875 0.1875
vt 0.9375 0.1875
vt 0.875 0.8125
vt 0.9375 0.1875
vt 0.9375 0.8125
vt 0.875 0.8125
vt 0.6875 0.1875
vt 0.78125 0.1875
vt 0.6875 0.8125
vt 0.78125 0.1875
vt 0.78125 0.8125
vt 0.6875 0.8125
vt 0.75 0.1875
vt 0.84375 0.1875
vt 0.75 0.8125
vt 0.84375 0.1875
vt 0.84375 0.8125
vt 0.75 0.8125
vn 0 0.9659258262890683 0.2588190451025207
vn 0 0.9659258262890683 0.2588190451025207
vn 0 0.9659258262890683 0.2588190451025207
vn 0 0.9659258262890683 0.2588190451025207
vn 0 0.9659258262890683 0.2588190451025207
vn 0 0.9659258262890683 0.2588190451025207
vn 0 -0.9659258262890683 -0.2588190451025207
vn 0 -0.9659258262890683 -0.2588190451025207
vn 0 -0.9659258262890683 -0.2588190451025207
vn 0 -0.9659258262890683 -0.2588190451025207
vn 0 -0.9659258262890683 -0.2588190451025207
vn 0 -0.9659258262890683 -0.2588190451025207
vn 0 -0.2588190451025207 0.9659258262890683
vn 0 -0.2588190451025207 0.9659258262890683
vn 0 -0.2588190451025207 0.9659258262890683
vn 0 -0.2588190451025207 0.9659258262890683
vn 0 -0.2588190451025207 0.9659258262890683
vn 0 -0.2588190451025207 0.9659258262890683
vn 0 0.2588190451025207 -0.9659258262890683
vn 0 0.2588190451025207 -0.9659258262890683
vn 0 0.2588190451025207 -0.9659258262890683
vn 0 0.2588190451025207 -0.9659258262890683
vn 0 0.2588190451025207 -0.9659258262890683
vn 0 0.2588190451025207 -0.9659258262890683
usemtl m_0
f 5/1/1 6/2/2 2/3/3
f 6/4/4 1/5/5 2/6/6
usemtl m_0
f 8/7/7 7/8/8 3/9/9
f 7/10/10 4/11/11 3/12/12
usemtl m_0
f 6/13/13 8/14/14 1/15/15
f 8/16/16 3/17/17 1/18/18
usemtl m_0
f 2/19/19 4/20/20 5/21/21
f 4/22/22 7/23/23 5/24/24
o cube
v 0.7512500000000002 1.327868453703842 0.562260251336325
v 0.7512500000000002 1.3449505106806083 0.4985091468012464
v 0.7512500000000002 1.237312907489242 0.5379959658579636
v 0.7512500000000002 1.2543949644660082 0.47424486132288507
v 0.25625000000000003 1.3449505106806083 0.4985091468012464
v 0.25625000000000003 1.327868453703842 0.562260251336325
v 0.25625000000000003 1.2543949644660082 0.47424486132288507
v 0.25625000000000003 1.237312907489242 0.5379959658579636
vt 0.71875 0.1875
vt 0.78125 0.1875
vt 0.71875 0.8125
vt 0.78125 0.1875
vt 0.78125 0.8125
vt 0.71875 0.8125
vt 0.71875 0.1875
vt 0.78125 0.1875
vt 0.71875 0.8125
vt 0.78125 0.1875
vt 0.78125 0.8125
vt 0.71875 0.8125
vt 0.71875 0.1875
vt 0.8125 0.1875
vt 0.71875 0.8125
vt 0.8125 0.1875
vt 0.8125 0.8125
vt 0.71875 0.8125
vn 0 0.9659258262890683 0.2588190451025207
vn 0 0.9659258262890683 0.2588190451025207
vn 0 0.9659258262890683 0.2588190451025207
vn 0 0.9659258262890683 0.2588190451025207
vn 0 0.9659258262890683 0.2588190451025207
vn 0 0.9659258262890683 0.2588190451025207
vn 0 -0.9659258262890683 -0.2588190451025207
vn 0 -0.9659258262890683 -0.2588190451025207
vn 0 -0.9659258262890683 -0.2588190451025207
vn 0 -0.9659258262890683 -0.2588190451025207
vn 0 -0.9659258262890683 -0.2588190451025207
vn 0 -0.9659258262890683 -0.2588190451025207
vn 0 -0.2588190451025207 0.9659258262890683
vn 0 -0.2588190451025207 0.9659258262890683
vn 0 -0.2588190451025207 0.9659258262890683
vn 0 -0.2588190451025207 0.9659258262890683
vn 0 -0.2588190451025207 0.9659258262890683
vn 0 -0.2588190451025207 0.9659258262890683
usemtl m_0
f 13/25/25 14/26/26 10/27/27
f 14/28/28 9/29/29 10/30/30
usemtl m_0
f 16/31/31 15/32/32 11/33/33
f 15/34/34 12/35/35 11/36/36
usemtl m_0
f 14/37/37 16/38/38 9/39/39
f 16/40/40 11/41/41 9/42/42
o cube
v 0.5038125 0.4125 0.7925
v 0.5038125 0.4125 0.29750000000000004
v 0.5038125 0.37125 0.7925
v 0.5038125 0.37125 0.29750000000000004
v 0.50375 0.4125 0.29750000000000004
v 0.50375 0.4125 0.7925
v 0.50375 0.37125 0.29750000000000004
v 0.50375 0.37125 0.7925
vt 0.51 1
vt 0.46875 1
vt 0.51 0.5050000000000001
vt 0.46875 1
vt 0.46875 0.5050000000000001
vt 0.51 0.5050000000000001
vt 0.46875 0.5050000000000001
vt 0.51 0.5050000000000001
vt 0.46875 1
vt 0.51 0.5050000000000001
vt 0.51 1
vt 0.46875 1
vn 1 0 0
vn 1 0 0
vn 1 0 0
vn 1 0 0
vn 1 0 0
vn 1 0 0
vn -1 0 0
vn -1 0 0
vn -1 0 0
vn -1 0 0
vn -1 0 0
vn -1 0 0
usemtl m_1
f 17/43/43 19/44/44 18/45/45
f 19/46/46 20/47/47 18/48/48
usemtl m_1
f 21/49/49 23/50/50 22/51/51
f 23/52/52 24/53/53 22/54/54
o cube
v 0.9750000000000001 0.6732425880592009 0.33457233218160953
v 0.9750000000000001 0.705594968697016 0.21383160389547598
v 0.9750000000000001 0.6128722239161342 0.318396141862702
v 0.9750000000000001 0.6452246045539493 0.19765541357656843
v 0.03750000000000005 0.705594968697016 0.21383160389547598
v 0.03750000000000005 0.6732425880592009 0.33457233218160953
v 0.03750000000000005 0.6452246045539493 0.19765541357656843
v 0.03750000000000005 0.6128722239161342 0.318396141862702
vt 0.03125 1
vt 0.03125 0.9375
vt 0.15625 1
vt 0.03125 0.9375
vt 0.15625 0.9375
vt 0.15625 1
vt 0.03125 1
vt 0.03125 0.9375
vt 0.15625 1
vt 0.03125 0.9375
vt 0.15625 0.9375
vt 0.15625 1
vt 0.1875 0.03124999999999989
vt 0.3125 0.03124999999999989
vt 0.1875 0.96875
vt 0.3125 0.03124999999999989
vt 0.3125 0.96875
vt 0.1875 0.96875
vt 0.5 0.03124999999999989
vt 0.625 0.03124999999999989
vt 0.5 0.96875
vt 0.625 0.03124999999999989
vt 0.625 0.96875
vt 0.5 0.96875
vt 0.03125 0.03124999999999989
vt 0.09375 0.03124999999999989
vt 0.03125 0.96875
vt 0.09375 0.03124999999999989
vt 0.09375 0.96875
vt 0.03125 0.96875
vt 0.03125 0.03124999999999989
vt 0.09375 0.03124999999999989
vt 0.03125 0.96875
vt 0.09375 0.03124999999999989
vt 0.09375 0.96875
vt 0.03125 0.96875
vn 1 0 0
vn 1 0 0
vn 1 0 0
vn 1 0 0
vn 1 0 0
vn 1 0 0
vn -1 0 0
vn -1 0 0
vn -1 0 0
vn -1 0 0
vn -1 0 0
vn -1 0 0
vn 0 0.9659258262890683 0.2588190451025207
vn 0 0.9659258262890683 0.2588190451025207
vn 0 0.9659258262890683 0.2588190451025207
vn 0 0.9659258262890683 0.2588190451025207
vn 0 0.9659258262890683 0.2588190451025207
vn 0 0.9659258262890683 0.2588190451025207
vn 0 -0.9659258262890683 -0.2588190451025207
vn 0 -0.9659258262890683 -0.2588190451025207
vn 0 -0.9659258262890683 -0.2588190451025207
vn 0 -0.9659258262890683 -0.2588190451025207
vn 0 -0.9659258262890683 -0.2588190451025207
vn 0 -0.9659258262890683 -0.2588190451025207
vn 0 -0.2588190451025207 0.9659258262890683
vn 0 -0.2588190451025207 0.9659258262890683
vn 0 -0.2588190451025207 0.9659258262890683
vn 0 -0.2588190451025207 0.9659258262890683
vn 0 -0.2588190451025207 0.9659258262890683
vn 0 -0.2588190451025207 0.9659258262890683
vn 0 0.2588190451025207 -0.9659258262890683
vn 0 0.2588190451025207 -0.9659258262890683
vn 0 0.2588190451025207 -0.9659258262890683
vn 0 0.2588190451025207 -0.9659258262890683
vn 0 0.2588190451025207 -0.9659258262890683
vn 0 0.2588190451025207 -0.9659258262890683
usemtl m_0
f 25/55/55 27/56/56 26/57/57
f 27/58/58 28/59/59 26/60/60
usemtl m_0
f 29/61/61 31/62/62 30/63/63
f 31/64/64 32/65/65 30/66/66
usemtl m_0
f 29/67/67 30/68/68 26/69/69
f 30/70/70 25/71/71 26/72/72
usemtl m_0
f 32/73/73 31/74/74 27/75/75
f 31/76/76 28/77/77 27/78/78
usemtl m_0
f 30/79/79 32/80/80 25/81/81
f 32/82/82 27/83/83 25/84/84
usemtl m_0
f 26/85/85 28/86/86 29/87/87
f 28/88/88 31/89/89 29/90/90
o cube
v 0.7389734940962223 1.5041031826837208 0.6296700901627978
v 0.7389734940962223 1.528367468162082 0.5391145439481977
v 0.8751543421394381 0.0005872656539422966 0.22680421438732987
v 0.8751543421394381 0.024851551132303615 0.13624866817272974
v 0.6455802411501211 1.5204750322718288 0.5369997721250899
v 0.6455802411501211 1.4962107467934675 0.62755531833969
v 0.781761089193337 0.01695911524205026 0.13413389634962192
v 0.781761089193337 -0.007305170236311059 0.22468944256422207
vt 0.34375 1
vt 0.34375 0
vt 0.4375 1
vt 0.34375 0
vt 0.4375 0
vt 0.4375 1
vt 0.03125 1
vt 0.03125 0
vt 0.125 1
vt 0.03125 0
vt 0.125 0
vt 0.125 1
vt 0.21875 0.3125
vt 0.21875 0.21875
vt 0.3125 0.3125
vt 0.21875 0.21875
vt 0.3125 0.21875
vt 0.3125 0.3125
vt 0.53125 1
vt 0.53125 0.90625
vt 0.625 1
vt 0.53125 0.90625
vt 0.625 0.90625
vt 0.625 1
vt 0.1875 1
vt 0.1875 0
vt 0.28125 1
vt 0.1875 0
vt 0.28125 0
vt 0.28125 1
vt 0.1875 1
vt 0.1875 0
vt 0.28125 1
vt 0.1875 0
vt 0.28125 0
vt 0.28125 1
vn 0.9961946980917455 0.08418598282936915 0.022557566113149845
vn 0.9961946980917455 0.08418598282936915 0.022557566113149845
vn 0.9961946980917455 0.08418598282936915 0.022557566113149845
vn 0.9961946980917455 0.08418598282936915 0.022557566113149845
vn 0.9961946980917455 0.08418598282936915 0.022557566113149845
vn 0.9961946980917455 0.08418598282936915 0.022557566113149845
vn -0.9961946980917455 -0.08418598282936915 -0.022557566113149845
vn -0.9961946980917455 -0.08418598282936915 -0.022557566113149845
vn -0.9961946980917455 -0.08418598282936915 -0.022557566113149845
vn -0.9961946980917455 -0.08418598282936915 -0.022557566113149845
vn -0.9961946980917455 -0.08418598282936915 -0.022557566113149845
vn -0.9961946980917455 -0.08418598282936915 -0.022557566113149845
vn -0.08715574274765811 0.9622501868990583 0.25783416049629954
vn -0.08715574274765811 0.9622501868990583 0.25783416049629954
vn -0.08715574274765811 0.9622501868990583 0.25783416049629954
vn -0.08715574274765811 0.9622501868990583 0.25783416049629954
vn -0.08715574274765811 0.9622501868990583 0.25783416049629954
vn -0.08715574274765811 0.9622501868990583 0.25783416049629954
vn 0.08715574274765811 -0.9622501868990583 -0.25783416049629954
vn 0.08715574274765811 -0.9622501868990583 -0.25783416049629954
vn 0.08715574274765811 -0.9622501868990583 -0.25783416049629954
vn 0.08715574274765811 -0.9622501868990583 -0.25783416049629954
vn 0.08715574274765811 -0.9622501868990583 -0.25783416049629954
vn 0.08715574274765811 -0.9622501868990583 -0.25783416049629954
vn -2.7755575615628914e-17 -0.2588190451025207 0.9659258262890683
vn -2.7755575615628914e-17 -0.2588190451025207 0.9659258262890683
vn -2.7755575615628914e-17 -0.2588190451025207 0.9659258262890683
vn -2.7755575615628914e-17 -0.2588190451025207 0.9659258262890683
vn -2.7755575615628914e-17 -0.2588190451025207 0.9659258262890683
vn -2.7755575615628914e-17 -0.2588190451025207 0.9659258262890683
vn 2.7755575615628914e-17 0.2588190451025207 -0.9659258262890683
vn 2.7755575615628914e-17 0.2588190451025207 -0.9659258262890683
vn 2.7755575615628914e-17 0.2588190451025207 -0.9659258262890683
vn 2.7755575615628914e-17 0.2588190451025207 -0.9659258262890683
vn 2.7755575615628914e-17 0.2588190451025207 -0.9659258262890683
vn 2.7755575615628914e-17 0.2588190451025207 -0.9659258262890683
usemtl m_0
f 33/91/91 35/92/92 34/93/93
f 35/94/94 36/95/95 34/96/96
usemtl m_0
f 37/97/97 39/98/98 38/99/99
f 39/100/100 40/101/101 38/102/102
usemtl m_0
f 37/103/103 38/104/104 34/105/105
f 38/106/106 33/107/107 34/108/108
usemtl m_0
f 40/109/109 39/110/110 35/111/111
f 39/112/112 36/113/113 35/114/114
usemtl m_0
f 38/115/115 40/116/116 33/117/117
f 40/118/118 35/119/119 33/120/120
usemtl m_0
f 34/121/121 36/122/122 37/123/123
f 36/124/124 39/125/125 37/126/126
o cube
v 0.55 1.8745224122150244 0.7051122714272374
v 0.55 1.8906986025339318 0.6447419072841707
v 0.55 0.425633672781422 0.3168837037734563
v 0.55 0.44180986310032955 0.2565133396303896
v 0.4562500000000001 1.8906986025339318 0.6447419072841707
v 0.4562500000000001 1.8745224122150244 0.7051122714272374
v 0.4562500000000001 0.44180986310032955 0.2565133396303896
v 0.4562500000000001 0.425633672781422 0.3168837037734563
vt 0.0625 1
vt 0.0625 0
vt 0.125 1
vt 0.0625 0
vt 0.125 0
vt 0.125 1
vt 0.40625 1
vt 0.40625 0
vt 0.46875 1
vt 0.40625 0
vt 0.46875 0
vt 0.46875 1
vt 0.46875 0.5625
vt 0.40625 0.5625
vt 0.46875 0.46875
vt 0.40625 0.5625
vt 0.40625 0.46875
vt 0.46875 0.46875
vt 0.1875 1
vt 0.1875 0
vt 0.28125 1
vt 0.1875 0
vt 0.28125 0
vt 0.28125 1
vt 0.0625 1
vt 0.0625 0
vt 0.15625 1
vt 0.0625 0
vt 0.15625 0
vt 0.15625 1
vn 1 0 0
vn 1 0 0
vn 1 0 0
vn 1 0 0
vn 1 0 0
vn 1 0 0
vn -1 0 0
vn -1 0 0
vn -1 0 0
vn -1 0 0
vn -1 0 0
vn -1 0 0
vn 0 0.9659258262890683 0.2588190451025207
vn 0 0.9659258262890683 0.2588190451025207
vn 0 0.9659258262890683 0.2588190451025207
vn 0 0.9659258262890683 0.2588190451025207
vn 0 0.9659258262890683 0.2588190451025207
vn 0 0.9659258262890683 0.2588190451025207
vn 0 -0.2588190451025207 0.9659258262890683
vn 0 -0.2588190451025207 0.9659258262890683
vn 0 -0.2588190451025207 0.9659258262890683
vn 0 -0.2588190451025207 0.9659258262890683
vn 0 -0.2588190451025207 0.9659258262890683
vn 0 -0.2588190451025207 0.9659258262890683
vn 0 0.2588190451025207 -0.9659258262890683
vn 0 0.2588190451025207 -0.9659258262890683
vn 0 0.2588190451025207 -0.9659258262890683
vn 0 0.2588190451025207 -0.9659258262890683
vn 0 0.2588190451025207 -0.9659258262890683
vn 0 0.2588190451025207 -0.9659258262890683
usemtl m_0
f 41/127/127 43/128/128 42/129/129
f 43/130/130 44/131/131 42/132/132
usemtl m_0
f 45/133/133 47/134/134 46/135/135
f 47/136/136 48/137/137 46/138/138
usemtl m_0
f 45/139/139 46/140/140 42/141/141
f 46/142/142 41/143/143 42/144/144
usemtl m_0
f 46/145/145 48/146/146 41/147/147
f 48/148/148 43/149/149 41/150/150
usemtl m_0
f 42/151/151 44/152/152 45/153/153
f 44/154/154 47/155/155 45/156/156
o cube
v 0.5489062500000002 1.315709052213632 0.5584581348018777
v 0.5489062500000002 1.2875178835101064 0.4690471706692314
v 0.5489062500000002 0.028191168703525595 0.9644109641326463
v 0.5489062500000002 0 0.875
v 0.45515625000000015 1.2875178835101064 0.4690471706692314
v 0.45515625000000015 1.315709052213632 0.5584581348018777
v 0.45515625000000015 0 0.875
v 0.45515625000000015 0.028191168703525595 0.9644109641326463
vt 0.1875 1
vt 0.1875 0
vt 0.28125 1
vt 0.1875 0
vt 0.28125 0
vt 0.28125 1
vt 0.1875 1
vt 0.1875 0
vt 0.28125 1
vt 0.1875 0
vt 0.28125 0
vt 0.28125 1
vt 0.53125 1
vt 0.53125 0.90625
vt 0.625 1
vt 0.53125 0.90625
vt 0.625 0.90625
vt 0.625 1
vt 0.03125 1
vt 0.03125 0
vt 0.12500000000000006 1
vt 0.03125 0
vt 0.12500000000000006 0
vt 0.12500000000000006 1
vt 0.0625 1
vt 0.0625 0
vt 0.15625000000000006 1
vt 0.0625 0
vt 0.15625000000000006 0
vt 0.15625000000000006 1
vn 1 0 0
vn 1 0 0
vn 1 0 0
vn 1 0 0
vn 1 0 0
vn 1 0 0
vn -1 0 0
vn -1 0 0
vn -1 0 0
vn -1 0 0
vn -1 0 0
vn -1 0 0
vn 0 -0.9537169507482269 0.300705799504273
vn 0 -0.9537169507482269 0.300705799504273
vn 0 -0.9537169507482269 0.300705799504273
vn 0 -0.9537169507482269 0.300705799504273
vn 0 -0.9537169507482269 0.300705799504273
vn 0 -0.9537169507482269 0.300705799504273
vn 0 0.300705799504273 0.9537169507482269
vn 0 0.300705799504273 0.9537169507482269
vn 0 0.300705799504273 0.9537169507482269
vn 0 0.300705799504273 0.9537169507482269
vn 0 0.300705799504273 0.9537169507482269
vn 0 0.300705799504273 0.9537169507482269
vn 0 -0.300705799504273 -0.9537169507482269
vn 0 -0.300705799504273 -0.9537169507482269
vn 0 -0.300705799504273 -0.9537169507482269
vn 0 -0.300705799504273 -0.9537169507482269
vn 0 -0.300705799504273 -0.9537169507482269
vn 0 -0.300705799504273 -0.9537169507482269
usemtl m_0
f 49/157/157 51/158/158 50/159/159
f 51/160/160 52/161/161 50/162/162
usemtl m_0
f 53/163/163 55/164/164 54/165/165
f 55/166/166 56/167/167 54/168/168
usemtl m_0
f 56/169/169 55/170/170 51/171/171
f 55/172/172 52/173/173 51/174/174
usemtl m_0
f 54/175/175 56/176/176 49/177/177
f 56/178/178 51/179/179 49/180/180
usemtl m_0
f 50/181/181 52/182/182 53/183/183
f 52/184/184 55/185/185 53/186/186
o cube
v 0.362074100989317 1.4927117668821217 0.6266177694981122
v 0.362074100989317 1.516976052360483 0.536062223283512
v 0.22589325294610121 -0.01080415014765671 0.22375189372264429
v 0.22589325294610121 0.013460135330704608 0.13319634750804416
v 0.2686808480432159 1.5248684882507364 0.5381769951066199
v 0.2686808480432159 1.5006042027723752 0.62873254132122
v 0.13250000000000006 0.021352571220957964 0.13531111933115192
v 0.13250000000000006 -0.0029117142574033535 0.22586666554575208
vt 0.21875 1
vt 0.21875 0
vt 0.3125 1
vt 0.21875 0
vt 0.3125 0
vt 0.3125 1
vt 0.375 1
vt 0.375 0
vt 0.46875 1
vt 0.375 0
vt 0.46875 0
vt 0.46875 1
vt 0.21875 0.34375
vt 0.21875 0.25
vt 0.3125 0.34375
vt 0.21875 0.25
vt 0.3125 0.25
vt 0.3125 0.34375
vt 0.53125 1
vt 0.53125 0.90625
vt 0.625 1
vt 0.53125 0.90625
vt 0.625 0.90625
vt 0.625 1
vt 0.1875 1
vt 0.1875 0
vt 0.28125 1
vt 0.1875 0
vt 0.28125 0
vt 0.28125 1
vt 0.0625 1
vt 0.0625 0
vt 0.15625 1
vt 0.0625 0
vt 0.15625 0
vt 0.15625 1
vn 0.9961946980917455 -0.08418598282936915 -0.022557566113149845
vn 0.9961946980917455 -0.08418598282936915 -0.022557566113149845
vn 0.9961946980917455 -0.08418598282936915 -0.022557566113149845
vn 0.9961946980917455 -0.08418598282936915 -0.022557566113149845
vn 0.9961946980917455 -0.08418598282936915 -0.022557566113149845
vn 0.9961946980917455 -0.08418598282936915 -0.022557566113149845
vn -0.9961946980917455 0.08418598282936915 0.022557566113149845
vn -0.9961946980917455 0.08418598282936915 0.022557566113149845
vn -0.9961946980917455 0.08418598282936915 0.022557566113149845
vn -0.9961946980917455 0.08418598282936915 0.022557566113149845
vn -0.9961946980917455 0.08418598282936915 0.022557566113149845
vn -0.9961946980917455 0.08418598282936915 0.022557566113149845
vn 0.08715574274765811 0.9622501868990583 0.25783416049629954
vn 0.08715574274765811 0.9622501868990583 0.25783416049629954
vn 0.08715574274765811 0.9622501868990583 0.25783416049629954
vn 0.08715574274765811 0.9622501868990583 0.25783416049629954
vn 0.08715574274765811 0.9622501868990583 0.25783416049629954
vn 0.08715574274765811 0.9622501868990583 0.25783416049629954
vn -0.08715574274765811 -0.9622501868990583 -0.25783416049629954
vn -0.08715574274765811 -0.9622501868990583 -0.25783416049629954
vn -0.08715574274765811 -0.9622501868990583 -0.25783416049629954
vn -0.08715574274765811 -0.9622501868990583 -0.25783416049629954
vn -0.08715574274765811 -0.9622501868990583 -0.25783416049629954
vn -0.08715574274765811 -0.9622501868990583 -0.25783416049629954
vn 2.7755575615628914e-17 -0.2588190451025207 0.9659258262890683
vn 2.7755575615628914e-17 -0.2588190451025207 0.9659258262890683
vn 2.7755575615628914e-17 -0.2588190451025207 0.9659258262890683
vn 2.7755575615628914e-17 -0.2588190451025207 0.9659258262890683
vn 2.7755575615628914e-17 -0.2588190451025207 0.9659258262890683
vn 2.7755575615628914e-17 -0.2588190451025207 0.9659258262890683
vn -2.7755575615628914e-17 0.2588190451025207 -0.9659258262890683
vn -2.7755575615628914e-17 0.2588190451025207 -0.9659258262890683
vn -2.7755575615628914e-17 0.2588190451025207 -0.9659258262890683
vn -2.7755575615628914e-17 0.2588190451025207 -0.9659258262890683
vn -2.7755575615628914e-17 0.2588190451025207 -0.9659258262890683
vn -2.7755575615628914e-17 0.2588190451025207 -0.9659258262890683
usemtl m_0
f 57/187/187 59/188/188 58/189/189
f 59/190/190 60/191/191 58/192/192
usemtl m_0
f 61/193/193 63/194/194 62/195/195
f 63/196/196 64/197/197 62/198/198
usemtl m_0
f 61/199/199 62/200/200 58/201/201
f 62/202/202 57/203/203 58/204/204
usemtl m_0
f 64/205/205 63/206/206 59/207/207
f 63/208/208 60/209/209 59/210/210
usemtl m_0
f 62/211/211 64/212/212 57/213/213
f 64/214/214 59/215/215 57/216/216
usemtl m_0
f 58/217/217 60/218/218 61/219/219
f 60/220/220 63/221/221 61/222/222
o cube
v 0.9139062500000001 1.6456388904758321 0.5692432316269034
v 0.9139062500000001 1.6618150807947398 0.5088728674838366
v 0.9139062500000001 0.6797130641867639 0.3104241865243828
v 0.9139062500000001 0.6958892545056714 0.250053822381316
v 0.10140625000000011 1.6618150807947398 0.5088728674838366
v 0.10140625000000011 1.6456388904758321 0.5692432316269034
v 0.10140625000000011 0.6958892545056714 0.250053822381316
v 0.10140625000000011 0.6797130641867639 0.3104241865243828
vt 0.84375 1
vt 0.84375 1.1102230246251565e-16
vt 0.90625 1
vt 0.84375 1.1102230246251565e-16
vt 0.90625 1.1102230246251565e-16
vt 0.90625 1
vt 0.09375 1
vt 0.09375 1.1102230246251565e-16
vt 0.15625 1
vt 0.09375 1.1102230246251565e-16
vt 0.15625 1.1102230246251565e-16
vt 0.15625 1
vt 0.09375 1
vt 0.09375 0.9375
vt 0.90625 1
vt 0.09375 0.9375
vt 0.90625 0.9375
vt 0.90625 1
vt 0.09375 1
vt 0.09375 1.1102230246251565e-16
vt 0.90625 1
vt 0.09375 1.1102230246251565e-16
vt 0.90625 1.1102230246251565e-16
vt 0.90625 1
vt 0.09375 1
vt 0.09375 1.1102230246251565e-16
vt 0.90625 1
vt 0.09375 1.1102230246251565e-16
vt 0.90625 1.1102230246251565e-16
vt 0.90625 1
vn 1 0 0
vn 1 0 0
vn 1 0 0
vn 1 0 0
vn 1 0 0
vn 1 0 0
vn -1 0 0
vn -1 0 0
vn -1 0 0
vn -1 0 0
vn -1 0 0
vn -1 0 0
vn 0 0.9659258262890683 0.2588190451025207
vn 0 0.9659258262890683 0.2588190451025207
vn 0 0.9659258262890683 0.2588190451025207
vn 0 0.9659258262890683 0.2588190451025207
vn 0 0.9659258262890683 0.2588190451025207
vn 0 0.9659258262890683 0.2588190451025207
vn 0 -0.2588190451025207 0.9659258262890683
vn 0 -0.2588190451025207 0.9659258262890683
vn 0 -0.2588190451025207 0.9659258262890683
vn 0 -0.2588190451025207 0.9659258262890683
vn 0 -0.2588190451025207 0.9659258262890683
vn 0 -0.2588190451025207 0.9659258262890683
vn 0 0.2588190451025207 -0.9659258262890683
vn 0 0.2588190451025207 -0.9659258262890683
vn 0 0.2588190451025207 -0.9659258262890683
vn 0 0.2588190451025207 -0.9659258262890683
vn 0 0.2588190451025207 -0.9659258262890683
vn 0 0.2588190451025207 -0.9659258262890683
usemtl m_2
f 65/223/223 67/224/224 66/225/225
f 67/226/226 68/227/227 66/228/228
usemtl m_2
f 69/229/229 71/230/230 70/231/231
f 71/232/232 72/233/233 70/234/234
usemtl m_2
f 69/235/235 70/236/236 66/237/237
f 70/238/238 65/239/239 66/240/240
usemtl m_3
f 70/241/241 72/242/242 65/243/243
f 72/244/244 67/245/245 65/246/246
usemtl m_2
f 66/247/247 68/248/248 69/249/249
f 68/250/250 71/251/251 69/252/252
o cube
v 1.0625 1.500119045988022 0.5233833734122635
v 1.0625 1.5001502959880222 0.5234375
v 1.0625 1.8519418662754503 0.3202583734122635
v 1.0625 1.8519731162754505 0.3203125
v 0.0625 1.5001502959880222 0.5234375
v 0.0625 1.500119045988022 0.5233833734122635
v 0.0625 1.8519731162754505 0.3203125
v 0.0625 1.8519418662754503 0.3202583734122635
vt 1 0.6875
vt 1 0.28125
vt 0 0.6875
vt 1 0.28125
vt 0 0.28125
vt 0 0.6875
vt 0 0.6875
vt 0 0.28125
vt 1 0.6875
vt 0 0.28125
vt 1 0.28125
vt 1 0.6875
vn 0 -0.49999999999999983 -0.8660254037844386
vn 0 -0.49999999999999983 -0.8660254037844386
vn 0 -0.49999999999999983 -0.8660254037844386
vn 0 -0.49999999999999983 -0.8660254037844386
vn 0 -0.49999999999999983 -0.8660254037844386
vn 0 -0.49999999999999983 -0.8660254037844386
vn 0 0.49999999999999983 0.8660254037844386
vn 0 0.49999999999999983 0.8660254037844386
vn 0 0.49999999999999983 0.8660254037844386
vn 0 0.49999999999999983 0.8660254037844386
vn 0 0.49999999999999983 0.8660254037844386
vn 0 0.49999999999999983 0.8660254037844386
usemtl m_4
f 78/253/253 80/254/254 73/255/255
f 80/256/256 75/257/257 73/258/258
usemtl m_4
f 74/259/259 76/260/260 77/261/261
f 76/262/262 79/263/263 77/264/264
o cube
v 0.9375 1.6554206100184545 0.4836339983661028
v 0.9375 1.6554648041922786 0.48358980419227865
v 0.9375 1.4786439147218176 0.3068573030694659
v 0.9375 1.4786881088956418 0.30681310889564173
v -0.0625 1.6554648041922786 0.48358980419227865
v -0.0625 1.6554206100184545 0.4836339983661028
v -0.0625 1.4786881088956418 0.30681310889564173
v -0.0625 1.4786439147218176 0.3068573030694659
vt 1 0.53125
vt 1 0.28125
vt 0 0.53125
vt 1 0.28125
vt 0 0.28125
vt 0 0.53125
vt 0 0.53125
vt 0 0.28125
vt 1 0.53125
vt 0 0.28125
vt 1 0.28125
vt 1 0.53125
vn 0 -0.7071067811865477 0.7071067811865475
vn 0 -0.7071067811865477 0.7071067811865475
vn 0 -0.7071067811865477 0.7071067811865475
vn 0 -0.7071067811865477 0.7071067811865475
vn 0 -0.7071067811865477 0.7071067811865475
vn 0 -0.7071067811865477 0.7071067811865475
vn 0 0.7071067811865477 -0.7071067811865475
vn 0 0.7071067811865477 -0.7071067811865475
vn 0 0.7071067811865477 -0.7071067811865475
vn 0 0.7071067811865477 -0.7071067811865475
vn 0 0.7071067811865477 -0.7071067811865475
vn 0 0.7071067811865477 -0.7071067811865475
usemtl m_4
f 86/265/265 88/266/266 81/267/267
f 88/268/268 83/269/269 81/270/270
usemtl m_4
f 82/271/271 84/272/272 85/273/273
f 84/274/274 87/275/275 85/276/276
