# Blender v2.82 (sub 7) OBJ File: ''
# www.blender.org
mtllib mt_horse_bb.mtl
o cube
v 0.124750 0.002034 0.318935
v 0.338650 0.002034 0.105035
v 0.124750 0.244034 0.318935
v 0.338650 0.244034 0.105035
v -0.089150 0.244034 0.105035
v 0.124750 0.244034 -0.108864
v -0.089150 0.002034 0.105035
v 0.124750 0.002034 -0.108864
vt 0.587500 0.748750
vt 0.312500 0.748750
vt 0.587500 0.968750
vt 0.312500 0.968750
vt 0.587500 0.906250
vt 0.312500 0.906250
vt 0.587500 0.686250
vt 0.312500 0.686250
vt 0.312500 0.968750
vt 0.312500 0.748750
vt 0.587500 0.686250
vt 0.587500 0.906250
vt 0.587500 0.843750
vt 0.587500 0.568750
vt 0.312500 0.843750
vt 0.312500 0.568750
vt 0.312500 1.000000
vt 0.312500 0.725000
vt 0.587500 1.000000
vt 0.587500 0.725000
vn 0.7071 -0.0000 0.7071
vn -0.7071 0.0000 -0.7071
vn -0.7071 -0.0000 0.7071
vn 0.7071 0.0000 -0.7071
vn -0.0000 -1.0000 -0.0000
vn 0.0000 1.0000 0.0000
usemtl 3
s 1
f 1/1/1 2/2/1 3/3/1
f 2/2/1 4/4/1 3/3/1
f 5/5/2 6/6/2 7/7/2
f 6/6/2 8/8/2 7/7/2
f 5/9/3 7/10/3 3/3/3
f 7/10/3 1/1/3 3/3/3
f 8/8/4 6/6/4 2/11/4
f 6/6/4 4/12/4 2/11/4
f 7/13/5 8/14/5 1/15/5
f 8/14/5 2/16/5 1/15/5
usemtl 1
f 3/17/6 4/18/6 5/19/6
f 4/18/6 6/20/6 5/19/6
o cube.000
v 1.064650 0.002034 0.191660
v 0.850750 0.002034 -0.022239
v 1.064650 0.244034 0.191660
v 0.850750 0.244034 -0.022239
v 0.850750 0.244034 0.405560
v 0.636850 0.244034 0.191660
v 0.850750 0.002034 0.405560
v 0.636850 0.002034 0.191660
vt 0.587500 0.686250
vt 0.312500 0.686250
vt 0.587500 0.906250
vt 0.312500 0.906250
vt 0.587500 0.968750
vt 0.312500 0.968750
vt 0.587500 0.748750
vt 0.312500 0.748750
vt 0.312500 0.968750
vt 0.312500 0.748750
vt 0.587500 0.686250
vt 0.587500 0.906250
vt 0.587500 0.843750
vt 0.587500 0.568750
vt 0.312500 0.843750
vt 0.312500 0.568750
vt 0.625000 1.000000
vt 0.625000 0.725000
vt 0.900000 1.000000
vt 0.900000 0.725000
vn 0.7071 0.0000 -0.7071
vn -0.7071 0.0000 0.7071
vn 0.7071 0.0000 0.7071
vn -0.7071 0.0000 -0.7071
vn 0.0000 -1.0000 -0.0000
vn 0.0000 1.0000 0.0000
usemtl 3
s 1
f 9/21/7 10/22/7 11/23/7
f 10/22/7 12/24/7 11/23/7
f 13/25/8 14/26/8 15/27/8
f 14/26/8 16/28/8 15/27/8
f 13/25/9 15/27/9 11/29/9
f 15/27/9 9/30/9 11/29/9
f 16/31/10 14/32/10 10/22/10
f 14/32/10 12/24/10 10/22/10
f 15/33/11 16/34/11 9/35/11
f 16/34/11 10/36/11 9/35/11
usemtl 1
f 11/37/12 12/38/12 13/39/12
f 12/38/12 14/40/12 13/39/12
o cube.001
v 0.971750 0.347314 0.526560
v 0.971750 0.176194 0.355440
v 0.971750 0.518434 0.355440
v 0.971750 0.347314 0.184321
v 0.729750 0.518434 0.355440
v 0.729750 0.347314 0.184321
v 0.729750 0.347314 0.526560
v 0.729750 0.176194 0.355440
vt 0.406250 0.562500
vt 0.406250 0.342500
vt 0.626250 0.562500
vt 0.626250 0.342500
vt 0.657500 0.593750
vt 0.437500 0.593750
vt 0.657500 0.373750
vt 0.437500 0.373750
vt 0.000000 1.000000
vt 0.000000 0.780000
vt 0.220000 1.000000
vt 0.220000 0.780000
vt 0.220000 0.373750
vt 0.220000 0.593750
vt 0.000000 0.373750
vt 0.000000 0.593750
vt 0.468750 0.562500
vt 0.468750 0.342500
vt 0.687500 0.562500
vt 0.687500 0.342500
vt 0.000000 1.000000
vt 0.000000 0.780000
vt 0.220000 1.000000
vt 0.220000 0.780000
vn 1.0000 0.0000 0.0000
vn -1.0000 0.0000 0.0000
vn 0.0000 0.7071 0.7071
vn 0.0000 -0.7071 -0.7071
vn 0.0000 -0.7071 0.7071
vn 0.0000 0.7071 -0.7071
usemtl 1
s 1
f 17/41/13 18/42/13 19/43/13
f 18/42/13 20/44/13 19/43/13
f 21/45/14 22/46/14 23/47/14
f 22/46/14 24/48/14 23/47/14
f 21/49/15 23/50/15 19/51/15
f 23/50/15 17/52/15 19/51/15
f 24/53/16 22/54/16 18/55/16
f 22/54/16 20/56/16 18/55/16
f 23/57/17 24/58/17 17/59/17
f 24/58/17 18/60/17 17/59/17
f 19/61/18 20/62/18 21/63/18
f 20/62/18 22/64/18 21/63/18
o cube.002
v 0.245750 0.347314 0.439935
v 0.245750 0.176194 0.268815
v 0.245750 0.518434 0.268815
v 0.245750 0.347314 0.097696
v 0.003750 0.518434 0.268815
v 0.003750 0.347314 0.097696
v 0.003750 0.347314 0.439935
v 0.003750 0.176194 0.268815
vt 0.718750 0.625000
vt 0.718750 0.405000
vt 0.938750 0.625000
vt 0.938750 0.405000
vt 0.595000 0.562500
vt 0.375000 0.562500
vt 0.595000 0.342500
vt 0.375000 0.342500
vt 0.000000 1.000000
vt 0.000000 0.780000
vt 0.220000 1.000000
vt 0.220000 0.780000
vt 0.220000 0.373750
vt 0.220000 0.593750
vt 0.000000 0.373750
vt 0.000000 0.593750
vt 0.406250 0.531250
vt 0.406250 0.311250
vt 0.626250 0.531250
vt 0.626250 0.311250
vt 0.000000 1.000000
vt 0.000000 0.780000
vt 0.220000 1.000000
vt 0.220000 0.780000
vn 1.0000 0.0000 0.0000
vn -1.0000 0.0000 0.0000
vn 0.0000 0.7071 0.7071
vn 0.0000 -0.7071 -0.7071
vn 0.0000 -0.7071 0.7071
vn 0.0000 0.7071 -0.7071
usemtl 1
s 1
f 25/65/19 26/66/19 27/67/19
f 26/66/19 28/68/19 27/67/19
f 29/69/20 30/70/20 31/71/20
f 30/70/20 32/72/20 31/71/20
f 29/73/21 31/74/21 27/75/21
f 31/74/21 25/76/21 27/75/21
f 32/77/22 30/78/22 26/79/22
f 30/78/22 28/80/22 26/79/22
f 31/81/23 32/82/23 25/83/23
f 32/82/23 26/84/23 25/83/23
f 27/85/24 28/86/24 29/87/24
f 28/86/24 30/88/24 29/87/24
o cube.003
v 0.201750 1.022625 0.432250
v 0.201750 0.389792 0.376884
v 0.201750 1.038444 0.251441
v 0.201750 0.405611 0.196075
v 0.064250 1.038444 0.251441
v 0.064250 0.405611 0.196075
v 0.064250 1.022625 0.432250
v 0.064250 0.389792 0.376884
vt 0.375000 0.531250
vt 0.375000 0.016250
vt 0.540000 0.531250
vt 0.540000 0.016250
vt 0.375000 0.531250
vt 0.375000 0.016250
vt 0.540000 0.531250
vt 0.540000 0.016250
vt 0.375000 0.531250
vt 0.375000 0.016250
vt 0.500000 0.531250
vt 0.500000 0.016250
vt 0.375000 0.531250
vt 0.375000 0.016250
vt 0.500000 0.531250
vt 0.500000 0.016250
vn 1.0000 -0.0000 0.0000
vn -1.0000 0.0000 0.0000
vn 0.0000 -0.0872 0.9962
vn 0.0000 0.0872 -0.9962
usemtl 3
s 1
f 33/89/25 34/90/25 35/91/25
f 34/90/25 36/92/25 35/91/25
f 37/93/26 38/94/26 39/95/26
f 38/94/26 40/96/26 39/95/26
f 39/97/27 40/98/27 33/99/27
f 40/98/27 34/100/27 33/99/27
f 35/101/28 36/102/28 37/103/28
f 36/102/28 38/104/28 37/103/28
o cube.004
v 0.927750 1.022625 0.518875
v 0.927750 0.389792 0.463509
v 0.927750 1.038444 0.338066
v 0.927750 0.405611 0.282700
v 0.790250 1.038444 0.338066
v 0.790250 0.405611 0.282700
v 0.790250 1.022625 0.518875
v 0.790250 0.389792 0.463509
vt 0.375000 0.531250
vt 0.375000 0.016250
vt 0.540000 0.531250
vt 0.540000 0.016250
vt 0.375000 0.531250
vt 0.375000 0.016250
vt 0.540000 0.531250
vt 0.540000 0.016250
vt 0.375000 0.531250
vt 0.375000 0.016250
vt 0.500000 0.531250
vt 0.500000 0.016250
vt 0.375000 0.531250
vt 0.375000 0.016250
vt 0.500000 0.531250
vt 0.500000 0.016250
vn 1.0000 0.0000 0.0000
vn -1.0000 -0.0000 0.0000
vn 0.0000 -0.0872 0.9962
vn 0.0000 0.0872 -0.9962
usemtl 3
s 1
f 41/105/29 42/106/29 43/107/29
f 42/106/29 44/108/29 43/107/29
f 45/109/30 46/110/30 47/111/30
f 46/110/30 48/112/30 47/111/30
f 47/113/31 48/114/31 41/115/31
f 48/114/31 42/116/31 41/115/31
f 43/117/32 44/118/32 45/119/32
f 44/118/32 46/120/32 45/119/32
