# Blender v2.82 (sub 7) OBJ File: ''
# www.blender.org
mtllib mt_horse2_bt.mtl
o cube
v 0.276000 0.815028 0.232509
v 0.276000 -0.092472 0.232509
v 0.276000 0.815028 -0.190991
v 0.276000 -0.092472 -0.190991
v -0.026500 0.815028 -0.190991
v -0.026500 -0.092472 -0.190991
v -0.026500 0.815028 0.232509
v -0.026500 -0.092472 0.232509
vt 0.625000 0.906250
vt 0.625000 0.081250
vt 0.978750 0.906250
vt 0.978750 0.081250
vt 0.625000 1.000000
vt 0.625000 0.175000
vt 0.978750 1.000000
vt 0.978750 0.175000
vt 0.687500 0.406250
vt 0.687500 0.021250
vt 0.962500 0.406250
vt 0.962500 0.021250
vt 0.656250 0.906250
vt 0.656250 0.081250
vt 0.931250 0.906250
vt 0.931250 0.081250
vt 0.656250 0.906250
vt 0.656250 0.081250
vt 0.931250 0.906250
vt 0.931250 0.081250
vn 1.0000 0.0000 0.0000
vn -1.0000 0.0000 0.0000
vn 0.0000 -1.0000 -0.0000
vn 0.0000 -0.0000 1.0000
vn 0.0000 0.0000 -1.0000
usemtl 3
s 1
f 1/1/1 2/2/1 3/3/1
f 2/2/1 4/4/1 3/3/1
f 5/5/2 6/6/2 7/7/2
f 6/6/2 8/8/2 7/7/2
f 8/9/3 6/10/3 2/11/3
f 6/10/3 4/12/3 2/11/3
f 7/13/4 8/14/4 1/15/4
f 8/14/4 2/16/4 1/15/4
f 3/17/5 4/18/5 5/19/5
f 4/18/5 6/20/5 5/19/5
o cube.000
v 0.506476 0.994357 0.539624
v 0.392219 0.346374 0.232803
v 0.564195 1.321697 -0.173187
v 0.449938 0.673714 -0.480008
v 0.027967 1.416248 -0.173187
v -0.086290 0.768265 -0.480008
v -0.029752 1.088909 0.539624
v -0.144009 0.440925 0.232803
vt 0.281250 0.687500
vt 0.281250 0.027500
vt 0.996250 0.687500
vt 0.996250 0.027500
vt 0.000000 0.687500
vt 0.000000 0.027500
vt 0.715000 0.687500
vt 0.715000 0.027500
vt 0.000000 0.286250
vt 0.715000 0.286250
vt 0.000000 0.781250
vt 0.715000 0.781250
vt 0.500000 0.718750
vt 0.500000 0.003750
vt 0.995000 0.718750
vt 0.995000 0.003750
vt 0.500000 0.687500
vt 0.500000 0.027500
vt 0.995000 0.687500
vt 0.995000 0.027500
vt 0.312500 0.505000
vt 0.972500 0.505000
vt 0.312500 1.000000
vt 0.972500 1.000000
vn 0.9848 -0.1736 -0.0000
vn -0.9848 0.1736 0.0000
vn 0.1574 0.8925 0.4226
vn -0.1574 -0.8925 -0.4226
vn -0.0734 -0.4162 0.9063
vn 0.0734 0.4162 -0.9063
usemtl 2
s 1
f 9/21/6 10/22/6 11/23/6
f 10/22/6 12/24/6 11/23/6
f 13/25/7 14/26/7 15/27/7
f 14/26/7 16/28/7 15/27/7
f 13/29/8 15/30/8 11/31/8
f 15/30/8 9/32/8 11/31/8
f 16/33/9 14/34/9 10/35/9
f 14/34/9 12/36/9 10/35/9
f 15/37/10 16/38/10 9/39/10
f 16/38/10 10/40/10 9/39/10
f 11/41/11 12/42/11 13/43/11
f 12/42/11 14/44/11 13/43/11
o cube.001
v 0.487812 0.519804 1.573765
v 0.487812 0.122145 1.176106
v 0.487812 1.418184 0.675386
v 0.487812 1.020525 0.277727
v 0.487750 1.418184 0.675386
v 0.487750 1.020525 0.277727
v 0.487750 0.519804 1.573765
v 0.487750 0.122145 1.176106
vt 1.000000 1.000000
vt 1.000000 0.488750
vt 0.000000 1.000000
vt 0.000000 0.488750
vt 0.000000 1.000000
vt 0.000000 0.488750
vt 1.000000 1.000000
vt 1.000000 0.488750
vn 1.0000 0.0000 0.0000
vn -1.0000 0.0000 0.0000
usemtl 5
s 1
f 17/45/12 18/46/12 19/47/12
f 18/46/12 20/48/12 19/47/12
f 21/49/13 22/50/13 23/51/13
f 22/50/13 24/52/13 23/51/13
o cube.002
v 1.005252 1.088909 0.539624
v 1.119509 0.440925 0.232803
v 0.947533 1.416248 -0.173187
v 1.061790 0.768265 -0.480008
v 0.411305 1.321697 -0.173187
v 0.525562 0.673714 -0.480008
v 0.469024 0.994357 0.539624
v 0.583281 0.346374 0.232803
vt 0.750000 0.687500
vt 0.750000 0.027500
vt 0.000000 0.687500
vt 0.000000 0.027500
vt 0.281250 0.687500
vt 0.281250 0.027500
vt 0.996250 0.687500
vt 0.996250 0.027500
vt 0.000000 0.223750
vt 0.715000 0.223750
vt 0.000000 0.718750
vt 0.715000 0.718750
vt 0.500000 0.718750
vt 0.500000 0.003750
vt 0.995000 0.718750
vt 0.995000 0.003750
vt 0.500000 0.687500
vt 0.500000 0.027500
vt 0.995000 0.687500
vt 0.995000 0.027500
vt 0.312500 0.505000
vt 0.972500 0.505000
vt 0.312500 1.000000
vt 0.972500 1.000000
vn 0.9848 0.1736 0.0000
vn -0.9848 -0.1736 -0.0000
vn -0.1574 0.8925 0.4226
vn 0.1574 -0.8925 -0.4226
vn 0.0734 -0.4162 0.9063
vn -0.0734 0.4162 -0.9063
usemtl 2
s 1
f 25/53/14 26/54/14 27/55/14
f 26/54/14 28/56/14 27/55/14
f 29/57/15 30/58/15 31/59/15
f 30/58/15 32/60/15 31/59/15
f 29/61/16 31/62/16 27/63/16
f 31/62/16 25/64/16 27/63/16
f 32/65/17 30/66/17 26/67/17
f 30/66/17 28/68/17 26/67/17
f 31/69/18 32/70/18 25/71/18
f 32/70/18 26/72/18 25/71/18
f 27/73/19 28/74/19 29/75/19
f 28/74/19 30/76/19 29/75/19
o cube.003
v 1.002000 0.897250 0.158245
v 1.002000 0.255550 0.799945
v 1.002000 0.597790 -0.141214
v 1.002000 -0.043910 0.500485
v 0.699500 0.597790 -0.141214
v 0.699500 -0.043910 0.500485
v 0.699500 0.897250 0.158245
v 0.699500 0.255550 0.799945
vt 0.625000 0.906250
vt 0.625000 0.081250
vt 0.978750 0.906250
vt 0.978750 0.081250
vt 0.625000 0.906250
vt 0.625000 0.081250
vt 0.978750 0.906250
vt 0.978750 0.081250
vt 0.656250 0.406250
vt 0.656250 0.021250
vt 0.931250 0.406250
vt 0.931250 0.021250
vt 0.687500 0.906250
vt 0.687500 0.081250
vt 0.962500 0.906250
vt 0.962500 0.081250
vt 0.656250 0.906250
vt 0.656250 0.081250
vt 0.931250 0.906250
vt 0.931250 0.081250
vn 1.0000 0.0000 0.0000
vn -1.0000 -0.0000 0.0000
vn 0.0000 -0.7071 0.7071
vn 0.0000 0.7071 0.7071
vn 0.0000 -0.7071 -0.7071
usemtl 3
s 1
f 33/77/20 34/78/20 35/79/20
f 34/78/20 36/80/20 35/79/20
f 37/81/21 38/82/21 39/83/21
f 38/82/21 40/84/21 39/83/21
f 40/85/22 38/86/22 34/87/22
f 38/86/22 36/88/22 34/87/22
f 39/89/23 40/90/23 33/91/23
f 40/90/23 34/92/23 33/91/23
f 35/93/24 36/94/24 37/95/24
f 36/94/24 38/96/24 37/95/24
