# Blender v2.82 (sub 7) OBJ File: ''
# www.blender.org
mtllib mt_horse_tm.mtl
o octagon
v 0.064250 0.866680 -0.218920
v 0.064250 1.053634 0.841349
v 0.312331 1.110992 -0.261998
v 0.312331 1.297946 0.798270
v 0.663169 0.463814 0.945350
v 0.663169 0.276860 -0.114918
v 0.911250 0.708125 0.902272
v 0.911250 0.521172 -0.157997
vt 0.000000 0.274812
vt 1.000000 0.274812
vt 0.000000 0.593750
vt 1.000000 0.593750
vt 0.656250 1.000000
vt 0.656250 0.230000
vt 0.975187 1.000000
vt 0.975187 0.230000
vt 0.656250 1.000000
vt 0.656250 0.230000
vt 0.975187 1.000000
vt 0.975187 0.230000
vt 0.000000 0.212313
vt 1.000000 0.212313
vt 0.000000 0.531250
vt 1.000000 0.531250
vn -0.7071 0.6964 -0.1228
vn 0.0000 0.1736 0.9848
vn -0.0000 -0.1736 -0.9848
vn 0.7071 -0.6964 0.1228
usemtl 2
s 1
f 1/1/1 2/2/1 3/3/1
f 2/2/1 4/4/1 3/3/1
f 2/5/2 5/6/2 4/7/2
f 5/6/2 7/8/2 4/7/2
f 3/9/3 8/10/3 1/11/3
f 8/10/3 6/12/3 1/11/3
usemtl 0
f 5/13/4 6/14/4 7/15/4
f 6/14/4 8/16/4 7/15/4
o octagon.000
v 0.312331 1.110992 -0.261998
v 0.312331 1.297946 0.798270
v 0.663169 1.110992 -0.261998
v 0.663169 1.297946 0.798270
v 0.312331 0.463814 0.945350
v 0.312331 0.276860 -0.114918
v 0.663169 0.463814 0.945350
v 0.663169 0.276860 -0.114918
vt 0.000000 0.274812
vt 1.000000 0.274812
vt 0.000000 0.593750
vt 1.000000 0.593750
vt 0.656250 1.000000
vt 0.656250 0.230000
vt 0.975187 1.000000
vt 0.975187 0.230000
vt 0.656250 1.000000
vt 0.656250 0.230000
vt 0.975187 1.000000
vt 0.975187 0.230000
vt 0.000000 0.024813
vt 1.000000 0.024813
vt 0.000000 0.343750
vt 1.000000 0.343750
vn 0.0000 0.9848 -0.1736
vn 0.0000 0.1736 0.9848
vn 0.0000 -0.1736 -0.9848
vn 0.0000 -0.9848 0.1736
usemtl 2
s 1
f 9/17/5 10/18/5 11/19/5
f 10/18/5 12/20/5 11/19/5
f 10/21/6 13/22/6 12/23/6
f 13/22/6 15/24/6 12/23/6
f 11/25/7 16/26/7 9/27/7
f 16/26/7 14/28/7 9/27/7
usemtl 0
f 13/29/8 14/30/8 15/31/8
f 14/30/8 16/32/8 15/31/8
o octagon.001
v 0.663169 1.297946 0.798270
v 0.911250 1.053634 0.841349
v 0.663169 1.110992 -0.261998
v 0.911250 0.866680 -0.218920
v 0.064250 0.521172 -0.157997
v 0.312331 0.276860 -0.114918
v 0.064250 0.708125 0.902272
v 0.312331 0.463814 0.945350
vt 1.000000 0.337312
vt 1.000000 0.656250
vt 0.000000 0.337312
vt 0.000000 0.656250
vt 0.000000 0.343750
vt 0.000000 0.024813
vt 0.770000 0.343750
vt 0.770000 0.024813
vt 0.000000 1.000000
vt 0.000000 0.681056
vt 0.770000 1.000000
vt 0.770000 0.681056
vt 1.000000 0.531250
vt 1.000000 0.212313
vt 0.093750 0.531250
vt 0.093750 0.212313
vn 0.7071 0.6964 -0.1228
vn 0.0000 0.1736 0.9848
vn 0.0000 -0.1736 -0.9848
vn -0.7071 -0.6964 0.1228
usemtl 2
s 1
f 17/33/9 18/34/9 19/35/9
f 18/34/9 20/36/9 19/35/9
f 23/37/10 24/38/10 17/39/10
f 24/38/10 18/40/10 17/39/10
f 19/41/11 20/42/11 21/43/11
f 20/42/11 22/44/11 21/43/11
usemtl 0
f 21/45/12 22/46/12 23/47/12
f 22/46/12 24/48/12 23/47/12
o octagon.002
v 0.911250 1.053634 0.841349
v 0.911250 0.708125 0.902272
v 0.911250 0.866680 -0.218920
v 0.911250 0.521172 -0.157997
v 0.064250 0.866680 -0.218920
v 0.064250 0.521172 -0.157997
v 0.064250 1.053634 0.841349
v 0.064250 0.708125 0.902272
vt 0.000000 1.000000
vt 0.000000 0.681056
vt 1.000000 1.000000
vt 1.000000 0.681056
vt 0.000000 1.000000
vt 0.000000 0.681056
vt 0.978750 1.000000
vt 0.978750 0.681056
vt 0.000000 1.000000
vt 0.000000 0.681056
vt 0.770000 1.000000
vt 0.770000 0.681056
vt 0.000000 1.000000
vt 0.000000 0.681056
vt 0.770000 1.000000
vt 0.770000 0.681056
vn 1.0000 0.0000 0.0000
vn -1.0000 0.0000 0.0000
vn 0.0000 0.1736 0.9848
vn 0.0000 -0.1736 -0.9848
usemtl 2
s 1
f 25/49/13 26/50/13 27/51/13
f 26/50/13 28/52/13 27/51/13
f 29/53/14 30/54/14 31/55/14
f 30/54/14 32/56/14 31/55/14
f 31/57/15 32/58/15 25/59/15
f 32/58/15 26/60/15 25/59/15
f 27/61/16 28/62/16 29/63/16
f 28/62/16 30/64/16 29/63/16
