# Blender v2.82 (sub 7) OBJ File: ''
# www.blender.org
mtllib mt_horse2_bf.mtl
o cube
v 0.252625 0.984453 0.444035
v 0.252625 0.706842 0.840504
v 0.252625 0.835777 0.339930
v 0.252625 0.558166 0.736400
v 0.115125 0.835777 0.339930
v 0.115125 0.558166 0.736400
v 0.115125 0.984453 0.444035
v 0.115125 0.706842 0.840504
vt 0.343750 0.468750
vt 0.343750 0.028750
vt 0.508750 0.468750
vt 0.508750 0.028750
vt 0.343750 0.468750
vt 0.343750 0.028750
vt 0.508750 0.468750
vt 0.508750 0.028750
vt 0.343750 0.468750
vt 0.343750 0.028750
vt 0.468750 0.468750
vt 0.468750 0.028750
vt 0.343750 0.468750
vt 0.343750 0.028750
vt 0.468750 0.468750
vt 0.468750 0.028750
vn 1.0000 0.0000 0.0000
vn -1.0000 0.0000 0.0000
vn 0.0000 0.8192 0.5736
vn 0.0000 -0.8192 -0.5736
usemtl 3
s 1
f 1/1/1 2/2/1 3/3/1
f 2/2/1 4/4/1 3/3/1
f 5/5/2 6/6/2 7/7/2
f 6/6/2 8/8/2 7/7/2
f 7/9/3 8/10/3 1/11/3
f 8/10/3 2/12/3 1/11/3
f 3/13/4 4/14/4 5/15/4
f 4/14/4 6/16/4 5/15/4
o cube.000
v 0.306250 0.776492 0.944037
v 0.306250 0.538169 0.986060
v 0.306250 0.734469 0.705714
v 0.306250 0.496146 0.747736
v 0.064250 0.734469 0.705714
v 0.064250 0.496146 0.747736
v 0.064250 0.776492 0.944037
v 0.064250 0.538169 0.986060
vt 0.375000 0.562500
vt 0.375000 0.342500
vt 0.595000 0.562500
vt 0.595000 0.342500
vt 0.281250 0.625000
vt 0.281250 0.405000
vt 0.501250 0.625000
vt 0.501250 0.405000
vt 0.000000 1.000000
vt 0.000000 0.780000
vt 0.220000 1.000000
vt 0.220000 0.780000
vt 0.626250 0.311250
vt 0.626250 0.531250
vt 0.406250 0.311250
vt 0.406250 0.531250
vt 0.375000 0.531250
vt 0.375000 0.311250
vt 0.595000 0.531250
vt 0.595000 0.311250
vt 0.000000 1.000000
vt 0.000000 0.780000
vt 0.220000 1.000000
vt 0.220000 0.780000
vn 1.0000 0.0000 0.0000
vn -1.0000 0.0000 0.0000
vn 0.0000 0.9848 -0.1736
vn 0.0000 -0.9848 0.1736
vn 0.0000 0.1736 0.9848
vn 0.0000 -0.1736 -0.9848
usemtl 1
s 1
f 9/17/5 10/18/5 11/19/5
f 10/18/5 12/20/5 11/19/5
f 13/21/6 14/22/6 15/23/6
f 14/22/6 16/24/6 15/23/6
f 13/25/7 15/26/7 11/27/7
f 15/26/7 9/28/7 11/27/7
f 16/29/8 14/30/8 10/31/8
f 14/30/8 12/32/8 10/31/8
f 15/33/9 16/34/9 9/35/9
f 16/34/9 10/36/9 9/35/9
f 11/37/10 12/38/10 13/39/10
f 12/38/10 14/40/10 13/39/10
o cube.001
v 0.186684 0.734675 1.172374
v 0.418413 0.540232 1.172374
v 0.159672 0.702484 0.934050
v 0.391401 0.508041 0.934050
v -0.031817 0.474276 0.986579
v 0.199912 0.279833 0.986579
v -0.004805 0.506467 1.224902
v 0.226923 0.312024 1.224902
vt 0.593750 0.748750
vt 0.312500 0.748750
vt 0.593750 0.968750
vt 0.312500 0.968750
vt 0.587500 0.906250
vt 0.312500 0.906250
vt 0.587500 0.686250
vt 0.312500 0.686250
vt 0.312500 0.968750
vt 0.312500 0.748750
vt 0.587500 0.968750
vt 0.587500 0.748750
vt 0.593750 0.686250
vt 0.593750 0.906250
vt 0.587500 0.568750
vt 0.312500 0.568750
vt 0.587500 0.843750
vt 0.312500 0.843750
vt 0.000000 1.000000
vt 0.000000 0.725000
vt 0.275000 1.000000
vt 0.275000 0.725000
vn 0.6330 0.7544 -0.1736
vn -0.6330 -0.7544 0.1736
vn -0.7660 0.6428 -0.0000
vn 0.7660 -0.6428 -0.0000
vn 0.1116 0.1330 0.9848
vn -0.1116 -0.1330 -0.9848
usemtl 3
s 1
f 17/41/11 18/42/11 19/43/11
f 18/42/11 20/44/11 19/43/11
f 21/45/12 22/46/12 23/47/12
f 22/46/12 24/48/12 23/47/12
f 21/49/13 23/50/13 19/51/13
f 23/50/13 17/52/13 19/51/13
f 24/48/14 22/46/14 18/53/14
f 22/46/14 20/54/14 18/53/14
f 23/55/15 24/56/15 17/57/15
f 24/56/15 18/58/15 17/57/15
usemtl 1
f 19/59/16 20/60/16 21/61/16
f 20/60/16 22/62/16 21/61/16
o cube.002
v 0.998178 0.067895 0.026881
v 0.766051 -0.015306 -0.148336
v 0.993001 0.289037 -0.071270
v 0.760874 0.205836 -0.246486
v 0.799142 0.379435 0.142630
v 0.567015 0.296234 -0.032586
v 0.804319 0.158293 0.240780
v 0.572192 0.075092 0.065564
vt 0.593750 0.686250
vt 0.312500 0.686250
vt 0.593750 0.906250
vt 0.312500 0.906250
vt 0.587500 0.968750
vt 0.312500 0.968750
vt 0.587500 0.748750
vt 0.312500 0.748750
vt 0.593750 0.968750
vt 0.593750 0.748750
vt 0.312500 0.968750
vt 0.312500 0.748750
vt 0.587500 0.686250
vt 0.587500 0.906250
vt 0.312500 0.843750
vt 0.587500 0.843750
vt 0.312500 0.568750
vt 0.587500 0.568750
vt 0.556250 1.000000
vt 0.556250 0.725000
vt 0.281250 1.000000
vt 0.281250 0.725000
vn 0.6409 -0.2988 -0.7071
vn -0.6409 0.2988 0.7071
vn 0.7674 0.2750 0.5792
vn -0.7674 -0.2750 -0.5792
vn 0.0214 -0.9138 0.4056
vn -0.0214 0.9138 -0.4056
usemtl 3
s 1
f 25/63/17 26/64/17 27/65/17
f 26/64/17 28/66/17 27/65/17
f 29/67/18 30/68/18 31/69/18
f 30/68/18 32/70/18 31/69/18
f 29/71/19 31/72/19 27/73/19
f 31/72/19 25/74/19 27/73/19
f 32/75/20 30/76/20 26/64/20
f 30/76/20 28/66/20 26/64/20
f 31/77/21 32/78/21 25/79/21
f 32/78/21 26/80/21 25/79/21
usemtl 1
f 27/81/22 28/82/22 29/83/22
f 28/82/22 30/84/22 29/83/22
o cube.003
v 0.911250 0.372979 0.325319
v 0.911250 0.234174 0.127084
v 0.911250 0.571214 0.186513
v 0.911250 0.432408 -0.011722
v 0.669250 0.571214 0.186513
v 0.669250 0.432408 -0.011722
v 0.669250 0.372979 0.325319
v 0.669250 0.234174 0.127084
vt 0.375000 0.562500
vt 0.375000 0.342500
vt 0.595000 0.562500
vt 0.595000 0.342500
vt 0.657500 0.562500
vt 0.437500 0.562500
vt 0.657500 0.342500
vt 0.437500 0.342500
vt 0.000000 1.000000
vt 0.000000 0.780000
vt 0.220000 1.000000
vt 0.220000 0.780000
vt 0.813750 0.311250
vt 0.813750 0.531250
vt 0.593750 0.311250
vt 0.593750 0.531250
vt 0.437500 0.531250
vt 0.437500 0.311250
vt 0.657500 0.531250
vt 0.657500 0.311250
vt 0.000000 1.000000
vt 0.000000 0.780000
vt 0.220000 1.000000
vt 0.220000 0.780000
vn 1.0000 0.0000 0.0000
vn -1.0000 0.0000 0.0000
vn 0.0000 0.5736 0.8192
vn 0.0000 -0.5736 -0.8192
vn 0.0000 -0.8192 0.5736
vn 0.0000 0.8192 -0.5736
usemtl 1
s 1
f 33/85/23 34/86/23 35/87/23
f 34/86/23 36/88/23 35/87/23
f 37/89/24 38/90/24 39/91/24
f 38/90/24 40/92/24 39/91/24
f 37/93/25 39/94/25 35/95/25
f 39/94/25 33/96/25 35/95/25
f 40/97/26 38/98/26 34/99/26
f 38/98/26 36/100/26 34/99/26
f 39/101/27 40/102/27 33/103/27
f 40/102/27 34/104/27 33/103/27
f 35/105/28 36/106/28 37/107/28
f 36/106/28 38/108/28 37/107/28
o cube.004
v 0.857625 0.864677 0.421109
v 0.857625 0.409866 0.255571
v 0.857625 0.926754 0.250554
v 0.857625 0.471943 0.085017
v 0.720125 0.926754 0.250554
v 0.720125 0.471943 0.085017
v 0.720125 0.864677 0.421109
v 0.720125 0.409866 0.255571
vt 0.343750 0.468750
vt 0.343750 0.028750
vt 0.508750 0.468750
vt 0.508750 0.028750
vt 0.343750 0.468750
vt 0.343750 0.028750
vt 0.508750 0.468750
vt 0.508750 0.028750
vt 0.343750 0.468750
vt 0.343750 0.028750
vt 0.468750 0.468750
vt 0.468750 0.028750
vt 0.343750 0.468750
vt 0.343750 0.028750
vt 0.468750 0.468750
vt 0.468750 0.028750
vn 1.0000 -0.0000 0.0000
vn -1.0000 -0.0000 0.0000
vn 0.0000 -0.3420 0.9397
vn 0.0000 0.3420 -0.9397
usemtl 3
s 1
f 41/109/29 42/110/29 43/111/29
f 42/110/29 44/112/29 43/111/29
f 45/113/30 46/114/30 47/115/30
f 46/114/30 48/116/30 47/115/30
f 47/117/31 48/118/31 41/119/31
f 48/118/31 42/120/31 41/119/31
f 43/121/32 44/122/32 45/123/32
f 44/122/32 46/124/32 45/123/32
o cube.005
v 0.336500 0.969438 0.558871
v 0.336500 0.795931 0.311077
v 0.336500 1.217231 0.385364
v 0.336500 1.043725 0.137570
v 0.034000 1.217231 0.385364
v 0.034000 1.043725 0.137570
v 0.034000 0.969438 0.558871
v 0.034000 0.795931 0.311077
vt 0.031250 0.343750
vt 0.031250 0.068750
vt 0.306250 0.343750
vt 0.306250 0.068750
vt 0.306250 0.343750
vt 0.031250 0.343750
vt 0.306250 0.068750
vt 0.031250 0.068750
vt 0.000000 0.687500
vt 0.000000 0.412500
vt 0.275000 0.687500
vt 0.275000 0.412500
vt 0.931250 0.006250
vt 0.931250 0.281250
vt 0.656250 0.006250
vt 0.656250 0.281250
vt 0.656250 0.281250
vt 0.656250 0.006250
vt 0.931250 0.281250
vt 0.931250 0.006250
vt 0.000000 0.687500
vt 0.000000 0.412500
vt 0.275000 0.687500
vt 0.275000 0.412500
vn 1.0000 0.0000 0.0000
vn -1.0000 0.0000 0.0000
vn 0.0000 0.5736 0.8192
vn 0.0000 -0.5736 -0.8192
vn 0.0000 -0.8192 0.5736
vn 0.0000 0.8192 -0.5736
usemtl 3
s 1
f 49/125/33 50/126/33 51/127/33
f 50/126/33 52/128/33 51/127/33
f 53/129/34 54/130/34 55/131/34
f 54/130/34 56/132/34 55/131/34
f 53/133/35 55/134/35 51/135/35
f 55/134/35 49/136/35 51/135/35
f 56/137/36 54/138/36 50/139/36
f 54/138/36 52/140/36 50/139/36
f 55/141/37 56/142/37 49/143/37
f 56/142/37 50/144/37 49/143/37
f 51/145/38 52/146/38 53/147/38
f 52/146/38 54/148/38 53/147/38
o cube.006
v 0.941500 0.866626 0.585470
v 0.941500 0.738784 0.311312
v 0.941500 1.140784 0.457629
v 0.941500 1.012942 0.183470
v 0.639000 1.140784 0.457629
v 0.639000 1.012942 0.183470
v 0.639000 0.866626 0.585470
v 0.639000 0.738784 0.311312
vt 0.031250 0.343750
vt 0.031250 0.068750
vt 0.306250 0.343750
vt 0.306250 0.068750
vt 0.306250 0.343750
vt 0.031250 0.343750
vt 0.306250 0.068750
vt 0.031250 0.068750
vt 0.000000 0.687500
vt 0.000000 0.412500
vt 0.275000 0.687500
vt 0.275000 0.412500
vt 0.931250 0.006250
vt 0.931250 0.281250
vt 0.656250 0.006250
vt 0.656250 0.281250
vt 0.656250 0.281250
vt 0.656250 0.006250
vt 0.931250 0.281250
vt 0.931250 0.006250
vt 0.000000 0.718750
vt 0.000000 0.443750
vt 0.275000 0.718750
vt 0.275000 0.443750
vn 1.0000 0.0000 0.0000
vn -1.0000 0.0000 0.0000
vn 0.0000 0.4226 0.9063
vn 0.0000 -0.4226 -0.9063
vn 0.0000 -0.9063 0.4226
vn 0.0000 0.9063 -0.4226
usemtl 3
s 1
f 57/149/39 58/150/39 59/151/39
f 58/150/39 60/152/39 59/151/39
f 61/153/40 62/154/40 63/155/40
f 62/154/40 64/156/40 63/155/40
f 61/157/41 63/158/41 59/159/41
f 63/158/41 57/160/41 59/159/41
f 64/161/42 62/162/42 58/163/42
f 62/162/42 60/164/42 58/163/42
f 63/165/43 64/166/43 57/167/43
f 64/166/43 58/168/43 57/167/43
f 59/169/44 60/170/44 61/171/44
f 60/170/44 62/172/44 61/171/44
