# Blender v2.82 (sub 7) OBJ File: ''
# www.blender.org
mtllib mt_harness_a.mtl
o cube
v -0.087500 -0.903498 1.901181
v -0.087500 -1.088149 1.868622
v -0.087500 -0.482401 -0.486977
v -0.087500 -0.667052 -0.519536
v -0.212500 -0.482401 -0.486977
v -0.212500 -0.667052 -0.519536
v -0.212500 -0.903498 1.901181
v -0.212500 -1.088149 1.868622
vt 0.187500 1.000000
vt 0.000000 1.000000
vt 0.187500 0.000000
vt 0.000000 0.000000
vt 0.000000 0.000000
vt 0.187500 0.000000
vt 0.000000 1.000000
vt 0.187500 1.000000
vt 0.187500 0.000000
vt 0.187500 1.000000
vt 0.062500 0.000000
vt 0.062500 1.000000
vt 0.000000 1.000000
vt 0.000000 0.000000
vt 0.125000 1.000000
vt 0.125000 0.000000
vt 0.875000 1.000000
vt 0.875000 0.812500
vt 1.000000 1.000000
vt 1.000000 0.812500
vt 0.875000 1.000000
vt 0.875000 0.812500
vt 1.000000 1.000000
vt 1.000000 0.812500
vn 1.0000 -0.0000 0.0000
vn -1.0000 -0.0000 0.0000
vn 0.0000 0.9848 0.1736
vn 0.0000 -0.9848 -0.1736
vn 0.0000 -0.1736 0.9848
vn 0.0000 0.1736 -0.9848
usemtl 1
s 1
f 1/1/1 2/2/1 3/3/1
f 2/2/1 4/4/1 3/3/1
f 5/5/2 6/6/2 7/7/2
f 6/6/2 8/8/2 7/7/2
f 5/9/3 7/10/3 3/11/3
f 7/10/3 1/12/3 3/11/3
f 8/13/4 6/14/4 2/15/4
f 6/14/4 4/16/4 2/15/4
f 7/17/5 8/18/5 1/19/5
f 8/18/5 2/20/5 1/19/5
f 3/21/6 4/22/6 5/23/6
f 4/22/6 6/24/6 5/23/6
o cube.000
v 0.132812 -1.006251 3.996094
v 0.132812 -1.250001 3.996094
v 0.132812 -1.006251 3.003906
v 0.132812 -1.250000 3.003906
v 0.007812 -1.006251 3.003906
v 0.007812 -1.250000 3.003906
v 0.007812 -1.006251 3.996094
v 0.007812 -1.250001 3.996094
vt 0.375000 0.000000
vt 0.618750 0.000000
vt 0.375000 1.000000
vt 0.618750 1.000000
vt 0.375000 0.000000
vt 0.618750 0.000000
vt 0.375000 1.000000
vt 0.618750 1.000000
vt 0.625000 1.000000
vt 0.625000 0.000000
vt 0.750000 1.000000
vt 0.750000 0.000000
vt 0.625000 1.000000
vt 0.625000 0.000000
vt 0.750000 1.000000
vt 0.750000 0.000000
vt 0.875000 0.812500
vt 0.875000 0.568750
vt 1.000000 0.812500
vt 1.000000 0.568750
vt 0.875000 0.812500
vt 0.875000 0.568750
vt 1.000000 0.812500
vt 1.000000 0.568750
vn 1.0000 0.0000 0.0000
vn -1.0000 0.0000 0.0000
vn 0.0000 1.0000 0.0000
vn 0.0000 -1.0000 -0.0000
vn 0.0000 0.0000 1.0000
vn 0.0000 0.0000 -1.0000
usemtl 1
s 1
f 9/25/7 10/26/7 11/27/7
f 10/26/7 12/28/7 11/27/7
f 13/29/8 14/30/8 15/31/8
f 14/30/8 16/32/8 15/31/8
f 13/33/9 15/34/9 11/35/9
f 15/34/9 9/36/9 11/35/9
f 16/37/10 14/38/10 10/39/10
f 14/38/10 12/40/10 10/39/10
f 15/41/11 16/42/11 9/43/11
f 16/42/11 10/44/11 9/43/11
f 11/45/12 12/46/12 13/47/12
f 12/46/12 14/48/12 13/47/12
o cube.001
v -0.091702 0.042940 -0.535107
v -0.194981 -0.542788 -0.257764
v -0.096288 0.016928 -0.591752
v -0.199568 -0.568801 -0.314409
v -0.096350 0.016939 -0.591752
v -0.199630 -0.568790 -0.314409
v -0.091763 0.042951 -0.535107
v -0.195043 -0.542777 -0.257764
vt 1.000000 0.343750
vt 1.000000 1.000000
vt 0.937500 0.343750
vt 0.937500 1.000000
vt 0.937500 1.000000
vt 0.937500 0.343750
vt 1.000000 1.000000
vt 1.000000 0.343750
vn 0.9848 -0.1736 -0.0000
vn -0.9848 0.1736 -0.0000
usemtl 6
s 1
f 17/49/13 18/50/13 19/51/13
f 18/50/13 20/52/13 19/51/13
f 21/53/14 22/54/14 23/55/14
f 22/54/14 24/56/14 23/55/14
o cube.002
v 1.060575 0.042962 -0.535107
v 1.163854 -0.542767 -0.257764
v 1.065161 0.016950 -0.591752
v 1.168441 -0.568779 -0.314409
v 1.065100 0.016939 -0.591752
v 1.168380 -0.568790 -0.314409
v 1.060513 0.042951 -0.535107
v 1.163793 -0.542777 -0.257764
vt 1.000000 0.343750
vt 1.000000 1.000000
vt 0.937500 0.343750
vt 0.937500 1.000000
vt 0.937500 1.000000
vt 0.937500 0.343750
vt 1.000000 1.000000
vt 1.000000 0.343750
vn 0.9848 0.1736 0.0000
vn -0.9848 -0.1736 -0.0000
usemtl 6
s 1
f 25/57/15 26/58/15 27/59/15
f 26/58/15 28/60/15 27/59/15
f 29/61/16 30/62/16 31/63/16
f 30/62/16 32/64/16 31/63/16
o cube.003
v -0.091702 -0.238310 0.746142
v -0.194981 -0.824039 1.023486
v -0.096288 -0.264322 0.689498
v -0.199568 -0.850051 0.966841
v -0.096350 -0.264311 0.689498
v -0.199630 -0.850040 0.966841
v -0.091763 -0.238299 0.746142
v -0.195043 -0.824028 1.023486
vt 1.000000 0.343750
vt 1.000000 1.000000
vt 0.937500 0.343750
vt 0.937500 1.000000
vt 0.937500 1.000000
vt 0.937500 0.343750
vt 1.000000 1.000000
vt 1.000000 0.343750
vn 0.9848 -0.1736 0.0000
vn -0.9848 0.1736 0.0000
usemtl 6
s 1
f 33/65/17 34/66/17 35/67/17
f 34/66/17 36/68/17 35/67/17
f 37/69/18 38/70/18 39/71/18
f 38/70/18 40/72/18 39/71/18
o cube.004
v 1.073075 -0.238288 0.746142
v 1.176354 -0.824017 1.023486
v 1.077661 -0.264300 0.689498
v 1.180941 -0.850029 0.966841
v 1.077600 -0.264311 0.689498
v 1.180879 -0.850040 0.966841
v 1.073013 -0.238299 0.746142
v 1.176293 -0.824028 1.023486
vt 1.000000 0.343750
vt 1.000000 1.000000
vt 0.937500 0.343750
vt 0.937500 1.000000
vt 0.937500 1.000000
vt 0.937500 0.343750
vt 1.000000 1.000000
vt 1.000000 0.343750
vn 0.9848 0.1736 0.0000
vn -0.9848 -0.1736 -0.0000
usemtl 6
s 1
f 41/73/19 42/74/19 43/75/19
f 42/74/19 44/76/19 43/75/19
f 45/77/20 46/78/20 47/79/20
f 46/78/20 48/80/20 47/79/20
o cube.005
v 0.124034 -1.006957 3.058721
v 0.121196 -1.193744 3.042628
v -0.086794 -0.900736 1.863054
v -0.089632 -1.087522 1.846961
v -0.209895 -0.900736 1.884760
v -0.212733 -1.087522 1.868667
v 0.000933 -1.006957 3.080427
v -0.001905 -1.193744 3.064334
vt 0.187500 0.000000
vt 0.375000 0.000000
vt 0.187500 1.000000
vt 0.375000 1.000000
vt 0.187500 0.000000
vt 0.375000 0.000000
vt 0.187500 1.000000
vt 0.375000 1.000000
vt 0.187500 1.000000
vt 0.187500 0.000000
vt 0.312500 1.000000
vt 0.312500 0.000000
vt 0.187500 1.000000
vt 0.187500 0.000000
vt 0.312500 1.000000
vt 0.312500 0.000000
vt 0.875000 1.000000
vt 0.875000 0.812500
vt 1.000000 1.000000
vt 1.000000 0.812500
vn 0.9848 0.0000 -0.1736
vn -0.9848 -0.0000 0.1736
vn 0.0151 0.9962 0.0858
vn -0.0151 -0.9962 -0.0858
vn -0.1730 0.0872 -0.9811
usemtl 1
s 1
f 49/81/21 50/82/21 51/83/21
f 50/82/21 52/84/21 51/83/21
f 53/85/22 54/86/22 55/87/22
f 54/86/22 56/88/22 55/87/22
f 53/89/23 55/90/23 51/91/23
f 55/90/23 49/92/23 51/91/23
f 56/93/24 54/94/24 50/95/24
f 54/94/24 52/96/24 50/95/24
f 51/97/25 52/98/25 53/99/25
f 52/98/25 54/100/25 53/99/25
o cube.006
v 1.206250 -0.903498 1.901181
v 1.206250 -1.088149 1.868622
v 1.206250 -0.482401 -0.486977
v 1.206250 -0.667052 -0.519536
v 1.081250 -0.482401 -0.486977
v 1.081250 -0.667052 -0.519536
v 1.081250 -0.903498 1.901181
v 1.081250 -1.088149 1.868622
vt 0.187500 1.000000
vt 0.000000 1.000000
vt 0.187500 0.000000
vt 0.000000 0.000000
vt 0.000000 0.000000
vt 0.187500 0.000000
vt 0.000000 1.000000
vt 0.187500 1.000000
vt 0.125000 0.000000
vt 0.125000 1.000000
vt 0.000000 0.000000
vt 0.000000 1.000000
vt 0.062500 1.000000
vt 0.062500 0.000000
vt 0.187500 1.000000
vt 0.187500 0.000000
vt 0.875000 1.000000
vt 0.875000 0.812500
vt 1.000000 1.000000
vt 1.000000 0.812500
vt 0.875000 1.000000
vt 0.875000 0.812500
vt 1.000000 1.000000
vt 1.000000 0.812500
vn 1.0000 0.0000 0.0000
vn -1.0000 0.0000 0.0000
vn 0.0000 0.9848 0.1736
vn 0.0000 -0.9848 -0.1736
vn 0.0000 -0.1736 0.9848
vn 0.0000 0.1736 -0.9848
usemtl 1
s 1
f 57/101/26 58/102/26 59/103/26
f 58/102/26 60/104/26 59/103/26
f 61/105/27 62/106/27 63/107/27
f 62/106/27 64/108/27 63/107/27
f 61/109/28 63/110/28 59/111/28
f 63/110/28 57/112/28 59/111/28
f 64/113/29 62/114/29 58/115/29
f 62/114/29 60/116/29 58/115/29
f 63/117/30 64/118/30 57/119/30
f 64/118/30 58/120/30 57/119/30
f 59/121/31 60/122/31 61/123/31
f 60/122/31 62/124/31 61/123/31
o cube.007
v 0.992817 -1.006957 3.080427
v 0.995655 -1.193744 3.064334
v 1.203645 -0.900736 1.884760
v 1.206483 -1.087522 1.868667
v 1.080544 -0.900736 1.863054
v 1.083382 -1.087522 1.846961
v 0.869716 -1.006957 3.058721
v 0.872554 -1.193744 3.042628
vt 0.187500 0.000000
vt 0.375000 0.000000
vt 0.187500 1.000000
vt 0.375000 1.000000
vt 0.187500 0.000000
vt 0.375000 0.000000
vt 0.187500 1.000000
vt 0.375000 1.000000
vt 0.250000 1.000000
vt 0.250000 0.000000
vt 0.375000 1.000000
vt 0.375000 0.000000
vt 0.250000 1.000000
vt 0.250000 0.000000
vt 0.375000 1.000000
vt 0.375000 0.000000
vt 0.875000 1.000000
vt 0.875000 0.812500
vt 1.000000 1.000000
vt 1.000000 0.812500
vn 0.9848 0.0000 0.1736
vn -0.9848 0.0000 -0.1736
vn -0.0151 0.9962 0.0858
vn 0.0151 -0.9962 -0.0858
vn 0.1730 0.0872 -0.9811
usemtl 1
s 1
f 65/125/32 66/126/32 67/127/32
f 66/126/32 68/128/32 67/127/32
f 69/129/33 70/130/33 71/131/33
f 70/130/33 72/132/33 71/131/33
f 69/133/34 71/134/34 67/135/34
f 71/134/34 65/136/34 67/135/34
f 72/137/35 70/138/35 66/139/35
f 70/138/35 68/140/35 66/139/35
f 67/141/36 68/142/36 69/143/36
f 68/142/36 70/144/36 69/143/36
o cube.008
v 0.992188 -1.006251 3.996094
v 0.992188 -1.250001 3.996094
v 0.992188 -1.006251 3.003906
v 0.992188 -1.250000 3.003906
v 0.867188 -1.006251 3.003906
v 0.867188 -1.250000 3.003906
v 0.867188 -1.006251 3.996094
v 0.867188 -1.250001 3.996094
vt 0.375000 0.000000
vt 0.618750 0.000000
vt 0.375000 1.000000
vt 0.618750 1.000000
vt 0.375000 0.000000
vt 0.618750 0.000000
vt 0.375000 1.000000
vt 0.618750 1.000000
vt 0.625000 1.000000
vt 0.625000 0.000000
vt 0.750000 1.000000
vt 0.750000 0.000000
vt 0.625000 1.000000
vt 0.625000 0.000000
vt 0.750000 1.000000
vt 0.750000 0.000000
vt 0.875000 0.812500
vt 0.875000 0.568750
vt 1.000000 0.812500
vt 1.000000 0.568750
vt 0.875000 0.812500
vt 0.875000 0.568750
vt 1.000000 0.812500
vt 1.000000 0.568750
vn 1.0000 0.0000 0.0000
vn -1.0000 0.0000 0.0000
vn 0.0000 1.0000 0.0000
vn 0.0000 -1.0000 -0.0000
vn 0.0000 0.0000 1.0000
vn 0.0000 0.0000 -1.0000
usemtl 1
s 1
f 73/145/37 74/146/37 75/147/37
f 74/146/37 76/148/37 75/147/37
f 77/149/38 78/150/38 79/151/38
f 78/150/38 80/152/38 79/151/38
f 77/153/39 79/154/39 75/155/39
f 79/154/39 73/156/39 75/155/39
f 80/157/40 78/158/40 74/159/40
f 78/158/40 76/160/40 74/159/40
f 79/161/41 80/162/41 73/163/41
f 80/162/41 74/164/41 73/163/41
f 75/165/42 76/166/42 77/167/42
f 76/166/42 78/168/42 77/167/42
o cube.009
v 0.000000 -0.051067 -0.630060
v 0.000000 -0.171808 -0.662412
v 0.000000 -0.196653 -0.086727
v 0.000000 -0.317394 -0.119079
vt 0.000000 1.000000
vt 0.000000 0.875000
vt 0.562500 1.000000
vt 0.562500 0.875000
vn -1.0000 0.0000 0.0000
usemtl 6
s 1
f 81/169/43 82/170/43 83/171/43
f 82/170/43 84/172/43 83/171/43
o cube.010
v 1.075000 -0.187500 1.456250
v 1.075000 -0.312500 1.456250
v 1.075000 -0.187500 0.656250
v 1.075000 -0.312500 0.656250
v -0.100000 -0.187500 0.656250
v -0.100000 -0.312500 0.656250
v -0.100000 -0.187500 1.456250
v -0.100000 -0.312500 1.456250
vt 0.000000 1.000000
vt 0.000000 0.875000
vt 0.487500 1.000000
vt 0.487500 0.875000
vt 0.000000 1.000000
vt 0.000000 0.875000
vt 0.487500 1.000000
vt 0.487500 0.875000
vt 0.000000 1.000000
vt 0.000000 0.875000
vt 0.500000 1.000000
vt 0.500000 0.875000
vn 1.0000 0.0000 0.0000
vn -1.0000 0.0000 0.0000
vn 0.0000 0.0000 1.0000
usemtl 6
s 1
f 85/173/44 86/174/44 87/175/44
f 86/174/44 88/176/44 87/175/44
f 89/177/45 90/178/45 91/179/45
f 90/178/45 92/180/45 91/179/45
f 91/181/46 92/182/46 85/183/46
f 92/182/46 86/184/46 85/183/46
o cube.011
v 0.975062 -0.196653 -0.086727
v 0.975062 -0.317394 -0.119079
v 0.975062 -0.051067 -0.630060
v 0.975062 -0.171808 -0.662412
vt 0.000000 1.000000
vt 0.000000 0.875000
vt 0.562500 1.000000
vt 0.562500 0.875000
vn 1.0000 -0.0000 0.0000
usemtl 6
s 1
f 93/185/47 94/186/47 95/187/47
f 94/186/47 96/188/47 95/187/47
o cube.012
v -0.001504 -0.187500 -0.105430
v -0.001504 -0.312500 -0.105430
v -0.105884 -0.187500 0.637271
v -0.105884 -0.312500 0.637271
vt 0.000000 1.000000
vt 0.000000 0.875000
vt 0.468750 1.000000
vt 0.468750 0.875000
vn -0.9903 0.0000 -0.1392
usemtl 6
s 1
f 97/189/48 98/190/48 99/191/48
f 98/190/48 100/192/48 99/191/48
o cube.013
v 1.080945 -0.187500 0.637262
v 1.080945 -0.312500 0.637262
v 0.976566 -0.187500 -0.105439
v 0.976566 -0.312500 -0.105439
vt 0.000000 1.000000
vt 0.000000 0.875000
vt 0.468750 1.000000
vt 0.468750 0.875000
vn 0.9903 0.0000 -0.1392
usemtl 6
s 1
f 101/193/49 102/194/49 103/195/49
f 102/194/49 104/196/49 103/195/49
o cube.014
v 0.222772 0.398044 -0.362238
v 0.222772 0.200877 -0.080655
v 0.347772 0.398044 -0.362238
v 0.347772 0.200877 -0.080655
v 0.222772 0.200826 -0.080691
v 0.222772 0.397993 -0.362274
v 0.347772 0.200826 -0.080691
v 0.347772 0.397993 -0.362274
vt 0.875000 1.000000
vt 0.875000 0.656250
vt 1.000000 1.000000
vt 1.000000 0.656250
vt 0.875000 1.000000
vt 0.875000 0.656250
vt 1.000000 1.000000
vt 1.000000 0.656250
vn 0.0000 0.8192 0.5736
vn 0.0000 -0.8192 -0.5736
usemtl 6
s 1
f 105/197/50 106/198/50 107/199/50
f 106/198/50 108/200/50 107/199/50
f 109/201/51 110/202/51 111/203/51
f 110/202/51 112/204/51 111/203/51
o cube.015
v 0.629022 0.398044 -0.362238
v 0.629022 0.200877 -0.080655
v 0.754022 0.398044 -0.362238
v 0.754022 0.200877 -0.080655
v 0.629022 0.200826 -0.080691
v 0.629022 0.397993 -0.362274
v 0.754022 0.200826 -0.080691
v 0.754022 0.397993 -0.362274
vt 0.875000 1.000000
vt 0.875000 0.656250
vt 1.000000 1.000000
vt 1.000000 0.656250
vt 0.875000 1.000000
vt 0.875000 0.656250
vt 1.000000 1.000000
vt 1.000000 0.656250
vn 0.0000 0.8192 0.5736
vn 0.0000 -0.8192 -0.5736
usemtl 6
s 1
f 113/205/52 114/206/52 115/207/52
f 114/206/52 116/208/52 115/207/52
f 117/209/53 118/210/53 119/211/53
f 118/210/53 120/212/53 119/211/53
o cube.016
v 0.987500 0.203456 0.006548
v 0.987500 -0.761608 -0.077884
v 0.987500 0.214350 -0.117976
v 0.987500 -0.750713 -0.202408
v -0.012500 0.214350 -0.117976
v -0.012500 -0.750713 -0.202408
v -0.012500 0.203456 0.006548
v -0.012500 -0.761608 -0.077884
vt 0.750000 1.000000
vt 0.750000 0.031250
vt 0.875000 1.000000
vt 0.875000 0.031250
vt 0.750000 1.000000
vt 0.750000 0.031250
vt 0.875000 1.000000
vt 0.875000 0.031250
vt 0.875000 0.000000
vt 1.000000 0.000000
vt 1.000000 1.000000
vt 0.875000 0.000000
vt 1.000000 0.000000
vt 0.875000 1.000000
vt 1.000000 1.000000
vt 0.562500 0.875000
vt 0.000000 0.875000
vt 0.562500 0.125000
vt 0.000000 0.125000
vt 0.000000 0.125000
vt 0.562500 0.125000
vt 0.000000 0.875000
vt 0.562500 0.875000
vn 1.0000 0.0000 0.0000
vn -1.0000 0.0000 0.0000
vn 0.0000 0.9962 0.0872
vn 0.0000 -0.9962 -0.0872
vn 0.0000 -0.0872 0.9962
vn 0.0000 0.0872 -0.9962
usemtl 6
s 1
f 121/213/54 122/214/54 123/215/54
f 122/214/54 124/216/54 123/215/54
f 125/217/55 126/218/55 127/219/55
f 126/218/55 128/220/55 127/219/55
f 125/221/56 127/222/56 123/215/56
f 127/222/56 121/223/56 123/215/56
f 128/224/57 126/225/57 122/226/57
f 126/225/57 124/227/57 122/226/57
f 127/228/58 128/229/58 121/230/58
f 128/229/58 122/231/58 121/230/58
f 123/232/59 124/233/59 125/234/59
f 124/233/59 126/235/59 125/234/59
o cube.017
v 1.081250 0.318166 0.886617
v 1.081250 -0.333834 0.711914
v 1.081250 0.350518 0.765877
v 1.081250 -0.301482 0.591174
v -0.106250 0.350518 0.765877
v -0.106250 -0.301482 0.591174
v -0.106250 0.318166 0.886617
v -0.106250 -0.333834 0.711914
vt 0.750000 0.687500
vt 0.750000 0.012500
vt 0.875000 0.687500
vt 0.875000 0.012500
vt 0.750000 0.687500
vt 0.750000 0.012500
vt 0.875000 0.687500
vt 0.875000 0.012500
vn 1.0000 0.0000 0.0000
vn -1.0000 0.0000 0.0000
usemtl 6
s 1
f 129/236/60 130/237/60 131/238/60
f 130/237/60 132/239/60 131/238/60
f 133/240/61 134/241/61 135/242/61
f 134/241/61 136/243/61 135/242/61
o cube.018
v 1.089062 0.434611 0.873058
v 1.089062 -0.277759 1.063937
v 1.089062 0.402259 0.752318
v 1.089062 -0.310111 0.943197
v -0.110156 0.402259 0.752318
v -0.110156 -0.310111 0.943197
v -0.110156 0.434611 0.873058
v -0.110156 -0.277759 1.063937
vt 0.750000 0.750000
vt 0.750000 0.012500
vt 0.875000 0.750000
vt 0.875000 0.012500
vt 0.750000 0.750000
vt 0.750000 0.012500
vt 0.875000 0.750000
vt 0.875000 0.012500
vt 0.875000 0.000000
vt 1.000000 0.000000
vt 0.875000 1.000000
vt 1.000000 1.000000
vt 0.562500 0.875000
vt 0.000000 0.875000
vt 0.562500 0.125000
vt 0.000000 0.125000
vt 0.562500 0.875000
vt 0.000000 0.875000
vt 0.562500 0.125000
vt 0.000000 0.125000
vn 1.0000 0.0000 0.0000
vn -1.0000 -0.0000 0.0000
vn 0.0000 0.9659 -0.2588
vn 0.0000 0.2588 0.9659
vn 0.0000 -0.2588 -0.9659
usemtl 6
s 1
f 137/244/62 138/245/62 139/246/62
f 138/245/62 140/247/62 139/246/62
f 141/248/63 142/249/63 143/250/63
f 142/249/63 144/251/63 143/250/63
f 141/252/64 143/253/64 139/254/64
f 143/253/64 137/255/64 139/254/64
f 143/256/65 144/257/65 137/258/65
f 144/257/65 138/259/65 137/258/65
f 139/260/66 140/261/66 141/262/66
f 140/261/66 142/263/66 141/262/66
o cube.019
v 0.254022 0.383639 0.841454
v 0.254022 0.042903 1.572164
v 0.379022 0.383639 0.841454
v 0.379022 0.042903 1.572164
v 0.254022 0.042846 1.572138
v 0.254022 0.383582 0.841427
v 0.379022 0.042846 1.572138
v 0.379022 0.383582 0.841427
vt 0.875000 1.000000
vt 0.875000 0.193750
vt 1.000000 1.000000
vt 1.000000 0.193750
vt 0.875000 1.000000
vt 0.875000 0.193750
vt 1.000000 1.000000
vt 1.000000 0.193750
vn 0.0000 0.9063 0.4226
vn 0.0000 -0.9063 -0.4226
usemtl 6
s 1
f 145/264/67 146/265/67 147/266/67
f 146/265/67 148/267/67 147/266/67
f 149/268/68 150/269/68 151/270/68
f 150/269/68 152/271/68 151/270/68
o cube.020
v 0.597772 0.383639 0.841454
v 0.597772 0.042903 1.572164
v 0.722772 0.383639 0.841454
v 0.722772 0.042903 1.572164
v 0.597772 0.042846 1.572138
v 0.597772 0.383582 0.841427
v 0.722772 0.042846 1.572138
v 0.722772 0.383582 0.841427
vt 0.875000 1.000000
vt 0.875000 0.193750
vt 1.000000 1.000000
vt 1.000000 0.193750
vt 0.875000 1.000000
vt 0.875000 0.193750
vt 1.000000 1.000000
vt 1.000000 0.193750
vn 0.0000 0.9063 0.4226
vn 0.0000 -0.9063 -0.4226
usemtl 6
s 1
f 153/272/69 154/273/69 155/274/69
f 154/273/69 156/275/69 155/274/69
f 157/276/70 158/277/70 159/278/70
f 158/277/70 160/279/70 159/278/70
o cube.021
v 0.597772 0.045698 1.571944
v 0.597772 -0.204953 1.455063
v 0.722772 0.045698 1.571944
v 0.722772 -0.204953 1.455063
v 0.597772 -0.204926 1.455007
v 0.597772 0.045725 1.571887
v 0.722772 -0.204926 1.455007
v 0.722772 0.045725 1.571887
vt 0.875000 1.000000
vt 0.875000 0.692187
vt 1.000000 1.000000
vt 1.000000 0.692187
vt 0.875000 1.000000
vt 0.875000 0.692187
vt 1.000000 1.000000
vt 1.000000 0.692187
vn 0.0000 -0.4226 0.9063
vn 0.0000 0.4226 -0.9063
usemtl 6
s 1
f 161/280/71 162/281/71 163/282/71
f 162/281/71 164/283/71 163/282/71
f 165/284/72 166/285/72 167/286/72
f 166/285/72 168/287/72 167/286/72
o cube.022
v 0.254022 0.045698 1.571944
v 0.254022 -0.204953 1.455063
v 0.379022 0.045698 1.571944
v 0.379022 -0.204953 1.455063
v 0.254022 -0.204926 1.455007
v 0.254022 0.045725 1.571887
v 0.379022 -0.204926 1.455007
v 0.379022 0.045725 1.571887
vt 0.875000 1.000000
vt 0.875000 0.692187
vt 1.000000 1.000000
vt 1.000000 0.692187
vt 0.875000 1.000000
vt 0.875000 0.692187
vt 1.000000 1.000000
vt 1.000000 0.692187
vn 0.0000 -0.4226 0.9063
vn 0.0000 0.4226 -0.9063
usemtl 6
s 1
f 169/288/73 170/289/73 171/290/73
f 170/289/73 172/291/73 171/290/73
f 173/292/74 174/293/74 175/294/74
f 174/293/74 176/295/74 175/294/74
o cube.023
v 0.222772 0.183297 -0.007802
v 0.222772 0.329812 0.823129
v 0.347772 0.183297 -0.007802
v 0.347772 0.329812 0.823129
v 0.222772 0.329750 0.823140
v 0.222772 0.183235 -0.007791
v 0.347772 0.329750 0.823140
v 0.347772 0.183235 -0.007791
vt 0.875000 1.000000
vt 0.875000 0.156250
vt 1.000000 1.000000
vt 1.000000 0.156250
vt 0.875000 1.000000
vt 0.875000 0.156250
vt 1.000000 1.000000
vt 1.000000 0.156250
vn 0.0000 0.9848 -0.1736
vn 0.0000 -0.9848 0.1736
usemtl 6
s 1
f 177/296/75 178/297/75 179/298/75
f 178/297/75 180/299/75 179/298/75
f 181/300/76 182/301/76 183/302/76
f 182/301/76 184/303/76 183/302/76
o cube.024
v 0.629022 0.183297 -0.007802
v 0.629022 0.329812 0.823129
v 0.754022 0.183297 -0.007802
v 0.754022 0.329812 0.823129
v 0.629022 0.329750 0.823140
v 0.629022 0.183235 -0.007791
v 0.754022 0.329750 0.823140
v 0.754022 0.183235 -0.007791
vt 0.875000 1.000000
vt 0.875000 0.156250
vt 1.000000 1.000000
vt 1.000000 0.156250
vt 0.875000 1.000000
vt 0.875000 0.156250
vt 1.000000 1.000000
vt 1.000000 0.156250
vn 0.0000 0.9848 -0.1736
vn 0.0000 -0.9848 0.1736
usemtl 6
s 1
f 185/304/77 186/305/77 187/306/77
f 186/305/77 188/307/77 187/306/77
f 189/308/78 190/309/78 191/310/78
f 190/309/78 192/311/78 191/310/78
o octagon
v -0.115113 0.131632 -0.673655
v -0.115113 0.037882 -0.511276
v 0.059450 0.505805 -0.457626
v 0.059450 0.412055 -0.295246
v 0.927969 -0.327090 -0.721992
v 0.927969 -0.233340 -0.884372
v 1.102532 0.047084 -0.505963
v 1.102532 0.140834 -0.668342
vt 0.531250 0.002750
vt 0.718750 0.002750
vt 0.531250 0.468750
vt 0.718750 0.468750
vt 0.531250 0.002750
vt 0.718750 0.002750
vt 0.531250 0.468750
vt 0.718750 0.468750
vt 0.000000 1.000000
vt 0.000000 0.000000
vt 0.465990 1.000000
vt 0.465990 0.000000
vt 0.000000 1.000000
vt 0.000000 0.000000
vt 0.465990 1.000000
vt 0.465990 0.000000
vn -0.9272 0.3244 0.1873
vn 0.9272 -0.3244 -0.1873
vn 0.0000 -0.5000 0.8660
vn 0.0000 0.5000 -0.8660
usemtl 6
s 1
f 193/312/79 194/313/79 195/314/79
f 194/313/79 196/315/79 195/314/79
f 197/316/80 198/317/80 199/318/80
f 198/317/80 200/319/80 199/318/80
f 194/320/81 197/321/81 196/322/81
f 197/321/81 199/323/81 196/322/81
f 195/324/82 200/325/82 193/326/82
f 200/325/82 198/327/82 193/326/82
o octagon.000
v 0.059450 0.505899 -0.457789
v 0.059450 0.412149 -0.295409
v 0.488396 0.663583 -0.366751
v 0.488396 0.569833 -0.204371
v 0.499023 -0.484679 -0.813193
v 0.499023 -0.390929 -0.975573
v 0.927969 -0.326995 -0.722155
v 0.927969 -0.233245 -0.884535
vt 0.531250 0.002750
vt 0.718750 0.002750
vt 0.531250 0.468750
vt 0.718750 0.468750
vt 0.531250 0.002750
vt 0.718750 0.002750
vt 0.531250 0.468750
vt 0.718750 0.468750
vt 0.000000 1.000000
vt 0.000000 0.000000
vt 0.465990 1.000000
vt 0.465990 0.000000
vt 0.000000 1.000000
vt 0.000000 0.000000
vt 0.465990 1.000000
vt 0.465990 0.000000
vn -0.3907 0.7972 0.4603
vn 0.3907 -0.7972 -0.4603
vn 0.0000 -0.5000 0.8660
vn 0.0000 0.5000 -0.8660
usemtl 6
s 1
f 201/328/83 202/329/83 203/330/83
f 202/329/83 204/331/83 203/330/83
f 205/332/84 206/333/84 207/334/84
f 206/333/84 208/335/84 207/334/84
f 202/336/85 205/337/85 204/338/85
f 205/337/85 207/339/85 204/338/85
f 203/340/86 208/341/86 201/342/86
f 208/341/86 206/343/86 201/342/86
o octagon.001
v 0.488396 0.569739 -0.204208
v 0.920455 0.418563 -0.291489
v 0.488396 0.663489 -0.366588
v 0.920455 0.512313 -0.453869
v 0.066964 -0.239847 -0.888129
v 0.499023 -0.391023 -0.975410
v 0.066964 -0.333597 -0.725749
v 0.499023 -0.484773 -0.813030
vt 0.531250 0.468750
vt 0.531250 0.002750
vt 0.718750 0.468750
vt 0.718750 0.002750
vt 0.531250 0.468750
vt 0.531250 0.002750
vt 0.718750 0.468750
vt 0.718750 0.002750
vt 0.000000 0.000000
vt 0.465990 0.000000
vt 0.000000 1.000000
vt 0.465990 1.000000
vt 0.000000 0.000000
vt 0.465990 0.000000
vt 0.000000 1.000000
vt 0.465990 1.000000
vn 0.3746 0.8030 0.4636
vn -0.3746 -0.8030 -0.4636
vn 0.0000 -0.5000 0.8660
vn 0.0000 0.5000 -0.8660
usemtl 6
s 1
f 209/344/87 210/345/87 211/346/87
f 210/345/87 212/347/87 211/346/87
f 213/348/88 214/349/88 215/350/88
f 214/349/88 216/351/88 215/350/88
f 215/352/89 216/353/89 209/354/89
f 216/353/89 210/355/89 209/354/89
f 211/356/90 212/357/90 213/358/90
f 212/357/90 214/359/90 213/358/90
o octagon.002
v 0.920455 0.418563 -0.291489
v 1.102532 0.047084 -0.505963
v 0.920455 0.512313 -0.453869
v 1.102532 0.140834 -0.668342
v -0.115113 0.131632 -0.673655
v 0.066964 -0.239847 -0.888129
v -0.115113 0.037882 -0.511276
v 0.066964 -0.333597 -0.725749
vt 0.531250 0.468750
vt 0.531250 0.002750
vt 0.718750 0.468750
vt 0.718750 0.002750
vt 0.531250 0.468750
vt 0.531250 0.002750
vt 0.718750 0.468750
vt 0.718750 0.002750
vt 0.000000 0.000000
vt 0.465990 0.000000
vt 0.000000 1.000000
vt 0.465990 1.000000
vt 0.000000 0.000000
vt 0.465990 0.000000
vt 0.000000 1.000000
vt 0.465990 1.000000
vn 0.9205 0.3384 0.1954
vn -0.9205 -0.3384 -0.1954
vn -0.0000 -0.5000 0.8660
vn 0.0000 0.5000 -0.8660
usemtl 6
s 1
f 217/360/91 218/361/91 219/362/91
f 218/361/91 220/363/91 219/362/91
f 221/364/92 222/365/92 223/366/92
f 222/365/92 224/367/92 223/366/92
f 223/368/93 224/369/93 217/370/93
f 224/369/93 218/371/93 217/370/93
f 219/372/94 220/373/94 221/374/94
f 220/373/94 222/375/94 221/374/94
