# Blender v2.82 (sub 7) OBJ File: ''
# www.blender.org
mtllib mt_horse_mf.mtl
o cube
v 0.971750 1.315047 0.642232
v 0.971750 0.982657 1.355043
v 0.971750 0.547404 0.284274
v 0.971750 0.215015 0.997085
v 0.003750 0.547404 0.284274
v 0.003750 0.215015 0.997085
v 0.003750 1.315047 0.642232
v 0.003750 0.982657 1.355043
vt 0.000000 0.718750
vt 0.781250 0.718750
vt 0.000000 0.003750
vt 0.781250 0.003750
vt 0.000000 0.003750
vt 0.770000 0.003750
vt 0.000000 0.718750
vt 0.770000 0.718750
vt 0.880000 0.011250
vt 0.880000 0.781250
vt 0.000000 0.011250
vt 0.000000 0.781250
vt 0.000000 0.003750
vt 0.880000 0.718750
vt 0.880000 0.003750
vt 0.062500 0.812500
vt 0.062500 0.042500
vt 0.942500 0.812500
vt 0.942500 0.042500
vt 0.093750 0.718750
vt 0.093750 0.003750
vt 0.973750 0.718750
vt 0.973750 0.003750
vn 1.0000 0.0000 0.0000
vn -1.0000 0.0000 0.0000
vn 0.0000 0.4226 -0.9063
vn 0.0000 0.9063 0.4226
vn 0.0000 -0.4226 0.9063
vn 0.0000 -0.9063 -0.4226
usemtl 2
s 1
f 1/1/1 2/2/1 3/3/1
f 2/2/1 4/4/1 3/3/1
f 5/5/2 6/6/2 7/7/2
f 6/6/2 8/8/2 7/7/2
f 5/9/3 7/10/3 3/11/3
f 7/10/3 1/12/3 3/11/3
f 7/7/4 8/13/4 1/14/4
f 8/13/4 2/15/4 1/14/4
usemtl 0
f 8/16/5 6/17/5 2/18/5
f 6/17/5 4/19/5 2/18/5
f 3/20/6 4/21/6 5/22/6
f 4/21/6 6/23/6 5/22/6
o cube.000
v 0.306250 0.636335 0.735081
v 0.306250 0.010970 0.962695
v 0.306250 0.532874 0.450824
v 0.306250 -0.092491 0.678438
v 0.064250 0.532874 0.450824
v 0.064250 -0.092491 0.678438
v 0.064250 0.636335 0.735081
v 0.064250 0.010970 0.962695
vt 0.000000 1.000000
vt 0.000000 0.395000
vt 0.243750 1.000000
vt 0.243750 0.395000
vt 0.000000 1.000000
vt 0.000000 0.395000
vt 0.243750 1.000000
vt 0.243750 0.395000
vt 0.031250 1.000000
vt 0.031250 0.395000
vt 0.251250 1.000000
vt 0.251250 0.395000
vt 0.031250 1.000000
vt 0.031250 0.395000
vt 0.251250 1.000000
vt 0.251250 0.395000
vn 1.0000 0.0000 0.0000
vn -1.0000 -0.0000 0.0000
vn 0.0000 0.3420 0.9397
vn 0.0000 -0.3420 -0.9397
usemtl 3
s 1
f 9/24/7 10/25/7 11/26/7
f 10/25/7 12/27/7 11/26/7
f 13/28/8 14/29/8 15/30/8
f 14/29/8 16/31/8 15/30/8
f 15/32/9 16/33/9 9/34/9
f 16/33/9 10/35/9 9/34/9
f 11/36/10 12/37/10 13/38/10
f 12/37/10 14/39/10 13/38/10
o cube.001
v 0.911250 0.620422 0.717057
v 0.911250 -0.034967 0.832620
v 0.911250 0.567894 0.419153
v 0.911250 -0.087496 0.534716
v 0.669250 0.567894 0.419153
v 0.669250 -0.087496 0.534716
v 0.669250 0.620422 0.717057
v 0.669250 -0.034967 0.832620
vt 0.000000 1.000000
vt 0.000000 0.395000
vt 0.243750 1.000000
vt 0.243750 0.395000
vt 0.000000 1.000000
vt 0.000000 0.395000
vt 0.243750 1.000000
vt 0.243750 0.395000
vt 0.031250 1.000000
vt 0.031250 0.395000
vt 0.251250 1.000000
vt 0.251250 0.395000
vt 0.031250 1.000000
vt 0.031250 0.395000
vt 0.251250 1.000000
vt 0.251250 0.395000
vt 0.343750 1.000000
vt 0.343750 0.312500
vt 0.656250 1.000000
vt 0.656250 0.312500
vn 1.0000 0.0000 0.0000
vn -1.0000 0.0000 0.0000
vn 0.0000 0.1736 0.9848
vn 0.0000 -0.1736 -0.9848
vn 0.0000 -0.9848 0.1736
usemtl 3
s 1
f 17/40/11 18/41/11 19/42/11
f 18/41/11 20/43/11 19/42/11
f 21/44/12 22/45/12 23/46/12
f 22/45/12 24/47/12 23/46/12
f 23/48/13 24/49/13 17/50/13
f 24/49/13 18/51/13 17/50/13
f 19/52/14 20/53/14 21/54/14
f 20/53/14 22/55/14 21/54/14
usemtl none
f 24/56/15 22/57/15 18/58/15
f 22/57/15 20/59/15 18/58/15
