# Made in Blockbench 3.7.5
mtllib mt_microphone_large_single.mtl
o cube
v 0.07849647432316481 0.025598501384031136 0.2567169947697517
v 0.47753761927604 0.3482352468314946 0.4871035072260305
v 0.09401934197604467 1.3877787807814457e-16 0.26567912658773674
v 0.4930604869289198 0.32263674544746357 0.4960656390440156
v 0.47756886927604 0.3482352468314946 0.487049380638294
v 0.0785277243231648 0.025598501384031136 0.25666286818201517
v 0.49309173692891983 0.32263674544746357 0.4960115124562791
v 0.0940505919760446 1.3877787807814457e-16 0.2656250000000003
vt 0.09375 0.4375
vt 0.125 0.4375
vt 0.09375 1
vt 0.125 0.4375
vt 0.125 1
vt 0.09375 1
vt 0 0.4375
vt 0.03125 0.4375
vt 0 1
vt 0.03125 0.4375
vt 0.03125 1
vt 0 1
vn -0.4999999999999998 -2.7755575615628914e-17 0.8660254037844387
vn -0.4999999999999998 -2.7755575615628914e-17 0.8660254037844387
vn -0.4999999999999998 -2.7755575615628914e-17 0.8660254037844387
vn -0.4999999999999998 -2.7755575615628914e-17 0.8660254037844387
vn -0.4999999999999998 -2.7755575615628914e-17 0.8660254037844387
vn -0.4999999999999998 -2.7755575615628914e-17 0.8660254037844387
vn 0.4999999999999998 2.7755575615628914e-17 -0.8660254037844387
vn 0.4999999999999998 2.7755575615628914e-17 -0.8660254037844387
vn 0.4999999999999998 2.7755575615628914e-17 -0.8660254037844387
vn 0.4999999999999998 2.7755575615628914e-17 -0.8660254037844387
vn 0.4999999999999998 2.7755575615628914e-17 -0.8660254037844387
vn 0.4999999999999998 2.7755575615628914e-17 -0.8660254037844387
usemtl m_1
f 1/1/1 3/2/2 2/3/3
f 3/4/4 4/5/5 2/6/6
usemtl m_1
f 5/7/7 7/8/8 6/9/9
f 7/10/10 8/11/11 6/12/12
o cube
v 0.5001249999999999 0.14436085153210723 0.791686973785635
v 0.5001249999999999 0.17513609381373874 0.7862604682335435
v 0.5001249999999999 0.09552230156328302 0.5147097932509516
v 0.5001249999999999 0.1262975438449145 0.50928328769886
v 0.5000625 0.17513609381373874 0.7862604682335435
v 0.5000625 0.14436085153210723 0.791686973785635
v 0.5000625 0.1262975438449145 0.50928328769886
v 0.5000625 0.09552230156328302 0.5147097932509516
vt 0.03125 1
vt 0.03125 0.71875
vt 0.0625 1
vt 0.03125 0.71875
vt 0.0625 0.71875
vt 0.0625 1
vt 0.03125 1
vt 0.03125 0.71875
vt 0.0625 1
vt 0.03125 0.71875
vt 0.0625 0.71875
vt 0.0625 1
vn 1 0 0
vn 1 0 0
vn 1 0 0
vn 1 0 0
vn 1 0 0
vn 1 0 0
vn -1 0 0
vn -1 0 0
vn -1 0 0
vn -1 0 0
vn -1 0 0
vn -1 0 0
usemtl m_1
f 9/13/13 11/14/14 10/15/15
f 11/16/16 12/17/17 10/18/18
usemtl m_1
f 13/19/19 15/20/20 14/21/21
f 15/22/22 16/23/23 14/24/24
o cube
v 0.7525458292513656 0.14279835153210732 0.3540482599317095
v 0.747846337589477 0.17357359381373882 0.35676151270775536
v 0.5126765546397409 0.09395980156328311 0.49253685019905125
v 0.5079770629778524 0.1247350438449146 0.49525010297509703
v 0.747877587589477 0.17357359381373882 0.35681563929549187
v 0.7525770792513656 0.14279835153210732 0.35410238651944603
v 0.5080083129778523 0.1247350438449146 0.4953042295628335
v 0.512707804639741 0.09395980156328311 0.4925909767867877
vt 0.03125 1
vt 0.03125 0.71875
vt 0.0625 1
vt 0.03125 0.71875
vt 0.0625 0.71875
vt 0.0625 1
vt 0.03125 1
vt 0.03125 0.71875
vt 0.0625 1
vt 0.03125 0.71875
vt 0.0625 0.71875
vt 0.0625 1
vn -0.4999999999999997 4.163336342344337e-17 -0.8660254037844387
vn -0.4999999999999997 4.163336342344337e-17 -0.8660254037844387
vn -0.4999999999999997 4.163336342344337e-17 -0.8660254037844387
vn -0.4999999999999997 4.163336342344337e-17 -0.8660254037844387
vn -0.4999999999999997 4.163336342344337e-17 -0.8660254037844387
vn -0.4999999999999997 4.163336342344337e-17 -0.8660254037844387
vn 0.4999999999999997 -4.163336342344337e-17 0.8660254037844387
vn 0.4999999999999997 -4.163336342344337e-17 0.8660254037844387
vn 0.4999999999999997 -4.163336342344337e-17 0.8660254037844387
vn 0.4999999999999997 -4.163336342344337e-17 0.8660254037844387
vn 0.4999999999999997 -4.163336342344337e-17 0.8660254037844387
vn 0.4999999999999997 -4.163336342344337e-17 0.8660254037844387
usemtl m_1
f 17/25/25 19/26/26 18/27/27
f 19/28/28 20/29/29 18/30/30
usemtl m_1
f 21/31/31 23/32/32 22/33/33
f 23/34/34 24/35/35 22/36/36
o cube
v 0.5442383679979833 1 0.45585002034966493
v 0.5441941738241592 1 0.45580582617584076
v 0.5442383679979833 0.09375 0.45585002034966493
v 0.5441941738241592 0.09375 0.45580582617584076
v 0.45580582617584076 1 0.5441941738241592
v 0.45585002034966493 1 0.5442383679979833
v 0.45580582617584076 0.09375 0.5441941738241592
v 0.45585002034966493 0.09375 0.5442383679979833
vt 0.875 1
vt 0.875 0.09375
vt 1 1
vt 0.875 0.09375
vt 1 0.09375
vt 1 1
vt 0.875 1
vt 0.875 0.09375
vt 1 1
vt 0.875 0.09375
vt 1 0.09375
vt 1 1
vn 0.7071067811865476 0 0.7071067811865475
vn 0.7071067811865476 0 0.7071067811865475
vn 0.7071067811865476 0 0.7071067811865475
vn 0.7071067811865476 0 0.7071067811865475
vn 0.7071067811865476 0 0.7071067811865475
vn 0.7071067811865476 0 0.7071067811865475
vn -0.7071067811865476 0 -0.7071067811865475
vn -0.7071067811865476 0 -0.7071067811865475
vn -0.7071067811865476 0 -0.7071067811865475
vn -0.7071067811865476 0 -0.7071067811865475
vn -0.7071067811865476 0 -0.7071067811865475
vn -0.7071067811865476 0 -0.7071067811865475
usemtl m_1
f 30/37/37 32/38/38 25/39/39
f 32/40/40 27/41/41 25/42/42
usemtl m_1
f 26/43/43 28/44/44 29/45/45
f 28/46/46 31/47/47 29/48/48
o cube
v 0.5442383679979833 1 0.5441499796503351
v 0.45585002034966493 1 0.45576163200201664
v 0.5442383679979833 0.09375 0.5441499796503351
v 0.45585002034966493 0.09375 0.45576163200201664
v 0.45580582617584076 1 0.45580582617584076
v 0.5441941738241592 1 0.5441941738241592
v 0.45580582617584076 0.09375 0.45580582617584076
v 0.5441941738241592 0.09375 0.5441941738241592
vt 0.875 1
vt 0.875 0.09375
vt 1 1
vt 0.875 0.09375
vt 1 0.09375
vt 1 1
vt 0.875 1
vt 0.875 0.09375
vt 1 1
vt 0.875 0.09375
vt 1 0.09375
vt 1 1
vn 0.7071067811865475 0 -0.7071067811865476
vn 0.7071067811865475 0 -0.7071067811865476
vn 0.7071067811865475 0 -0.7071067811865476
vn 0.7071067811865475 0 -0.7071067811865476
vn 0.7071067811865475 0 -0.7071067811865476
vn 0.7071067811865475 0 -0.7071067811865476
vn -0.7071067811865475 0 0.7071067811865476
vn -0.7071067811865475 0 0.7071067811865476
vn -0.7071067811865475 0 0.7071067811865476
vn -0.7071067811865475 0 0.7071067811865476
vn -0.7071067811865475 0 0.7071067811865476
vn -0.7071067811865475 0 0.7071067811865476
usemtl m_1
f 33/49/49 35/50/50 34/51/51
f 35/52/52 36/53/53 34/54/54
usemtl m_1
f 37/55/55 39/56/56 38/57/57
f 39/58/58 40/59/59 38/60/60
o cube
v 0.5625 0.375 0.5625
v 0.5625 0.375 0.4375
v 0.5625 0.3125 0.5625
v 0.5625 0.3125 0.4375
v 0.4375 0.375 0.4375
v 0.4375 0.375 0.5625
v 0.4375 0.3125 0.4375
v 0.4375 0.3125 0.5625
vt 0 1
vt 0 0.9375
vt 0.125 1
vt 0 0.9375
vt 0.125 0.9375
vt 0.125 1
vt 0 1
vt 0 0.9375
vt 0.125 1
vt 0 0.9375
vt 0.125 0.9375
vt 0.125 1
vt 0 1
vt 0 0.875
vt 0.125 1
vt 0 0.875
vt 0.125 0.875
vt 0.125 1
vt 0 1
vt 0 0.875
vt 0.125 1
vt 0 0.875
vt 0.125 0.875
vt 0.125 1
vt 0 1
vt 0 0.9375
vt 0.125 1
vt 0 0.9375
vt 0.125 0.9375
vt 0.125 1
vt 0 1
vt 0 0.9375
vt 0.125 1
vt 0 0.9375
vt 0.125 0.9375
vt 0.125 1
vn 1 0 0
vn 1 0 0
vn 1 0 0
vn 1 0 0
vn 1 0 0
vn 1 0 0
vn -1 0 0
vn -1 0 0
vn -1 0 0
vn -1 0 0
vn -1 0 0
vn -1 0 0
vn 0 1 0
vn 0 1 0
vn 0 1 0
vn 0 1 0
vn 0 1 0
vn 0 1 0
vn 0 -1 0
vn 0 -1 0
vn 0 -1 0
vn 0 -1 0
vn 0 -1 0
vn 0 -1 0
vn 0 0 1
vn 0 0 1
vn 0 0 1
vn 0 0 1
vn 0 0 1
vn 0 0 1
vn 0 0 -1
vn 0 0 -1
vn 0 0 -1
vn 0 0 -1
vn 0 0 -1
vn 0 0 -1
usemtl m_1
f 41/61/61 43/62/62 42/63/63
f 43/64/64 44/65/65 42/66/66
usemtl m_1
f 45/67/67 47/68/68 46/69/69
f 47/70/70 48/71/71 46/72/72
usemtl m_1
f 45/73/73 46/74/74 42/75/75
f 46/76/76 41/77/77 42/78/78
usemtl m_1
f 48/79/79 47/80/80 43/81/81
f 47/82/82 44/83/83 43/84/84
usemtl m_1
f 46/85/85 48/86/86 41/87/87
f 48/88/88 43/89/89 41/90/90
usemtl m_1
f 42/91/91 44/92/92 45/93/93
f 44/94/94 47/95/95 45/96/96
o cube
v 0.5000625 0.025598501384030994 0.9866742636359702
v 0.5000625 0.34823524683149437 0.5259012387234123
v 0.5000625 0 0.96875
v 0.5000625 0.3226367454474634 0.5079769750874421
v 0.5 0.34823524683149437 0.5259012387234123
v 0.5 0.025598501384030994 0.9866742636359702
v 0.5 0.3226367454474634 0.5079769750874421
v 0.5 0 0.96875
vt 0 0.4375
vt 0.03125 0.4375
vt 0 1
vt 0.03125 0.4375
vt 0.03125 1
vt 0 1
vt 0.03125 0.4375
vt 0.0625 0.4375
vt 0.03125 1
vt 0.0625 0.4375
vt 0.0625 1
vt 0.03125 1
vn 1 0 0
vn 1 0 0
vn 1 0 0
vn 1 0 0
vn 1 0 0
vn 1 0 0
vn -1 0 0
vn -1 0 0
vn -1 0 0
vn -1 0 0
vn -1 0 0
vn -1 0 0
usemtl m_1
f 49/97/97 51/98/98 50/99/99
f 51/100/100 52/101/101 50/102/102
usemtl m_1
f 53/103/103 55/104/104 54/105/105
f 55/106/106 56/107/107 54/108/108
o cube
v 0.24732917074863442 0.14279835153210732 0.3542647662826556
v 0.252028662410523 0.17357359381373882 0.3569780190587013
v 0.4871984453602591 0.09395980156328311 0.4927533565499972
v 0.4918979370221477 0.1247350438449146 0.49546660932604303
v 0.252059912410523 0.17357359381373882 0.3569238924709648
v 0.2473604207486344 0.14279835153210732 0.35421063969491906
v 0.49192918702214766 0.1247350438449146 0.4954124827383065
v 0.48722969536025906 0.09395980156328311 0.49269922996226073
vt 0.03125 1
vt 0.03125 0.71875
vt 0.0625 1
vt 0.03125 0.71875
vt 0.0625 0.71875
vt 0.0625 1
vt 0.03125 1
vt 0.03125 0.71875
vt 0.0625 1
vt 0.03125 0.71875
vt 0.0625 0.71875
vt 0.0625 1
vn -0.4999999999999997 -4.163336342344337e-17 0.8660254037844387
vn -0.4999999999999997 -4.163336342344337e-17 0.8660254037844387
vn -0.4999999999999997 -4.163336342344337e-17 0.8660254037844387
vn -0.4999999999999997 -4.163336342344337e-17 0.8660254037844387
vn -0.4999999999999997 -4.163336342344337e-17 0.8660254037844387
vn -0.4999999999999997 -4.163336342344337e-17 0.8660254037844387
vn 0.4999999999999997 4.163336342344337e-17 -0.8660254037844387
vn 0.4999999999999997 4.163336342344337e-17 -0.8660254037844387
vn 0.4999999999999997 4.163336342344337e-17 -0.8660254037844387
vn 0.4999999999999997 4.163336342344337e-17 -0.8660254037844387
vn 0.4999999999999997 4.163336342344337e-17 -0.8660254037844387
vn 0.4999999999999997 4.163336342344337e-17 -0.8660254037844387
usemtl m_1
f 57/109/109 59/110/110 58/111/111
f 59/112/112 60/113/113 58/114/114
usemtl m_1
f 61/115/115 63/116/116 62/117/117
f 63/118/118 64/119/119 62/120/120
o cube
v 0.9214410256768353 0.025598501384031136 0.25660874159427866
v 0.52239988072396 0.3482352468314946 0.48699525405055755
v 0.9059181580239554 1.3877787807814457e-16 0.26557087341226376
v 0.5068770130710802 0.32263674544746357 0.4959573858685426
v 0.52243113072396 0.3482352468314946 0.487049380638294
v 0.9214722756768352 0.025598501384031136 0.25666286818201517
v 0.5069082630710802 0.32263674544746357 0.4960115124562791
v 0.9059494080239554 1.3877787807814457e-16 0.2656250000000003
vt 0 0.03125
vt 0.03125 0.03125
vt 0 0.59375
vt 0.03125 0.03125
vt 0.03125 0.59375
vt 0 0.59375
vt 0 0.25
vt 0.03125 0.25
vt 0 0.8125
vt 0.03125 0.25
vt 0.03125 0.8125
vt 0 0.8125
vn -0.4999999999999998 2.7755575615628914e-17 -0.8660254037844387
vn -0.4999999999999998 2.7755575615628914e-17 -0.8660254037844387
vn -0.4999999999999998 2.7755575615628914e-17 -0.8660254037844387
vn -0.4999999999999998 2.7755575615628914e-17 -0.8660254037844387
vn -0.4999999999999998 2.7755575615628914e-17 -0.8660254037844387
vn -0.4999999999999998 2.7755575615628914e-17 -0.8660254037844387
vn 0.4999999999999998 -2.7755575615628914e-17 0.8660254037844387
vn 0.4999999999999998 -2.7755575615628914e-17 0.8660254037844387
vn 0.4999999999999998 -2.7755575615628914e-17 0.8660254037844387
vn 0.4999999999999998 -2.7755575615628914e-17 0.8660254037844387
vn 0.4999999999999998 -2.7755575615628914e-17 0.8660254037844387
vn 0.4999999999999998 -2.7755575615628914e-17 0.8660254037844387
usemtl m_1
f 65/121/121 67/122/122 66/123/123
f 67/124/124 68/125/125 66/126/126
usemtl m_1
f 69/127/127 71/128/128 70/129/129
f 71/130/130 72/131/131 70/132/132
o cube
v 0.12130582720683258 1.1615870500143481 0.06549345440110821
v 0.12126388907735375 1.1615455210753238 0.06551401627162934
v 0.7650043820833612 0.8302550361676064 0.7091920092776367
v 0.7649624439538822 0.8302135072285821 0.7092125711481577
v 0.08014014803520797 1.244603399123908 0.14939027522948367
v 0.0801820861646868 1.2446449280629324 0.14936971335896254
v 0.7238387029117366 0.9132713852771663 0.793088830106012
v 0.7238806410412154 0.9133129142161907 0.793068268235491
vt 0.875 1
vt 0.875 0.03125
vt 1 1
vt 0.875 0.03125
vt 1 0.03125
vt 1 1
vt 0.875 1
vt 0.875 0.03125
vt 1 1
vt 0.875 0.03125
vt 1 0.03125
vt 1 1
vn 0.6710100716628344 0.6644630243886747 -0.32898992833716567
vn 0.6710100716628344 0.6644630243886747 -0.32898992833716567
vn 0.6710100716628344 0.6644630243886747 -0.32898992833716567
vn 0.6710100716628344 0.6644630243886747 -0.32898992833716567
vn 0.6710100716628344 0.6644630243886747 -0.32898992833716567
vn 0.6710100716628344 0.6644630243886747 -0.32898992833716567
vn -0.6710100716628344 -0.6644630243886747 0.32898992833716567
vn -0.6710100716628344 -0.6644630243886747 0.32898992833716567
vn -0.6710100716628344 -0.6644630243886747 0.32898992833716567
vn -0.6710100716628344 -0.6644630243886747 0.32898992833716567
vn -0.6710100716628344 -0.6644630243886747 0.32898992833716567
vn -0.6710100716628344 -0.6644630243886747 0.32898992833716567
usemtl m_1
f 78/133/133 80/134/134 73/135/135
f 80/136/136 75/137/137 73/138/138
usemtl m_1
f 74/139/139 76/140/140 77/141/141
f 76/142/142 79/143/143 77/144/144
o cube
v 0.1426607099057291 1.244561870184884 0.08684833710000461
v 0.05878445094787477 1.1615039921362995 0.1279720781421504
v 0.7863592647822577 0.9132298563381422 0.7305468919765331
v 0.7024830058244033 0.8301719782895578 0.7716706330186789
v 0.05876388907735364 1.1615455210753238 0.12801401627162934
v 0.14264014803520797 1.2446033991239083 0.08689027522948356
v 0.7024624439538822 0.8302135072285821 0.7717125711481577
v 0.7863387029117366 0.9132713852771664 0.7305888301060119
vt 0.875 1
vt 0.875 0.03125
vt 1 1
vt 0.875 0.03125
vt 1 0.03125
vt 1 1
vt 0.875 1
vt 0.875 0.03125
vt 1 1
vt 0.875 0.03125
vt 1 0.03125
vt 1 1
vn 0.3289899283371654 -0.6644630243886748 -0.6710100716628344
vn 0.3289899283371654 -0.6644630243886748 -0.6710100716628344
vn 0.3289899283371654 -0.6644630243886748 -0.6710100716628344
vn 0.3289899283371654 -0.6644630243886748 -0.6710100716628344
vn 0.3289899283371654 -0.6644630243886748 -0.6710100716628344
vn 0.3289899283371654 -0.6644630243886748 -0.6710100716628344
vn -0.3289899283371654 0.6644630243886748 0.6710100716628344
vn -0.3289899283371654 0.6644630243886748 0.6710100716628344
vn -0.3289899283371654 0.6644630243886748 0.6710100716628344
vn -0.3289899283371654 0.6644630243886748 0.6710100716628344
vn -0.3289899283371654 0.6644630243886748 0.6710100716628344
vn -0.3289899283371654 0.6644630243886748 0.6710100716628344
usemtl m_1
f 81/145/145 83/146/146 82/147/147
f 83/148/148 84/149/149 82/150/150
usemtl m_1
f 85/151/151 87/152/152 86/153/153
f 87/154/154 88/155/155 86/156/156
o cube
v -0.023504262130722917 1.3493877330479984 -0.10514248258476575
v -0.031207814220250346 1.2248633957865305 -0.11284603467429316
v 0.10857374281979434 1.3330460312828125 0.026935522365751502
v 0.10087019073026691 1.2085216940213446 0.019231970276224072
v -0.11959616186856878 1.2248633957865305 -0.024457687025974728
v -0.11189260977904136 1.3493877330479984 -0.016754134936447312
v 0.012481843081948482 1.2085216940213446 0.10762031792454252
v 0.02018539517147591 1.3330460312828125 0.11532387001406993
vt 0.03125 0.875
vt 0.03125 0.6875
vt 0.15625 0.875
vt 0.03125 0.6875
vt 0.15625 0.6875
vt 0.15625 0.875
vt 0 0.84375
vt 0 0.65625
vt 0.125 0.84375
vt 0 0.65625
vt 0.125 0.65625
vt 0.125 0.84375
vt 0.03125 1
vt 0.03125 0.875
vt 0.15625 1
vt 0.03125 0.875
vt 0.15625 0.875
vt 0.15625 1
vt 0.0625 0.6875
vt 0.0625 0.5625000000000001
vt 0.1875 0.6875
vt 0.0625 0.5625000000000001
vt 0.1875 0.5625000000000001
vt 0.1875 0.6875
vt 0 0.875
vt 0 0.6875
vt 0.125 0.875
vt 0 0.6875
vt 0.125 0.6875
vt 0.125 0.875
vt 0.0625 0.84375
vt 0.0625 0.65625
vt 0.1875 0.84375
vt 0.0625 0.65625
vt 0.1875 0.65625
vt 0.1875 0.84375
vn 0.7071067811865475 2.0816681711721685e-17 -0.7071067811865476
vn 0.7071067811865475 2.0816681711721685e-17 -0.7071067811865476
vn 0.7071067811865475 2.0816681711721685e-17 -0.7071067811865476
vn 0.7071067811865475 2.0816681711721685e-17 -0.7071067811865476
vn 0.7071067811865475 2.0816681711721685e-17 -0.7071067811865476
vn 0.7071067811865475 2.0816681711721685e-17 -0.7071067811865476
vn -0.7071067811865475 -2.0816681711721685e-17 0.7071067811865476
vn -0.7071067811865475 -2.0816681711721685e-17 0.7071067811865476
vn -0.7071067811865475 -2.0816681711721685e-17 0.7071067811865476
vn -0.7071067811865475 -2.0816681711721685e-17 0.7071067811865476
vn -0.7071067811865475 -2.0816681711721685e-17 0.7071067811865476
vn -0.7071067811865475 -2.0816681711721685e-17 0.7071067811865476
vn -0.7044160264027587 0.08715574274765839 -0.7044160264027586
vn -0.7044160264027587 0.08715574274765839 -0.7044160264027586
vn -0.7044160264027587 0.08715574274765839 -0.7044160264027586
vn -0.7044160264027587 0.08715574274765839 -0.7044160264027586
vn -0.7044160264027587 0.08715574274765839 -0.7044160264027586
vn -0.7044160264027587 0.08715574274765839 -0.7044160264027586
vn 0.7044160264027587 -0.08715574274765839 0.7044160264027586
vn 0.7044160264027587 -0.08715574274765839 0.7044160264027586
vn 0.7044160264027587 -0.08715574274765839 0.7044160264027586
vn 0.7044160264027587 -0.08715574274765839 0.7044160264027586
vn 0.7044160264027587 -0.08715574274765839 0.7044160264027586
vn 0.7044160264027587 -0.08715574274765839 0.7044160264027586
vn 0.06162841671621947 0.9961946980917455 0.061628416716219464
vn 0.06162841671621947 0.9961946980917455 0.061628416716219464
vn 0.06162841671621947 0.9961946980917455 0.061628416716219464
vn 0.06162841671621947 0.9961946980917455 0.061628416716219464
vn 0.06162841671621947 0.9961946980917455 0.061628416716219464
vn 0.06162841671621947 0.9961946980917455 0.061628416716219464
vn -0.06162841671621947 -0.9961946980917455 -0.061628416716219464
vn -0.06162841671621947 -0.9961946980917455 -0.061628416716219464
vn -0.06162841671621947 -0.9961946980917455 -0.061628416716219464
vn -0.06162841671621947 -0.9961946980917455 -0.061628416716219464
vn -0.06162841671621947 -0.9961946980917455 -0.061628416716219464
vn -0.06162841671621947 -0.9961946980917455 -0.061628416716219464
usemtl m_2
f 89/157/157 91/158/158 90/159/159
f 91/160/160 92/161/161 90/162/162
usemtl m_2
f 93/163/163 95/164/164 94/165/165
f 95/166/166 96/167/167 94/168/168
usemtl m_2
f 93/169/169 94/170/170 90/171/171
f 94/172/172 89/173/173 90/174/174
usemtl m_2
f 96/175/175 95/176/176 91/177/177
f 95/178/178 92/179/179 91/180/180
usemtl m_2
f 94/181/181 96/182/182 89/183/183
f 96/184/184 91/185/185 89/186/186
usemtl m_2
f 90/187/187 92/188/188 93/189/189
f 92/190/190 95/191/191 93/192/192
o cube
v 0.09661040255312317 1.3182587662330134 0.03706926901115992
v 0.09083273848597759 1.2248655132869122 0.03129160494401434
v 0.22868840750364042 1.3019170644678275 0.16914727396167717
v 0.22291074343649483 1.2085238115217263 0.1633696098945316
v 0.024541477749738805 1.2248655132869122 0.09758286568025314
v 0.0303191418168844 1.3182587662330134 0.10336052974739873
v 0.15661948270025605 1.2085238115217263 0.22966087063077037
v 0.16239714676740163 1.3019170644678275 0.23543853469791595
vt 0.65625 0.59375
vt 0.65625 0.40625
vt 0.75 0.59375
vt 0.65625 0.40625
vt 0.75 0.40625
vt 0.75 0.59375
vt 0.65625 0.59375
vt 0.65625 0.40625
vt 0.75 0.59375
vt 0.65625 0.40625
vt 0.75 0.40625
vt 0.75 0.59375
vt 0.09375 0.6875
vt 0.09375 0.59375
vt 0.1875 0.6875
vt 0.09375 0.59375
vt 0.1875 0.59375
vt 0.1875 0.6875
vt 0.65625 0.59375
vt 0.65625 0.40625
vt 0.75 0.59375
vt 0.65625 0.40625
vt 0.75 0.40625
vt 0.75 0.59375
vt 0.65625 0.59375
vt 0.65625 0.40625
vt 0.75 0.59375
vt 0.65625 0.40625
vt 0.75 0.40625
vt 0.75 0.59375
vn 0.7071067811865475 2.0816681711721685e-17 -0.7071067811865476
vn 0.7071067811865475 2.0816681711721685e-17 -0.7071067811865476
vn 0.7071067811865475 2.0816681711721685e-17 -0.7071067811865476
vn 0.7071067811865475 2.0816681711721685e-17 -0.7071067811865476
vn 0.7071067811865475 2.0816681711721685e-17 -0.7071067811865476
vn 0.7071067811865475 2.0816681711721685e-17 -0.7071067811865476
vn -0.7071067811865475 -2.0816681711721685e-17 0.7071067811865476
vn -0.7071067811865475 -2.0816681711721685e-17 0.7071067811865476
vn -0.7071067811865475 -2.0816681711721685e-17 0.7071067811865476
vn -0.7071067811865475 -2.0816681711721685e-17 0.7071067811865476
vn -0.7071067811865475 -2.0816681711721685e-17 0.7071067811865476
vn -0.7071067811865475 -2.0816681711721685e-17 0.7071067811865476
vn 0.7044160264027587 -0.08715574274765839 0.7044160264027586
vn 0.7044160264027587 -0.08715574274765839 0.7044160264027586
vn 0.7044160264027587 -0.08715574274765839 0.7044160264027586
vn 0.7044160264027587 -0.08715574274765839 0.7044160264027586
vn 0.7044160264027587 -0.08715574274765839 0.7044160264027586
vn 0.7044160264027587 -0.08715574274765839 0.7044160264027586
vn 0.06162841671621947 0.9961946980917455 0.061628416716219464
vn 0.06162841671621947 0.9961946980917455 0.061628416716219464
vn 0.06162841671621947 0.9961946980917455 0.061628416716219464
vn 0.06162841671621947 0.9961946980917455 0.061628416716219464
vn 0.06162841671621947 0.9961946980917455 0.061628416716219464
vn 0.06162841671621947 0.9961946980917455 0.061628416716219464
vn -0.06162841671621947 -0.9961946980917455 -0.061628416716219464
vn -0.06162841671621947 -0.9961946980917455 -0.061628416716219464
vn -0.06162841671621947 -0.9961946980917455 -0.061628416716219464
vn -0.06162841671621947 -0.9961946980917455 -0.061628416716219464
vn -0.06162841671621947 -0.9961946980917455 -0.061628416716219464
vn -0.06162841671621947 -0.9961946980917455 -0.061628416716219464
usemtl m_2
f 97/193/193 99/194/194 98/195/195
f 99/196/196 100/197/197 98/198/198
usemtl m_2
f 101/199/199 103/200/200 102/201/201
f 103/202/202 104/203/203 102/204/204
usemtl m_2
f 104/205/205 103/206/206 99/207/207
f 103/208/208 100/209/209 99/210/210
usemtl m_2
f 102/211/211 104/212/212 97/213/213
f 104/214/214 99/215/215 97/216/216
usemtl m_2
f 98/217/217 100/218/218 101/219/219
f 100/220/220 103/221/221 101/222/222
o cube
v 0.1936610832869633 1.2707859801524604 0.2003228221335906
v 0.18210575515267213 1.0839994742602581 0.18876749399929943
v 0.36976508988765405 1.2489970444655456 0.37642682873428135
v 0.3582097617533629 1.0622105385733431 0.3648715005999902
v 0.18206156097884799 1.0839994742602581 0.18881168817312355
v 0.19361688911313915 1.2707859801524604 0.2003670163074147
v 0.35816556757953877 1.0622105385733431 0.3649156947738143
v 0.36972089571382993 1.2489970444655456 0.37647102290810547
vt 0.5625 0.40625
vt 0.3125 0.40625
vt 0.5625 0.2187499999999999
vt 0.3125 0.40625
vt 0.3125 0.2187499999999999
vt 0.5625 0.2187499999999999
vt 0.5625 0.21875
vt 0.3125 0.21875
vt 0.5625 0.40625
vt 0.3125 0.21875
vt 0.3125 0.40625
vt 0.5625 0.40625
vn 0.7071067811865475 2.0816681711721685e-17 -0.7071067811865476
vn 0.7071067811865475 2.0816681711721685e-17 -0.7071067811865476
vn 0.7071067811865475 2.0816681711721685e-17 -0.7071067811865476
vn 0.7071067811865475 2.0816681711721685e-17 -0.7071067811865476
vn 0.7071067811865475 2.0816681711721685e-17 -0.7071067811865476
vn 0.7071067811865475 2.0816681711721685e-17 -0.7071067811865476
vn -0.7071067811865475 -2.0816681711721685e-17 0.7071067811865476
vn -0.7071067811865475 -2.0816681711721685e-17 0.7071067811865476
vn -0.7071067811865475 -2.0816681711721685e-17 0.7071067811865476
vn -0.7071067811865475 -2.0816681711721685e-17 0.7071067811865476
vn -0.7071067811865475 -2.0816681711721685e-17 0.7071067811865476
vn -0.7071067811865475 -2.0816681711721685e-17 0.7071067811865476
usemtl m_2
f 105/223/223 107/224/224 106/225/225
f 107/226/226 108/227/227 106/228/228
usemtl m_2
f 109/229/229 111/230/230 110/231/231
f 111/232/232 112/233/233 110/234/234
