# Made in Blockbench 3.7.5
mtllib mt_microphone_large_top.mtl
o cube
v 0.5442383679979833 0.25 0.45585002034966493
v 0.5441941738241592 0.25 0.45580582617584076
v 0.5442383679979833 0 0.45585002034966493
v 0.5441941738241592 0 0.45580582617584076
v 0.45580582617584076 0.25 0.5441941738241592
v 0.45585002034966493 0.25 0.5442383679979833
v 0.45580582617584076 0 0.5441941738241592
v 0.45585002034966493 0 0.5442383679979833
vt 0.875 1
vt 0.875 0.75
vt 1 1
vt 0.875 0.75
vt 1 0.75
vt 1 1
vt 0.875 1
vt 0.875 0.75
vt 1 1
vt 0.875 0.75
vt 1 0.75
vt 1 1
vn 0.7071067811865476 0 0.7071067811865475
vn 0.7071067811865476 0 0.7071067811865475
vn 0.7071067811865476 0 0.7071067811865475
vn 0.7071067811865476 0 0.7071067811865475
vn 0.7071067811865476 0 0.7071067811865475
vn 0.7071067811865476 0 0.7071067811865475
vn -0.7071067811865476 0 -0.7071067811865475
vn -0.7071067811865476 0 -0.7071067811865475
vn -0.7071067811865476 0 -0.7071067811865475
vn -0.7071067811865476 0 -0.7071067811865475
vn -0.7071067811865476 0 -0.7071067811865475
vn -0.7071067811865476 0 -0.7071067811865475
usemtl m_1
f 6/1/1 8/2/2 1/3/3
f 8/4/4 3/5/5 1/6/6
usemtl m_1
f 2/7/7 4/8/8 5/9/9
f 4/10/10 7/11/11 5/12/12
o cube
v 0.5442383679979833 0.25 0.5441499796503351
v 0.45585002034966493 0.25 0.45576163200201664
v 0.5442383679979833 0 0.5441499796503351
v 0.45585002034966493 0 0.45576163200201664
v 0.45580582617584076 0.25 0.45580582617584076
v 0.5441941738241592 0.25 0.5441941738241592
v 0.45580582617584076 0 0.45580582617584076
v 0.5441941738241592 0 0.5441941738241592
vt 0.875 1
vt 0.875 0.75
vt 1 1
vt 0.875 0.75
vt 1 0.75
vt 1 1
vt 0.875 1
vt 0.875 0.75
vt 1 1
vt 0.875 0.75
vt 1 0.75
vt 1 1
vn 0.7071067811865475 0 -0.7071067811865476
vn 0.7071067811865475 0 -0.7071067811865476
vn 0.7071067811865475 0 -0.7071067811865476
vn 0.7071067811865475 0 -0.7071067811865476
vn 0.7071067811865475 0 -0.7071067811865476
vn 0.7071067811865475 0 -0.7071067811865476
vn -0.7071067811865475 0 0.7071067811865476
vn -0.7071067811865475 0 0.7071067811865476
vn -0.7071067811865475 0 0.7071067811865476
vn -0.7071067811865475 0 0.7071067811865476
vn -0.7071067811865475 0 0.7071067811865476
vn -0.7071067811865475 0 0.7071067811865476
usemtl m_1
f 9/13/13 11/14/14 10/15/15
f 11/16/16 12/17/17 10/18/18
usemtl m_1
f 13/19/19 15/20/20 14/21/21
f 15/22/22 16/23/23 14/24/24
o cube
v 0.1213058272068327 0.4115870500143488 0.06549345440110899
v 0.12126388907735386 0.4115455210753246 0.06551401627163012
v 0.7650043820833613 0.0802550361676071 0.7091920092776375
v 0.7649624439538825 0.08021350722858278 0.7092125711481585
v 0.08014014803520819 0.49460339912390894 0.14939027522948423
v 0.08018208616468703 0.49464492806293314 0.1493697133589632
v 0.7238387029117368 0.16327138527716722 0.7930888301060128
v 0.7238806410412156 0.16331291421619154 0.7930682682354917
vt 0.875 1
vt 0.875 0.03125
vt 1 1
vt 0.875 0.03125
vt 1 0.03125
vt 1 1
vt 0.875 1
vt 0.875 0.03125
vt 1 1
vt 0.875 0.03125
vt 1 0.03125
vt 1 1
vn 0.6710100716628344 0.6644630243886747 -0.32898992833716567
vn 0.6710100716628344 0.6644630243886747 -0.32898992833716567
vn 0.6710100716628344 0.6644630243886747 -0.32898992833716567
vn 0.6710100716628344 0.6644630243886747 -0.32898992833716567
vn 0.6710100716628344 0.6644630243886747 -0.32898992833716567
vn 0.6710100716628344 0.6644630243886747 -0.32898992833716567
vn -0.6710100716628344 -0.6644630243886747 0.32898992833716567
vn -0.6710100716628344 -0.6644630243886747 0.32898992833716567
vn -0.6710100716628344 -0.6644630243886747 0.32898992833716567
vn -0.6710100716628344 -0.6644630243886747 0.32898992833716567
vn -0.6710100716628344 -0.6644630243886747 0.32898992833716567
vn -0.6710100716628344 -0.6644630243886747 0.32898992833716567
usemtl m_1
f 22/25/25 24/26/26 17/27/27
f 24/28/28 19/29/29 17/30/30
usemtl m_1
f 18/31/31 20/32/32 21/33/33
f 20/34/34 23/35/35 21/36/36
o cube
v 0.14266070990572943 0.4945618701848846 0.08684833710000528
v 0.05878445094787488 0.4115039921363002 0.12797207814215106
v 0.786359264782258 0.1632298563381429 0.7305468919765338
v 0.7024830058244035 0.08017197828955847 0.7716706330186796
v 0.05876388907735375 0.4115455210753246 0.12801401627163
v 0.1426401480352083 0.49460339912390916 0.08689027522948423
v 0.7024624439538824 0.08021350722858278 0.7717125711481585
v 0.7863387029117369 0.16327138527716745 0.7305888301060127
vt 0.875 1
vt 0.875 0.03125
vt 1 1
vt 0.875 0.03125
vt 1 0.03125
vt 1 1
vt 0.875 1
vt 0.875 0.03125
vt 1 1
vt 0.875 0.03125
vt 1 0.03125
vt 1 1
vn 0.3289899283371654 -0.6644630243886748 -0.6710100716628344
vn 0.3289899283371654 -0.6644630243886748 -0.6710100716628344
vn 0.3289899283371654 -0.6644630243886748 -0.6710100716628344
vn 0.3289899283371654 -0.6644630243886748 -0.6710100716628344
vn 0.3289899283371654 -0.6644630243886748 -0.6710100716628344
vn 0.3289899283371654 -0.6644630243886748 -0.6710100716628344
vn -0.3289899283371654 0.6644630243886748 0.6710100716628344
vn -0.3289899283371654 0.6644630243886748 0.6710100716628344
vn -0.3289899283371654 0.6644630243886748 0.6710100716628344
vn -0.3289899283371654 0.6644630243886748 0.6710100716628344
vn -0.3289899283371654 0.6644630243886748 0.6710100716628344
vn -0.3289899283371654 0.6644630243886748 0.6710100716628344
usemtl m_1
f 25/37/37 27/38/38 26/39/39
f 27/40/40 28/41/41 26/42/42
usemtl m_1
f 29/43/43 31/44/44 30/45/45
f 31/46/46 32/47/47 30/48/48
o cube
v -0.023504262130724624 0.5993877330479989 -0.1051424825847675
v -0.03120781422025204 0.4748633957865307 -0.11284603467429491
v 0.10857374281979264 0.583046031282813 0.026935522365749753
v 0.10087019073026521 0.4585216940213448 0.019231970276222324
v -0.1195961618685705 0.4748633957865307 -0.024457687025976477
v -0.11189260977904308 0.5993877330479989 -0.016754134936449033
v 0.012481843081946775 0.4585216940213448 0.10762031792454077
v 0.02018539517147419 0.583046031282813 0.1153238700140682
vt 0.03125 0.875
vt 0.03125 0.6875
vt 0.15625 0.875
vt 0.03125 0.6875
vt 0.15625 0.6875
vt 0.15625 0.875
vt 0 0.84375
vt 0 0.65625
vt 0.125 0.84375
vt 0 0.65625
vt 0.125 0.65625
vt 0.125 0.84375
vt 0.03125 1
vt 0.03125 0.875
vt 0.15625 1
vt 0.03125 0.875
vt 0.15625 0.875
vt 0.15625 1
vt 0.0625 0.6875
vt 0.0625 0.5625000000000001
vt 0.1875 0.6875
vt 0.0625 0.5625000000000001
vt 0.1875 0.5625000000000001
vt 0.1875 0.6875
vt 0 0.875
vt 0 0.6875
vt 0.125 0.875
vt 0 0.6875
vt 0.125 0.6875
vt 0.125 0.875
vt 0.0625 0.84375
vt 0.0625 0.65625
vt 0.1875 0.84375
vt 0.0625 0.65625
vt 0.1875 0.65625
vt 0.1875 0.84375
vn 0.7071067811865475 2.0816681711721685e-17 -0.7071067811865476
vn 0.7071067811865475 2.0816681711721685e-17 -0.7071067811865476
vn 0.7071067811865475 2.0816681711721685e-17 -0.7071067811865476
vn 0.7071067811865475 2.0816681711721685e-17 -0.7071067811865476
vn 0.7071067811865475 2.0816681711721685e-17 -0.7071067811865476
vn 0.7071067811865475 2.0816681711721685e-17 -0.7071067811865476
vn -0.7071067811865475 -2.0816681711721685e-17 0.7071067811865476
vn -0.7071067811865475 -2.0816681711721685e-17 0.7071067811865476
vn -0.7071067811865475 -2.0816681711721685e-17 0.7071067811865476
vn -0.7071067811865475 -2.0816681711721685e-17 0.7071067811865476
vn -0.7071067811865475 -2.0816681711721685e-17 0.7071067811865476
vn -0.7071067811865475 -2.0816681711721685e-17 0.7071067811865476
vn -0.7044160264027587 0.08715574274765839 -0.7044160264027586
vn -0.7044160264027587 0.08715574274765839 -0.7044160264027586
vn -0.7044160264027587 0.08715574274765839 -0.7044160264027586
vn -0.7044160264027587 0.08715574274765839 -0.7044160264027586
vn -0.7044160264027587 0.08715574274765839 -0.7044160264027586
vn -0.7044160264027587 0.08715574274765839 -0.7044160264027586
vn 0.7044160264027587 -0.08715574274765839 0.7044160264027586
vn 0.7044160264027587 -0.08715574274765839 0.7044160264027586
vn 0.7044160264027587 -0.08715574274765839 0.7044160264027586
vn 0.7044160264027587 -0.08715574274765839 0.7044160264027586
vn 0.7044160264027587 -0.08715574274765839 0.7044160264027586
vn 0.7044160264027587 -0.08715574274765839 0.7044160264027586
vn 0.06162841671621947 0.9961946980917455 0.061628416716219464
vn 0.06162841671621947 0.9961946980917455 0.061628416716219464
vn 0.06162841671621947 0.9961946980917455 0.061628416716219464
vn 0.06162841671621947 0.9961946980917455 0.061628416716219464
vn 0.06162841671621947 0.9961946980917455 0.061628416716219464
vn 0.06162841671621947 0.9961946980917455 0.061628416716219464
vn -0.06162841671621947 -0.9961946980917455 -0.061628416716219464
vn -0.06162841671621947 -0.9961946980917455 -0.061628416716219464
vn -0.06162841671621947 -0.9961946980917455 -0.061628416716219464
vn -0.06162841671621947 -0.9961946980917455 -0.061628416716219464
vn -0.06162841671621947 -0.9961946980917455 -0.061628416716219464
vn -0.06162841671621947 -0.9961946980917455 -0.061628416716219464
usemtl m_2
f 33/49/49 35/50/50 34/51/51
f 35/52/52 36/53/53 34/54/54
usemtl m_2
f 37/55/55 39/56/56 38/57/57
f 39/58/58 40/59/59 38/60/60
usemtl m_2
f 37/61/61 38/62/62 34/63/63
f 38/64/64 33/65/65 34/66/66
usemtl m_2
f 40/67/67 39/68/68 35/69/69
f 39/70/70 36/71/71 35/72/72
usemtl m_2
f 38/73/73 40/74/74 33/75/75
f 40/76/76 35/77/77 33/78/78
usemtl m_2
f 34/79/79 36/80/80 37/81/81
f 36/82/82 39/83/83 37/84/84
o cube
v 0.09661040255312145 0.5682587662330136 0.037069269011158174
v 0.09083273848597588 0.4748655132869126 0.03129160494401259
v 0.2286884075036387 0.5519170644678277 0.1691472739616754
v 0.22291074343649314 0.4585238115217267 0.1633696098945298
v 0.024541477749737098 0.4748655132869126 0.09758286568025139
v 0.030319141816882667 0.5682587662330136 0.10336052974739697
v 0.15661948270025433 0.4585238115217267 0.22966087063076862
v 0.1623971467673999 0.5519170644678277 0.2354385346979142
vt 0.65625 0.59375
vt 0.65625 0.40625
vt 0.75 0.59375
vt 0.65625 0.40625
vt 0.75 0.40625
vt 0.75 0.59375
vt 0.65625 0.59375
vt 0.65625 0.40625
vt 0.75 0.59375
vt 0.65625 0.40625
vt 0.75 0.40625
vt 0.75 0.59375
vt 0.09375 0.6875
vt 0.09375 0.59375
vt 0.1875 0.6875
vt 0.09375 0.59375
vt 0.1875 0.59375
vt 0.1875 0.6875
vt 0.65625 0.59375
vt 0.65625 0.40625
vt 0.75 0.59375
vt 0.65625 0.40625
vt 0.75 0.40625
vt 0.75 0.59375
vt 0.65625 0.59375
vt 0.65625 0.40625
vt 0.75 0.59375
vt 0.65625 0.40625
vt 0.75 0.40625
vt 0.75 0.59375
vn 0.7071067811865475 2.0816681711721685e-17 -0.7071067811865476
vn 0.7071067811865475 2.0816681711721685e-17 -0.7071067811865476
vn 0.7071067811865475 2.0816681711721685e-17 -0.7071067811865476
vn 0.7071067811865475 2.0816681711721685e-17 -0.7071067811865476
vn 0.7071067811865475 2.0816681711721685e-17 -0.7071067811865476
vn 0.7071067811865475 2.0816681711721685e-17 -0.7071067811865476
vn -0.7071067811865475 -2.0816681711721685e-17 0.7071067811865476
vn -0.7071067811865475 -2.0816681711721685e-17 0.7071067811865476
vn -0.7071067811865475 -2.0816681711721685e-17 0.7071067811865476
vn -0.7071067811865475 -2.0816681711721685e-17 0.7071067811865476
vn -0.7071067811865475 -2.0816681711721685e-17 0.7071067811865476
vn -0.7071067811865475 -2.0816681711721685e-17 0.7071067811865476
vn 0.7044160264027587 -0.08715574274765839 0.7044160264027586
vn 0.7044160264027587 -0.08715574274765839 0.7044160264027586
vn 0.7044160264027587 -0.08715574274765839 0.7044160264027586
vn 0.7044160264027587 -0.08715574274765839 0.7044160264027586
vn 0.7044160264027587 -0.08715574274765839 0.7044160264027586
vn 0.7044160264027587 -0.08715574274765839 0.7044160264027586
vn 0.06162841671621947 0.9961946980917455 0.061628416716219464
vn 0.06162841671621947 0.9961946980917455 0.061628416716219464
vn 0.06162841671621947 0.9961946980917455 0.061628416716219464
vn 0.06162841671621947 0.9961946980917455 0.061628416716219464
vn 0.06162841671621947 0.9961946980917455 0.061628416716219464
vn 0.06162841671621947 0.9961946980917455 0.061628416716219464
vn -0.06162841671621947 -0.9961946980917455 -0.061628416716219464
vn -0.06162841671621947 -0.9961946980917455 -0.061628416716219464
vn -0.06162841671621947 -0.9961946980917455 -0.061628416716219464
vn -0.06162841671621947 -0.9961946980917455 -0.061628416716219464
vn -0.06162841671621947 -0.9961946980917455 -0.061628416716219464
vn -0.06162841671621947 -0.9961946980917455 -0.061628416716219464
usemtl m_2
f 41/85/85 43/86/86 42/87/87
f 43/88/88 44/89/89 42/90/90
usemtl m_2
f 45/91/91 47/92/92 46/93/93
f 47/94/94 48/95/95 46/96/96
usemtl m_2
f 48/97/97 47/98/98 43/99/99
f 47/100/100 44/101/101 43/102/102
usemtl m_2
f 46/103/103 48/104/104 41/105/105
f 48/106/106 43/107/107 41/108/108
usemtl m_2
f 42/109/109 44/110/110 45/111/111
f 44/112/112 47/113/113 45/114/114
o cube
v 0.19366108328696158 0.5207859801524608 0.20032282213358882
v 0.1821057551526704 0.33399947426025833 0.18876749399929765
v 0.3697650898876559 0.4989970444655456 0.3764268287342832
v 0.3582097617533647 0.31221053857334313 0.364871500599992
v 0.18206156097884627 0.33399947426025833 0.18881168817312177
v 0.19361688911313743 0.5207859801524608 0.20036701630741297
v 0.35816556757954066 0.31221053857334313 0.36491569477381613
v 0.3697208957138318 0.4989970444655456 0.3764710229081073
vt 0.5625 0.40625
vt 0.3125 0.40625
vt 0.5625 0.2187499999999999
vt 0.3125 0.40625
vt 0.3125 0.2187499999999999
vt 0.5625 0.2187499999999999
vt 0.5625 0.21875
vt 0.3125 0.21875
vt 0.5625 0.40625
vt 0.3125 0.21875
vt 0.3125 0.40625
vt 0.5625 0.40625
vn 0.7071067811865475 2.0816681711721685e-17 -0.7071067811865476
vn 0.7071067811865475 2.0816681711721685e-17 -0.7071067811865476
vn 0.7071067811865475 2.0816681711721685e-17 -0.7071067811865476
vn 0.7071067811865475 2.0816681711721685e-17 -0.7071067811865476
vn 0.7071067811865475 2.0816681711721685e-17 -0.7071067811865476
vn 0.7071067811865475 2.0816681711721685e-17 -0.7071067811865476
vn -0.7071067811865475 -2.0816681711721685e-17 0.7071067811865476
vn -0.7071067811865475 -2.0816681711721685e-17 0.7071067811865476
vn -0.7071067811865475 -2.0816681711721685e-17 0.7071067811865476
vn -0.7071067811865475 -2.0816681711721685e-17 0.7071067811865476
vn -0.7071067811865475 -2.0816681711721685e-17 0.7071067811865476
vn -0.7071067811865475 -2.0816681711721685e-17 0.7071067811865476
usemtl m_2
f 49/115/115 51/116/116 50/117/117
f 51/118/118 52/119/119 50/120/120
usemtl m_2
f 53/121/121 55/122/122 54/123/123
f 55/124/124 56/125/125 54/126/126
