# Made in Blockbench 3.7.5
mtllib mt_music_stand_single.mtl
o cube
v 0.9375 1.2502976666970689 0.6659680969984402
v 0.9375 1.2503335152243409 0.665916899995672
v 0.9375 0.7895246417845111 0.3433313515509767
v 0.9375 0.789560490311783 0.3432801545482087
v 0.0625 1.2503335152243409 0.665916899995672
v 0.0625 1.2502976666970689 0.6659680969984402
v 0.0625 0.789560490311783 0.3432801545482087
v 0.0625 0.7895246417845111 0.3433313515509767
vt 0 1
vt 0 0.4375
vt 0 1
vt 0 0.4375
vt 0 0.4375
vt 0 1
vt 0 1
vt 0 0.4375
vt 0 1
vt 0 0.4375
vt 0 0.4375
vt 0 1
vt 0 1
vt 0 1
vt 0.875 1
vt 0 1
vt 0.875 1
vt 0.875 1
vt 0 1
vt 0 1
vt 0.875 1
vt 0 1
vt 0.875 1
vt 0.875 1
vt 0.15625 0
vt 0.71875 0
vt 0.15625 0.875
vt 0.71875 0
vt 0.71875 0.875
vt 0.15625 0.875
vt 0.15625 0
vt 0.71875 0
vt 0.15625 0.875
vt 0.71875 0
vt 0.71875 0.875
vt 0.15625 0.875
vn 1 0 0
vn 1 0 0
vn 1 0 0
vn 1 0 0
vn 1 0 0
vn 1 0 0
vn -1 0 0
vn -1 0 0
vn -1 0 0
vn -1 0 0
vn -1 0 0
vn -1 0 0
vn 0 0.819152044288992 0.5735764363510462
vn 0 0.819152044288992 0.5735764363510462
vn 0 0.819152044288992 0.5735764363510462
vn 0 0.819152044288992 0.5735764363510462
vn 0 0.819152044288992 0.5735764363510462
vn 0 0.819152044288992 0.5735764363510462
vn 0 -0.819152044288992 -0.5735764363510462
vn 0 -0.819152044288992 -0.5735764363510462
vn 0 -0.819152044288992 -0.5735764363510462
vn 0 -0.819152044288992 -0.5735764363510462
vn 0 -0.819152044288992 -0.5735764363510462
vn 0 -0.819152044288992 -0.5735764363510462
vn 0 -0.5735764363510462 0.819152044288992
vn 0 -0.5735764363510462 0.819152044288992
vn 0 -0.5735764363510462 0.819152044288992
vn 0 -0.5735764363510462 0.819152044288992
vn 0 -0.5735764363510462 0.819152044288992
vn 0 -0.5735764363510462 0.819152044288992
vn 0 0.5735764363510462 -0.819152044288992
vn 0 0.5735764363510462 -0.819152044288992
vn 0 0.5735764363510462 -0.819152044288992
vn 0 0.5735764363510462 -0.819152044288992
vn 0 0.5735764363510462 -0.819152044288992
vn 0 0.5735764363510462 -0.819152044288992
usemtl none
f 1/1/1 3/2/2 2/3/3
f 3/4/4 4/5/5 2/6/6
usemtl none
f 5/7/7 7/8/8 6/9/9
f 7/10/10 8/11/11 6/12/12
usemtl none
f 5/13/13 6/14/14 2/15/15
f 6/16/16 1/17/17 2/18/18
usemtl none
f 8/19/19 7/20/20 3/21/21
f 7/22/22 4/23/23 3/24/24
usemtl m_1
f 6/25/25 8/26/26 1/27/27
f 8/28/28 3/29/29 1/30/30
usemtl m_1
f 2/31/31 4/32/32 5/33/33
f 4/34/34 7/35/35 5/36/36
o cube
v 0.875 1.2837445166083719 0.6838411636316423
v 0.875 1.301668780244342 0.6582426622476113
v 0.875 0.797372990311783 0.3432801545482087
v 0.875 0.8152972539477532 0.3176816531641777
v 0.5 1.301668780244342 0.6582426622476113
v 0.5 1.2837445166083719 0.6838411636316423
v 0.5 0.8152972539477532 0.3176816531641777
v 0.5 0.797372990311783 0.3432801545482087
vt 0 0.875
vt 0 0.28125
vt 0.03125 0.875
vt 0 0.28125
vt 0.03125 0.28125
vt 0.03125 0.875
vt 0 0.875
vt 0 0.28125
vt 0.03125 0.875
vt 0 0.28125
vt 0.03125 0.28125
vt 0.03125 0.875
vt 0.0625 0.21875
vt 0.0625 0.15625
vt 0.4375 0.21875
vt 0.0625 0.15625
vt 0.4375 0.15625
vt 0.4375 0.21875
vt 0.09375 0.21875
vt 0.09375 0.15625
vt 0.46875 0.21875
vt 0.09375 0.15625
vt 0.46875 0.15625
vt 0.46875 0.21875
vt 0.03125 0.90625
vt 0.03125 0.28125
vt 0.46875 0.90625
vt 0.03125 0.28125
vt 0.46875 0.28125
vt 0.46875 0.90625
vt 0.03125 0.90625
vt 0.03125 0.25
vt 0.46875 0.90625
vt 0.03125 0.25
vt 0.46875 0.25
vt 0.46875 0.90625
vn 1 0 0
vn 1 0 0
vn 1 0 0
vn 1 0 0
vn 1 0 0
vn 1 0 0
vn -1 0 0
vn -1 0 0
vn -1 0 0
vn -1 0 0
vn -1 0 0
vn -1 0 0
vn 0 0.819152044288992 0.5735764363510462
vn 0 0.819152044288992 0.5735764363510462
vn 0 0.819152044288992 0.5735764363510462
vn 0 0.819152044288992 0.5735764363510462
vn 0 0.819152044288992 0.5735764363510462
vn 0 0.819152044288992 0.5735764363510462
vn 0 -0.819152044288992 -0.5735764363510462
vn 0 -0.819152044288992 -0.5735764363510462
vn 0 -0.819152044288992 -0.5735764363510462
vn 0 -0.819152044288992 -0.5735764363510462
vn 0 -0.819152044288992 -0.5735764363510462
vn 0 -0.819152044288992 -0.5735764363510462
vn 0 -0.5735764363510462 0.819152044288992
vn 0 -0.5735764363510462 0.819152044288992
vn 0 -0.5735764363510462 0.819152044288992
vn 0 -0.5735764363510462 0.819152044288992
vn 0 -0.5735764363510462 0.819152044288992
vn 0 -0.5735764363510462 0.819152044288992
vn 0 0.5735764363510462 -0.819152044288992
vn 0 0.5735764363510462 -0.819152044288992
vn 0 0.5735764363510462 -0.819152044288992
vn 0 0.5735764363510462 -0.819152044288992
vn 0 0.5735764363510462 -0.819152044288992
vn 0 0.5735764363510462 -0.819152044288992
usemtl m_0
f 9/37/37 11/38/38 10/39/39
f 11/40/40 12/41/41 10/42/42
usemtl m_0
f 13/43/43 15/44/44 14/45/45
f 15/46/46 16/47/47 14/48/48
usemtl m_0
f 13/49/49 14/50/50 10/51/51
f 14/52/52 9/53/53 10/54/54
usemtl m_0
f 16/55/55 15/56/56 11/57/57
f 15/58/58 12/59/59 11/60/60
usemtl m_0
f 14/61/61 16/62/62 9/63/63
f 16/64/64 11/65/65 9/66/66
usemtl m_0
f 10/67/67 12/68/68 13/69/69
f 12/70/70 15/71/71 13/72/72
o cube
v 0.5 1.2837445166083719 0.6838411636316423
v 0.5 1.294499074789954 0.6684820628012237
v 0.5 0.797372990311783 0.3432801545482087
v 0.5 0.8081275484933652 0.3279210537177901
v 0.125 1.294499074789954 0.6684820628012237
v 0.125 1.2837445166083719 0.6838411636316423
v 0.125 0.8081275484933652 0.3279210537177901
v 0.125 0.797372990311783 0.3432801545482087
vt 0 1
vt 0 0.40625
vt 0.01874999999999999 1
vt 0 0.40625
vt 0.01874999999999999 0.40625
vt 0.01874999999999999 1
vt 0 0.875
vt 0 0.28125
vt 0.01875 0.875
vt 0 0.28125
vt 0.01875 0.28125
vt 0.01875 0.875
vt 0.5625 0.1875
vt 0.5625 0.16874999999999996
vt 0.9375 0.1875
vt 0.5625 0.16874999999999996
vt 0.9375 0.16874999999999996
vt 0.9375 0.1875
vt 0.5625 0.1875
vt 0.5625 0.16874999999999996
vt 0.9375 0.1875
vt 0.5625 0.16874999999999996
vt 0.9375 0.16874999999999996
vt 0.9375 0.1875
vt 0.53125 0.90625
vt 0.53125 0.28125
vt 0.96875 0.90625
vt 0.53125 0.28125
vt 0.96875 0.28125
vt 0.96875 0.90625
vt 0.53125 0.90625
vt 0.53125 0.28125
vt 0.96875 0.90625
vt 0.53125 0.28125
vt 0.96875 0.28125
vt 0.96875 0.90625
vn 1 0 0
vn 1 0 0
vn 1 0 0
vn 1 0 0
vn 1 0 0
vn 1 0 0
vn -1 0 0
vn -1 0 0
vn -1 0 0
vn -1 0 0
vn -1 0 0
vn -1 0 0
vn 0 0.819152044288992 0.5735764363510462
vn 0 0.819152044288992 0.5735764363510462
vn 0 0.819152044288992 0.5735764363510462
vn 0 0.819152044288992 0.5735764363510462
vn 0 0.819152044288992 0.5735764363510462
vn 0 0.819152044288992 0.5735764363510462
vn 0 -0.819152044288992 -0.5735764363510462
vn 0 -0.819152044288992 -0.5735764363510462
vn 0 -0.819152044288992 -0.5735764363510462
vn 0 -0.819152044288992 -0.5735764363510462
vn 0 -0.819152044288992 -0.5735764363510462
vn 0 -0.819152044288992 -0.5735764363510462
vn 0 -0.5735764363510462 0.819152044288992
vn 0 -0.5735764363510462 0.819152044288992
vn 0 -0.5735764363510462 0.819152044288992
vn 0 -0.5735764363510462 0.819152044288992
vn 0 -0.5735764363510462 0.819152044288992
vn 0 -0.5735764363510462 0.819152044288992
vn 0 0.5735764363510462 -0.819152044288992
vn 0 0.5735764363510462 -0.819152044288992
vn 0 0.5735764363510462 -0.819152044288992
vn 0 0.5735764363510462 -0.819152044288992
vn 0 0.5735764363510462 -0.819152044288992
vn 0 0.5735764363510462 -0.819152044288992
usemtl none
f 17/73/73 19/74/74 18/75/75
f 19/76/76 20/77/77 18/78/78
usemtl m_0
f 21/79/79 23/80/80 22/81/81
f 23/82/82 24/83/83 22/84/84
usemtl m_0
f 21/85/85 22/86/86 18/87/87
f 22/88/88 17/89/89 18/90/90
usemtl m_0
f 24/91/91 23/92/92 19/93/93
f 23/94/94 20/95/95 19/96/96
usemtl m_0
f 22/97/97 24/98/98 17/99/99
f 24/100/100 19/101/101 17/102/102
usemtl m_0
f 18/103/103 20/104/104 21/105/105
f 20/106/106 23/107/107 21/108/108
o cube
v 0.07849647432316481 0.025598501384031136 0.2567169947697517
v 0.47753761927604 0.3482352468314946 0.4871035072260305
v 0.09401934197604467 1.3877787807814457e-16 0.26567912658773674
v 0.4930604869289198 0.32263674544746357 0.4960656390440156
v 0.47756886927604 0.3482352468314946 0.487049380638294
v 0.0785277243231648 0.025598501384031136 0.25666286818201517
v 0.49309173692891983 0.32263674544746357 0.4960115124562791
v 0.0940505919760446 1.3877787807814457e-16 0.2656250000000003
vt 0.09375 0.4375
vt 0.125 0.4375
vt 0.09375 1
vt 0.125 0.4375
vt 0.125 1
vt 0.09375 1
vt 0 0.4375
vt 0.03125 0.4375
vt 0 1
vt 0.03125 0.4375
vt 0.03125 1
vt 0 1
vn -0.4999999999999998 -2.7755575615628914e-17 0.8660254037844387
vn -0.4999999999999998 -2.7755575615628914e-17 0.8660254037844387
vn -0.4999999999999998 -2.7755575615628914e-17 0.8660254037844387
vn -0.4999999999999998 -2.7755575615628914e-17 0.8660254037844387
vn -0.4999999999999998 -2.7755575615628914e-17 0.8660254037844387
vn -0.4999999999999998 -2.7755575615628914e-17 0.8660254037844387
vn 0.4999999999999998 2.7755575615628914e-17 -0.8660254037844387
vn 0.4999999999999998 2.7755575615628914e-17 -0.8660254037844387
vn 0.4999999999999998 2.7755575615628914e-17 -0.8660254037844387
vn 0.4999999999999998 2.7755575615628914e-17 -0.8660254037844387
vn 0.4999999999999998 2.7755575615628914e-17 -0.8660254037844387
vn 0.4999999999999998 2.7755575615628914e-17 -0.8660254037844387
usemtl m_1
f 25/109/109 27/110/110 26/111/111
f 27/112/112 28/113/113 26/114/114
usemtl m_1
f 29/115/115 31/116/116 30/117/117
f 31/118/118 32/119/119 30/120/120
o cube
v 0.5001249999999999 0.14436085153210723 0.791686973785635
v 0.5001249999999999 0.17513609381373874 0.7862604682335435
v 0.5001249999999999 0.09552230156328302 0.5147097932509516
v 0.5001249999999999 0.1262975438449145 0.50928328769886
v 0.5000625 0.17513609381373874 0.7862604682335435
v 0.5000625 0.14436085153210723 0.791686973785635
v 0.5000625 0.1262975438449145 0.50928328769886
v 0.5000625 0.09552230156328302 0.5147097932509516
vt 0.03125 1
vt 0.03125 0.71875
vt 0.0625 1
vt 0.03125 0.71875
vt 0.0625 0.71875
vt 0.0625 1
vt 0.03125 1
vt 0.03125 0.71875
vt 0.0625 1
vt 0.03125 0.71875
vt 0.0625 0.71875
vt 0.0625 1
vn 1 0 0
vn 1 0 0
vn 1 0 0
vn 1 0 0
vn 1 0 0
vn 1 0 0
vn -1 0 0
vn -1 0 0
vn -1 0 0
vn -1 0 0
vn -1 0 0
vn -1 0 0
usemtl m_1
f 33/121/121 35/122/122 34/123/123
f 35/124/124 36/125/125 34/126/126
usemtl m_1
f 37/127/127 39/128/128 38/129/129
f 39/130/130 40/131/131 38/132/132
o cube
v 0.7525458292513656 0.14279835153210732 0.3540482599317095
v 0.747846337589477 0.17357359381373882 0.35676151270775536
v 0.5126765546397409 0.09395980156328311 0.49253685019905125
v 0.5079770629778524 0.1247350438449146 0.49525010297509703
v 0.747877587589477 0.17357359381373882 0.35681563929549187
v 0.7525770792513656 0.14279835153210732 0.35410238651944603
v 0.5080083129778523 0.1247350438449146 0.4953042295628335
v 0.512707804639741 0.09395980156328311 0.4925909767867877
vt 0.03125 1
vt 0.03125 0.71875
vt 0.0625 1
vt 0.03125 0.71875
vt 0.0625 0.71875
vt 0.0625 1
vt 0.03125 1
vt 0.03125 0.71875
vt 0.0625 1
vt 0.03125 0.71875
vt 0.0625 0.71875
vt 0.0625 1
vn -0.4999999999999997 4.163336342344337e-17 -0.8660254037844387
vn -0.4999999999999997 4.163336342344337e-17 -0.8660254037844387
vn -0.4999999999999997 4.163336342344337e-17 -0.8660254037844387
vn -0.4999999999999997 4.163336342344337e-17 -0.8660254037844387
vn -0.4999999999999997 4.163336342344337e-17 -0.8660254037844387
vn -0.4999999999999997 4.163336342344337e-17 -0.8660254037844387
vn 0.4999999999999997 -4.163336342344337e-17 0.8660254037844387
vn 0.4999999999999997 -4.163336342344337e-17 0.8660254037844387
vn 0.4999999999999997 -4.163336342344337e-17 0.8660254037844387
vn 0.4999999999999997 -4.163336342344337e-17 0.8660254037844387
vn 0.4999999999999997 -4.163336342344337e-17 0.8660254037844387
vn 0.4999999999999997 -4.163336342344337e-17 0.8660254037844387
usemtl m_1
f 41/133/133 43/134/134 42/135/135
f 43/136/136 44/137/137 42/138/138
usemtl m_1
f 45/139/139 47/140/140 46/141/141
f 47/142/142 48/143/143 46/144/144
o cube
v 0.5442383679979833 1 0.45585002034966493
v 0.5441941738241592 1 0.45580582617584076
v 0.5442383679979833 0.09375 0.45585002034966493
v 0.5441941738241592 0.09375 0.45580582617584076
v 0.45580582617584076 1 0.5441941738241592
v 0.45585002034966493 1 0.5442383679979833
v 0.45580582617584076 0.09375 0.5441941738241592
v 0.45585002034966493 0.09375 0.5442383679979833
vt 0.875 1
vt 0.875 0.09375
vt 1 1
vt 0.875 0.09375
vt 1 0.09375
vt 1 1
vt 0.875 1
vt 0.875 0.09375
vt 1 1
vt 0.875 0.09375
vt 1 0.09375
vt 1 1
vn 0.7071067811865476 0 0.7071067811865475
vn 0.7071067811865476 0 0.7071067811865475
vn 0.7071067811865476 0 0.7071067811865475
vn 0.7071067811865476 0 0.7071067811865475
vn 0.7071067811865476 0 0.7071067811865475
vn 0.7071067811865476 0 0.7071067811865475
vn -0.7071067811865476 0 -0.7071067811865475
vn -0.7071067811865476 0 -0.7071067811865475
vn -0.7071067811865476 0 -0.7071067811865475
vn -0.7071067811865476 0 -0.7071067811865475
vn -0.7071067811865476 0 -0.7071067811865475
vn -0.7071067811865476 0 -0.7071067811865475
usemtl m_1
f 54/145/145 56/146/146 49/147/147
f 56/148/148 51/149/149 49/150/150
usemtl m_1
f 50/151/151 52/152/152 53/153/153
f 52/154/154 55/155/155 53/156/156
o cube
v 0.5442383679979833 1 0.5441499796503351
v 0.45585002034966493 1 0.45576163200201664
v 0.5442383679979833 0.09375 0.5441499796503351
v 0.45585002034966493 0.09375 0.45576163200201664
v 0.45580582617584076 1 0.45580582617584076
v 0.5441941738241592 1 0.5441941738241592
v 0.45580582617584076 0.09375 0.45580582617584076
v 0.5441941738241592 0.09375 0.5441941738241592
vt 0.875 1
vt 0.875 0.09375
vt 1 1
vt 0.875 0.09375
vt 1 0.09375
vt 1 1
vt 0.875 1
vt 0.875 0.09375
vt 1 1
vt 0.875 0.09375
vt 1 0.09375
vt 1 1
vn 0.7071067811865475 0 -0.7071067811865476
vn 0.7071067811865475 0 -0.7071067811865476
vn 0.7071067811865475 0 -0.7071067811865476
vn 0.7071067811865475 0 -0.7071067811865476
vn 0.7071067811865475 0 -0.7071067811865476
vn 0.7071067811865475 0 -0.7071067811865476
vn -0.7071067811865475 0 0.7071067811865476
vn -0.7071067811865475 0 0.7071067811865476
vn -0.7071067811865475 0 0.7071067811865476
vn -0.7071067811865475 0 0.7071067811865476
vn -0.7071067811865475 0 0.7071067811865476
vn -0.7071067811865475 0 0.7071067811865476
usemtl m_1
f 57/157/157 59/158/158 58/159/159
f 59/160/160 60/161/161 58/162/162
usemtl m_1
f 61/163/163 63/164/164 62/165/165
f 63/166/166 64/167/167 62/168/168
o cube
v 0.5625 0.375 0.5625
v 0.5625 0.375 0.4375
v 0.5625 0.3125 0.5625
v 0.5625 0.3125 0.4375
v 0.4375 0.375 0.4375
v 0.4375 0.375 0.5625
v 0.4375 0.3125 0.4375
v 0.4375 0.3125 0.5625
vt 0 1
vt 0 0.9375
vt 0.125 1
vt 0 0.9375
vt 0.125 0.9375
vt 0.125 1
vt 0 1
vt 0 0.9375
vt 0.125 1
vt 0 0.9375
vt 0.125 0.9375
vt 0.125 1
vt 0 1
vt 0 0.875
vt 0.125 1
vt 0 0.875
vt 0.125 0.875
vt 0.125 1
vt 0 1
vt 0 0.875
vt 0.125 1
vt 0 0.875
vt 0.125 0.875
vt 0.125 1
vt 0 1
vt 0 0.9375
vt 0.125 1
vt 0 0.9375
vt 0.125 0.9375
vt 0.125 1
vt 0 1
vt 0 0.9375
vt 0.125 1
vt 0 0.9375
vt 0.125 0.9375
vt 0.125 1
vn 1 0 0
vn 1 0 0
vn 1 0 0
vn 1 0 0
vn 1 0 0
vn 1 0 0
vn -1 0 0
vn -1 0 0
vn -1 0 0
vn -1 0 0
vn -1 0 0
vn -1 0 0
vn 0 1 0
vn 0 1 0
vn 0 1 0
vn 0 1 0
vn 0 1 0
vn 0 1 0
vn 0 -1 0
vn 0 -1 0
vn 0 -1 0
vn 0 -1 0
vn 0 -1 0
vn 0 -1 0
vn 0 0 1
vn 0 0 1
vn 0 0 1
vn 0 0 1
vn 0 0 1
vn 0 0 1
vn 0 0 -1
vn 0 0 -1
vn 0 0 -1
vn 0 0 -1
vn 0 0 -1
vn 0 0 -1
usemtl m_1
f 65/169/169 67/170/170 66/171/171
f 67/172/172 68/173/173 66/174/174
usemtl m_1
f 69/175/175 71/176/176 70/177/177
f 71/178/178 72/179/179 70/180/180
usemtl m_1
f 69/181/181 70/182/182 66/183/183
f 70/184/184 65/185/185 66/186/186
usemtl m_1
f 72/187/187 71/188/188 67/189/189
f 71/190/190 68/191/191 67/192/192
usemtl m_1
f 70/193/193 72/194/194 65/195/195
f 72/196/196 67/197/197 65/198/198
usemtl m_1
f 66/199/199 68/200/200 69/201/201
f 68/202/202 71/203/203 69/204/204
o cube
v 0.5000625 0.025598501384030994 0.9866742636359702
v 0.5000625 0.34823524683149437 0.5259012387234123
v 0.5000625 0 0.96875
v 0.5000625 0.3226367454474634 0.5079769750874421
v 0.5 0.34823524683149437 0.5259012387234123
v 0.5 0.025598501384030994 0.9866742636359702
v 0.5 0.3226367454474634 0.5079769750874421
v 0.5 0 0.96875
vt 0 0.4375
vt 0.03125 0.4375
vt 0 1
vt 0.03125 0.4375
vt 0.03125 1
vt 0 1
vt 0.03125 0.4375
vt 0.0625 0.4375
vt 0.03125 1
vt 0.0625 0.4375
vt 0.0625 1
vt 0.03125 1
vn 1 0 0
vn 1 0 0
vn 1 0 0
vn 1 0 0
vn 1 0 0
vn 1 0 0
vn -1 0 0
vn -1 0 0
vn -1 0 0
vn -1 0 0
vn -1 0 0
vn -1 0 0
usemtl m_1
f 73/205/205 75/206/206 74/207/207
f 75/208/208 76/209/209 74/210/210
usemtl m_1
f 77/211/211 79/212/212 78/213/213
f 79/214/214 80/215/215 78/216/216
o cube
v 0.9214410256768353 0.025598501384031136 0.25660874159427866
v 0.52239988072396 0.3482352468314946 0.48699525405055755
v 0.9059181580239554 1.3877787807814457e-16 0.26557087341226376
v 0.5068770130710802 0.32263674544746357 0.4959573858685426
v 0.52243113072396 0.3482352468314946 0.487049380638294
v 0.9214722756768352 0.025598501384031136 0.25666286818201517
v 0.5069082630710802 0.32263674544746357 0.4960115124562791
v 0.9059494080239554 1.3877787807814457e-16 0.2656250000000003
vt 0 0.03125
vt 0.03125 0.03125
vt 0 0.59375
vt 0.03125 0.03125
vt 0.03125 0.59375
vt 0 0.59375
vt 0 0.25
vt 0.03125 0.25
vt 0 0.8125
vt 0.03125 0.25
vt 0.03125 0.8125
vt 0 0.8125
vn -0.4999999999999998 2.7755575615628914e-17 -0.8660254037844387
vn -0.4999999999999998 2.7755575615628914e-17 -0.8660254037844387
vn -0.4999999999999998 2.7755575615628914e-17 -0.8660254037844387
vn -0.4999999999999998 2.7755575615628914e-17 -0.8660254037844387
vn -0.4999999999999998 2.7755575615628914e-17 -0.8660254037844387
vn -0.4999999999999998 2.7755575615628914e-17 -0.8660254037844387
vn 0.4999999999999998 -2.7755575615628914e-17 0.8660254037844387
vn 0.4999999999999998 -2.7755575615628914e-17 0.8660254037844387
vn 0.4999999999999998 -2.7755575615628914e-17 0.8660254037844387
vn 0.4999999999999998 -2.7755575615628914e-17 0.8660254037844387
vn 0.4999999999999998 -2.7755575615628914e-17 0.8660254037844387
vn 0.4999999999999998 -2.7755575615628914e-17 0.8660254037844387
usemtl m_1
f 81/217/217 83/218/218 82/219/219
f 83/220/220 84/221/221 82/222/222
usemtl m_1
f 85/223/223 87/224/224 86/225/225
f 87/226/226 88/227/227 86/228/228
o cube
v 0.24732917074863442 0.14279835153210732 0.3542647662826556
v 0.252028662410523 0.17357359381373882 0.3569780190587013
v 0.4871984453602591 0.09395980156328311 0.4927533565499972
v 0.4918979370221477 0.1247350438449146 0.49546660932604303
v 0.252059912410523 0.17357359381373882 0.3569238924709648
v 0.2473604207486344 0.14279835153210732 0.35421063969491906
v 0.49192918702214766 0.1247350438449146 0.4954124827383065
v 0.48722969536025906 0.09395980156328311 0.49269922996226073
vt 0.03125 1
vt 0.03125 0.71875
vt 0.0625 1
vt 0.03125 0.71875
vt 0.0625 0.71875
vt 0.0625 1
vt 0.03125 1
vt 0.03125 0.71875
vt 0.0625 1
vt 0.03125 0.71875
vt 0.0625 0.71875
vt 0.0625 1
vn -0.4999999999999997 -4.163336342344337e-17 0.8660254037844387
vn -0.4999999999999997 -4.163336342344337e-17 0.8660254037844387
vn -0.4999999999999997 -4.163336342344337e-17 0.8660254037844387
vn -0.4999999999999997 -4.163336342344337e-17 0.8660254037844387
vn -0.4999999999999997 -4.163336342344337e-17 0.8660254037844387
vn -0.4999999999999997 -4.163336342344337e-17 0.8660254037844387
vn 0.4999999999999997 4.163336342344337e-17 -0.8660254037844387
vn 0.4999999999999997 4.163336342344337e-17 -0.8660254037844387
vn 0.4999999999999997 4.163336342344337e-17 -0.8660254037844387
vn 0.4999999999999997 4.163336342344337e-17 -0.8660254037844387
vn 0.4999999999999997 4.163336342344337e-17 -0.8660254037844387
vn 0.4999999999999997 4.163336342344337e-17 -0.8660254037844387
usemtl m_1
f 89/229/229 91/230/230 90/231/231
f 91/232/232 92/233/233 90/234/234
usemtl m_1
f 93/235/235 95/236/236 94/237/237
f 95/238/238 96/239/239 94/240/240
