# Blender v2.82 (sub 7) OBJ File: ''
# www.blender.org
mtllib mt_object_armor_legs.mtl
o cube
v 0.445900 0.682414 0.657035
v 0.486372 0.199591 0.780500
v 0.384668 0.617560 0.423487
v 0.425139 0.134737 0.546953
v 0.173321 0.614249 0.479818
v 0.213792 0.131426 0.603284
v 0.234554 0.679104 0.713366
v 0.275025 0.196280 0.836832
vt 0.218750 0.875000
vt 0.218750 0.375000
vt 0.468750 0.875000
vt 0.468750 0.375000
vt 0.000000 0.875000
vt 0.000000 0.375000
vt 0.250000 0.875000
vt 0.250000 0.375000
vt 0.156250 0.875000
vt 0.156250 0.375000
vt 0.375000 0.875000
vt 0.375000 0.375000
vt 0.375000 0.875000
vt 0.375000 0.375000
vt 0.593750 0.875000
vt 0.593750 0.375000
vn 0.9662 0.0151 -0.2575
vn -0.9662 -0.0151 0.2575
vn 0.2449 0.2594 0.9342
vn -0.2449 -0.2594 -0.9342
usemtl 4
s 1
f 1/1/1 2/2/1 3/3/1
f 2/2/1 4/4/1 3/3/1
f 5/5/2 6/6/2 7/7/2
f 6/6/2 8/8/2 7/7/2
f 7/9/3 8/10/3 1/11/3
f 8/10/3 2/12/3 1/11/3
f 3/13/4 4/14/4 5/15/4
f 4/14/4 6/16/4 5/15/4
o cube.000
v 0.417092 0.984759 0.494404
v 0.462818 0.763801 0.753731
v 0.378723 0.721432 0.276803
v 0.424449 0.500473 0.536130
v 0.101746 0.721432 0.325641
v 0.147472 0.500473 0.584968
v 0.140115 0.984759 0.543243
v 0.185841 0.763801 0.802570
vt 0.968750 0.625000
vt 0.968750 0.968750
vt 0.625000 0.625000
vt 0.625000 0.968750
vt 0.625000 0.625000
vt 0.968750 0.625000
vt 0.625000 0.968750
vt 0.968750 0.968750
vt 0.281250 0.000000
vt 0.281250 0.343750
vt 0.000000 0.000000
vt 0.000000 0.343750
vt 0.281250 1.000000
vt 0.281250 0.656250
vt 0.562500 1.000000
vt 0.562500 0.656250
vt 0.281250 1.000000
vt 0.281250 0.656250
vt 0.562500 1.000000
vt 0.562500 0.656250
vt 0.562500 0.656250
vt 0.562500 1.000000
vt 0.281250 0.656250
vt 0.281250 1.000000
vn 0.9848 0.0000 -0.1736
vn -0.9848 -0.0000 0.1736
vn -0.1330 0.6428 -0.7544
vn -0.1116 -0.7660 -0.6330
vn 0.1330 -0.6428 0.7544
vn 0.1116 0.7660 0.6330
usemtl 4
s 1
f 9/17/5 10/18/5 11/19/5
f 10/18/5 12/20/5 11/19/5
f 13/21/6 14/22/6 15/23/6
f 14/22/6 16/24/6 15/23/6
f 13/25/7 15/26/7 11/27/7
f 15/26/7 9/28/7 11/27/7
f 11/29/8 12/30/8 13/31/8
f 12/30/8 14/32/8 13/31/8
usemtl 3
f 16/33/9 14/34/9 10/35/9
f 14/34/9 12/36/9 10/35/9
f 15/37/10 16/38/10 9/39/10
f 16/38/10 10/40/10 9/39/10
o cube.001
v 0.476804 0.231613 0.798942
v 0.480114 0.013696 0.817717
v 0.406528 0.196206 0.400386
v 0.409838 -0.021711 0.419162
v 0.191101 0.196206 0.438372
v 0.194411 -0.021711 0.457147
v 0.261377 0.231613 0.836927
v 0.264688 0.013696 0.855703
vt 0.781250 0.000000
vt 1.000000 0.000000
vt 0.781250 0.406250
vt 1.000000 0.406250
vt 0.781250 0.406250
vt 1.000000 0.406250
vt 0.781250 0.000000
vt 1.000000 0.000000
vt 1.000000 -0.000000
vt 1.000000 0.406250
vt 0.781250 -0.000000
vt 0.781250 0.406250
vt 0.093750 0.656250
vt 0.500000 0.656250
vt 0.093750 0.875000
vt 0.500000 0.875000
vt 0.000000 1.000000
vt 0.000000 0.781250
vt 0.218750 1.000000
vt 0.218750 0.781250
vt 0.000000 1.000000
vt 0.000000 0.781250
vt 0.218750 1.000000
vt 0.218750 0.781250
vn 0.9848 0.0000 -0.1736
vn -0.9848 -0.0000 0.1736
vn -0.0151 0.9962 -0.0858
vn 0.0151 -0.9962 0.0858
vn 0.1730 0.0872 0.9811
vn -0.1730 -0.0872 -0.9811
usemtl 4
s 1
f 17/41/11 18/42/11 19/43/11
f 18/42/11 20/44/11 19/43/11
f 21/45/12 22/46/12 23/47/12
f 22/46/12 24/48/12 23/47/12
f 21/49/13 23/50/13 19/51/13
f 23/50/13 17/52/13 19/51/13
f 24/53/14 22/54/14 18/55/14
f 22/54/14 20/56/14 18/55/14
f 23/57/15 24/58/15 17/59/15
f 24/58/15 18/60/15 17/59/15
f 19/61/16 20/62/16 21/63/16
f 20/62/16 22/64/16 21/63/16
o cube.002
v 0.460060 0.165630 0.318705
v 0.255738 0.134933 0.177956
v 0.316200 0.196327 0.520848
v 0.111878 0.165630 0.380099
v 0.321853 0.011675 0.552913
v 0.117532 -0.019021 0.412164
v 0.465714 -0.019021 0.350770
v 0.261392 -0.049718 0.210020
vt 0.750000 1.000000
vt 0.750000 0.750000
vt 1.000000 1.000000
vt 1.000000 0.750000
vt 0.125000 0.812500
vt 0.375000 0.812500
vt 0.125000 1.000000
vt 0.375000 1.000000
vt 0.062500 0.812500
vt 0.312500 0.812500
vt 0.062500 1.000000
vt 0.312500 1.000000
vt 0.125000 0.812500
vt 0.375000 0.812500
vt 0.125000 1.000000
vt 0.375000 1.000000
vt 0.343750 1.000000
vt 0.093750 1.000000
vt 0.343750 0.812500
vt 0.093750 0.812500
vt 1.000000 0.531250
vt 1.000000 0.781250
vt 0.750000 0.531250
vt 0.750000 0.781250
vn -0.0302 0.9848 -0.1710
vn 0.8173 0.1228 0.5630
vn -0.8173 -0.1228 -0.5630
vn 0.5754 -0.1228 -0.8086
vn -0.5754 0.1228 0.8086
vn 0.0302 -0.9848 0.1710
usemtl 4
s 1
f 25/65/17 26/66/17 27/67/17
f 26/66/17 28/68/17 27/67/17
f 29/69/18 31/70/18 27/71/18
f 31/70/18 25/72/18 27/71/18
f 32/73/19 30/74/19 26/75/19
f 30/74/19 28/76/19 26/75/19
f 31/77/20 32/78/20 25/79/20
f 32/78/20 26/80/20 25/79/20
f 27/81/21 28/82/21 29/83/21
f 28/82/21 30/84/21 29/83/21
usemtl 2
f 29/85/22 30/86/22 31/87/22
f 30/86/22 32/88/22 31/87/22
o cube.003
v 0.802527 0.684420 0.683373
v 0.762056 0.201597 0.806839
v 0.863760 0.619566 0.449826
v 0.823289 0.136743 0.573291
v 0.652413 0.622877 0.393494
v 0.611942 0.140053 0.516960
v 0.591181 0.687731 0.627042
v 0.550709 0.204908 0.750508
vt 0.218750 0.875000
vt 0.218750 0.375000
vt 0.468750 0.875000
vt 0.468750 0.375000
vt 0.000000 0.875000
vt 0.000000 0.375000
vt 0.250000 0.875000
vt 0.250000 0.375000
vt 0.125000 0.875000
vt 0.125000 0.375000
vt 0.343750 0.875000
vt 0.343750 0.375000
vt 0.375000 0.875000
vt 0.375000 0.375000
vt 0.593750 0.875000
vt 0.593750 0.375000
vn 0.9662 -0.0151 0.2575
vn -0.9662 0.0151 -0.2575
vn -0.2449 0.2594 0.9342
vn 0.2449 -0.2594 -0.9342
usemtl 4
s 1
f 33/89/23 34/90/23 35/91/23
f 34/90/23 36/92/23 35/91/23
f 37/93/24 38/94/24 39/95/24
f 38/94/24 40/96/24 39/95/24
f 39/97/25 40/98/25 33/99/25
f 40/98/25 34/100/25 33/99/25
f 35/101/26 36/102/26 37/103/26
f 36/102/26 38/104/26 37/103/26
o cube.004
v 0.862728 0.984759 0.540638
v 0.817001 0.763801 0.799965
v 0.901097 0.721432 0.323036
v 0.855370 0.500473 0.582364
v 0.624119 0.721432 0.274198
v 0.578393 0.500473 0.533525
v 0.585750 0.984759 0.491799
v 0.540024 0.763801 0.751127
vt 0.968750 0.625000
vt 0.968750 0.968750
vt 0.625000 0.625000
vt 0.625000 0.968750
vt 0.625000 0.625000
vt 0.968750 0.625000
vt 0.625000 0.968750
vt 0.968750 0.968750
vt 0.281250 0.000000
vt 0.281250 0.343750
vt 0.000000 0.000000
vt 0.000000 0.343750
vt 0.281250 1.000000
vt 0.281250 0.656250
vt 0.562500 1.000000
vt 0.562500 0.656250
vt 0.281250 1.000000
vt 0.281250 0.656250
vt 0.562500 1.000000
vt 0.562500 0.656250
vt 0.562500 0.656250
vt 0.562500 1.000000
vt 0.281250 0.656250
vt 0.281250 1.000000
vn 0.9848 0.0000 0.1736
vn -0.9848 -0.0000 -0.1736
vn 0.1330 0.6428 -0.7544
vn 0.1116 -0.7660 -0.6330
vn -0.1330 -0.6428 0.7544
vn -0.1116 0.7660 0.6330
usemtl 4
s 1
f 41/105/27 42/106/27 43/107/27
f 42/106/27 44/108/27 43/107/27
f 45/109/28 46/110/28 47/111/28
f 46/110/28 48/112/28 47/111/28
f 45/113/29 47/114/29 43/115/29
f 47/114/29 41/116/29 43/115/29
f 43/117/30 44/118/30 45/119/30
f 44/118/30 46/120/30 45/119/30
usemtl 3
f 48/121/31 46/122/31 42/123/31
f 46/122/31 44/124/31 42/123/31
f 47/125/32 48/126/32 41/127/32
f 48/126/32 42/128/32 41/127/32
o cube.005
v 0.775320 0.231613 0.805915
v 0.772010 0.013696 0.824691
v 0.845596 0.196206 0.407359
v 0.842286 -0.021711 0.426135
v 0.630170 0.196206 0.369374
v 0.626859 -0.021711 0.388150
v 0.559894 0.231613 0.767930
v 0.556583 0.013696 0.786705
vt 0.781250 0.000000
vt 1.000000 0.000000
vt 0.781250 0.406250
vt 1.000000 0.406250
vt 0.781250 0.406250
vt 1.000000 0.406250
vt 0.781250 0.000000
vt 1.000000 0.000000
vt 0.781250 0.000000
vt 0.781250 0.406250
vt 1.000000 0.000000
vt 1.000000 0.406250
vt 0.500000 0.875000
vt 0.093750 0.875000
vt 0.500000 0.656250
vt 0.093750 0.656250
vt 0.000000 1.000000
vt 0.000000 0.781250
vt 0.218750 1.000000
vt 0.218750 0.781250
vt 0.000000 1.000000
vt 0.000000 0.781250
vt 0.218750 1.000000
vt 0.218750 0.781250
vn 0.9848 -0.0000 0.1736
vn -0.9848 -0.0000 -0.1736
vn 0.0151 0.9962 -0.0858
vn -0.0151 -0.9962 0.0858
vn -0.1730 0.0872 0.9811
vn 0.1730 -0.0872 -0.9811
usemtl 4
s 1
f 49/129/33 50/130/33 51/131/33
f 50/130/33 52/132/33 51/131/33
f 53/133/34 54/134/34 55/135/34
f 54/134/34 56/136/34 55/135/34
f 53/137/35 55/138/35 51/139/35
f 55/138/35 49/140/35 51/139/35
f 56/141/36 54/142/36 50/143/36
f 54/142/36 52/144/36 50/143/36
f 55/145/37 56/146/37 49/147/37
f 56/146/37 50/148/37 49/147/37
f 51/149/38 52/150/38 53/151/38
f 52/150/38 54/152/38 53/151/38
o cube.006
v 0.570983 -0.019021 0.319757
v 0.775305 -0.049718 0.179008
v 0.714844 0.011675 0.521901
v 0.919166 -0.019021 0.381151
v 0.720498 0.196327 0.489836
v 0.924819 0.165630 0.349087
v 0.576637 0.165630 0.287693
v 0.780959 0.134933 0.146944
vt 0.750000 0.781250
vt 0.750000 0.531250
vt 1.000000 0.781250
vt 1.000000 0.531250
vt 1.000000 1.000000
vt 0.750000 1.000000
vt 1.000000 0.750000
vt 0.750000 0.750000
vt 0.312500 1.000000
vt 0.062500 1.000000
vt 0.312500 0.812500
vt 0.062500 0.812500
vt 0.375000 1.000000
vt 0.125000 1.000000
vt 0.375000 0.812500
vt 0.125000 0.812500
vt 0.312500 1.000000
vt 0.062500 1.000000
vt 0.312500 0.812500
vt 0.062500 0.812500
vt 0.125000 0.812500
vt 0.375000 0.812500
vt 0.125000 1.000000
vt 0.375000 1.000000
vn -0.0302 -0.9848 0.1710
vn 0.0302 0.9848 -0.1710
vn -0.8173 0.1228 0.5630
vn 0.8173 -0.1228 -0.5630
vn -0.5754 -0.1228 -0.8086
vn 0.5754 0.1228 0.8086
usemtl 2
s 1
f 57/153/39 58/154/39 59/155/39
f 58/154/39 60/156/39 59/155/39
usemtl 4
f 61/157/40 62/158/40 63/159/40
f 62/158/40 64/160/40 63/159/40
f 61/161/41 63/162/41 59/163/41
f 63/162/41 57/164/41 59/163/41
f 64/165/42 62/166/42 58/167/42
f 62/166/42 60/168/42 58/167/42
f 63/169/43 64/170/43 57/171/43
f 64/170/43 58/172/43 57/171/43
f 59/173/44 60/174/44 61/175/44
f 60/174/44 62/176/44 61/175/44
