# Made in Blockbench 3.7.4
mtllib mt_roof_hip_steep_straight.mtl
o cube
v 0.2851562499999999 -0.30584400759777985 0.3683442478843151
v 0.2851562499999999 -0.08274510104287525 0.8158114286853279
v 0.28515625 -1.0609448751994885 0.7448236526957164
v 0.28515625 -0.8378459686445838 1.1922908334967293
v 0.7226562499999999 -0.08274510104287525 0.8158114286853279
v 0.7226562499999999 -0.30584400759777985 0.3683442478843151
v 0.72265625 -0.8378459686445838 1.1922908334967293
v 0.72265625 -1.0609448751994883 0.7448236526957164
vt 0 0.84375
vt 0 0
vt 0.5 0.84375
vt 0 0
vt 0.5 0
vt 0.5 0.84375
vt 0 0.84375
vt 0 0
vt 0.5 0.84375
vt 0 0
vt 0.5 0
vt 0.5 0.84375
vt 0.53125 1
vt 0.53125 0.5
vt 0.96875 1
vt 0.53125 0.5
vt 0.96875 0.5
vt 0.96875 1
vt 0.03125 0.84375
vt 0.03125 0
vt 0.46875 0.84375
vt 0.03125 0
vt 0.46875 0
vt 0.46875 0.84375
vt 0.03125 0.84375
vt 0.03125 0
vt 0.46875 0.84375
vt 0.03125 0
vt 0.46875 0
vt 0.46875 0.84375
vn -1 -1.2246467991473535e-16 1.2325951644078307e-32
vn -1 -1.2246467991473535e-16 1.2325951644078307e-32
vn -1 -1.2246467991473535e-16 1.2325951644078307e-32
vn -1 -1.2246467991473535e-16 1.2325951644078307e-32
vn -1 -1.2246467991473535e-16 1.2325951644078307e-32
vn -1 -1.2246467991473535e-16 1.2325951644078307e-32
vn 1 1.2246467991473535e-16 -1.2325951644078307e-32
vn 1 1.2246467991473535e-16 -1.2325951644078307e-32
vn 1 1.2246467991473535e-16 -1.2325951644078307e-32
vn 1 1.2246467991473535e-16 -1.2325951644078307e-32
vn 1 1.2246467991473535e-16 -1.2325951644078307e-32
vn 1 1.2246467991473535e-16 -1.2325951644078307e-32
vn 1.0959785013828999e-16 -0.8949343616020249 0.4461978131098089
vn 1.0959785013828999e-16 -0.8949343616020249 0.4461978131098089
vn 1.0959785013828999e-16 -0.8949343616020249 0.4461978131098089
vn 1.0959785013828999e-16 -0.8949343616020249 0.4461978131098089
vn 1.0959785013828999e-16 -0.8949343616020249 0.4461978131098089
vn 1.0959785013828999e-16 -0.8949343616020249 0.4461978131098089
vn 5.4643472361147646e-17 -0.4461978131098089 -0.8949343616020248
vn 5.4643472361147646e-17 -0.4461978131098089 -0.8949343616020248
vn 5.4643472361147646e-17 -0.4461978131098089 -0.8949343616020248
vn 5.4643472361147646e-17 -0.4461978131098089 -0.8949343616020248
vn 5.4643472361147646e-17 -0.4461978131098089 -0.8949343616020248
vn 5.4643472361147646e-17 -0.4461978131098089 -0.8949343616020248
vn -5.4643472361147646e-17 0.4461978131098089 0.8949343616020248
vn -5.4643472361147646e-17 0.4461978131098089 0.8949343616020248
vn -5.4643472361147646e-17 0.4461978131098089 0.8949343616020248
vn -5.4643472361147646e-17 0.4461978131098089 0.8949343616020248
vn -5.4643472361147646e-17 0.4461978131098089 0.8949343616020248
vn -5.4643472361147646e-17 0.4461978131098089 0.8949343616020248
usemtl m_0
f 1/1/1 3/2/2 2/3/3
f 3/4/4 4/5/5 2/6/6
usemtl m_0
f 5/7/7 7/8/8 6/9/9
f 7/10/10 8/11/11 6/12/12
usemtl m_0
f 8/13/13 7/14/14 3/15/15
f 7/16/16 4/17/17 3/18/18
usemtl m_0
f 6/19/19 8/20/20 1/21/21
f 8/22/22 3/23/23 1/24/24
usemtl m_0
f 2/25/25 4/26/26 5/27/27
f 4/28/28 7/29/29 5/30/30
o cube
v 0.2851562499999998 0.5890903540042451 -0.07785356522549391
v 0.2851562499999998 0.8121892605591499 0.36961361557551886
v 0.2851562499999999 -0.30584400759777985 0.3683442478843151
v 0.2851562499999999 -0.08274510104287525 0.8158114286853279
v 0.7226562499999998 0.8121892605591499 0.36961361557551886
v 0.7226562499999998 0.5890903540042451 -0.07785356522549391
v 0.7226562499999999 -0.08274510104287525 0.8158114286853279
v 0.7226562499999999 -0.30584400759777985 0.3683442478843151
vt 0 1
vt 0 0
vt 0.49999999999999994 1
vt 0 0
vt 0.49999999999999994 0
vt 0.49999999999999994 1
vt 0 1
vt 0 0
vt 0.49999999999999994 1
vt 0 0
vt 0.49999999999999994 0
vt 0.49999999999999994 1
vt 0.53125 1
vt 0.53125 0.4999999999999998
vt 0.96875 1
vt 0.53125 0.4999999999999998
vt 0.96875 0.4999999999999998
vt 0.96875 1
vt 0.03125 1
vt 0.03125 0
vt 0.46875 1
vt 0.03125 0
vt 0.46875 0
vt 0.46875 1
vt 0.03125 1
vt 0.03125 0
vt 0.46875 1
vt 0.03125 0
vt 0.46875 0
vt 0.46875 1
vn -1 -1.2246467991473535e-16 1.2325951644078307e-32
vn -1 -1.2246467991473535e-16 1.2325951644078307e-32
vn -1 -1.2246467991473535e-16 1.2325951644078307e-32
vn -1 -1.2246467991473535e-16 1.2325951644078307e-32
vn -1 -1.2246467991473535e-16 1.2325951644078307e-32
vn -1 -1.2246467991473535e-16 1.2325951644078307e-32
vn 1 1.2246467991473535e-16 -1.2325951644078307e-32
vn 1 1.2246467991473535e-16 -1.2325951644078307e-32
vn 1 1.2246467991473535e-16 -1.2325951644078307e-32
vn 1 1.2246467991473535e-16 -1.2325951644078307e-32
vn 1 1.2246467991473535e-16 -1.2325951644078307e-32
vn 1 1.2246467991473535e-16 -1.2325951644078307e-32
vn -1.0959785013828999e-16 0.8949343616020249 -0.4461978131098089
vn -1.0959785013828999e-16 0.8949343616020249 -0.4461978131098089
vn -1.0959785013828999e-16 0.8949343616020249 -0.4461978131098089
vn -1.0959785013828999e-16 0.8949343616020249 -0.4461978131098089
vn -1.0959785013828999e-16 0.8949343616020249 -0.4461978131098089
vn -1.0959785013828999e-16 0.8949343616020249 -0.4461978131098089
vn 5.4643472361147646e-17 -0.4461978131098089 -0.8949343616020248
vn 5.4643472361147646e-17 -0.4461978131098089 -0.8949343616020248
vn 5.4643472361147646e-17 -0.4461978131098089 -0.8949343616020248
vn 5.4643472361147646e-17 -0.4461978131098089 -0.8949343616020248
vn 5.4643472361147646e-17 -0.4461978131098089 -0.8949343616020248
vn 5.4643472361147646e-17 -0.4461978131098089 -0.8949343616020248
vn -5.4643472361147646e-17 0.4461978131098089 0.8949343616020248
vn -5.4643472361147646e-17 0.4461978131098089 0.8949343616020248
vn -5.4643472361147646e-17 0.4461978131098089 0.8949343616020248
vn -5.4643472361147646e-17 0.4461978131098089 0.8949343616020248
vn -5.4643472361147646e-17 0.4461978131098089 0.8949343616020248
vn -5.4643472361147646e-17 0.4461978131098089 0.8949343616020248
usemtl m_0
f 9/31/31 11/32/32 10/33/33
f 11/34/34 12/35/35 10/36/36
usemtl m_0
f 13/37/37 15/38/38 14/39/39
f 15/40/40 16/41/41 14/42/42
usemtl m_0
f 13/43/43 14/44/44 10/45/45
f 14/46/46 9/47/47 10/48/48
usemtl m_0
f 14/49/49 16/50/50 9/51/51
f 16/52/52 11/53/53 9/54/54
usemtl m_0
f 10/55/55 12/56/56 13/57/57
f 12/58/58 15/59/59 13/60/60
o cube
v 0.28906249999999967 1.2900007842132872 -0.42294976936752415
v 0.28906249999999967 1.513099690768192 0.024517411433488623
v 0.2890624999999998 0.5908333142117055 -0.07435772787548611
v 0.2890624999999998 0.81393222076661 0.3731094529255268
v 0.7265624999999997 1.513099690768192 0.024517411433488623
v 0.7265624999999997 1.2900007842132872 -0.42294976936752415
v 0.7265624999999998 0.81393222076661 0.3731094529255268
v 0.7265624999999998 0.5908333142117055 -0.07435772787548611
vt 0 0.78125
vt 0 0
vt 0.5 0.78125
vt 0 0
vt 0.5 0
vt 0.5 0.78125
vt 0 0.78125
vt 0 0
vt 0.5000000000000002 0.78125
vt 0 0
vt 0.5000000000000002 0
vt 0.5000000000000002 0.78125
vt 0.53125 1
vt 0.53125 0.4999999999999998
vt 0.96875 1
vt 0.53125 0.4999999999999998
vt 0.96875 0.4999999999999998
vt 0.96875 1
vt 0.53125 1
vt 0.53125 0.4999999999999998
vt 0.96875 1
vt 0.53125 0.4999999999999998
vt 0.96875 0.4999999999999998
vt 0.96875 1
vt 0.03125 0.78125
vt 0.03125 0
vt 0.46875 0.78125
vt 0.03125 0
vt 0.46875 0
vt 0.46875 0.78125
vt 0.03125 0.78125
vt 0.03125 0
vt 0.46875 0.78125
vt 0.03125 0
vt 0.46875 0
vt 0.46875 0.78125
vn -1 -1.2246467991473535e-16 1.2325951644078307e-32
vn -1 -1.2246467991473535e-16 1.2325951644078307e-32
vn -1 -1.2246467991473535e-16 1.2325951644078307e-32
vn -1 -1.2246467991473535e-16 1.2325951644078307e-32
vn -1 -1.2246467991473535e-16 1.2325951644078307e-32
vn -1 -1.2246467991473535e-16 1.2325951644078307e-32
vn 1 1.2246467991473535e-16 -1.2325951644078307e-32
vn 1 1.2246467991473535e-16 -1.2325951644078307e-32
vn 1 1.2246467991473535e-16 -1.2325951644078307e-32
vn 1 1.2246467991473535e-16 -1.2325951644078307e-32
vn 1 1.2246467991473535e-16 -1.2325951644078307e-32
vn 1 1.2246467991473535e-16 -1.2325951644078307e-32
vn -1.0959785013828999e-16 0.8949343616020249 -0.4461978131098089
vn -1.0959785013828999e-16 0.8949343616020249 -0.4461978131098089
vn -1.0959785013828999e-16 0.8949343616020249 -0.4461978131098089
vn -1.0959785013828999e-16 0.8949343616020249 -0.4461978131098089
vn -1.0959785013828999e-16 0.8949343616020249 -0.4461978131098089
vn -1.0959785013828999e-16 0.8949343616020249 -0.4461978131098089
vn 1.0959785013828999e-16 -0.8949343616020249 0.4461978131098089
vn 1.0959785013828999e-16 -0.8949343616020249 0.4461978131098089
vn 1.0959785013828999e-16 -0.8949343616020249 0.4461978131098089
vn 1.0959785013828999e-16 -0.8949343616020249 0.4461978131098089
vn 1.0959785013828999e-16 -0.8949343616020249 0.4461978131098089
vn 1.0959785013828999e-16 -0.8949343616020249 0.4461978131098089
vn 5.4643472361147646e-17 -0.4461978131098089 -0.8949343616020248
vn 5.4643472361147646e-17 -0.4461978131098089 -0.8949343616020248
vn 5.4643472361147646e-17 -0.4461978131098089 -0.8949343616020248
vn 5.4643472361147646e-17 -0.4461978131098089 -0.8949343616020248
vn 5.4643472361147646e-17 -0.4461978131098089 -0.8949343616020248
vn 5.4643472361147646e-17 -0.4461978131098089 -0.8949343616020248
vn -5.4643472361147646e-17 0.4461978131098089 0.8949343616020248
vn -5.4643472361147646e-17 0.4461978131098089 0.8949343616020248
vn -5.4643472361147646e-17 0.4461978131098089 0.8949343616020248
vn -5.4643472361147646e-17 0.4461978131098089 0.8949343616020248
vn -5.4643472361147646e-17 0.4461978131098089 0.8949343616020248
vn -5.4643472361147646e-17 0.4461978131098089 0.8949343616020248
usemtl m_0
f 17/61/61 19/62/62 18/63/63
f 19/64/64 20/65/65 18/66/66
usemtl m_0
f 21/67/67 23/68/68 22/69/69
f 23/70/70 24/71/71 22/72/72
usemtl m_0
f 21/73/73 22/74/74 18/75/75
f 22/76/76 17/77/77 18/78/78
usemtl m_0
f 24/79/79 23/80/80 19/81/81
f 23/82/82 20/83/83 19/84/84
usemtl m_0
f 22/85/85 24/86/86 17/87/87
f 24/88/88 19/89/89 17/90/90
usemtl m_0
f 18/91/91 20/92/92 21/93/93
f 20/94/94 23/95/95 21/96/96
