# Made in Blockbench 3.7.5
mtllib mt_roof_edge_half_l.mtl
o cube
v -0.06181624407987241 0.3871728515796451 0.870625
v -0.06181624407987241 0.3871728515796451 0.745625
v -0.13177860155468019 0.24746125207349381 0.870625
v -0.13177860155468019 0.24746125207349381 0.745625
v -0.3971240828946355 0.5550825095191837 0.745625
v -0.3971240828946355 0.5550825095191837 0.870625
v -0.46708644036944325 0.4153709100130324 0.745625
v -0.46708644036944325 0.4153709100130324 0.870625
vt 0.875 0.5
vt 0.875 0.34375
vt 1 0.5
vt 0.875 0.34375
vt 1 0.34375
vt 1 0.5
vt 0.625 0.90625
vt 0.625 0.78125
vt 1 0.90625
vt 0.625 0.78125
vt 1 0.78125
vt 1 0.90625
vt 0 0.90625
vt 0 0.75
vt 0.375 0.90625
vt 0 0.75
vt 0.375 0.75
vt 0.375 0.90625
vn -0.8941542368393682 0.44775908783876966 0
vn -0.8941542368393682 0.44775908783876966 0
vn -0.8941542368393682 0.44775908783876966 0
vn -0.8941542368393682 0.44775908783876966 0
vn -0.8941542368393682 0.44775908783876966 0
vn -0.8941542368393682 0.44775908783876966 0
vn -0.44775908783876966 -0.8941542368393682 0
vn -0.44775908783876966 -0.8941542368393682 0
vn -0.44775908783876966 -0.8941542368393682 0
vn -0.44775908783876966 -0.8941542368393682 0
vn -0.44775908783876966 -0.8941542368393682 0
vn -0.44775908783876966 -0.8941542368393682 0
vn 0 0 -1
vn 0 0 -1
vn 0 0 -1
vn 0 0 -1
vn 0 0 -1
vn 0 0 -1
usemtl m_edge_board
f 5/1/1 7/2/2 6/3/3
f 7/4/4 8/5/5 6/6/6
usemtl m_edge_board
f 8/7/7 7/8/8 3/9/9
f 7/10/10 4/11/11 3/12/12
usemtl m_edge_board
f 2/13/13 4/14/14 5/15/15
f 4/16/16 7/17/17 5/18/18
o cube
v 0.8323379927594958 -0.06058623625912457 0.87109375
v 0.8323379927594958 -0.06058623625912457 0.74609375
v 0.762375635284688 -0.20029783576527582 0.87109375
v 0.762375635284688 -0.20029783576527582 0.74609375
v -0.06181624407987241 0.3871728515796451 0.74609375
v -0.06181624407987241 0.3871728515796451 0.87109375
v -0.13177860155468019 0.24746125207349381 0.74609375
v -0.13177860155468019 0.24746125207349381 0.87109375
vt 0 0.5
vt 0 0.34375
vt 0.125 0.5
vt 0 0.34375
vt 0.125 0.34375
vt 0.125 0.5
vt 0 0.90625
vt 0 0.78125
vt 1 0.90625
vt 0 0.78125
vt 1 0.78125
vt 1 0.90625
vt 0 0.90625
vt 0 0.75
vt 1 0.90625
vt 0 0.75
vt 1 0.75
vt 1 0.90625
vn 0.8941542368393682 -0.44775908783876966 0
vn 0.8941542368393682 -0.44775908783876966 0
vn 0.8941542368393682 -0.44775908783876966 0
vn 0.8941542368393682 -0.44775908783876966 0
vn 0.8941542368393682 -0.44775908783876966 0
vn 0.8941542368393682 -0.44775908783876966 0
vn -0.44775908783876966 -0.8941542368393682 0
vn -0.44775908783876966 -0.8941542368393682 0
vn -0.44775908783876966 -0.8941542368393682 0
vn -0.44775908783876966 -0.8941542368393682 0
vn -0.44775908783876966 -0.8941542368393682 0
vn -0.44775908783876966 -0.8941542368393682 0
vn 0 0 -1
vn 0 0 -1
vn 0 0 -1
vn 0 0 -1
vn 0 0 -1
vn 0 0 -1
usemtl m_edge_board
f 9/19/19 11/20/20 10/21/21
f 11/22/22 12/23/23 10/24/24
usemtl m_edge_board
f 16/25/25 15/26/26 11/27/27
f 15/28/28 12/29/29 11/30/30
usemtl m_edge_board
f 10/31/31 12/32/32 13/33/33
f 12/34/34 15/35/35 13/36/36
o cube
v -0.06181624407987235 0.3871728515796447 0.99953125
v -0.06181624407987235 0.3871728515796447 0.870625
v -0.2856957879992572 -0.05990426684003952 0.99953125
v -0.2856957879992572 -0.05990426684003952 0.870625
v -0.3971240828946354 0.5550825095191834 0.870625
v -0.3971240828946354 0.5550825095191834 0.99953125
v -0.6210036268140203 0.10800539109949908 0.870625
v -0.6210036268140203 0.10800539109949908 0.99953125
vt 0.875 0.5
vt 0.875 0
vt 1 0.5
vt 0.875 0
vt 1 0
vt 1 0.5
vt 0.625 0.90625
vt 0.625 0.78125
vt 1 0.90625
vt 0.625 0.78125
vt 1 0.78125
vt 1 0.90625
vt 0.625 0.5
vt 0.625 0
vt 1 0.5
vt 0.625 0
vt 1 0
vt 1 0.5
vt 0 0.5
vt 0 0
vt 0.375 0.5
vt 0 0
vt 0.375 0
vt 0.375 0.5
vn -0.8941542368393682 0.44775908783876966 0
vn -0.8941542368393682 0.44775908783876966 0
vn -0.8941542368393682 0.44775908783876966 0
vn -0.8941542368393682 0.44775908783876966 0
vn -0.8941542368393682 0.44775908783876966 0
vn -0.8941542368393682 0.44775908783876966 0
vn -0.44775908783876966 -0.8941542368393682 0
vn -0.44775908783876966 -0.8941542368393682 0
vn -0.44775908783876966 -0.8941542368393682 0
vn -0.44775908783876966 -0.8941542368393682 0
vn -0.44775908783876966 -0.8941542368393682 0
vn -0.44775908783876966 -0.8941542368393682 0
vn 0 0 1
vn 0 0 1
vn 0 0 1
vn 0 0 1
vn 0 0 1
vn 0 0 1
vn 0 0 -1
vn 0 0 -1
vn 0 0 -1
vn 0 0 -1
vn 0 0 -1
vn 0 0 -1
usemtl m_edge_board
f 21/37/37 23/38/38 22/39/39
f 23/40/40 24/41/41 22/42/42
usemtl m_edge_board
f 24/43/43 23/44/44 19/45/45
f 23/46/46 20/47/47 19/48/48
usemtl m_edge_board
f 22/49/49 24/50/50 17/51/51
f 24/52/52 19/53/53 17/54/54
usemtl m_edge_board
f 18/55/55 20/56/56 21/57/57
f 20/58/58 23/59/59 21/60/60
o cube
v 0.8323379927594957 -0.06058623625912485 1
v 0.8323379927594957 -0.06058623625912485 0.87109375
v 0.6084584488401108 -0.5076633546788091 1
v 0.6084584488401108 -0.5076633546788091 0.87109375
v -0.06181624407987257 0.3871728515796448 0.87109375
v -0.06181624407987257 0.3871728515796448 1
v -0.28569578799925743 -0.05990426684003941 0.87109375
v -0.28569578799925743 -0.05990426684003941 1
vt 0 0.5
vt 0 0
vt 0.125 0.5
vt 0 0
vt 0.125 0
vt 0.125 0.5
vt 0 0.90625
vt 0 0.78125
vt 1 0.90625
vt 0 0.78125
vt 1 0.78125
vt 1 0.90625
vt 0 0.5
vt 0 0
vt 1 0.5
vt 0 0
vt 1 0
vt 1 0.5
vt 0 0.5
vt 0 0
vt 1 0.5
vt 0 0
vt 1 0
vt 1 0.5
vn 0.8941542368393682 -0.44775908783876966 0
vn 0.8941542368393682 -0.44775908783876966 0
vn 0.8941542368393682 -0.44775908783876966 0
vn 0.8941542368393682 -0.44775908783876966 0
vn 0.8941542368393682 -0.44775908783876966 0
vn 0.8941542368393682 -0.44775908783876966 0
vn -0.44775908783876966 -0.8941542368393682 0
vn -0.44775908783876966 -0.8941542368393682 0
vn -0.44775908783876966 -0.8941542368393682 0
vn -0.44775908783876966 -0.8941542368393682 0
vn -0.44775908783876966 -0.8941542368393682 0
vn -0.44775908783876966 -0.8941542368393682 0
vn 0 0 1
vn 0 0 1
vn 0 0 1
vn 0 0 1
vn 0 0 1
vn 0 0 1
vn 0 0 -1
vn 0 0 -1
vn 0 0 -1
vn 0 0 -1
vn 0 0 -1
vn 0 0 -1
usemtl m_edge_board
f 25/61/61 27/62/62 26/63/63
f 27/64/64 28/65/65 26/66/66
usemtl m_edge_board
f 32/67/67 31/68/68 27/69/69
f 31/70/70 28/71/71 27/72/72
usemtl m_edge_board
f 30/73/73 32/74/74 25/75/75
f 32/76/76 27/77/77 25/78/78
usemtl m_edge_board
f 26/79/79 28/80/80 29/81/81
f 28/82/82 31/83/83 29/84/84
o cube
v 0.10632281897419923 0.7229388018223686 0.99859375
v 0.10632281897419923 0.7229388018223686 0.6821875
v -0.0615868389653394 0.38763096300760547 0.99859375
v -0.0615868389653394 0.38763096300760547 0.6821875
v -0.22898501984056385 0.8908484597619073 0.6821875
v -0.22898501984056385 0.8908484597619073 0.99859375
v -0.39689467778010246 0.5555406209471441 0.6821875
v -0.39689467778010246 0.5555406209471441 0.99859375
vt 0.65625 0.375
vt 0.65625 0
vt 0.96875 0.375
vt 0.65625 0
vt 0.96875 0
vt 0.96875 0.375
vt 0.40625 0.375
vt 0.09375 0.375
vt 0.40625 0
vt 0.09375 0.375
vt 0.09375 0
vt 0.40625 0
vt 0.40625 0.375
vt 0.09375 0.375
vt 0.40625 0
vt 0.09375 0.375
vt 0.09375 0
vt 0.40625 0
vt 0.4375 0.375
vt 0.0625 0.375
vt 0.4375 0
vt 0.0625 0.375
vt 0.0625 0
vt 0.4375 0
vt 0.0625 0
vt 0.4375 0
vt 0.0625 0.375
vt 0.4375 0
vt 0.4375 0.375
vt 0.0625 0.375
vn -0.8941542368393682 0.44775908783876966 0
vn -0.8941542368393682 0.44775908783876966 0
vn -0.8941542368393682 0.44775908783876966 0
vn -0.8941542368393682 0.44775908783876966 0
vn -0.8941542368393682 0.44775908783876966 0
vn -0.8941542368393682 0.44775908783876966 0
vn 0.44775908783876966 0.8941542368393682 0
vn 0.44775908783876966 0.8941542368393682 0
vn 0.44775908783876966 0.8941542368393682 0
vn 0.44775908783876966 0.8941542368393682 0
vn 0.44775908783876966 0.8941542368393682 0
vn 0.44775908783876966 0.8941542368393682 0
vn -0.44775908783876966 -0.8941542368393682 0
vn -0.44775908783876966 -0.8941542368393682 0
vn -0.44775908783876966 -0.8941542368393682 0
vn -0.44775908783876966 -0.8941542368393682 0
vn -0.44775908783876966 -0.8941542368393682 0
vn -0.44775908783876966 -0.8941542368393682 0
vn 0 0 1
vn 0 0 1
vn 0 0 1
vn 0 0 1
vn 0 0 1
vn 0 0 1
vn 0 0 -1
vn 0 0 -1
vn 0 0 -1
vn 0 0 -1
vn 0 0 -1
vn 0 0 -1
usemtl m_edge
f 37/85/85 39/86/86 38/87/87
f 39/88/88 40/89/89 38/90/90
usemtl m_edge
f 37/91/91 38/92/92 34/93/93
f 38/94/94 33/95/95 34/96/96
usemtl m_edge
f 40/97/97 39/98/98 35/99/99
f 39/100/100 36/101/101 35/102/102
usemtl m_edge
f 38/103/103 40/104/104 33/105/105
f 40/106/106 35/107/107 33/108/108
usemtl m_edge
f 34/109/109 36/110/110 37/111/111
f 36/112/112 39/113/113 37/114/114
o cube
v 1.0002476506990345 0.27472160255563904 0.99921875
v 1.0002476506990345 0.27472160255563904 0.6828125
v 0.832337992759496 -0.06058623625912407 0.99921875
v 0.832337992759496 -0.06058623625912407 0.6828125
v 0.10609341385966647 0.7224806903944088 0.6828125
v 0.10609341385966647 0.7224806903944088 0.99921875
v -0.061816244079872185 0.3871728515796456 0.6828125
v -0.061816244079872185 0.3871728515796456 0.99921875
vt 0.65625 0.375
vt 0.65625 0
vt 0.97265625 0.375
vt 0.65625 0
vt 0.97265625 0
vt 0.97265625 0.375
vt 0.40625 1
vt 0.09375 1
vt 0.40625 0
vt 0.09375 1
vt 0.09375 0
vt 0.40625 0
vt 0.40625 1
vt 0.09375 1
vt 0.40625 0
vt 0.09375 1
vt 0.09375 0
vt 0.40625 0
vt 0.4375 1
vt 0.0625 1
vt 0.4375 0
vt 0.0625 1
vt 0.0625 0
vt 0.4375 0
vt 0.0625 0
vt 0.4375 0
vt 0.0625 1
vt 0.4375 0
vt 0.4375 1
vt 0.0625 1
vn 0.8941542368393682 -0.44775908783876966 0
vn 0.8941542368393682 -0.44775908783876966 0
vn 0.8941542368393682 -0.44775908783876966 0
vn 0.8941542368393682 -0.44775908783876966 0
vn 0.8941542368393682 -0.44775908783876966 0
vn 0.8941542368393682 -0.44775908783876966 0
vn 0.44775908783876966 0.8941542368393682 0
vn 0.44775908783876966 0.8941542368393682 0
vn 0.44775908783876966 0.8941542368393682 0
vn 0.44775908783876966 0.8941542368393682 0
vn 0.44775908783876966 0.8941542368393682 0
vn 0.44775908783876966 0.8941542368393682 0
vn -0.44775908783876966 -0.8941542368393682 0
vn -0.44775908783876966 -0.8941542368393682 0
vn -0.44775908783876966 -0.8941542368393682 0
vn -0.44775908783876966 -0.8941542368393682 0
vn -0.44775908783876966 -0.8941542368393682 0
vn -0.44775908783876966 -0.8941542368393682 0
vn 0 0 1
vn 0 0 1
vn 0 0 1
vn 0 0 1
vn 0 0 1
vn 0 0 1
vn 0 0 -1
vn 0 0 -1
vn 0 0 -1
vn 0 0 -1
vn 0 0 -1
vn 0 0 -1
usemtl m_edge
f 41/115/115 43/116/116 42/117/117
f 43/118/118 44/119/119 42/120/120
usemtl m_edge
f 45/121/121 46/122/122 42/123/123
f 46/124/124 41/125/125 42/126/126
usemtl m_edge
f 48/127/127 47/128/128 43/129/129
f 47/130/130 44/131/131 43/132/132
usemtl m_edge
f 46/133/133 48/134/134 41/135/135
f 48/136/136 43/137/137 41/138/138
usemtl m_edge
f 42/139/139 44/140/140 45/141/141
f 44/142/142 47/143/143 45/144/144
