# Made in Blockbench 3.7.4
mtllib mt_roof_edge_double_l.mtl
o cube
v 0.002935013184842461 2.003061519855475 0.99140625
v 0.002935013184842461 2.003061519855475 0.675
v 0.49797770611136083 1.0101594855039266 0.99140625
v 0.49797770611136083 1.0101594855039266 0.675
v -0.33266537241591687 1.8357373399392964 0.675
v -0.33266537241591687 1.8357373399392964 0.99140625
v 0.1623773205106014 0.8428353055877482 0.675
v 0.1623773205106014 0.8428353055877482 0.99140625
vt 0.0625 1
vt 0.0625 0
vt 0.4375 1
vt 0.0625 0
vt 0.4375 0
vt 0.4375 1
vt 0.0625 1
vt 0.0625 0
vt 0.4375 1
vt 0.0625 0
vt 0.4375 0
vt 0.4375 1
vt 0.65625 0
vt 0.96875 0
vt 0.65625 0.375
vt 0.96875 0
vt 0.96875 0.375
vt 0.65625 0.375
vt 0.65625 0
vt 0.96875 0
vt 0.65625 0.375
vt 0.96875 0
vt 0.96875 0.375
vt 0.65625 0.375
vt 0.03125 1
vt 0.03125 0
vt 0.46875 1
vt 0.03125 0
vt 0.46875 0
vt 0.46875 1
vt 0.03125 1
vt 0.03125 0
vt 0.46875 1
vt 0.03125 0
vt 0.46875 0
vt 0.46875 1
vn 0.8949343616020251 0.44619781310980877 0
vn 0.8949343616020251 0.44619781310980877 0
vn 0.8949343616020251 0.44619781310980877 0
vn 0.8949343616020251 0.44619781310980877 0
vn 0.8949343616020251 0.44619781310980877 0
vn 0.8949343616020251 0.44619781310980877 0
vn -0.8949343616020251 -0.44619781310980877 0
vn -0.8949343616020251 -0.44619781310980877 0
vn -0.8949343616020251 -0.44619781310980877 0
vn -0.8949343616020251 -0.44619781310980877 0
vn -0.8949343616020251 -0.44619781310980877 0
vn -0.8949343616020251 -0.44619781310980877 0
vn -0.44619781310980877 0.8949343616020251 0
vn -0.44619781310980877 0.8949343616020251 0
vn -0.44619781310980877 0.8949343616020251 0
vn -0.44619781310980877 0.8949343616020251 0
vn -0.44619781310980877 0.8949343616020251 0
vn -0.44619781310980877 0.8949343616020251 0
vn 0.44619781310980877 -0.8949343616020251 0
vn 0.44619781310980877 -0.8949343616020251 0
vn 0.44619781310980877 -0.8949343616020251 0
vn 0.44619781310980877 -0.8949343616020251 0
vn 0.44619781310980877 -0.8949343616020251 0
vn 0.44619781310980877 -0.8949343616020251 0
vn 0 0 1
vn 0 0 1
vn 0 0 1
vn 0 0 1
vn 0 0 1
vn 0 0 1
vn 0 0 -1
vn 0 0 -1
vn 0 0 -1
vn 0 0 -1
vn 0 0 -1
vn 0 0 -1
usemtl m_edge
f 1/1/1 3/2/2 2/3/3
f 3/4/4 4/5/5 2/6/6
usemtl m_edge
f 5/7/7 7/8/8 6/9/9
f 7/10/10 8/11/11 6/12/12
usemtl m_edge
f 5/13/13 6/14/14 2/15/15
f 6/16/16 1/17/17 2/18/18
usemtl m_edge
f 8/19/19 7/20/20 3/21/21
f 7/22/22 4/23/23 3/24/24
usemtl m_edge
f 6/25/25 8/26/26 1/27/27
f 8/28/28 3/29/29 1/30/30
usemtl m_edge
f 2/31/31 4/32/32 5/33/33
f 4/34/34 7/35/35 5/36/36
o cube
v -0.33266537241591754 1.8357373399392962 0.9921875
v -0.33266537241591754 1.8357373399392962 0.86328125
v 0.16237732051060083 0.842835305587748 0.9921875
v 0.16237732051060083 0.842835305587748 0.86328125
v -0.78013255321693 1.612638433384392 0.86328125
v -0.78013255321693 1.612638433384392 0.9921875
v -0.2850898602904116 0.6197363990328436 0.86328125
v -0.2850898602904116 0.6197363990328436 0.9921875
vt 0 0.78125
vt 1 0.78125
vt 0 0.90625
vt 1 0.78125
vt 1 0.90625
vt 0 0.90625
vt 0.875 0
vt 1 0
vt 0.875 0.5
vt 1 0
vt 1 0.5
vt 0.875 0.5
vt 0 0
vt 0.125 0
vt 0 0.5
vt 0.125 0
vt 0.125 0.5
vt 0 0.5
vt 0 0
vt 1 0
vt 0 0.5
vt 1 0
vt 1 0.5
vt 0 0.5
vt 1 0.5
vt 0 0.5
vt 1 0
vt 0 0.5
vt 0 0
vt 1 0
vn -0.8949343616020251 -0.44619781310980877 0
vn -0.8949343616020251 -0.44619781310980877 0
vn -0.8949343616020251 -0.44619781310980877 0
vn -0.8949343616020251 -0.44619781310980877 0
vn -0.8949343616020251 -0.44619781310980877 0
vn -0.8949343616020251 -0.44619781310980877 0
vn -0.44619781310980877 0.8949343616020251 0
vn -0.44619781310980877 0.8949343616020251 0
vn -0.44619781310980877 0.8949343616020251 0
vn -0.44619781310980877 0.8949343616020251 0
vn -0.44619781310980877 0.8949343616020251 0
vn -0.44619781310980877 0.8949343616020251 0
vn 0.44619781310980877 -0.8949343616020251 0
vn 0.44619781310980877 -0.8949343616020251 0
vn 0.44619781310980877 -0.8949343616020251 0
vn 0.44619781310980877 -0.8949343616020251 0
vn 0.44619781310980877 -0.8949343616020251 0
vn 0.44619781310980877 -0.8949343616020251 0
vn 0 0 1
vn 0 0 1
vn 0 0 1
vn 0 0 1
vn 0 0 1
vn 0 0 1
vn 0 0 -1
vn 0 0 -1
vn 0 0 -1
vn 0 0 -1
vn 0 0 -1
vn 0 0 -1
usemtl m_edge_board
f 13/37/37 15/38/38 14/39/39
f 15/40/40 16/41/41 14/42/42
usemtl m_edge_board
f 13/43/43 14/44/44 10/45/45
f 14/46/46 9/47/47 10/48/48
usemtl m_edge_board
f 16/49/49 15/50/50 11/51/51
f 15/52/52 12/53/53 11/54/54
usemtl m_edge_board
f 14/55/55 16/56/56 9/57/57
f 16/58/58 11/59/59 9/60/60
usemtl m_edge_board
f 10/61/61 12/62/62 13/63/63
f 12/64/64 15/65/65 13/66/66
o cube
v -0.3326653724159171 1.8357373399392964 0.86328125
v -0.3326653724159171 1.8357373399392964 0.73828125
v 0.16237732051060128 0.8428353055877482 0.86328125
v 0.16237732051060128 0.8428353055877482 0.73828125
v -0.4724988664162334 1.7660189316408887 0.73828125
v -0.4724988664162334 1.7660189316408887 0.86328125
v 0.02254382651028486 0.7731168972893405 0.73828125
v 0.02254382651028486 0.7731168972893405 0.86328125
vt 0 0.78125
vt 1 0.78125
vt 0 0.90625
vt 1 0.78125
vt 1 0.90625
vt 0 0.90625
vt 0.875 0.34375
vt 1 0.34375
vt 0.875 0.5
vt 1 0.34375
vt 1 0.5
vt 0.875 0.5
vt 0 0.34375
vt 0.125 0.34375
vt 0 0.5
vt 0.125 0.34375
vt 0.125 0.5
vt 0 0.5
vt 1 0.90625
vt 0 0.90625
vt 1 0.75
vt 0 0.90625
vt 0 0.75
vt 1 0.75
vn -0.8949343616020251 -0.44619781310980877 0
vn -0.8949343616020251 -0.44619781310980877 0
vn -0.8949343616020251 -0.44619781310980877 0
vn -0.8949343616020251 -0.44619781310980877 0
vn -0.8949343616020251 -0.44619781310980877 0
vn -0.8949343616020251 -0.44619781310980877 0
vn -0.44619781310980877 0.8949343616020251 0
vn -0.44619781310980877 0.8949343616020251 0
vn -0.44619781310980877 0.8949343616020251 0
vn -0.44619781310980877 0.8949343616020251 0
vn -0.44619781310980877 0.8949343616020251 0
vn -0.44619781310980877 0.8949343616020251 0
vn 0.44619781310980877 -0.8949343616020251 0
vn 0.44619781310980877 -0.8949343616020251 0
vn 0.44619781310980877 -0.8949343616020251 0
vn 0.44619781310980877 -0.8949343616020251 0
vn 0.44619781310980877 -0.8949343616020251 0
vn 0.44619781310980877 -0.8949343616020251 0
vn 0 0 -1
vn 0 0 -1
vn 0 0 -1
vn 0 0 -1
vn 0 0 -1
vn 0 0 -1
usemtl m_edge_board
f 21/67/67 23/68/68 22/69/69
f 23/70/70 24/71/71 22/72/72
usemtl m_edge_board
f 21/73/73 22/74/74 18/75/75
f 22/76/76 17/77/77 18/78/78
usemtl m_edge_board
f 24/79/79 23/80/80 19/81/81
f 23/82/82 20/83/83 19/84/84
usemtl m_edge_board
f 18/85/85 20/86/86 21/87/87
f 20/88/88 23/89/89 21/90/90
o cube
v 0.49797770611136083 1.0101594855039266 0.99140625
v 0.49797770611136083 1.0101594855039266 0.675
v 0.9999502458598957 0.0033583287016483235 0.99140625
v 0.9999502458598957 0.0033583287016483235 0.675
v 0.1623773205106014 0.8428353055877482 0.675
v 0.1623773205106014 0.8428353055877482 0.99140625
v 0.6643498602591362 -0.16396585121452997 0.675
v 0.6643498602591362 -0.16396585121452997 0.99140625
vt 0.0625 1
vt 0.0625 0
vt 0.4375 1
vt 0.0625 0
vt 0.4375 0
vt 0.4375 1
vt 0.0625 1
vt 0.0625 0
vt 0.4375 1
vt 0.0625 0
vt 0.4375 0
vt 0.4375 1
vt 0.65625 0
vt 0.96875 0
vt 0.65625 0.375
vt 0.96875 0
vt 0.96875 0.375
vt 0.65625 0.375
vt 0.65625 0
vt 0.96875 0
vt 0.65625 0.375
vt 0.96875 0
vt 0.96875 0.375
vt 0.65625 0.375
vt 0.03125 1
vt 0.03125 0
vt 0.46875 1
vt 0.03125 0
vt 0.46875 0
vt 0.46875 1
vt 0.03125 1
vt 0.03125 0
vt 0.46875 1
vt 0.03125 0
vt 0.46875 0
vt 0.46875 1
vn 0.8949343616020251 0.44619781310980877 0
vn 0.8949343616020251 0.44619781310980877 0
vn 0.8949343616020251 0.44619781310980877 0
vn 0.8949343616020251 0.44619781310980877 0
vn 0.8949343616020251 0.44619781310980877 0
vn 0.8949343616020251 0.44619781310980877 0
vn -0.8949343616020251 -0.44619781310980877 0
vn -0.8949343616020251 -0.44619781310980877 0
vn -0.8949343616020251 -0.44619781310980877 0
vn -0.8949343616020251 -0.44619781310980877 0
vn -0.8949343616020251 -0.44619781310980877 0
vn -0.8949343616020251 -0.44619781310980877 0
vn -0.44619781310980877 0.8949343616020251 0
vn -0.44619781310980877 0.8949343616020251 0
vn -0.44619781310980877 0.8949343616020251 0
vn -0.44619781310980877 0.8949343616020251 0
vn -0.44619781310980877 0.8949343616020251 0
vn -0.44619781310980877 0.8949343616020251 0
vn 0.44619781310980877 -0.8949343616020251 0
vn 0.44619781310980877 -0.8949343616020251 0
vn 0.44619781310980877 -0.8949343616020251 0
vn 0.44619781310980877 -0.8949343616020251 0
vn 0.44619781310980877 -0.8949343616020251 0
vn 0.44619781310980877 -0.8949343616020251 0
vn 0 0 1
vn 0 0 1
vn 0 0 1
vn 0 0 1
vn 0 0 1
vn 0 0 1
vn 0 0 -1
vn 0 0 -1
vn 0 0 -1
vn 0 0 -1
vn 0 0 -1
vn 0 0 -1
usemtl m_edge
f 25/91/91 27/92/92 26/93/93
f 27/94/94 28/95/95 26/96/96
usemtl m_edge
f 29/97/97 31/98/98 30/99/99
f 31/100/100 32/101/101 30/102/102
usemtl m_edge
f 29/103/103 30/104/104 26/105/105
f 30/106/106 25/107/107 26/108/108
usemtl m_edge
f 32/109/109 31/110/110 27/111/111
f 31/112/112 28/113/113 27/114/114
usemtl m_edge
f 30/115/115 32/116/116 25/117/117
f 32/118/118 27/119/119 25/120/120
usemtl m_edge
f 26/121/121 28/122/122 29/123/123
f 28/124/124 31/125/125 29/126/126
o cube
v 0.16237732051060128 0.8428353055877482 0.86328125
v 0.16237732051060128 0.8428353055877482 0.73828125
v 0.6643498602591362 -0.16396585121453003 0.86328125
v 0.6643498602591362 -0.16396585121453003 0.73828125
v 0.02254382651028486 0.7731168972893405 0.73828125
v 0.02254382651028486 0.7731168972893405 0.86328125
v 0.5245163662588197 -0.23368425951293764 0.73828125
v 0.5245163662588197 -0.23368425951293764 0.86328125
vt 0 0.78125
vt 1 0.78125
vt 0 0.90625
vt 1 0.78125
vt 1 0.90625
vt 0 0.90625
vt 0.875 0.34375
vt 1 0.34375
vt 0.875 0.5
vt 1 0.34375
vt 1 0.5
vt 0.875 0.5
vt 0 0.34375
vt 0.125 0.34375
vt 0 0.5
vt 0.125 0.34375
vt 0.125 0.5
vt 0 0.5
vt 1 0.90625
vt 0 0.90625
vt 1 0.75
vt 0 0.90625
vt 0 0.75
vt 1 0.75
vn -0.8949343616020251 -0.44619781310980877 0
vn -0.8949343616020251 -0.44619781310980877 0
vn -0.8949343616020251 -0.44619781310980877 0
vn -0.8949343616020251 -0.44619781310980877 0
vn -0.8949343616020251 -0.44619781310980877 0
vn -0.8949343616020251 -0.44619781310980877 0
vn -0.44619781310980877 0.8949343616020251 0
vn -0.44619781310980877 0.8949343616020251 0
vn -0.44619781310980877 0.8949343616020251 0
vn -0.44619781310980877 0.8949343616020251 0
vn -0.44619781310980877 0.8949343616020251 0
vn -0.44619781310980877 0.8949343616020251 0
vn 0.44619781310980877 -0.8949343616020251 0
vn 0.44619781310980877 -0.8949343616020251 0
vn 0.44619781310980877 -0.8949343616020251 0
vn 0.44619781310980877 -0.8949343616020251 0
vn 0.44619781310980877 -0.8949343616020251 0
vn 0.44619781310980877 -0.8949343616020251 0
vn 0 0 -1
vn 0 0 -1
vn 0 0 -1
vn 0 0 -1
vn 0 0 -1
vn 0 0 -1
usemtl m_edge_board
f 37/127/127 39/128/128 38/129/129
f 39/130/130 40/131/131 38/132/132
usemtl m_edge_board
f 37/133/133 38/134/134 34/135/135
f 38/136/136 33/137/137 34/138/138
usemtl m_edge_board
f 40/139/139 39/140/140 35/141/141
f 39/142/142 36/143/143 35/144/144
usemtl m_edge_board
f 34/145/145 36/146/146 37/147/147
f 36/148/148 39/149/149 37/150/150
o cube
v 0.16237732051060083 0.842835305587748 0.9921875
v 0.16237732051060083 0.842835305587748 0.86328125
v 0.6643498602591358 -0.16396585121453022 0.9921875
v 0.6643498602591358 -0.16396585121453022 0.86328125
v -0.2850898602904116 0.6197363990328436 0.86328125
v -0.2850898602904116 0.6197363990328436 0.9921875
v 0.21688267945812323 -0.3870647577694346 0.86328125
v 0.21688267945812323 -0.3870647577694346 0.9921875
vt 0 0.78125
vt 1 0.78125
vt 0 0.90625
vt 1 0.78125
vt 1 0.90625
vt 0 0.90625
vt 0.875 0
vt 1 0
vt 0.875 0.5
vt 1 0
vt 1 0.5
vt 0.875 0.5
vt 0 0
vt 0.125 0
vt 0 0.5
vt 0.125 0
vt 0.125 0.5
vt 0 0.5
vt 0 0
vt 1 0
vt 0 0.5
vt 1 0
vt 1 0.5
vt 0 0.5
vt 1 0.5
vt 0 0.5
vt 1 0
vt 0 0.5
vt 0 0
vt 1 0
vn -0.8949343616020251 -0.44619781310980877 0
vn -0.8949343616020251 -0.44619781310980877 0
vn -0.8949343616020251 -0.44619781310980877 0
vn -0.8949343616020251 -0.44619781310980877 0
vn -0.8949343616020251 -0.44619781310980877 0
vn -0.8949343616020251 -0.44619781310980877 0
vn -0.44619781310980877 0.8949343616020251 0
vn -0.44619781310980877 0.8949343616020251 0
vn -0.44619781310980877 0.8949343616020251 0
vn -0.44619781310980877 0.8949343616020251 0
vn -0.44619781310980877 0.8949343616020251 0
vn -0.44619781310980877 0.8949343616020251 0
vn 0.44619781310980877 -0.8949343616020251 0
vn 0.44619781310980877 -0.8949343616020251 0
vn 0.44619781310980877 -0.8949343616020251 0
vn 0.44619781310980877 -0.8949343616020251 0
vn 0.44619781310980877 -0.8949343616020251 0
vn 0.44619781310980877 -0.8949343616020251 0
vn 0 0 1
vn 0 0 1
vn 0 0 1
vn 0 0 1
vn 0 0 1
vn 0 0 1
vn 0 0 -1
vn 0 0 -1
vn 0 0 -1
vn 0 0 -1
vn 0 0 -1
vn 0 0 -1
usemtl m_edge_board
f 45/151/151 47/152/152 46/153/153
f 47/154/154 48/155/155 46/156/156
usemtl m_edge_board
f 45/157/157 46/158/158 42/159/159
f 46/160/160 41/161/161 42/162/162
usemtl m_edge_board
f 48/163/163 47/164/164 43/165/165
f 47/166/166 44/167/167 43/168/168
usemtl m_edge_board
f 46/169/169 48/170/170 41/171/171
f 48/172/172 43/173/173 41/174/174
usemtl m_edge_board
f 42/175/175 44/176/176 45/177/177
f 44/178/178 47/179/179 45/180/180
