# Made in Blockbench 3.7.4
mtllib mt_roof_hip_half_double.mtl
o cube
v 0.79744072306305 -0.16647140864050408 0.5267514083900748
v 0.6794221761776585 0.3048493369055851 0.40873286150468335
v 0.1308925324839721 -0.5002782678742752 -0.13979678218900296
v 0.012873985598580662 -0.028957522328186103 -0.2578153290743944
v 0.4142571332327032 0.3048493369055851 0.6738979044496387
v 0.5322756801180947 -0.16647140864050408 0.7919164513350301
v -0.25229105734637464 -0.02895752232818613 0.007349713870560881
v -0.1342725104609832 -0.5002782678742752 0.12536826075595237
vt 0 1
vt 0 0
vt 0.5 1
vt 0 0
vt 0.5 0
vt 0.5 1
vt 0 1
vt 0 0
vt 0.5 1
vt 0 0
vt 0.5 0
vt 0.5 1
vt 1 0
vt 1 0.5
vt 0.625 0
vt 1 0.5
vt 0.625 0.5
vt 0.625 0
vt 0.0625 1
vt 0.0625 0
vt 0.4375 1
vt 0.0625 0
vt 0.4375 0
vt 0.4375 1
vt 0.0625 1
vt 0.0625 0
vt 0.4375 1
vt 0.0625 0
vt 0.4375 0
vt 0.4375 1
vn 0.7071067811865476 -2.775557561562892e-17 -0.7071067811865476
vn 0.7071067811865476 -2.775557561562892e-17 -0.7071067811865476
vn 0.7071067811865476 -2.775557561562892e-17 -0.7071067811865476
vn 0.7071067811865476 -2.775557561562892e-17 -0.7071067811865476
vn 0.7071067811865476 -2.775557561562892e-17 -0.7071067811865476
vn 0.7071067811865476 -2.775557561562892e-17 -0.7071067811865476
vn -0.7071067811865476 2.775557561562892e-17 0.7071067811865476
vn -0.7071067811865476 2.775557561562892e-17 0.7071067811865476
vn -0.7071067811865476 2.775557561562892e-17 0.7071067811865476
vn -0.7071067811865476 2.775557561562892e-17 0.7071067811865476
vn -0.7071067811865476 2.775557561562892e-17 0.7071067811865476
vn -0.7071067811865476 2.775557561562892e-17 0.7071067811865476
vn -0.6665481905790779 -0.33380685923377124 -0.6665481905790779
vn -0.6665481905790779 -0.33380685923377124 -0.6665481905790779
vn -0.6665481905790779 -0.33380685923377124 -0.6665481905790779
vn -0.6665481905790779 -0.33380685923377124 -0.6665481905790779
vn -0.6665481905790779 -0.33380685923377124 -0.6665481905790779
vn -0.6665481905790779 -0.33380685923377124 -0.6665481905790779
vn 0.23603709377078297 -0.9426414910921784 0.2360370937707829
vn 0.23603709377078297 -0.9426414910921784 0.2360370937707829
vn 0.23603709377078297 -0.9426414910921784 0.2360370937707829
vn 0.23603709377078297 -0.9426414910921784 0.2360370937707829
vn 0.23603709377078297 -0.9426414910921784 0.2360370937707829
vn 0.23603709377078297 -0.9426414910921784 0.2360370937707829
vn -0.23603709377078297 0.9426414910921784 -0.2360370937707829
vn -0.23603709377078297 0.9426414910921784 -0.2360370937707829
vn -0.23603709377078297 0.9426414910921784 -0.2360370937707829
vn -0.23603709377078297 0.9426414910921784 -0.2360370937707829
vn -0.23603709377078297 0.9426414910921784 -0.2360370937707829
vn -0.23603709377078297 0.9426414910921784 -0.2360370937707829
usemtl m_0
f 1/1/1 3/2/2 2/3/3
f 3/4/4 4/5/5 2/6/6
usemtl m_0
f 5/7/7 7/8/8 6/9/9
f 7/10/10 8/11/11 6/12/12
usemtl m_0
f 8/13/13 7/14/14 3/15/15
f 7/16/16 4/17/17 3/18/18
usemtl m_0
f 6/19/19 8/20/20 1/21/21
f 8/22/22 3/23/23 1/24/24
usemtl m_0
f 2/25/25 4/26/26 5/27/27
f 4/28/28 7/29/29 5/30/30
o cube
v 1.1348807445437081 0.002518313846592568 0.8641914298707329
v 1.0168621976583165 0.47383905939268167 0.7461728829853415
v 0.79744072306305 -0.16647140864050408 0.5267514083900748
v 0.6794221761776585 0.3048493369055851 0.40873286150468335
v 0.7516971547133613 0.47383905939268167 1.0113379259302966
v 0.8697157015987527 0.002518313846592568 1.1293564728156882
v 0.4142571332327032 0.3048493369055851 0.6738979044496387
v 0.5322756801180947 -0.16647140864050408 0.7919164513350301
vt 0 0.75
vt 0 0.25
vt 0.5 0.75
vt 0 0.25
vt 0.5 0.25
vt 0.5 0.75
vt 0 0.75
vt 0 0.25
vt 0.5 0.75
vt 0 0.25
vt 0.5 0.25
vt 0.5 0.75
vt 0.625 0.5
vt 0.625 0
vt 1 0.5
vt 0.625 0
vt 1 0
vt 1 0.5
vt 0.0625 0.75
vt 0.0625 0.25
vt 0.4375 0.75
vt 0.0625 0.25
vt 0.4375 0.25
vt 0.4375 0.75
vt 0.0625 0.75
vt 0.0625 0.25
vt 0.4375 0.75
vt 0.0625 0.25
vt 0.4375 0.25
vt 0.4375 0.75
vn 0.7071067811865476 -2.775557561562892e-17 -0.7071067811865476
vn 0.7071067811865476 -2.775557561562892e-17 -0.7071067811865476
vn 0.7071067811865476 -2.775557561562892e-17 -0.7071067811865476
vn 0.7071067811865476 -2.775557561562892e-17 -0.7071067811865476
vn 0.7071067811865476 -2.775557561562892e-17 -0.7071067811865476
vn 0.7071067811865476 -2.775557561562892e-17 -0.7071067811865476
vn -0.7071067811865476 2.775557561562892e-17 0.7071067811865476
vn -0.7071067811865476 2.775557561562892e-17 0.7071067811865476
vn -0.7071067811865476 2.775557561562892e-17 0.7071067811865476
vn -0.7071067811865476 2.775557561562892e-17 0.7071067811865476
vn -0.7071067811865476 2.775557561562892e-17 0.7071067811865476
vn -0.7071067811865476 2.775557561562892e-17 0.7071067811865476
vn 0.6665481905790779 0.33380685923377124 0.6665481905790779
vn 0.6665481905790779 0.33380685923377124 0.6665481905790779
vn 0.6665481905790779 0.33380685923377124 0.6665481905790779
vn 0.6665481905790779 0.33380685923377124 0.6665481905790779
vn 0.6665481905790779 0.33380685923377124 0.6665481905790779
vn 0.6665481905790779 0.33380685923377124 0.6665481905790779
vn 0.23603709377078297 -0.9426414910921784 0.2360370937707829
vn 0.23603709377078297 -0.9426414910921784 0.2360370937707829
vn 0.23603709377078297 -0.9426414910921784 0.2360370937707829
vn 0.23603709377078297 -0.9426414910921784 0.2360370937707829
vn 0.23603709377078297 -0.9426414910921784 0.2360370937707829
vn 0.23603709377078297 -0.9426414910921784 0.2360370937707829
vn -0.23603709377078297 0.9426414910921784 -0.2360370937707829
vn -0.23603709377078297 0.9426414910921784 -0.2360370937707829
vn -0.23603709377078297 0.9426414910921784 -0.2360370937707829
vn -0.23603709377078297 0.9426414910921784 -0.2360370937707829
vn -0.23603709377078297 0.9426414910921784 -0.2360370937707829
vn -0.23603709377078297 0.9426414910921784 -0.2360370937707829
usemtl m_0
f 9/31/31 11/32/32 10/33/33
f 11/34/34 12/35/35 10/36/36
usemtl m_0
f 13/37/37 15/38/38 14/39/39
f 15/40/40 16/41/41 14/42/42
usemtl m_0
f 13/43/43 14/44/44 10/45/45
f 14/46/46 9/47/47 10/48/48
usemtl m_0
f 14/49/49 16/50/50 9/51/51
f 16/52/52 11/53/53 9/54/54
usemtl m_0
f 10/55/55 12/56/56 13/57/57
f 12/58/58 15/59/59 13/60/60
