# Made in Blockbench 3.7.4
mtllib mt_roof_ridge_outer.mtl
o cube
v 0.75 1 0.75
v 0.75 1 0
v 0.75 0.5 0.75
v 0.75 0.5 0
v 0.25 1 0
v 0.25 1 0.75
v 0.25 0.5 0
v 0.25 0.5 0.75
vt 0 0.25
vt 0.5 0.25
vt 0 1
vt 0.5 0.25
vt 0.5 1
vt 0 1
vt 0.5 1
vt 0 1
vt 0.5 0.25
vt 0 1
vt 0 0.25
vt 0.5 0.25
vt 0 1
vt 0 0.25
vt 0.5 1
vt 0 0.25
vt 0.5 0.25
vt 0.5 1
vt 0.5 1
vt 0.5 0.5
vt 1 1
vt 0.5 0.5
vt 1 0.5
vt 1 1
vt 0.5 1
vt 0.5 0.5
vt 1 1
vt 0.5 0.5
vt 1 0.5
vt 1 1
vn 1 0 0
vn 1 0 0
vn 1 0 0
vn 1 0 0
vn 1 0 0
vn 1 0 0
vn -1 0 0
vn -1 0 0
vn -1 0 0
vn -1 0 0
vn -1 0 0
vn -1 0 0
vn 0 1 0
vn 0 1 0
vn 0 1 0
vn 0 1 0
vn 0 1 0
vn 0 1 0
vn 0 0 1
vn 0 0 1
vn 0 0 1
vn 0 0 1
vn 0 0 1
vn 0 0 1
vn 0 0 -1
vn 0 0 -1
vn 0 0 -1
vn 0 0 -1
vn 0 0 -1
vn 0 0 -1
usemtl m_1
f 1/1/1 3/2/2 2/3/3
f 3/4/4 4/5/5 2/6/6
usemtl m_1
f 5/7/7 7/8/8 6/9/9
f 7/10/10 8/11/11 6/12/12
usemtl m_1
f 5/13/13 6/14/14 2/15/15
f 6/16/16 1/17/17 2/18/18
usemtl m_1
f 6/19/19 8/20/20 1/21/21
f 8/22/22 3/23/23 1/24/24
usemtl m_1
f 2/25/25 4/26/26 5/27/27
f 4/28/28 7/29/29 5/30/30
o cube
v 1 1 0.75
v 1 1 0.25
v 1 0.5 0.75
v 1 0.5 0.25
v 0.75 1 0.25
v 0.75 1 0.75
v 0.75 0.5 0.25
v 0.75 0.5 0.75
vt 0.5 1
vt 0.5 0.5
vt 1 1
vt 0.5 0.5
vt 1 0.5
vt 1 1
vt 0 0.75
vt 0.5 0.75
vt 0 1
vt 0.5 0.75
vt 0.5 1
vt 0 1
vt 0 0.75
vt 0.5 0.75
vt 0 1
vt 0.5 0.75
vt 0.5 1
vt 0 1
vt 0.5 1
vt 0 1
vt 0.5 0.75
vt 0 1
vt 0 0.75
vt 0.5 0.75
vn 1 0 0
vn 1 0 0
vn 1 0 0
vn 1 0 0
vn 1 0 0
vn 1 0 0
vn 0 1 0
vn 0 1 0
vn 0 1 0
vn 0 1 0
vn 0 1 0
vn 0 1 0
vn 0 0 1
vn 0 0 1
vn 0 0 1
vn 0 0 1
vn 0 0 1
vn 0 0 1
vn 0 0 -1
vn 0 0 -1
vn 0 0 -1
vn 0 0 -1
vn 0 0 -1
vn 0 0 -1
usemtl m_1
f 9/31/31 11/32/32 10/33/33
f 11/34/34 12/35/35 10/36/36
usemtl m_1
f 13/37/37 14/38/38 10/39/39
f 14/40/40 9/41/41 10/42/42
usemtl m_1
f 14/43/43 16/44/44 9/45/45
f 16/46/46 11/47/47 9/48/48
usemtl m_1
f 10/49/49 12/50/50 13/51/51
f 12/52/52 15/53/53 13/54/54
o cube
v 1 0.5 1
v 1 0.5 0
v 1 0 1
v 1 0 0
v 0 0.5 0
v 0 0.5 1
v 0 0 0
v 0 0 1
vt 0 0.5
vt 0 0
vt 1 0.5
vt 0 0
vt 1 0
vt 1 0.5
vt 0 0.5
vt 0 0
vt 1 0.5
vt 0 0
vt 1 0
vt 1 0.5
vt 1 1
vt 0 1
vt 1 0
vt 0 1
vt 0 0
vt 1 0
vt 0 1
vt 0 0
vt 1 1
vt 0 0
vt 1 0
vt 1 1
vt 0 0.5
vt 0 0
vt 1 0.5
vt 0 0
vt 1 0
vt 1 0.5
vt 0 0.5
vt 0 0
vt 1 0.5
vt 0 0
vt 1 0
vt 1 0.5
vn 1 0 0
vn 1 0 0
vn 1 0 0
vn 1 0 0
vn 1 0 0
vn 1 0 0
vn -1 0 0
vn -1 0 0
vn -1 0 0
vn -1 0 0
vn -1 0 0
vn -1 0 0
vn 0 1 0
vn 0 1 0
vn 0 1 0
vn 0 1 0
vn 0 1 0
vn 0 1 0
vn 0 -1 0
vn 0 -1 0
vn 0 -1 0
vn 0 -1 0
vn 0 -1 0
vn 0 -1 0
vn 0 0 1
vn 0 0 1
vn 0 0 1
vn 0 0 1
vn 0 0 1
vn 0 0 1
vn 0 0 -1
vn 0 0 -1
vn 0 0 -1
vn 0 0 -1
vn 0 0 -1
vn 0 0 -1
usemtl m_0
f 17/55/55 19/56/56 18/57/57
f 19/58/58 20/59/59 18/60/60
usemtl m_0
f 21/61/61 23/62/62 22/63/63
f 23/64/64 24/65/65 22/66/66
usemtl m_2
f 21/67/67 22/68/68 18/69/69
f 22/70/70 17/71/71 18/72/72
usemtl m_5
f 24/73/73 23/74/74 19/75/75
f 23/76/76 20/77/77 19/78/78
usemtl m_0
f 22/79/79 24/80/80 17/81/81
f 24/82/82 19/83/83 17/84/84
usemtl m_0
f 18/85/85 20/86/86 21/87/87
f 20/88/88 23/89/89 21/90/90
o cube
v 0.5033737127212865 0.9080989718456887 0.7617913302236679
v 0.6808148698280676 0.5497199524692518 0.5843501731168868
v -0.04644033250338253 0.36364946390309416 1.3116053754483368
v 0.13100082460339857 0.005270444526657259 1.1341642183415557
v 0.4156498268831128 0.5497199524692518 0.319185130171932
v 0.2382086697763317 0.9080989718456887 0.4966262872787131
v -0.13416421834155623 0.005270444526657259 0.8689991753966009
v -0.31160537544833744 0.36364946390309416 1.046440332503382
vt 0.0625 0.9375
vt 0.0625 0
vt 0.4375 0.9375
vt 0.0625 0
vt 0.4375 0
vt 0.4375 0.9375
vt 0.0625 0.9375
vt 0.0625 0
vt 0.4375 0.9375
vt 0.0625 0
vt 0.4375 0
vt 0.4375 0.9375
vt 0.625 0.4375
vt 0.625 0
vt 1 0.4375
vt 0.625 0
vt 1 0
vt 1 0.4375
vt 0.0625 0.9375
vt 0.0625 0
vt 0.4375 0.9375
vt 0.0625 0
vt 0.4375 0
vt 0.4375 0.9375
vt 0.0625 0.9375
vt 0.0625 0
vt 0.4375 0.9375
vt 0.0625 0
vt 0.4375 0
vt 0.4375 0.9375
vn 0.7071067811865475 0 0.7071067811865477
vn 0.7071067811865475 0 0.7071067811865477
vn 0.7071067811865475 0 0.7071067811865477
vn 0.7071067811865475 0 0.7071067811865477
vn 0.7071067811865475 0 0.7071067811865477
vn 0.7071067811865475 0 0.7071067811865477
vn -0.7071067811865475 0 -0.7071067811865477
vn -0.7071067811865475 0 -0.7071067811865477
vn -0.7071067811865475 0 -0.7071067811865477
vn -0.7071067811865475 0 -0.7071067811865477
vn -0.7071067811865475 0 -0.7071067811865477
vn -0.7071067811865475 0 -0.7071067811865477
vn -0.5792279653395692 -0.5735764363510463 0.5792279653395691
vn -0.5792279653395692 -0.5735764363510463 0.5792279653395691
vn -0.5792279653395692 -0.5735764363510463 0.5792279653395691
vn -0.5792279653395692 -0.5735764363510463 0.5792279653395691
vn -0.5792279653395692 -0.5735764363510463 0.5792279653395691
vn -0.5792279653395692 -0.5735764363510463 0.5792279653395691
vn -0.405579787672639 0.8191520442889917 0.40557978767263897
vn -0.405579787672639 0.8191520442889917 0.40557978767263897
vn -0.405579787672639 0.8191520442889917 0.40557978767263897
vn -0.405579787672639 0.8191520442889917 0.40557978767263897
vn -0.405579787672639 0.8191520442889917 0.40557978767263897
vn -0.405579787672639 0.8191520442889917 0.40557978767263897
vn 0.405579787672639 -0.8191520442889917 -0.40557978767263897
vn 0.405579787672639 -0.8191520442889917 -0.40557978767263897
vn 0.405579787672639 -0.8191520442889917 -0.40557978767263897
vn 0.405579787672639 -0.8191520442889917 -0.40557978767263897
vn 0.405579787672639 -0.8191520442889917 -0.40557978767263897
vn 0.405579787672639 -0.8191520442889917 -0.40557978767263897
usemtl m_1
f 25/91/91 27/92/92 26/93/93
f 27/94/94 28/95/95 26/96/96
usemtl m_1
f 29/97/97 31/98/98 30/99/99
f 31/100/100 32/101/101 30/102/102
usemtl m_1
f 32/103/103 31/104/104 27/105/105
f 31/106/106 28/107/107 27/108/108
usemtl m_1
f 30/109/109 32/110/110 25/111/111
f 32/112/112 27/113/113 25/114/114
usemtl m_1
f 26/115/115 28/116/116 29/117/117
f 28/118/118 31/119/119 29/120/120
