# Blender v2.82 (sub 7) OBJ File: ''
# www.blender.org
mtllib mt_steps_b_outer.mtl
o cube
v 1.005161 0.347656 0.338589
v 1.005161 0.222656 0.338589
v 1.005161 0.347656 0.026089
v 1.005161 0.222656 0.026089
v 0.344223 0.347656 0.026089
v 0.344223 0.222656 0.026089
v 0.344223 0.347656 0.338589
v 0.344223 0.222656 0.338589
vt 0.031250 0.687500
vt 0.156250 0.687500
vt 0.031250 1.000000
vt 0.156250 1.000000
vt 0.031250 0.687500
vt 0.156250 0.687500
vt 0.031250 1.000000
vt 0.156250 1.000000
vt 0.000000 0.007812
vt 0.312500 0.007812
vt 0.000000 1.000000
vt 0.312500 1.000000
vt 0.312500 1.000000
vt 0.000000 1.000000
vt 0.312500 0.007812
vt 0.000000 0.007812
vt 0.031250 0.000000
vt 0.156250 0.000000
vt 0.031250 1.000000
vt 0.156250 1.000000
vn 1.0000 0.0000 0.0000
vn -1.0000 0.0000 0.0000
vn 0.0000 1.0000 0.0000
vn 0.0000 -1.0000 -0.0000
vn 0.0000 0.0000 -1.0000
usemtl m_1
s 1
f 1/1/1 2/2/1 3/3/1
f 2/2/1 4/4/1 3/3/1
f 5/5/2 6/6/2 7/7/2
f 6/6/2 8/8/2 7/7/2
f 5/9/3 7/10/3 3/11/3
f 7/10/3 1/12/3 3/11/3
f 8/13/4 6/14/4 2/15/4
f 6/14/4 4/16/4 2/15/4
f 3/17/5 4/18/5 5/19/5
f 4/18/5 6/20/5 5/19/5
o cube.000
v 1.005161 0.678906 0.682339
v 1.005161 0.553906 0.682339
v 1.005161 0.678906 0.369839
v 1.005161 0.553906 0.369839
v 0.687973 0.678906 0.369839
v 0.687973 0.553906 0.369839
v 0.687973 0.678906 0.682339
v 0.687973 0.553906 0.682339
vt 0.343750 0.687500
vt 0.468750 0.687500
vt 0.343750 1.000000
vt 0.468750 1.000000
vt 0.343750 0.687500
vt 0.468750 0.687500
vt 0.343750 1.000000
vt 0.468750 1.000000
vt 0.343750 0.000000
vt 0.656250 0.000000
vt 0.656250 1.000000
vt 0.656250 1.000000
vt 0.343750 1.000000
vt 0.656250 0.000000
vt 0.343750 0.000000
vt 0.031250 0.000000
vt 0.156250 0.000000
vt 0.031250 1.000000
vt 0.156250 1.000000
vn 1.0000 0.0000 0.0000
vn -1.0000 -0.0000 0.0000
vn 0.0000 1.0000 0.0000
vn 0.0000 -1.0000 -0.0000
vn 0.0000 0.0000 -1.0000
usemtl m_1
s 1
f 9/21/6 10/22/6 11/23/6
f 10/22/6 12/24/6 11/23/6
f 13/25/7 14/26/7 15/27/7
f 14/26/7 16/28/7 15/27/7
f 13/29/8 15/30/8 11/23/8
f 15/30/8 9/31/8 11/23/8
f 16/32/9 14/33/9 10/34/9
f 14/33/9 12/35/9 10/34/9
f 11/36/10 12/37/10 13/38/10
f 12/37/10 14/39/10 13/38/10
o cube.001
v 1.001255 0.754615 1.111885
v 1.001255 -0.245278 0.111992
v 1.001255 0.997683 0.868817
v 1.001255 -0.002210 -0.131076
v 0.876255 0.997683 0.868817
v 0.876255 -0.002210 -0.131076
v 0.876255 0.754615 1.111885
v 0.876255 -0.245278 0.111992
vt 0.531250 1.000000
vt 0.531250 0.000000
vt 0.875000 1.000000
vt 0.875000 0.000000
vt 0.562500 1.000000
vt 0.562500 0.000000
vt 0.875000 1.000000
vt 0.875000 0.000000
vt 0.875000 0.000000
vt 0.875000 0.343750
vt 0.750000 0.000000
vt 0.750000 0.343750
vt 0.750000 1.000000
vt 0.750000 0.656250
vt 0.875000 1.000000
vt 0.875000 0.656250
vt 0.750000 1.000000
vt 0.750000 0.000000
vt 0.875000 1.000000
vt 0.875000 0.000000
vt 0.875000 0.000000
vt 0.875000 1.000000
vt 0.750000 0.000000
vt 0.750000 1.000000
vn 1.0000 0.0000 0.0000
vn -1.0000 0.0000 0.0000
vn 0.0000 0.7071 0.7071
vn 0.0000 -0.7071 -0.7071
vn 0.0000 -0.7071 0.7071
vn 0.0000 0.7071 -0.7071
usemtl m_3
s 1
f 17/40/11 18/41/11 19/42/11
f 18/41/11 20/43/11 19/42/11
f 21/44/12 22/45/12 23/46/12
f 22/45/12 24/47/12 23/46/12
f 21/48/13 23/49/13 19/50/13
f 23/49/13 17/51/13 19/50/13
f 24/52/14 22/53/14 18/54/14
f 22/53/14 20/55/14 18/54/14
f 23/56/15 24/57/15 17/58/15
f 24/57/15 18/59/15 17/58/15
f 19/60/16 20/61/16 21/62/16
f 20/61/16 22/63/16 21/62/16
o cube.002
v 0.026255 -0.149708 0.016422
v 0.026255 -0.061319 -0.071967
v 0.880161 -0.149708 0.016422
v 0.880161 -0.061319 -0.071967
v 0.880161 0.828088 0.994218
v 0.880161 0.916477 0.905830
v 0.026255 0.037318 0.026671
v 0.430529 0.453548 0.442901
vt 0.906250 0.000000
vt 0.906250 0.125000
vt 0.062500 0.000000
vt 0.062500 0.125000
vt 0.906250 1.000000
vt 0.062500 1.000000
vt 0.062500 0.000000
vt 0.062500 1.000000
vt 0.062500 0.000000
vt 0.506784 0.526559
vt 0.906250 0.000000
vt 0.906250 0.100878
vn 0.0000 -0.7071 -0.7071
vn 0.0000 -0.7071 0.7071
vn 0.0000 0.7071 -0.7071
usemtl m_1
s 1
f 25/64/17 26/65/17 27/66/17
f 26/65/17 28/67/17 27/66/17
f 25/68/18 27/69/18 29/70/18
f 30/71/19 28/72/19 32/73/19
f 28/72/19 26/74/19 31/75/19 32/73/19
o cube.003
v 0.031250 0.347656 0.026563
v 0.031250 0.222656 0.026563
v 0.031250 0.347656 1.000000
v 0.031250 0.222656 1.000000
v 0.343750 0.347656 0.026563
v 0.343750 0.347656 1.000000
v 0.343750 0.222656 1.000000
v 0.343750 0.222656 0.026563
vt 0.031250 0.000000
vt 0.156250 0.000000
vt 0.031250 1.000000
vt 0.156250 1.000000
vt 0.000000 1.000000
vt 0.000000 0.007812
vt 0.312500 1.000000
vt 0.312500 0.007812
vt 0.000000 1.000000
vt 0.000000 0.007812
vt 0.312500 1.000000
vt 0.312500 0.007812
vt 0.031250 0.687500
vt 0.156250 0.687500
vt 0.031250 1.000000
vt 0.156250 1.000000
vt 0.031250 0.687500
vt 0.156250 0.687500
vt 0.031250 1.000000
vt 0.156250 1.000000
vn -1.0000 -0.0000 0.0000
vn 0.0000 1.0000 0.0000
vn 0.0000 -1.0000 -0.0000
vn 0.0000 0.0000 1.0000
vn 0.0000 0.0000 -1.0000
usemtl m_1
s 1
f 33/76/20 34/77/20 35/78/20
f 34/77/20 36/79/20 35/78/20
f 33/80/21 35/81/21 37/82/21
f 35/81/21 38/83/21 37/82/21
f 36/84/22 34/85/22 39/86/22
f 34/85/22 40/87/22 39/86/22
f 35/88/23 36/89/23 38/90/23
f 36/89/23 39/91/23 38/90/23
f 37/92/24 40/93/24 33/94/24
f 40/93/24 34/95/24 33/94/24
o cube.004
v 0.375000 0.678906 0.370313
v 0.375000 0.553906 0.370313
v 0.375000 0.678906 1.000000
v 0.375000 0.553906 1.000000
v 0.687500 0.678906 0.370313
v 0.687500 0.678906 1.000000
v 0.687500 0.553906 1.000000
v 0.687500 0.553906 0.370313
vt 0.031250 0.000000
vt 0.156250 0.000000
vt 0.031250 1.000000
vt 0.156250 1.000000
vt 0.343750 1.000000
vt 0.343750 0.000000
vt 0.656250 1.000000
vt 0.656250 0.000000
vt 0.343750 1.000000
vt 0.343750 0.000000
vt 0.656250 1.000000
vt 0.656250 0.000000
vt 0.343750 0.687500
vt 0.468750 0.687500
vt 0.343750 1.000000
vt 0.468750 1.000000
vt 0.343750 0.687500
vt 0.468750 0.687500
vt 0.468750 1.000000
vn -1.0000 -0.0000 0.0000
vn 0.0000 1.0000 0.0000
vn 0.0000 -1.0000 -0.0000
vn 0.0000 0.0000 1.0000
vn 0.0000 0.0000 -1.0000
usemtl m_1
s 1
f 41/96/25 42/97/25 43/98/25
f 42/97/25 44/99/25 43/98/25
f 41/100/26 43/101/26 45/102/26
f 43/101/26 46/103/26 45/102/26
f 44/104/27 42/105/27 47/106/27
f 42/105/27 48/107/27 47/106/27
f 43/108/28 44/109/28 46/110/28
f 44/109/28 47/111/28 46/110/28
f 45/112/29 48/113/29 41/100/29
f 48/113/29 42/114/29 41/100/29
o cube.005
v 1.000000 1.003906 1.000000
v 1.000000 0.878906 1.000000
v 1.000000 1.003906 0.682031
v 1.000000 0.878906 0.682031
v 0.687500 1.003906 0.682031
v 0.687500 0.878906 0.682031
v 0.687500 1.003906 1.000000
v 0.687500 0.878906 1.000000
vt 0.531250 0.000000
vt 0.656250 0.000000
vt 0.531250 1.000000
vt 0.656250 1.000000
vt 0.531250 0.000000
vt 0.656250 0.000000
vt 0.531250 1.000000
vt 0.656250 1.000000
vt 0.687500 1.000000
vt 0.687500 0.000000
vt 1.000000 1.000000
vt 1.000000 0.000000
vt 0.687500 1.000000
vt 0.687500 0.000000
vt 1.000000 1.000000
vt 1.000000 0.000000
vt 0.718750 0.687500
vt 0.843750 0.687500
vt 0.718750 1.000000
vt 0.843750 1.000000
vt 0.718750 0.687500
vt 0.843750 0.687500
vt 0.718750 1.000000
vt 0.843750 1.000000
vn 1.0000 0.0000 0.0000
vn -1.0000 0.0000 0.0000
vn 0.0000 1.0000 0.0000
vn 0.0000 -1.0000 -0.0000
vn 0.0000 0.0000 1.0000
vn 0.0000 0.0000 -1.0000
usemtl m_1
s 1
f 49/115/30 50/116/30 51/117/30
f 50/116/30 52/118/30 51/117/30
f 53/119/31 54/120/31 55/121/31
f 54/120/31 56/122/31 55/121/31
f 53/123/32 55/124/32 51/125/32
f 55/124/32 49/126/32 51/125/32
f 56/127/33 54/128/33 50/129/33
f 54/128/33 52/130/33 50/129/33
f 55/131/34 56/132/34 49/133/34
f 56/132/34 50/134/34 49/133/34
f 51/135/35 52/136/35 53/137/35
f 52/136/35 54/138/35 53/137/35
o cube.006
v 1.117046 0.754615 0.996094
v 0.117153 -0.245278 0.996094
v 1.117046 0.754615 0.871094
v 0.117153 -0.245278 0.871094
v 0.873978 0.997683 0.871094
v -0.125915 -0.002210 0.871094
v 0.873978 0.997683 0.996094
v -0.125915 -0.002210 0.996094
vt 0.750000 1.000000
vt 0.750000 0.000000
vt 0.875000 1.000000
vt 0.875000 0.000000
vt 0.875000 0.000000
vt 0.875000 1.000000
vt 0.750000 0.000000
vt 0.750000 1.000000
vt 0.750000 0.000000
vt 0.875000 0.000000
vt 0.750000 0.343750
vt 0.875000 0.343750
vt 0.750000 0.656250
vt 0.875000 0.656250
vt 0.750000 1.000000
vt 0.875000 1.000000
vt 0.562500 1.000000
vt 0.562500 0.000000
vt 0.875000 1.000000
vt 0.875000 0.000000
vt 0.531250 1.000000
vt 0.531250 0.000000
vt 0.875000 1.000000
vt 0.875000 0.000000
vn 0.7071 -0.7071 -0.0000
vn -0.7071 0.7071 0.0000
vn 0.7071 0.7071 0.0000
vn -0.7071 -0.7071 -0.0000
vn 0.0000 -0.0000 1.0000
vn 0.0000 0.0000 -1.0000
usemtl m_3
s 1
f 57/139/36 58/140/36 59/141/36
f 58/140/36 60/142/36 59/141/36
f 61/143/37 62/144/37 63/145/37
f 62/144/37 64/146/37 63/145/37
f 61/147/38 63/148/38 59/149/38
f 63/148/38 57/150/38 59/149/38
f 64/151/39 62/152/39 58/153/39
f 62/152/39 60/154/39 58/153/39
f 63/155/40 64/156/40 57/157/40
f 64/156/40 58/158/40 57/157/40
f 59/159/41 60/160/41 61/161/41
f 60/160/41 62/162/41 61/161/41
o cube.007
v 0.999379 0.828088 0.875000
v 0.021583 -0.149708 0.875000
v 0.021583 -0.149708 0.021094
v 0.510481 0.339190 0.448047
v -0.066806 -0.061319 0.021094
v 0.910991 0.916477 0.875000
v -0.066806 -0.061320 0.875000
v 0.003496 0.008982 0.021094
vt 0.906250 0.000000
vt 0.906250 1.000000
vt 0.484375 0.500000
vt 0.062500 1.000000
vt 0.062500 0.000000
vt 0.906250 0.000000
vt 0.906250 1.000000
vt 0.906250 0.125000
vt 0.062500 0.125000
vt 0.906250 0.000000
vt 0.062500 0.000000
vt 0.062500 0.071898
vn 0.7071 -0.7071 -0.0000
vn -0.7071 0.7071 0.0000
vn -0.7071 -0.7071 -0.0000
usemtl m_1
s 1
f 65/163/42 66/164/42 68/165/42
f 66/164/42 67/166/42 68/165/42
f 69/167/43 71/168/43 70/169/43
f 71/170/44 69/171/44 66/172/44
f 69/171/44 67/173/44 66/172/44
f 70/169/43 72/174/43 69/167/43
o cube.008
v 1.041146 0.710808 0.947760
v 0.095376 -0.225734 0.001989
v 0.901728 0.992392 0.808342
v -0.044043 0.055849 -0.137429
v 0.813340 0.992392 0.896730
v -0.132431 0.055849 -0.049041
v 0.952758 0.710808 1.036148
v 0.006987 -0.225734 0.090377
vt 0.531250 1.000000
vt 0.531250 0.000000
vt 0.875000 1.000000
vt 0.875000 0.000000
vt 0.562500 1.000000
vt 0.562500 0.000000
vt 0.875000 1.000000
vt 0.875000 0.000000
vt 0.875000 0.000000
vt 0.875000 0.343750
vt 0.750000 0.000000
vt 0.750000 0.343750
vt 0.750000 1.000000
vt 0.750000 0.656250
vt 0.875000 1.000000
vt 0.875000 0.656250
vt 0.750000 1.000000
vt 0.750000 0.000000
vt 0.875000 1.000000
vt 0.875000 0.000000
vt 0.875000 0.000000
vt 0.875000 1.000000
vt 0.750000 0.000000
vt 0.750000 1.000000
vn 0.7071 0.0000 -0.7071
vn -0.7071 -0.0000 0.7071
vn 0.5792 0.5736 0.5792
vn -0.5792 -0.5736 -0.5792
vn 0.4056 -0.8192 0.4056
vn -0.4056 0.8192 -0.4056
usemtl m_3
s 1
f 73/175/45 74/176/45 75/177/45
f 74/176/45 76/178/45 75/177/45
f 77/179/46 78/180/46 79/181/46
f 78/180/46 80/182/46 79/181/46
f 77/183/47 79/184/47 75/185/47
f 79/184/47 73/186/47 75/185/47
f 80/187/48 78/188/48 74/189/48
f 78/188/48 76/190/48 74/189/48
f 79/191/49 80/192/49 73/193/49
f 80/192/49 74/194/49 73/193/49
f 75/195/50 76/196/50 77/197/50
f 76/196/50 78/198/50 77/197/50
