# Blender v2.82 (sub 7) OBJ File: ''
# www.blender.org
mtllib mt_steps_b_inner.mtl
o cube
v 0.380161 0.347656 0.338589
v 0.380161 0.222656 0.338589
v 0.380161 0.347656 0.026089
v 0.380161 0.222656 0.026089
v 0.005161 0.347656 0.026089
v 0.005161 0.222656 0.026089
v 0.005161 0.347656 0.338589
v 0.005161 0.222656 0.338589
vt 0.031250 0.687500
vt 0.156250 0.687500
vt 0.031250 1.000000
vt 0.156250 1.000000
vt 0.031250 0.687500
vt 0.156250 0.687500
vt 0.031250 1.000000
vt 0.156250 1.000000
vt 0.000000 0.625000
vt 0.312500 0.625000
vt 0.000000 1.000000
vt 0.312500 1.000000
vt 0.312500 1.000000
vt 0.000000 1.000000
vt 0.312500 0.007812
vt 0.000000 0.007812
vt 0.031250 0.625000
vt 0.156250 0.625000
vt 0.031250 1.000000
vt 0.156250 1.000000
vn 1.0000 0.0000 0.0000
vn -1.0000 -0.0000 0.0000
vn 0.0000 1.0000 0.0000
vn 0.0000 -1.0000 -0.0000
vn 0.0000 0.0000 -1.0000
usemtl m_1
s 1
f 1/1/1 2/2/1 3/3/1
f 2/2/1 4/4/1 3/3/1
f 5/5/2 6/6/2 7/7/2
f 6/6/2 8/8/2 7/7/2
f 5/9/3 7/10/3 3/11/3
f 7/10/3 1/12/3 3/11/3
f 8/13/4 6/14/4 2/15/4
f 6/14/4 4/16/4 2/15/4
f 3/17/5 4/18/5 5/19/5
f 4/18/5 6/20/5 5/19/5
o cube.000
v 0.723911 0.678906 0.682339
v 0.723911 0.553906 0.682339
v 0.723911 0.678906 0.369839
v 0.723911 0.553906 0.369839
v 0.005161 0.678906 0.369839
v 0.005161 0.553906 0.369839
v 0.005161 0.678906 0.682339
v 0.005161 0.553906 0.682339
vt 0.343750 0.687500
vt 0.468750 0.687500
vt 0.343750 1.000000
vt 0.468750 1.000000
vt 0.343750 0.687500
vt 0.468750 0.687500
vt 0.343750 1.000000
vt 0.468750 1.000000
vt 0.343750 0.281250
vt 0.656250 0.281250
vt 0.656250 1.000000
vt 0.656250 1.000000
vt 0.343750 1.000000
vt 0.656250 0.000000
vt 0.343750 0.000000
vt 0.031250 0.281250
vt 0.156250 0.281250
vt 0.031250 1.000000
vt 0.156250 1.000000
vn 1.0000 0.0000 0.0000
vn -1.0000 0.0000 0.0000
vn 0.0000 1.0000 0.0000
vn 0.0000 -1.0000 -0.0000
vn 0.0000 0.0000 -1.0000
usemtl m_1
s 1
f 9/21/6 10/22/6 11/23/6
f 10/22/6 12/24/6 11/23/6
f 13/25/7 14/26/7 15/27/7
f 14/26/7 16/28/7 15/27/7
f 13/29/8 15/30/8 11/23/8
f 15/30/8 9/31/8 11/23/8
f 16/32/9 14/33/9 10/34/9
f 14/33/9 12/35/9 10/34/9
f 11/36/10 12/37/10 13/38/10
f 12/37/10 14/39/10 13/38/10
o cube.001
v 0.134067 0.754615 1.111885
v 0.134067 -0.245278 0.111992
v 0.134067 0.997683 0.868817
v 0.134067 -0.002210 -0.131076
v 0.009067 0.997683 0.868817
v 0.009067 -0.002210 -0.131076
v 0.009067 0.754615 1.111885
v 0.009067 -0.245278 0.111992
vt 0.531250 1.000000
vt 0.531250 0.000000
vt 0.875000 1.000000
vt 0.875000 0.000000
vt 0.562500 1.000000
vt 0.562500 0.000000
vt 0.875000 1.000000
vt 0.875000 0.000000
vt 0.875000 0.000000
vt 0.875000 0.343750
vt 0.750000 0.000000
vt 0.750000 0.343750
vt 0.750000 1.000000
vt 0.750000 0.656250
vt 0.875000 1.000000
vt 0.875000 0.656250
vt 0.750000 1.000000
vt 0.750000 0.000000
vt 0.875000 1.000000
vt 0.875000 0.000000
vt 0.875000 0.000000
vt 0.875000 1.000000
vt 0.750000 0.000000
vt 0.750000 1.000000
vn 1.0000 0.0000 0.0000
vn -1.0000 0.0000 0.0000
vn 0.0000 0.7071 0.7071
vn 0.0000 -0.7071 -0.7071
vn 0.0000 -0.7071 0.7071
vn 0.0000 0.7071 -0.7071
usemtl m_3
s 1
f 17/40/11 18/41/11 19/42/11
f 18/41/11 20/43/11 19/42/11
f 21/44/12 22/45/12 23/46/12
f 22/45/12 24/47/12 23/46/12
f 21/48/13 23/49/13 19/50/13
f 23/49/13 17/51/13 19/50/13
f 24/52/14 22/53/14 18/54/14
f 22/53/14 20/55/14 18/54/14
f 23/56/15 24/57/15 17/58/15
f 24/57/15 18/59/15 17/58/15
f 19/60/16 20/61/16 21/62/16
f 20/61/16 22/63/16 21/62/16
o cube.002
v 0.130161 0.938574 0.927927
v 0.130161 0.850185 1.016315
v 0.973911 0.938574 0.927927
v 0.973911 0.850185 1.016315
v 0.130161 -0.061319 0.104810
v 0.130161 0.027069 0.016422
v 0.552036 0.482821 0.472174
vt 0.843750 0.875000
vt 0.843750 1.000000
vt 0.000000 0.875000
vt 0.000000 1.000000
vt 0.843750 0.000000
vt 0.843750 1.000000
vt 0.000000 0.000000
vt 0.421875 0.500000
vt 0.843750 1.000000
vt 0.000000 1.000000
vt 0.843750 0.000000
vn 0.0000 0.7071 0.7071
vn 0.0000 -0.7071 0.7071
vn 0.0000 0.7071 -0.7071
usemtl m_1
s 1
f 25/64/17 26/65/17 27/66/17
f 26/65/17 28/67/17 27/66/17
f 26/68/18 29/69/18 28/70/18
f 31/71/19 25/72/19 27/73/19
f 31/71/19 30/74/19 25/72/19
o cube.003
v 1.001255 1.003906 0.994839
v 1.001255 0.878906 0.994839
v 1.001255 1.003906 0.682339
v 1.001255 0.878906 0.682339
v 0.005161 1.003906 0.682339
v 0.005161 0.878906 0.682339
v 0.005161 1.003906 0.994839
v 0.005161 0.878906 0.994839
vt 0.531250 0.000000
vt 0.656250 0.000000
vt 0.531250 0.312500
vt 0.656250 0.312500
vt 0.718750 0.687500
vt 0.843750 0.687500
vt 0.718750 1.000000
vt 0.843750 1.000000
vt 0.687500 0.000000
vt 1.000000 0.000000
vt 0.687500 1.000000
vt 1.000000 1.000000
vt 1.000000 1.000000
vt 0.687500 1.000000
vt 1.000000 0.000000
vt 0.687500 0.000000
vt 0.531250 0.000000
vt 0.656250 0.000000
vt 0.531250 1.000000
vt 0.656250 1.000000
vt 0.531250 0.000000
vt 0.656250 0.000000
vt 0.531250 1.000000
vt 0.656250 1.000000
vn 1.0000 0.0000 0.0000
vn -1.0000 0.0000 0.0000
vn 0.0000 1.0000 0.0000
vn 0.0000 -1.0000 -0.0000
vn 0.0000 -0.0000 1.0000
vn 0.0000 0.0000 -1.0000
usemtl m_1
s 1
f 32/75/20 33/76/20 34/77/20
f 33/76/20 35/78/20 34/77/20
f 36/79/21 37/80/21 38/81/21
f 37/80/21 39/82/21 38/81/21
f 36/83/22 38/84/22 34/85/22
f 38/84/22 32/86/22 34/85/22
f 39/87/23 37/88/23 33/89/23
f 37/88/23 35/90/23 33/89/23
f 38/91/24 39/92/24 32/93/24
f 39/92/24 33/94/24 32/93/24
f 34/95/25 35/96/25 36/97/25
f 35/96/25 37/98/25 36/97/25
o cube.004
v 0.031250 0.347656 0.000000
v 0.031250 0.222656 0.000000
v 0.031250 0.347656 0.025781
v 0.031250 0.222656 0.025781
v 0.343750 0.347656 0.000000
v 0.343750 0.347656 0.025781
v 0.343750 0.222656 0.025781
v 0.343750 0.222656 0.000000
vt 0.031250 0.974219
vt 0.156250 0.974219
vt 0.031250 1.000000
vt 0.156250 1.000000
vt 0.000000 1.000000
vt 0.000000 0.974219
vt 0.312500 1.000000
vt 0.312500 0.974219
vt 0.000000 1.000000
vt 0.000000 0.007812
vt 0.312500 1.000000
vt 0.312500 0.007812
vt 0.031250 0.687500
vt 0.156250 0.687500
vt 0.031250 1.000000
vt 0.156250 1.000000
vt 0.031250 0.687500
vt 0.156250 0.687500
vt 0.031250 1.000000
vt 0.156250 1.000000
vn -1.0000 0.0000 0.0000
vn 0.0000 1.0000 0.0000
vn 0.0000 -1.0000 0.0000
vn 0.0000 -0.0000 1.0000
vn 0.0000 0.0000 -1.0000
usemtl m_1
s 1
f 40/99/26 41/100/26 42/101/26
f 41/100/26 43/102/26 42/101/26
f 40/103/27 42/104/27 44/105/27
f 42/104/27 45/106/27 44/105/27
f 43/107/28 41/108/28 46/109/28
f 41/108/28 47/110/28 46/109/28
f 42/111/29 43/112/29 45/113/29
f 43/112/29 46/114/29 45/113/29
f 44/115/30 47/116/30 40/117/30
f 47/116/30 41/118/30 40/117/30
o cube.005
v 0.375000 0.678906 0.000000
v 0.375000 0.553906 0.000000
v 0.375000 0.678906 0.369531
v 0.375000 0.553906 0.369531
v 0.687500 0.678906 0.000000
v 0.687500 0.678906 0.369531
v 0.687500 0.553906 0.369531
v 0.687500 0.553906 0.000000
vt 0.031250 0.630469
vt 0.156250 0.630469
vt 0.031250 1.000000
vt 0.156250 1.000000
vt 0.343750 1.000000
vt 0.343750 0.625000
vt 0.656250 1.000000
vt 0.656250 0.625000
vt 0.343750 1.000000
vt 0.343750 0.000000
vt 0.656250 1.000000
vt 0.656250 0.000000
vt 0.343750 0.687500
vt 0.468750 0.687500
vt 0.343750 1.000000
vt 0.468750 1.000000
vt 0.343750 0.687500
vt 0.468750 0.687500
vt 0.468750 1.000000
vn -1.0000 0.0000 0.0000
vn 0.0000 1.0000 0.0000
vn 0.0000 -1.0000 0.0000
vn 0.0000 -0.0000 1.0000
vn 0.0000 0.0000 -1.0000
usemtl m_1
s 1
f 48/119/31 49/120/31 50/121/31
f 49/120/31 51/122/31 50/121/31
f 48/123/32 50/124/32 52/125/32
f 50/124/32 53/126/32 52/125/32
f 51/127/33 49/128/33 54/129/33
f 49/128/33 55/130/33 54/129/33
f 50/131/34 51/132/34 53/133/34
f 51/132/34 54/134/34 53/133/34
f 52/135/35 55/136/35 48/123/35
f 55/136/35 49/137/35 48/123/35
o cube.006
v 1.000000 1.003906 0.682813
v 1.000000 0.878906 0.682813
v 1.000000 1.003906 0.000000
v 1.000000 0.878906 0.000000
v 0.687500 1.003906 0.000000
v 0.687500 0.878906 0.000000
v 0.687500 1.003906 0.682813
v 0.687500 0.878906 0.682813
vt 0.531250 0.312500
vt 0.656250 0.312500
vt 0.531250 1.000000
vt 0.656250 1.000000
vt 0.531250 0.317187
vt 0.656250 0.317187
vt 0.531250 1.000000
vt 0.656250 1.000000
vt 0.687500 1.000000
vt 0.687500 0.312500
vt 1.000000 1.000000
vt 1.000000 0.312500
vt 0.687500 1.000000
vt 0.687500 0.000000
vt 1.000000 1.000000
vt 1.000000 0.000000
vt 0.718750 0.687500
vt 0.843750 0.687500
vt 0.718750 1.000000
vt 0.843750 1.000000
vt 0.718750 0.687500
vt 0.843750 0.687500
vt 0.718750 1.000000
vt 0.843750 1.000000
vn 1.0000 0.0000 0.0000
vn -1.0000 -0.0000 0.0000
vn 0.0000 1.0000 0.0000
vn 0.0000 -1.0000 0.0000
vn 0.0000 -0.0000 1.0000
vn 0.0000 0.0000 -1.0000
usemtl m_1
s 1
f 56/138/36 57/139/36 58/140/36
f 57/139/36 59/141/36 58/140/36
f 60/142/37 61/143/37 62/144/37
f 61/143/37 63/145/37 62/144/37
f 60/146/38 62/147/38 58/148/38
f 62/147/38 56/149/38 58/148/38
f 63/150/39 61/151/39 57/152/39
f 61/151/39 59/153/39 57/152/39
f 62/154/40 63/155/40 56/156/40
f 63/155/40 57/157/40 56/156/40
f 58/158/41 59/159/41 60/160/41
f 59/159/41 61/161/41 60/160/41
o cube.007
v 1.117046 0.754616 0.128906
v 0.117153 -0.245278 0.128906
v 1.117046 0.754616 0.003906
v 0.117153 -0.245278 0.003906
v 0.873978 0.997683 0.003906
v -0.125915 -0.002210 0.003906
v 0.873978 0.997683 0.128906
v -0.125915 -0.002210 0.128906
vt 0.750000 1.000000
vt 0.750000 0.000000
vt 0.875000 1.000000
vt 0.875000 0.000000
vt 0.875000 0.000000
vt 0.875000 1.000000
vt 0.750000 0.000000
vt 0.750000 1.000000
vt 0.750000 0.000000
vt 0.875000 0.000000
vt 0.750000 0.343750
vt 0.875000 0.343750
vt 0.750000 0.656250
vt 0.875000 0.656250
vt 0.750000 1.000000
vt 0.875000 1.000000
vt 0.562500 1.000000
vt 0.562500 0.000000
vt 0.875000 1.000000
vt 0.875000 0.000000
vt 0.531250 1.000000
vt 0.531250 0.000000
vt 0.875000 1.000000
vt 0.875000 0.000000
vn 0.7071 -0.7071 0.0000
vn -0.7071 0.7071 0.0000
vn 0.7071 0.7071 0.0000
vn -0.7071 -0.7071 0.0000
vn 0.0000 -0.0000 1.0000
vn -0.0000 0.0000 -1.0000
usemtl m_3
s 1
f 64/162/42 65/163/42 66/164/42
f 65/163/42 67/165/42 66/164/42
f 68/166/43 69/167/43 70/168/43
f 69/167/43 71/169/43 70/168/43
f 68/170/44 70/171/44 66/172/44
f 70/171/44 64/173/44 66/172/44
f 71/174/45 69/175/45 65/176/45
f 69/175/45 67/177/45 65/176/45
f 70/178/46 71/179/46 64/180/46
f 71/179/46 65/181/46 64/180/46
f 66/182/47 67/183/47 68/184/47
f 67/183/47 69/185/47 68/184/47
o cube.008
v 1.021476 0.850185 0.968750
v 1.021476 0.850185 0.125000
v 0.109971 -0.061319 0.125000
v 0.933088 0.938574 0.125000
v 0.021583 0.027069 0.125000
v 0.933088 0.938574 0.968750
v 0.554342 0.383051 0.557411
v 0.977057 0.805766 0.968750
vt 0.968750 0.000000
vt 0.968750 0.048731
vt 0.125000 0.000000
vt 0.557411 0.512487
vt 0.125000 1.000000
vt 0.125000 0.000000
vt 0.968750 1.000000
vt 0.125000 0.875000
vt 0.968750 0.875000
vt 0.125000 1.000000
vt 0.968750 1.000000
vt 0.125000 1.000000
vn 0.7071 -0.7071 -0.0000
vn -0.7071 0.7071 0.0000
vn 0.7071 0.7071 0.0000
usemtl m_1
s 1
f 72/186/48 79/187/48 73/188/48
f 73/188/48 79/187/48 78/189/48
f 75/190/49 76/191/49 77/192/49
f 75/193/50 77/194/50 73/195/50
f 77/194/50 72/196/50 73/195/50
f 78/189/48 74/197/48 73/188/48
o cube.009
v 1.127387 0.773979 1.033675
v 0.145414 -0.198412 0.051702
v 1.051340 0.927570 0.957629
v 0.069368 -0.044821 -0.024344
v 0.962952 0.927570 1.046017
v -0.019020 -0.044821 0.064045
v 1.038998 0.773979 1.122063
v 0.057026 -0.198412 0.140091
vt 0.531250 1.000000
vt 0.531250 0.000000
vt 0.718750 1.000000
vt 0.718750 0.000000
vt 0.562500 1.000000
vt 0.562500 0.000000
vt 0.750000 1.000000
vt 0.750000 0.000000
vt 0.875000 0.156250
vt 0.875000 0.343750
vt 0.750000 0.156250
vt 0.750000 0.343750
vt 0.750000 1.000000
vt 0.750000 0.812500
vt 0.875000 1.000000
vt 0.875000 0.812500
vt 0.875000 1.000000
vt 0.875000 0.000000
vt 0.875000 0.000000
vt 0.875000 1.000000
vt 0.750000 0.000000
vt 0.750000 1.000000
vn 0.7071 0.0000 -0.7071
vn -0.7071 -0.0000 0.7071
vn 0.5792 0.5736 0.5792
vn -0.5792 -0.5736 -0.5792
vn 0.4056 -0.8192 0.4056
vn -0.4056 0.8192 -0.4056
usemtl m_3
s 1
f 80/198/51 81/199/51 82/200/51
f 81/199/51 83/201/51 82/200/51
f 84/202/52 85/203/52 86/204/52
f 85/203/52 87/205/52 86/204/52
f 84/206/53 86/207/53 82/208/53
f 86/207/53 80/209/53 82/208/53
f 87/210/54 85/211/54 81/212/54
f 85/211/54 83/213/54 81/212/54
f 86/204/55 87/205/55 80/214/55
f 87/205/55 81/215/55 80/214/55
f 82/216/56 83/217/56 84/218/56
f 83/217/56 85/219/56 84/218/56
