# Made in Blockbench 3.8.4
mtllib mt_taruki_b_outer.mtl
o cube
v 1.2298498644227327 1.2246233485883304 1.450820733543529
v 1.4508207335435288 1.2246233485883304 1.2298498644227331
v 1.2962970862888559 0.9265868014795094 1.5172679554096522
v 1.517267955409652 0.9265868014795094 1.296297086288856
v 0.37602804968296566 0.7453734806283954 0.15505718056216974
v 0.15505718056216966 0.7453734806283954 0.37602804968296577
v 0.44247527154908883 0.4473369335195742 0.2215044024282929
v 0.22150440242829278 0.4473369335195742 0.4424752715490889
vt 0.34375 1
vt 0.34375 0.6875
vt 0.65625 1
vt 0.34375 0.6875
vt 0.65625 0.6875
vt 0.65625 1
vt 0.34375 1
vt 0.34375 0.6875
vt 0.65625 1
vt 0.34375 0.6875
vt 0.65625 0.6875
vt 0.65625 1
vt 0.34375 0
vt 0.65625 0
vt 0.34375 1
vt 0.65625 0
vt 0.65625 1
vt 0.34375 1
vt 0.34375 0
vt 0.65625 0
vt 0.34375 1
vt 0.65625 0
vt 0.65625 1
vt 0.34375 1
vt 0.34375 0
vt 0.65625 0
vt 0.34375 1
vt 0.65625 0
vt 0.65625 1
vt 0.34375 1
vt 0.34375 0
vt 0.65625 0
vt 0.34375 1
vt 0.65625 0
vt 0.65625 1
vt 0.34375 1
vn 0.6743797232066278 0.300705799504273 0.6743797232066279
vn 0.6743797232066278 0.300705799504273 0.6743797232066279
vn 0.6743797232066278 0.300705799504273 0.6743797232066279
vn 0.6743797232066278 0.300705799504273 0.6743797232066279
vn 0.6743797232066278 0.300705799504273 0.6743797232066279
vn 0.6743797232066278 0.300705799504273 0.6743797232066279
vn -0.6743797232066278 -0.300705799504273 -0.6743797232066279
vn -0.6743797232066278 -0.300705799504273 -0.6743797232066279
vn -0.6743797232066278 -0.300705799504273 -0.6743797232066279
vn -0.6743797232066278 -0.300705799504273 -0.6743797232066279
vn -0.6743797232066278 -0.300705799504273 -0.6743797232066279
vn -0.6743797232066278 -0.300705799504273 -0.6743797232066279
vn -0.21263110997159382 0.9537169507482268 -0.21263110997159385
vn -0.21263110997159382 0.9537169507482268 -0.21263110997159385
vn -0.21263110997159382 0.9537169507482268 -0.21263110997159385
vn -0.21263110997159382 0.9537169507482268 -0.21263110997159385
vn -0.21263110997159382 0.9537169507482268 -0.21263110997159385
vn -0.21263110997159382 0.9537169507482268 -0.21263110997159385
vn 0.21263110997159382 -0.9537169507482268 0.21263110997159385
vn 0.21263110997159382 -0.9537169507482268 0.21263110997159385
vn 0.21263110997159382 -0.9537169507482268 0.21263110997159385
vn 0.21263110997159382 -0.9537169507482268 0.21263110997159385
vn 0.21263110997159382 -0.9537169507482268 0.21263110997159385
vn 0.21263110997159382 -0.9537169507482268 0.21263110997159385
vn -0.7071067811865476 0 0.7071067811865475
vn -0.7071067811865476 0 0.7071067811865475
vn -0.7071067811865476 0 0.7071067811865475
vn -0.7071067811865476 0 0.7071067811865475
vn -0.7071067811865476 0 0.7071067811865475
vn -0.7071067811865476 0 0.7071067811865475
vn 0.7071067811865476 0 -0.7071067811865475
vn 0.7071067811865476 0 -0.7071067811865475
vn 0.7071067811865476 0 -0.7071067811865475
vn 0.7071067811865476 0 -0.7071067811865475
vn 0.7071067811865476 0 -0.7071067811865475
vn 0.7071067811865476 0 -0.7071067811865475
usemtl m_2
f 1/1/1 3/2/2 2/3/3
f 3/4/4 4/5/5 2/6/6
usemtl m_3
f 5/7/7 7/8/8 6/9/9
f 7/10/10 8/11/11 6/12/12
usemtl m_2
f 5/13/13 6/14/14 2/15/15
f 6/16/16 1/17/17 2/18/18
usemtl m_2
f 8/19/19 7/20/20 3/21/21
f 7/22/22 4/23/23 3/24/24
usemtl m_2
f 6/25/25 8/26/26 1/27/27
f 8/28/28 3/29/29 1/30/30
usemtl m_2
f 2/31/31 4/32/32 5/33/33
f 4/34/34 7/35/35 5/36/36
o cube
v 1 1 1
v 1 1 0.28515625
v 1 0.7937500000000001 1
v 1 0.7937500000000001 0.28515625
v 0.28515625 1 0.28515625
v 0.28515625 1 1
v 0.28515625 0.7937500000000001 0.28515625
v 0.28515625 0.7937500000000001 1
vt 0.53125 0.28125
vt 0.7374999999999999 0.28125
vt 0.53125 1
vt 0.7374999999999999 0.28125
vt 0.7374999999999999 1
vt 0.53125 1
vt 0.53125 0.28125
vt 0.7374999999999999 0.28125
vt 0.53125 1
vt 0.7374999999999999 0.28125
vt 0.7374999999999999 1
vt 0.53125 1
vt 0.28125 0
vt 1 0
vt 0.28125 0.71875
vt 1 0
vt 1 0.71875
vt 0.28125 0.71875
vt 0.28125 0
vt 1 0
vt 0.28125 0.71875
vt 1 0
vt 1 0.71875
vt 0.28125 0.71875
vt 0.53125 0.28125
vt 0.7374999999999999 0.28125
vt 0.53125 1
vt 0.7374999999999999 0.28125
vt 0.7374999999999999 1
vt 0.53125 1
vt 0.53125 0.28125
vt 0.7374999999999999 0.28125
vt 0.53125 1
vt 0.7374999999999999 0.28125
vt 0.7374999999999999 1
vt 0.53125 1
vn 1 0 0
vn 1 0 0
vn 1 0 0
vn 1 0 0
vn 1 0 0
vn 1 0 0
vn -1 0 0
vn -1 0 0
vn -1 0 0
vn -1 0 0
vn -1 0 0
vn -1 0 0
vn 0 1 0
vn 0 1 0
vn 0 1 0
vn 0 1 0
vn 0 1 0
vn 0 1 0
vn 0 -1 0
vn 0 -1 0
vn 0 -1 0
vn 0 -1 0
vn 0 -1 0
vn 0 -1 0
vn 0 0 1
vn 0 0 1
vn 0 0 1
vn 0 0 1
vn 0 0 1
vn 0 0 1
vn 0 0 -1
vn 0 0 -1
vn 0 0 -1
vn 0 0 -1
vn 0 0 -1
vn 0 0 -1
usemtl m_2
f 9/37/37 11/38/38 10/39/39
f 11/40/40 12/41/41 10/42/42
usemtl m_2
f 13/43/43 15/44/44 14/45/45
f 15/46/46 16/47/47 14/48/48
usemtl m_2
f 13/49/49 14/50/50 10/51/51
f 14/52/52 9/53/53 10/54/54
usemtl m_2
f 16/55/55 15/56/56 11/57/57
f 15/58/58 12/59/59 11/60/60
usemtl m_2
f 14/61/61 16/62/62 9/63/63
f 16/64/64 11/65/65 9/66/66
usemtl m_2
f 10/67/67 12/68/68 13/69/69
f 12/70/70 15/71/71 13/72/72
o cube
v 0.8301954557288066 0.9457063730991372 0.84375
v 0.8301954557288066 0.9457063730991372 0.65625
v 0.9019485992972609 0.7724789607532709 0.84375
v 0.9019485992972609 0.7724789607532709 0.65625
v 0.25277074790925236 0.7065292278709561 0.65625
v 0.25277074790925236 0.7065292278709561 0.84375
v 0.32452389147770666 0.5333018155250898 0.65625
v 0.32452389147770666 0.5333018155250898 0.84375
vt 0.40625 0.96875
vt 0.40625 0.78125
vt 0.59375 0.96875
vt 0.40625 0.78125
vt 0.59375 0.78125
vt 0.59375 0.96875
vt 0.40625 0.375
vt 0.59375 0.375
vt 0.40625 1
vt 0.59375 0.375
vt 0.59375 1
vt 0.40625 1
vt 0.40625 0.375
vt 0.59375 0.375
vt 0.40625 1
vt 0.59375 0.375
vt 0.59375 1
vt 0.40625 1
vt 0.25 0.375
vt 0.4375 0.375
vt 0.25 1
vt 0.4375 0.375
vt 0.4375 1
vt 0.25 1
vt 0.25 0.375
vt 0.4375 0.375
vt 0.25 1
vt 0.4375 0.375
vt 0.4375 1
vt 0.25 1
vn -0.9238795325112867 -0.3826834323650897 0
vn -0.9238795325112867 -0.3826834323650897 0
vn -0.9238795325112867 -0.3826834323650897 0
vn -0.9238795325112867 -0.3826834323650897 0
vn -0.9238795325112867 -0.3826834323650897 0
vn -0.9238795325112867 -0.3826834323650897 0
vn -0.3826834323650897 0.9238795325112867 0
vn -0.3826834323650897 0.9238795325112867 0
vn -0.3826834323650897 0.9238795325112867 0
vn -0.3826834323650897 0.9238795325112867 0
vn -0.3826834323650897 0.9238795325112867 0
vn -0.3826834323650897 0.9238795325112867 0
vn 0.3826834323650897 -0.9238795325112867 0
vn 0.3826834323650897 -0.9238795325112867 0
vn 0.3826834323650897 -0.9238795325112867 0
vn 0.3826834323650897 -0.9238795325112867 0
vn 0.3826834323650897 -0.9238795325112867 0
vn 0.3826834323650897 -0.9238795325112867 0
vn 0 0 1
vn 0 0 1
vn 0 0 1
vn 0 0 1
vn 0 0 1
vn 0 0 1
vn 0 0 -1
vn 0 0 -1
vn 0 0 -1
vn 0 0 -1
vn 0 0 -1
vn 0 0 -1
usemtl m_3
f 21/73/73 23/74/74 22/75/75
f 23/76/76 24/77/77 22/78/78
usemtl m_2
f 21/79/79 22/80/80 18/81/81
f 22/82/82 17/83/83 18/84/84
usemtl m_2
f 24/85/85 23/86/86 19/87/87
f 23/88/88 20/89/89 19/90/90
usemtl m_2
f 22/91/91 24/92/92 17/93/93
f 24/94/94 19/95/95 17/96/96
usemtl m_2
f 18/97/97 20/98/98 21/99/99
f 20/100/100 23/101/101 21/102/102
o cube
v 0.84375 0.9457063730991372 0.8301954557288065
v 0.84375 0.7065292278709561 0.25277074790925236
v 0.84375 0.7724789607532709 0.9019485992972609
v 0.84375 0.5333018155250899 0.32452389147770666
v 0.65625 0.7065292278709561 0.25277074790925236
v 0.65625 0.9457063730991372 0.8301954557288065
v 0.65625 0.5333018155250899 0.32452389147770666
v 0.65625 0.7724789607532709 0.9019485992972609
vt 0.25 0.375
vt 0.4375 0.375
vt 0.25 1
vt 0.4375 0.375
vt 0.4375 1
vt 0.25 1
vt 0.25 0.375
vt 0.4375 0.375
vt 0.25 1
vt 0.4375 0.375
vt 0.4375 1
vt 0.25 1
vt 0.59375 0.375
vt 0.59375 1
vt 0.40625 0.375
vt 0.59375 1
vt 0.40625 1
vt 0.40625 0.375
vt 0.40625 1
vt 0.40625 0.375
vt 0.59375 1
vt 0.40625 0.375
vt 0.59375 0.375
vt 0.59375 1
vt 0.40625 0.96875
vt 0.40625 0.78125
vt 0.59375 0.96875
vt 0.40625 0.78125
vt 0.59375 0.78125
vt 0.59375 0.96875
vn 1 0 0
vn 1 0 0
vn 1 0 0
vn 1 0 0
vn 1 0 0
vn 1 0 0
vn -1 0 0
vn -1 0 0
vn -1 0 0
vn -1 0 0
vn -1 0 0
vn -1 0 0
vn 0 0.9238795325112867 -0.3826834323650897
vn 0 0.9238795325112867 -0.3826834323650897
vn 0 0.9238795325112867 -0.3826834323650897
vn 0 0.9238795325112867 -0.3826834323650897
vn 0 0.9238795325112867 -0.3826834323650897
vn 0 0.9238795325112867 -0.3826834323650897
vn 0 -0.9238795325112867 0.3826834323650897
vn 0 -0.9238795325112867 0.3826834323650897
vn 0 -0.9238795325112867 0.3826834323650897
vn 0 -0.9238795325112867 0.3826834323650897
vn 0 -0.9238795325112867 0.3826834323650897
vn 0 -0.9238795325112867 0.3826834323650897
vn 0 -0.3826834323650897 -0.9238795325112867
vn 0 -0.3826834323650897 -0.9238795325112867
vn 0 -0.3826834323650897 -0.9238795325112867
vn 0 -0.3826834323650897 -0.9238795325112867
vn 0 -0.3826834323650897 -0.9238795325112867
vn 0 -0.3826834323650897 -0.9238795325112867
usemtl m_2
f 25/103/103 27/104/104 26/105/105
f 27/106/106 28/107/107 26/108/108
usemtl m_2
f 29/109/109 31/110/110 30/111/111
f 31/112/112 32/113/113 30/114/114
usemtl m_2
f 29/115/115 30/116/116 26/117/117
f 30/118/118 25/119/119 26/120/120
usemtl m_2
f 32/121/121 31/122/122 27/123/123
f 31/124/124 28/125/125 27/126/126
usemtl m_3
f 26/127/127 28/128/128 29/129/129
f 28/130/130 31/131/131 29/132/132
